<?xml version="1.0" encoding="utf-8"?>
<!-- Generator: Adobe Illustrator 24.1.2, SVG Export Plug-In . SVG Version: 6.00 Build 0)  -->
<svg version="1.1" xmlns="http://www.w3.org/2000/svg" xmlns:xlink="http://www.w3.org/1999/xlink" x="0px" y="0px"
	 viewBox="0 0 720 532.8" style="enable-background:new 0 0 720 532.8;" xml:space="preserve">
<style type="text/css">
	.st0{fill:#FFFFFF;}
</style>
<g id="Layer_2">
</g>
<g id="Layer_1">
	<g>
		<g id="XMLID_1_">
			<g>
				<path class="st0" d="M661.18,259.59c3.39-2.98,6.11-6.52,8.38-10.42c1.19-2.05,2.46-4.06,3.96-5.96
					c-1.87,7.38-5.02,14.25-7.69,21.47c-3.52-0.22-6.66-0.43-9.94-0.64c0.29-1.31,1.11-1.71,1.94-2.19
					C659,261.19,660.17,260.47,661.18,259.59z"/>
				<path class="st0" d="M643.67,240.57c4.35-2.8,7.85-6.53,11.25-10.35c2.92-3.28,5.78-6.6,8.67-9.91
					c5.49-6.29,8.24-13.75,9.33-21.92c0.05-0.39,0.08-0.79,0.13-1.18c0.01-0.07,0.06-0.14,0.09-0.21c0.18,0.01,0.35,0.01,0.53,0.02
					c2.31,11.34,3.01,22.78,1.75,34.59c-4.75,1.13-9.52,2.14-12.36,6.63c-0.74-0.33-1.3-0.61-1.88-0.82
					c-1.88-0.66-3.65-0.59-5.54,0.3c-2.66,1.25-5.43,2.27-8.21,3.18c-1.32,0.44-2.78,0.4-4.58,0.63
					C643.3,241,643.44,240.72,643.67,240.57z"/>
				<path class="st0" d="M632.46,218.53c0.51-0.98,0.75-1.53,1.06-2.03c2.17-3.44,4.27-6.94,6.56-10.3
					c2.24-3.29,3.97-6.73,4.23-10.77c0.02-0.4,0.2-0.78,0.24-1.18c0.41-4.49,2.14-8.15,6.33-9.98c-0.75-2.56-1.46-4.95-2.18-7.41
					c0.77-0.4,1.3-0.73,1.87-0.98c3.7-1.68,5.57-4.66,6.03-8.58c0.31-2.69,0.46-5.39,0.7-8.35c0.46,0.41,0.92,0.67,1.18,1.07
					c1.01,1.53,2.03,3.06,2.93,4.66c3.57,6.34,6.52,12.96,8.89,19.85c0.33,0.97,0.59,1.97,0.92,3.1c-2.99,2.86-6.3,5.12-10.44,6.41
					c0.95,4.44-0.22,8.2-3.08,11.76c-2.21-0.17-4.35-0.34-6.63-0.52c-0.64,1.31-1.2,2.72-1.98,3.98c-0.75,1.19-1.52,2.56-2.65,3.28
					C642.27,215.22,637.56,216.69,632.46,218.53z"/>
				<path class="st0" d="M645.75,300.92c1.55,0.66,3.05,1.31,4.91,2.12c-1.4,2.17-2.6,4.01-3.83,5.91
					C645.46,306.99,645.11,304.36,645.75,300.92z"/>
				<path class="st0" d="M622.59,335.32c-1.01-1.28-1.88-2.37-2.74-3.49c-0.87-1.13-1.72-2.28-2.73-3.61
					c1.64-5.87,3.31-11.83,5.02-17.94c1.04,1.53,5.25,14.64,5.74,17.76C626.24,330.3,624.52,332.67,622.59,335.32z"/>
				<path class="st0" d="M640.52,164.74c0.43-1.91,1.23-3.65,2.09-5.37c0.45-1.02,0.92-2.04,1.44-3.03
					c0.04-0.07,0.09-0.13,0.13-0.19c0.26-0.56,0.5-1.13,0.72-1.72c0.94-2.53,1.87-5.05,3.82-6.97c-0.3-0.43-0.54-0.79-0.83-1.1
					c-8.21-9.13-17.28-17.3-27.14-24.61c-0.53-0.39-1.16-0.65-2.07-1.13c-0.4,3.15-0.7,5.92-1.13,8.67
					c-0.32,2.07,0.06,3.95,1.02,5.79c0.55,1.05,1.01,2.18,1.34,3.32c0.61,2.13,0.38,4.11-1.34,5.74c-2.86,2.71-3.26,6.09-2.52,9.73
					c0.45,2.19,1.05,4.34,1.5,6.53c0.71,3.54,0.33,6.84-2.19,9.66c-0.69,0.78-1.26,1.67-1.96,2.43c-1.53,1.66-2.34,3.61-2.49,5.83
					c-0.17,2.39-0.32,4.79-0.32,7.18c-0.01,4.68-0.48,9.21-2.73,13.47c-1.07,2.03-1.38,4.39-1.65,7.18
					c4.27-3.38,7.71-6.78,10.41-10.89c2.32-3.54,4.6-7.11,6.94-10.64c3.04-4.59,6.97-8.09,12.29-9.85c0.52-0.17,0.99-0.48,1.61-0.79
					c0.29-0.86,0.6-1.76,0.89-2.66c0.72-2.18,1.42-4.37,2.17-6.54C640.52,164.77,640.51,164.76,640.52,164.74z"/>
				<path class="st0" d="M606.02,111.76c-13.39-9.66-27.63-17.08-42.99-23.04c0.42,2.15,0.75,3.95,1.14,5.73
					c0.21,0.95,0.39,1.9,0.54,2.85c0.01,0.02,0.01,0.04,0.02,0.07c0.02,0.05,0.02,0.1,0.02,0.15c0.55,3.46,0.68,6.93-0.28,10.45
					c-0.38,1.42-0.02,2.78,0.7,4.13c1.04,1.95,1.8,4.04,2.63,5.95c-0.96,2.01-1.71,3.77-2.62,5.45c-1.76,3.25-2.13,6.65-1.33,10.21
					c0.43,1.95,0.88,3.89,1.27,5.85c0.49,2.4-0.11,4.59-1.45,6.6c-0.53,0.79-1.09,1.58-1.71,2.3c-2.81,3.23-2.98,6.93-1.99,10.83
					c0.74,2.94,1.52,5.87,2.35,8.79c1.69,6,1.38,11.84-1.28,17.52c-0.22,0.47-0.37,0.98-0.56,1.47c4.24-3.02,8.21-6.19,10.88-10.68
					c1.32-2.22,2.47-4.51,2.55-7.13c0.12-4.39,2.31-7.58,5.71-10.02c0.22-0.16,0.43-0.32,0.64-0.48c3.51-3.34,6.19-7.33,9.27-11.14
					c2.57-3.17,5.63-5.9,8.36-8.91c0.77-1.1,1.62-2.11,2.53-3.08c0.22-0.29,0.44-0.58,0.65-0.88c0.11-0.16,0.27-0.22,0.43-0.22
					c0.58-0.54,1.18-1.06,1.81-1.54c-0.06-1.04-0.07-1.92-0.17-2.78c-0.22-2.07-0.47-4.13-0.72-6.19c-0.35-2.84-0.09-5.54,1.5-8.06
					C604.76,114.64,605.33,113.16,606.02,111.76z"/>
				<path class="st0" d="M649.41,269.15c6.29,1.96,22.13,4.83,24.94,4.59C671.21,272.4,653.33,269.03,649.41,269.15z M630.91,265.41
					c15.57,8.78,31.84,15.6,49.75,17.88C663.77,278.19,646.75,273.45,630.91,265.41z M650.76,282.16
					c9.14,5.45,18.96,9.44,29.12,12.59c0.41,0.13,0.87,0.13,1.31,0.19c-20.31-8.46-39.5-18.9-57.95-30.75
					c-0.08,0.13-0.17,0.27-0.26,0.4c0.6,0.45,1.17,0.95,1.81,1.35C633.43,271.37,641.99,276.94,650.76,282.16z M598.92,249.23
					c1.44-1.72,3.19-2.32,5.34-1.62c2.32,0.76,4.63,1.56,6.86,2.55c1.34,0.58,2.66,1.24,3.93,1.98c7.74,4.52,15.89,8.18,24.3,11.28
					c4.23,1.56,8.62,2.33,13.07,2.8c6.03,0.65,12.08,1.17,18.09,1.99c2.26,0.31,4.48,1.16,6.61,2.01c2.43,0.97,4.09,2.74,4.51,5.46
					c0.12,0.76,0.32,1.48,0.72,2.1c0.24,0.37,0.55,0.7,0.95,0.98c2.34,1.6,3.5,3.66,2.57,6.55c-0.12,0.37-0.08,0.79-0.12,1.27
					c-0.56,0.2-0.9,0.33-1.32,0.48c1.69,1.78,3.88,3.01,4.74,5.4c-0.49,3.49-3.3,5.12-5.82,7.2c0.46,0.24,0.76,0.5,1.1,0.57
					c2.52,0.53,4.19,2.09,4.92,4.44c1.19,3.87,2.16,7.8,3.35,12.18c-2.81-0.56-5.23-0.96-7.6-1.54c-1.61-0.39-3.18-0.88-4.73-1.44
					c-3.4-1.23-6.67-2.78-9.92-4.4c-8.15-4.05-16.23-8.23-24.21-12.28c0-2.62,0-4.9,0-7.46c11.97,7.61,25.03,12.87,38.19,17.91
					c0.08-0.17,0.16-0.33,0.24-0.5c-0.74-0.37-1.49-0.73-2.22-1.11c-17.07-8.76-33.88-17.99-49.73-28.84
					c-7.86-5.38-15.14-11.52-22.21-17.9c-1.27-1.15-2.57-2.26-4.06-3.57c0.96,1.67,2.05,2.99,3.32,4.13
					c7.75,6.93,15.13,14.27,23.48,20.51c0.49,0.37,0.93,0.81,1.65,1.44c-2.62,0.79-4.94,1.52-7.29,2.17
					c-0.5,0.14-1.13,0.09-1.62-0.07c-2.26-0.76-4.5-1.5-6.38-3.14c-2.05-1.78-4.39-3.2-6.53-4.88c-3.95-3.12-7.94-6.2-11.74-9.49
					c-2.89-2.49-4.41-5.85-4.88-9.63C596.13,253.9,597.1,251.42,598.92,249.23z"/>
				<path class="st0" d="M593.55,353.41c-0.06-11.07-0.66-22.19-0.64-33.39l1.42,0.01c4.91,1.03,8.76,3.68,11.88,7.37
					c-0.2,0.8-0.35,1.41-0.5,2.03c-1.72,7.07-3.57,14.11-7.03,20.57c-0.94,1.77-2.23,3.35-3.41,4.99L593.55,353.41z"/>
				<path class="st0" d="M534.26,365.71c3.29-2.67,7.18-3.26,11.21-3.58c0.79,0.58,1.55,1.13,2.63,1.92
					c-1.3,0.98-2.38,2.03-3.66,2.74c-0.33,0.19-0.66,0.37-1,0.55c-2.31,1.28-4.66,2.51-7.08,3.78c-1.08,0.57-2.18,1.14-3.29,1.73
					C533.47,370.45,533.86,368.1,534.26,365.71z"/>
				<path class="st0" d="M538.58,272.81c-2.75-2.66-6.34-3.11-9.86-3.79c-6.8-1.31-13.6-2.67-20.86-4.1
					c-1.08-1.19-2.46-2.72-3.79-4.18c3.07-0.68,32.84,5.33,37.61,7.72c-0.82,1.51-1.63,3.01-2.41,4.44
					C538.88,272.86,538.67,272.9,538.58,272.81z"/>
				<path class="st0" d="M529.08,411c11.96-13.25,20.52-28.37,25.4-45.73c0.99,0,1.85,0,2.71,0c0.78,0,1.56,0,2.37,0
					c0.81,2.59,1.3,4.83,0.44,7.4c-3.09,9.23-7.23,17.93-13.17,25.63c-4.22,5.48-9.32,10.09-16.06,12.44
					c-0.38,0.13-0.75,0.26-1.13,0.36C529.5,411.13,529.33,411.05,529.08,411z"/>
				<path class="st0" d="M526.32,382.47c-3.13,7.62-7.66,14.81-11.94,18.89c-0.75-1.69-0.33-3.44-0.58-4.64
					c1.97-4.07,3.77-7.79,5.54-11.52c0.99-2.08,2.99-3,4.85-4.47C525,381.39,525.67,381.94,526.32,382.47z"/>
				<path class="st0" d="M523.44,379.33c-1.81,1.38-3.48,2.66-5.15,3.94c-0.15-0.09-0.3-0.18-0.44-0.27
					c0.55-3.7,0.23-7.62,2.91-11.21C522.13,374.28,522.16,376.95,523.44,379.33z"/>
				<path class="st0" d="M517.55,386.14c-0.38,0.89-0.76,1.78-1.14,2.67c-0.16-0.05-0.31-0.11-0.47-0.16
					c0.34-0.93,0.68-1.85,1.01-2.77C517.15,385.97,517.35,386.06,517.55,386.14z"/>
				<path class="st0" d="M513.29,412.3c0.36-2.59,0.77-5.18,1.24-8.22c1.17-1.49,2.65-3.37,4.12-5.26
					c3.44-4.43,6.25-9.23,8.57-14.34c0.44-0.97,1.3-1.74,1.88-2.65c0.85-1.33,1.8-2.64,2.38-4.09c0.55-1.41,1.3-2.51,2.56-3.32
					c1-0.64,1.99-1.29,3.07-1.88c0.65-0.35,1.33-0.68,2.06-0.97c-0.28,0.59-0.49,1.21-0.83,1.75c-2.59,4.14-4.67,8.51-6.28,13.13
					c-1.83,5.25-4.85,9.87-8.35,14.16c-2.47,3.03-4.99,6.02-7.47,9.05c-0.55,0.67-1.01,1.42-1.51,2.13
					c-0.33,0.4-0.65,0.81-0.98,1.21C513.59,412.77,513.26,412.51,513.29,412.3z"/>
				<path class="st0" d="M511.91,415.29c0.82-1.01,1.33-1.65,1.84-2.29c0.33-0.4,0.65-0.81,0.98-1.21c0.46-0.29,1-0.51,1.38-0.89
					c3.11-3.1,6.25-6.18,9.28-9.37c5.76-6.05,9.77-13.18,12.72-20.96c1.19-3.14,2.54-6.21,3.81-9.31c0.47-1.15,1.21-1.95,2.24-2.61
					c0.15-0.09,0.3-0.18,0.46-0.27c1.87-1.03,3.54-2.43,5.4-3.75c0.5,0.2,1.08,0.43,1.66,0.66c-3.14,5.9-4.32,12.43-6.97,18.41
					c-3.48,7.88-7.81,15.19-13.72,21.52c-4.36,4.68-9.52,7.98-15.77,9.5C514.3,414.94,513.36,415.05,511.91,415.29z"/>
				<path class="st0" d="M529.28,123.9c0.97-1.86,2.17-3.61,3.49-5.29c0.96-1.2,1.87-2.44,2.77-3.68c0.1-0.15,0.2-0.31,0.3-0.46
					c2.85-4.26,3.47-8.5,3.96-13.51c0.18-1.83,0.3-3.75,0.82-5.53c0.29-2.13,1.34-3.86,3.16-5.16c0.75-0.53,1.47-1.08,2.19-1.64
					c1.62-1.4,3.18-2.83,4.21-4.76c-10.29-5.31-51.07-15.61-57.81-14.64c1.23,1.75,1.81,4.17,2.22,6.19c0.94,2.03,1,4.28,1.07,6.47
					c0.07,2.14-0.11,4.32-0.39,6.45c-0.04,1.04-0.09,2.09-0.14,3.15c-0.01,0.17-0.08,0.29-0.19,0.37
					c-0.21,4.09,0.26,8.12,1.52,12.11c0.88,2.73,1.59,5.52,2.31,8.3c1.16,4.51-0.21,8.18-3.83,11.05c-0.37,0.3-0.74,0.61-1.1,0.92
					c-0.06,0.05-0.08,0.13-0.2,0.34c0.43,0.48,0.88,1.02,1.36,1.53c5.99,6.37,9.96,13.84,12.01,22.33c0.21,0.85,0.26,1.74,0.45,2.59
					c0.48,2.1-0.15,3.85-1.79,5.13c-3.28,2.54-2.71,3.55-0.8,6.39c1.49,2.21,2.31,4.48,2.14,7.17c-0.1,1.47,0.19,2.96,0.3,4.41
					c0.32,0,0.44,0.03,0.46,0c3.19-4.2,6.63-8.2,8.78-13.1c1.14-2.61,1.52-5.19,0.57-7.91c-0.06-0.15-0.08-0.31-0.15-0.46
					c-1.8-4.25-0.71-7.74,2.68-10.74c4.07-3.61,6.54-8.17,7.85-13.45c0.36-1.45,0.89-2.82,1.54-4.14
					C529.12,124.19,529.19,124.04,529.28,123.9z"/>
				<path class="st0" d="M502.72,414.43c-1.48,0.24-2.84,0.46-4.2,0.68c-0.11-0.15-0.21-0.3-0.31-0.45c1.15-1.33,2.3-2.67,3.45-4
					c0.19,0.06,0.38,0.12,0.57,0.18C502.38,411.92,502.53,413,502.72,414.43z"/>
				<path class="st0" d="M482.3,416.53c6.81-6.01,13.84-11.77,18.73-19.46c0.6-0.94,1.17-1.92,1.7-2.92
					c0.17,0.05,0.34,0.09,0.51,0.13c-0.11,2.06-0.08,4.14-0.39,6.17c-0.13,0.85-0.85,1.71-1.52,2.35c-2.47,2.38-5.02,4.68-7.55,7
					c-1.05,0.97-2.12,1.92-3.09,3.01c1.67-0.33,2.65-1.71,3.92-2.63c1.29-0.93,2.48-2,3.72-3.01c1.28-1.04,2.55-2.08,4-3.26
					c0.24,2.42-0.5,3.99-1.85,5.67c-3.51,4.38-8.37,5.52-13.45,6.37c-0.77,0.13-1.54,0.26-2.32,0.36
					C483.93,416.42,483.13,416.5,482.3,416.53z"/>
				<path class="st0" d="M465.88,259.01c1.58,1.98,2.89,3.64,4.52,5.68c-1.93,0.18-3.39,0.32-4.34,0.41
					c-3.52-2.83-6.67-5.36-9.89-7.93c0.01-0.02,0.15-0.25,0.35-0.59c-0.48-0.74-0.99-1.53-1.51-2.34
					c3.07-0.93,34.28,2.84,40.06,4.85c-1.53,0.89-2.95,1.7-4.48,2.59c-0.96-0.31-2-0.73-3.07-0.94c-0.92-0.19-1.97-0.41-2.81-0.13
					c-1.53,0.51-3,0.31-4.49,0.11c-4.03-0.55-8.05-1.15-12.08-1.7C467.53,258.94,466.89,259.01,465.88,259.01z"/>
				<path class="st0" d="M461.56,285.62c3-1.37,5.7-3.4,6.44-7.33c0.25,0.42,0.63,0.82,0.73,1.27c0.57,2.65,1.44,5.3,1.55,7.97
					c0.39,9.11,0.56,18.23,0.72,27.34c0.16,8.88,0.25,17.76,0.28,26.64c0,0.4-0.01,0.79-0.02,1.19l-2.81-0.1
					c-0.47-0.54-0.76-1.05-1.18-1.35c-1.7-1.2-2.56-2.87-2.71-4.86c-0.39-5.02-0.83-10.04-0.99-15.07
					c-0.28-8.64-0.24-17.28-0.57-25.91C462.88,292.25,462.1,289.11,461.56,285.62z"/>
				<path class="st0" d="M456.96,419.14c-0.11,0.16-0.23,0.32-0.34,0.48c0-0.01-0.01-0.01-0.01-0.01
					C456.72,419.45,456.84,419.29,456.96,419.14z"/>
				<path class="st0" d="M456.62,419.64c-0.89-1.47-1.66-3.03-2.7-4.38c-3.18-4.09-3.29-8.6-2.17-13.62
					c0.58-0.06,1.15-0.13,1.73-0.2c17.79-2.26,33.23-10.41,48.34-20.05c0.42,3.45,0.8,6.58,1.09,8.97
					c-1.01,1.91-1.81,3.16-2.35,4.51c-0.22,0.53-0.45,1.02-0.71,1.47c-1.13,1.97-2.75,3.26-5.34,3.97
					c-8.37,2.3-16.63,4.99-24.87,7.73c-5.07,1.69-9.2,4.72-11.69,9.66c-0.26,0.52-0.63,0.97-0.99,1.44
					c-0.12,0.15-0.24,0.31-0.35,0.47c0,0,0.01,0,0.01,0.01C456.62,419.62,456.62,419.63,456.62,419.64z"/>
				<path class="st0" d="M456.63,419.64c0,0,0,0.01,0,0.02C456.62,419.65,456.62,419.65,456.63,419.64L456.63,419.64z"/>
				<path class="st0" d="M480.09,367.65c-9.68,4.17-19.34,6.31-29.61,6.64c0-0.88-0.04-1.5,0.01-2.1c0.05-0.63,0.18-1.25,0.3-2.01
					c2.18-0.23,4.31-0.39,6.43-0.68c2.76-0.38,5.51-0.88,8.27-1.32c0.39-0.06,0.78-0.15,1.18-0.18c1.9-0.16,3.83-0.18,5.71-0.49
					c1.79-0.29,3.55-0.86,5.48-1.36C478.41,366.52,479.04,366.95,480.09,367.65z"/>
				<path class="st0" d="M437.29,297.78c3.78,1.63,7.27,3.14,10.99,4.75c0.29,1.21,0.83,2.5,0.87,3.81
					c0.29,8.93,0.47,17.86,0.69,26.96c-2.86,1.62-5.61,3.17-8.29,4.69c-2.65-1.5-4.13-3.34-4.13-6.39
					c-0.01-10.77-0.18-21.55-0.28-32.32C437.14,298.89,437.22,298.5,437.29,297.78z"/>
				<path class="st0" d="M434.74,368.34c2.04-0.43,2.04-0.43,4.97,0.82c-0.1,1.15-0.2,2.36-0.33,3.91c-1.74-0.32-3.24-0.6-4.91-0.91
					c0-0.97-0.03-1.6,0.02-2.23C434.52,369.39,434.65,368.85,434.74,368.34z"/>
				<path class="st0" d="M663.18,239.29c-0.34-0.11-0.58-0.14-0.77-0.25c-2.51-1.48-4.9-1.42-7.44,0.14
					c-1.74,1.07-3.7,1.91-5.68,2.45c-2.14,0.59-4.4,0.75-6.62,1.01c-0.7,0.08-1.44-0.13-2.26-0.21c0.19-0.48,0.21-0.67,0.32-0.77
					c0.39-0.39,0.8-0.78,1.23-1.13c7.25-5.72,13.5-12.46,19.52-19.41c3.53-4.08,6.55-8.43,8.53-13.5c1.66-4.24,2.04-8.7,2.74-13.1
					c0.3-1.9-0.44-3.85-1.37-5.52c-3.23,1.99-6.34,3.9-9.59,5.9c0.13,4.22-0.74,8.34-3.99,11.8c-2-0.11-4.05-0.22-6.16-0.33
					c-0.33,0.71-0.68,1.33-0.92,2c-0.95,2.72-2.78,4.64-5.36,5.83c-2.32,1.07-4.59,2.27-7,3.1c-4.69,1.63-8.85,3.95-12.04,7.86
					c-0.77,0.94-1.78,1.68-2.68,2.52c-0.13-0.11-0.26-0.22-0.39-0.33c0.24-0.55,0.37-1.2,0.74-1.64c1.28-1.51,2.65-2.96,3.99-4.43
					c1.29-1.4,2.79-2.66,3.82-4.22c3.18-4.8,6.22-9.68,9.21-14.6c0.76-1.27,1.27-2.75,1.61-4.2c0.6-2.56,0.97-5.18,1.46-7.77
					c0.38-2.02,1.21-3.77,2.97-5c0.84-0.59,1.55-1.35,2.33-2.04c-0.65-2.5-1.26-4.87-1.91-7.36c0.99-0.42,1.86-0.77,2.72-1.16
					c3.33-1.49,5.37-4.06,5.83-7.64c0.38-2.92,0.39-5.89,0.52-8.83c0.02-0.54-0.05-1.18-0.32-1.61c-1.88-2.97-4.1-5.67-6.58-8.45
					c-0.74,0.88-1.42,1.55-1.94,2.32c-0.16,0.24-0.31,0.48-0.46,0.73c-0.69,1.51-1.19,3.12-1.93,4.68c-1.39,2.93-3.1,5.68-3.82,8.88
					c-0.05,0.23-0.22,0.34-0.4,0.36c-0.26,0.67-0.51,1.34-0.76,2.01c-0.87,2.39-1.48,4.87-2.24,7.39c-0.88,0.4-1.76,0.75-2.61,1.18
					c-1.63,0.82-3.35,1.52-4.84,2.55c-3.2,2.23-5.54,5.28-7.6,8.55c-2.13,3.38-4.12,6.87-6.48,10.08c-2.03,2.75-4.37,5.31-6.81,7.71
					c-2.56,2.51-5.4,4.75-8.13,7.09c-0.28,0.24-0.67,0.35-1.01,0.51c0.25-0.83,0.7-1.38,1.14-1.93c1.73-2.15,3.04-4.53,3.57-7.25
					c0.5-2.58,0.99-5.14,2.3-7.49c0.41-0.73,0.54-1.68,0.6-2.54c0.31-4.23,0.58-8.45,0.82-12.68c0.24-4.06,1.4-7.64,4.67-10.38
					c2.77-2.32,3.5-5.44,2.86-8.91c-0.53-2.82-1.15-5.63-1.62-8.47c-0.17-1.08-0.17-2.24,0.01-3.32c0.37-2.23,1.23-4.28,2.9-5.92
					c1.79-1.76,1.61-3.86,0.87-6c-0.23-0.68-0.52-1.34-0.88-1.97c-1.06-1.89-1.35-3.91-1.09-6.03c0.25-2.14,0.55-4.27,0.86-6.41
					c0.23-1.56,0.3-3.11-1.01-4.22c-3.03-2.57-6.33-4.74-9.9-6.78c-0.87,1.69-1.66,3.15-2.4,4.65c-1.04,2.12-1.53,4.32-1.15,6.73
					c0.41,2.6,0.58,5.24,0.93,7.85c0.15,1.12-0.04,2.09-0.79,2.9c-0.89,0.95-1.81,1.88-2.72,2.82c-3.47,4.4-7.9,7.97-11.28,12.46
					c-0.76,1.01-1.51,2.01-2.27,3c-1.51,2.51-3.43,4.65-5.68,6.56c-0.92,0.89-1.89,1.75-2.93,2.54c-2.23,2.29-3.63,5.06-3.44,8.66
					c0.06,1.12-0.44,2.35-0.94,3.41c-0.81,1.73-1.75,3.41-2.79,5.02c-0.73,1.12-1.65,2.15-2.59,3.11c-1.11,1.14-2.36,2.15-3.51,3.25
					c-3.01,2.88-5.98,5.78-8.99,8.65c-0.47,0.46-0.87,1.24-2.02,0.63c0.36-0.6,0.68-1.19,1.06-1.74c0.89-1.33,1.87-2.59,2.71-3.95
					c3.82-6.26,4.91-12.9,2.77-20c-0.6-1.98-1.27-3.96-1.67-5.99c-0.51-2.57-0.9-5.18-1.12-7.79c-0.19-2.3,0.54-4.41,2.13-6.17
					c0.69-0.77,1.33-1.61,1.95-2.44c1.88-2.53,2.59-5.26,1.38-8.33c-0.26-0.66-0.41-1.37-0.6-2.06c-1.25-4.6-0.91-9.01,1.5-13.2
					c0.56-0.97,0.96-2.03,1.52-2.99c0.82-1.37,0.8-2.73,0.14-4.11c-0.58-1.23-1.18-2.45-1.81-3.65c-0.82-1.56-0.89-3.11-0.46-4.85
					c0.44-1.75,0.8-3.64,0.62-5.42c-0.13-1.34-0.29-2.67-0.46-4c-0.01-0.02-0.03-0.04-0.03-0.06c-1-3.09-1.7-6.34-1.76-9.6
					c-3.57-1.75-7.01-3.08-10.22-3.85c-0.51,0.47-0.99,0.91-1.47,1.35c-1.77,2.47-4.42,4.04-6.47,6.32
					c-3.16,3.5-2.85,7.96-3.38,12.37c-0.12,1.04-0.29,2.02-0.5,2.96c-0.15,1.64-0.71,3.18-1.55,4.62c-0.48,1.06-1.05,2.1-1.73,3.17
					c-1.26,1.96-2.45,3.97-3.85,5.85c-1.16,1.56-2.7,2.89-3.25,4.82c-0.05,0.19-0.19,0.29-0.33,0.33c-0.72,1.62-1.3,3.3-1.73,5.05
					c-0.93,3.76-2.72,6.96-5.35,9.75c-1.1,1.16-2.04,2.47-3.2,3.57c-1.79,1.71-2.01,3.73-1.48,5.95c0.29,1.25,0.64,2.48,1.01,3.7
					c0.48,1.58,0.59,3.2-0.04,4.71c-1.13,2.72-2.23,5.48-3.7,8.01c-1.47,2.55-3.36,4.86-5.12,7.23c-1.44,1.94-2.68,3.94-3.47,6.25
					c-0.79,2.33-2.02,4.47-3.99,6.8c0.36-2.98,1.2-5.25,2.27-7.4c0.78-1.56,1.14-3.13,1.06-4.85c-0.02-0.55-0.05-1.12,0.01-1.67
					c0.41-4.04-0.38-7.67-2.87-11.04c-1.8-2.43-1.34-4.31,1.02-6.26c1.98-1.62,2.45-3.51,1.86-5.96
					c-1.39-5.73-3.57-11.11-6.72-16.07c-1.49-2.34-3.34-4.46-5.13-6.6c-0.77-0.9-1.8-1.58-2.94-2.56c1.09-0.79,1.77-1.28,2.46-1.76
					c4.33-3,5.46-6.04,4.18-11.15c-0.98-3.87-1.93-7.74-2.88-11.62c-0.86-3.46-0.83-6.98-0.3-10.44c0.21-4,0.49-7.93-0.23-11.93
					c-0.47-2.61-1.01-6.69-3.14-8.68c-1.37-0.75-2.92-0.98-4.55-1.1c-1.5-0.11-2.98-0.52-4.49-0.72c-2.1-0.27-4.2-0.47-6.11-0.68
					c-0.53,3.32-0.84,6.32-1.51,9.24c-1.04,4.52-2.56,8.87-5.08,12.83c-1.65,2.59-2.96,5.33-2.09,8.59
					c0.18,0.68,0.13,1.43,0.22,2.14c0.55,4.27-0.25,8.27-2.38,12c-0.91,1.6-1.97,3.12-2.79,4.76c-0.63,1.27-1.11,2.64-1.46,4.01
					c-0.6,2.36,0.17,4.62,0.92,6.8c0.84,2.45,0.82,4.86,0.11,7.3c-0.9,3.09-2.27,5.97-4.04,8.65c-3.6,5.49-7.12,11.02-8.31,17.65
					c-3.32,6.64-6.63,13.28-9.99,19.91c-0.13,0.25-0.71,0.26-1.38,0.49c0.2-0.87,0.31-1.39,0.45-1.91c0.83-3.07,1.82-6.12,2.47-9.23
					c1.37-6.57,0.99-13.04-1.65-19.28c-1.03-2.42-2.15-4.8-3.2-7.22c-1.41-3.22-2.95-6.39-4.12-9.69
					c-1.45-4.07-1.93-8.23,0.03-12.36c0.41-0.85,0.61-1.81,0.93-2.71c1.52-4.23,0.99-8.09-1.72-11.77c-1.98-2.7-3.67-5.62-5.4-8.49
					c-1.52-2.53-1.88-5.22-0.72-8.04c0.34-0.8,0.51-1.68,0.83-2.49c0.84-2.1,0.32-3.93-1.07-5.56c-0.62-0.73-1.34-1.38-2.08-1.98
					c-2.25-1.8-3.86-4-4.62-6.82c-0.78-2.85-1.64-5.68-2.48-8.51c-0.36-1.21-0.75-2.41-1.19-3.82h-16.06
					c-1.53,1.51-2.27,3.71-2.65,5.84c-1.2,6.61-3.74,12.48-8.22,17.55c-1.37,1.55-2.24,3.48-2.54,5.54c0.11,0.3,0.16,0.54,0.27,0.75
					c3.48,6.54,5.88,13.45,6.79,20.82c0.23,1.89,0.47,3.95-0.03,5.72c-1.81,6.38-3.78,12.74-8.53,17.74
					c-1.7,1.79-2.45,4.01-2.86,6.45c-0.62,3.64-0.64,7.11,1.01,10.52c1.21,2.5,0.36,4.67-1.55,6.49c-0.53,0.5-1.17,0.89-1.59,1.46
					c-0.64,0.88-1.48,1.81-1.64,2.82c-0.97,5.96-1.78,11.96-2.63,17.92c0.88,0.49,1.5,0.84,2.13,1.18c4.97,2.71,10.42,4.12,15.9,5.1
					c8.94,1.61,17.98,2.76,26.98,4.01c9.11,1.26,18.26,2.03,27.44,2.36c4.87,0.18,9.75,0.33,14.62,0.58
					c7.74,0.4,15.47,0.82,23.2,1.35c4.3,0.29,8.59,0.79,12.88,1.23c4.92,0.52,9.84,1.06,14.76,1.62c4.6,0.52,9.22,0.92,13.79,1.64
					c9.47,1.49,18.77,3.74,27.95,6.51c12.53,3.78,24.54,8.71,35.75,15.42c1.55,0.83,3.05,1.73,4.54,2.65
					c0.05,0.01,0.1,0.02,0.16,0.06c0.15,0.1,0.29,0.21,0.44,0.31c0.1,0.06,0.21,0.13,0.31,0.19c0.05,0.03,0.09,0.08,0.13,0.12
					c1.62,1.11,3.16,2.28,4.64,3.53c4.67,3.54,8.98,7.5,12.83,11.97c4.48,4.11,9.17,8.29,10.87,14.38c0.06,0.1,0.11,0.19,0.16,0.29
					c9.16,5.18,19.39,7.33,29.1,8.56c2.09-1.34,3.54-2.26,4.99-3.19c0.93-0.6,2.04-1.04,2.75-1.83c2.03-2.25,4.04-4.53,5.79-6.99
					c2.41-3.38,4.59-6.93,6.82-10.43c1.64-2.57,2.04-5.44,2.07-8.55C670.16,233.34,665.83,234.8,663.18,239.29z"/>
				<path class="st0" d="M410.14,472.61c0.24-0.19,0.51-0.36,0.72-0.58c5.96-6.23,11.92-12.45,17.85-18.71
					c3.76-3.98,5.92-8.85,7.59-13.97c0.18-0.53,0.26-1.1,0.41-1.83c-4.41,6.07-8.57,12.02-12.99,17.76
					c-4.46,5.8-9.18,11.4-13.78,17.09C410.01,472.45,410.08,472.53,410.14,472.61z M401.51,427.38c4.41-1.96,9.49-2.67,12.66-6.96
					C408.93,420.87,405.44,424.53,401.51,427.38z M390.75,403.35c4.26-0.1,8.41-0.65,12.61-3.07
					C398.32,399.47,394.57,401.56,390.75,403.35z M396.12,406.87c-5.09-1.33-10.27-2.31-15.41-3.46c-3.25-0.72-5.51-1.82-8.27-3.98
					c-0.16-2.65-0.32-5.4-0.5-8.42c8.21-0.14,16.31,0.66,23.89-2.77c-7.9-0.21-15.71,0.78-23.51,1.68c-0.71-1.9-0.79-4.74-0.16-8.06
					c9.16,0.53,18.37,2.6,27.61,0.42c-9.08-1.55-18.27-1.56-27.71-1.69c0.65-2.71,1.25-5.24,1.93-8.11
					c9.93,1.4,19.88,1.94,29.82,4.03c0.49-0.15,1.17-0.36,2.18-0.67c0,1.03,0,1.86,0,2.7c0.02,1.84-0.06,3.68,0.07,5.52
					c0.17,2.36,0.76,4.59,3.06,5.86c-0.46,0.91-0.87,1.74-1.29,2.56c-0.84,0.64-1.7,1.29-2.84,2.15c2.34,0.55,4.24,0.97,6.12,1.48
					c0.29,0.08,0.45,0.61,0.73,1.02c-0.4,0.86-0.79,1.7-1.24,2.66c1.84,0.41,3.61,0.72,5.32,1.2c1.9,0.53,2.16,0.94,2.54,3.01
					c-0.69,1.05-1.41,2.12-2.44,3.67c1.45-0.11,2.27-0.18,3.1-0.24c3.15-0.2,4.68,1.88,3.38,4.74c-0.59,1.29-1.52,2.41-2.31,3.61
					c1.11,0.72,2.76,0.38,3.54,1.85c0.21,2.18-2.01,3.1-2.77,5.18c1.38-0.38,2.56-0.7,3.89-1.06c0.35,0.4,0.75,0.85,1.29,1.47
					c0.74-0.11,1.6-0.2,2.44-0.38c2.98-0.62,4.04,0.03,4.85,3.04c0.12,0.45,0.28,0.89,0.45,1.42c3.57-0.6,6.52-2.47,9.54-4.3
					c-2.06,0.5-4.12,0.99-6.39,1.54c-0.48-1.52-0.46-3.54-2.17-4.21c-1.5-0.58-3.23-0.6-5.16-0.91c-0.38-0.35-1.04-0.97-1.78-1.65
					c0.45-2.95,0.45-2.95-2.57-4.88c0.28-0.59,0.68-1.18,0.84-1.83c0.26-1.06,0.57-2.18,0.5-3.25c-0.12-1.86-1.07-2.67-2.92-2.86
					c-0.78-0.08-1.55-0.11-2.56-0.18c0.46-0.96,0.84-1.72,1.3-2.67c0.5,0.56,0.89,1,1.29,1.44c1.55,1.7,3.48,1.87,5.5,1.2
					c2.09-0.69,3.32-2.2,3.37-4.46c0.04-1.6-0.03-3.2-0.1-4.79c-0.03-0.51-0.05-1.03-0.06-1.55c-0.07-2.66,0.02-5.36,0.56-8.31
					c6.11,5.13,12.86,8.01,20.66,8.3c-1.31-0.51-2.6-1.03-3.91-1.52c-2.02-0.76-4.1-1.37-6.04-2.29c-4.48-2.13-7.64-5.69-10.24-9.92
					c0.18-1.61,0.35-3.26,0.57-5.21c1.65,0.24,3.18,0.46,4.68,0.67c0.08,1.21,0.13,2.33,0.22,3.42c0.03,0.5,0.08,1,0.14,1.49
					c0.26,2.1,1.41,3.72,3.12,4.91c2.68,1.87,5.76,1.1,6.87-1.95c0.75-2.06,0.97-4.33,1.5-6.86c0.58-0.1,1.49-0.41,2.4-0.4
					c8.86,0.08,17.21-2.22,25.39-5.33c1.41-0.54,2.82-1.09,4.36-1.68c1.09,0.63,2.17,1.3,3.29,1.9c2.53,1.35,5.14,2.2,8.03,1.2
					c0.43-0.15,0.97-0.18,1.41-0.08c1.12,0.25,2.19,0.24,3.19-0.1c0.54-0.18,1.07-0.46,1.58-0.84c0.74,1.39,1.21,4.75,1.19,8.4
					c-0.41,0.3-0.9,0.7-1.42,1.04c-10.72,7.05-21.92,13.16-34.2,17.03c-3.94,1.25-8.07,1.85-12.13,2.73
					c-0.11,0.02-0.23,0.04-0.35,0.05c-0.35,0.03-0.74,0.02-1.2,0.05c0-0.96,0-1.79,0-2.87c-0.93,0.31-1.79,0.6-2.66,0.89
					c-1.96,4.31-2.26,8.73-1.17,13.18c0.32,1.31,1.24,2.67,2.27,3.57c1.85,1.6,3.99,2.86,6.02,4.27c0,0,0-0.01-0.01-0.02
					c0-0.01,0-0.02,0-0.02c0.67,0.48,1.23,0.99,1.71,1.53c-0.01,0.01,0,0.02,0.01,0.02c0.23,0.28,0.44,0.56,0.63,0.85
					c1.35,2.13,1.5,4.69,1.1,7.39c-0.59,4.09-2.24,7.83-4.32,11.36c-2.03,3.44-4.07,6.89-6.29,10.2
					c-7.85,11.68-15.69,23.37-23.73,34.9c-3.52,5.04-7.41,9.83-11.38,14.53c-2.78,3.3-6.1,6.11-9.9,8.27
					c-0.37,0.21-0.76,0.4-1.15,0.59c-0.4,0.2-0.81,0.39-1.24,0.6c-1.38-2.7-2.13-5.34-2.24-8.18c-0.09-2.08-0.39-4.15-0.37-6.22
					c0.03-2.4-0.97-4.3-2.34-6.13c-2.63-3.51-3.6-4.07-0.11-9.08c0.46-0.65,0.89-1.32,1.44-2.14c-0.56-0.27-1-0.56-1.48-0.71
					c-2.89-0.88-4.75-2.82-5.85-5.58c-1.42-3.57-1.73-7.33-1.43-11.08c0.39-4.69,1.1-9.36,1.7-14.03c0.17-1.34,0.49-2.67,0.7-4.01
					c0.47-3.13,1.53-6.03,3.2-8.71c2.1-3.4,4.29-6.75,6.33-10.18c1.3-2.19,2.48-4.47,3.58-6.77c1.41-2.94,0.77-5.57-2.07-7.23
					C400.95,408.56,398.56,407.5,396.12,406.87z M445.56,441.8c0.29-0.69,0.59-1.39,0.88-2.08c-0.09-0.04-0.18-0.09-0.28-0.13
					c-0.17,0.13-0.4,0.24-0.52,0.41c-4.56,6.36-9.14,12.71-13.64,19.11c-2.89,4.12-5.6,8.36-8.48,12.49
					c-3.16,4.52-6.42,8.96-9.63,13.45c-0.26,0.37-0.41,0.82-0.61,1.23c0.55-0.15,0.84-0.43,1.09-0.73
					c5.07-6.18,10.13-12.37,15.2-18.54C435.93,459.26,441.59,451.07,445.56,441.8z M404.71,461.47c8.84-8.39,17.68-16.75,24.4-27.09
					c-2.31,1.96-4.71,3.83-6.9,5.92c-2.24,2.14-4.33,4.45-6.37,6.8c-1.98,2.29-3.81,4.71-5.67,7.1
					C408.31,456.59,406.27,458.84,404.71,461.47z M396.07,454.4c7.96-6.84,16.68-12.77,23.93-20.46c-3.86,2.23-8.1,3.78-11.31,7.03
					c-3.98,4.03-8.02,8.01-12.02,12.02c-0.34,0.34-0.65,0.71-0.98,1.06C395.82,454.17,395.95,454.29,396.07,454.4z M399.03,438.89
					c5.3-3.2,11.12-5.68,15.47-11.16C407.61,429.66,403.58,434.65,399.03,438.89z M380.13,398.14c5.45-0.41,11.08,0.4,16.16-2.52
					C390.72,395.32,385.34,396.19,380.13,398.14z"/>
				<path class="st0" d="M416.39,381.91c1.52-1.36,3.06-2.72,4.83-4.29c0.12,0.86,0.28,1.46,0.27,2.05
					c-0.12,3.51-0.32,7.02-0.41,10.53c-0.06,2.86-0.01,5.73-0.01,8.82c-1.77-0.68-3.47-1.32-5.35-2.04
					c0.98-2.55-0.47-3.82-2.59-4.47c0-0.92,0-1.66,0-2.68C416.05,388.13,415.56,384.77,416.39,381.91z"/>
				<path class="st0" d="M416.96,379.86c-0.52-1.79,0.08-9.61,1.19-15.53c0.79,0.25,1.45,0.46,2.23,0.7c0.27,3.54,0.52,7,0.79,10.54
					C419.98,377.18,419.05,379.07,416.96,379.86z"/>
				<path class="st0" d="M415.32,60.98c19.97,0.87,39.51,1.36,59,5.27c0.06,2.08,0.05,4.14-0.34,6.15
					c-0.79,4.17-1.91,8.26-3.73,12.11c-0.86,1.79-1.97,3.46-2.96,5.19c-1.22,2.12-2.08,4.29-1.38,6.83
					c0.23,0.83,0.07,1.75,0.17,2.63c0.57,4.92-0.71,9.33-3.56,13.34c-2.24,3.15-3.66,6.58-3.2,10.53c0.2,1.74,0.55,3.48,1.04,5.16
					c0.6,2.03,0.48,4-0.29,5.87c-1,2.42-2.16,4.79-3.42,7.1c-1.83,3.36-3.95,6.57-5.66,10c-1.02,2.03-1.47,4.35-2.19,6.54
					c-0.44,1.36-0.77,2.77-1.4,4.04c-1.45,2.9-3.05,5.74-5.05,8.51c0.08-0.81,0.12-1.62,0.25-2.42c1.19-7.24,0.12-14.17-2.82-20.84
					c-1.67-3.8-3.56-7.5-5.2-11.32c-0.84-1.96-1.48-4.05-1.96-6.13c-0.6-2.54-0.35-5.06,0.59-7.54c1.1-2.92,2.02-5.88,1.77-9.09
					c-0.17-2.14-0.77-4.04-1.98-5.81c-2.08-3.03-4.04-6.14-6.1-9.18c-1.63-2.4-1.7-4.9-0.79-7.55c0.33-0.98,0.56-1.99,0.83-2.99
					c0.62-2.28,0.03-4.3-1.48-6.02c-0.84-0.96-1.78-1.87-2.81-2.6c-1.8-1.26-2.85-2.92-3.46-5c-0.99-3.37-2.12-6.7-3.18-10.05
					C415.78,62.97,415.63,62.2,415.32,60.98z"/>
				<path class="st0" d="M374.48,371.14c0.67-2.23,1.22-4.1,1.85-6.21c5.4,0.9,10.65,1.78,15.71,2.62c1.27,1.82,2.44,3.49,3.77,5.39
					C388.87,371.01,381.91,371.37,374.48,371.14z"/>
				<path class="st0" d="M354.91,249.69c12.93,14.05,29.88,22.59,46.95,31.53c-0.86,0.6-1.46,1.05-2.09,1.46
					c-0.6,0.39-1.22,0.75-1.99,1.22c-15.92-8.42-31.99-16.66-44.62-29.91c-9.86,0.29-19.43,0.57-29.12,0.85
					c-1.92,11.11-6.08,21.07-13.43,29.82c-1.09-0.89-2.1-1.73-3.27-2.7c7.24-8.99,11.68-19,12.76-30.6
					C331.61,250.09,343.1,250.11,354.91,249.69z"/>
				<path class="st0" d="M373.67,172.15c-2.05-4.88-4.16-9.48-8.46-12.8c4.03-5.63,3.31-11.44,1.15-17.27
					c3.93-3.69,7.76-7.28,11.62-10.9c-0.31-0.48-0.45-0.77-0.65-0.99c-4.87-5.29-9.74-10.59-14.64-15.86
					c-1.57-1.7-3.21-3.34-4.86-4.97c-1.3-1.28-1.7-2.7-1.42-4.55c0.49-3.31,0.84-6.65,1.02-9.99c0.21-4.15,0.29-8.31,0.23-12.46
					c-0.07-5.4-1.32-10.6-2.96-15.72c-0.17-0.52-0.32-1.06-0.5-1.67c1.47-1.12,3.23-0.99,4.82-1.18c5.55-0.65,11.11-1.14,16.69-1.58
					c5.89-0.48,11.79-0.84,17.68-1.22c1.09-0.07,2.19-0.01,3.22-0.01c0.09,0.36,0.21,0.55,0.16,0.65c-1.63,3.59-2.5,7.4-3.36,11.22
					c-0.52,2.27-1.62,4.3-3.06,6.17c-1.66,2.15-3.23,4.37-4.68,6.66c-1.55,2.43-2.03,4.98-0.37,7.66c0.71,1.14,1.03,2.51,1.64,3.72
					c2.67,5.32,3.54,11.07,4.17,16.88c0.21,1.88-0.1,3.65-0.85,5.37c-1.06,2.42-2.07,4.85-3.1,7.28c-1.01,2.37-2.28,4.54-4.14,6.39
					c-0.94,0.93-1.77,2.12-2.25,3.36c-1.92,4.91-3.04,9.93-0.87,15.11c0.21,0.51,0.38,1.05,0.56,1.58c0.44,1.32,0.25,2.52-0.75,3.54
					c-0.12,0.11-0.2,0.26-0.33,0.34c-3.94,2.46-4.51,6.53-5.07,10.6C374.09,169.06,373.88,170.61,373.67,172.15z"/>
				<path class="st0" d="M372.3,404.42c4.99,2.37,10.38,3.06,15.75,3.9c2.52,0.4,5.03,0.9,7.51,1.47c2.05,0.48,3.86,1.51,5.4,2.97
					c1.31,1.24,1.5,1.72,0.75,3.36c-0.89,1.96-1.81,3.92-2.95,5.74c-1.98,3.19-4.1,6.3-6.24,9.39c-2.92,4.22-4.85,8.81-5.48,13.91
					c-0.82,6.66-2.16,13.29-1.65,20.04c0.19,2.52,0.69,5.07,1.42,7.5c0.99,3.31,2.17,4.51,6.37,7.68c-0.6,1.3-1.19,2.43-1.64,3.61
					c-0.77,2.01-0.79,4.2,0.82,5.61c3.72,3.24,3.83,7.53,4.02,11.85c0.12,2.66,0.47,5.26,1.57,7.7c0.49,1.08,1.16,2.08,1.63,2.91
					c1.5,0.75,2.6,0.17,3.67-0.34c0.35-0.16,0.69-0.33,1.03-0.52c3.3-1.68,6.29-3.84,9.06-6.31c6.72-6.01,12.35-12.97,17.66-20.2
					c7.77-10.56,15.53-21.13,23.3-31.69c4.16-5.66,7.28-11.83,9.16-18.61c1.54-5.53,1.35-10.77-2.62-15.25
					c-0.29-1.93,0.74-3.15,1.9-4.28c2.58-2.5,5.7-4.11,9.1-5.15c5.87-1.79,11.78-3.48,17.68-5.21c1.06-0.31,2.13-0.57,3.46-0.93
					c-0.3,1.09-1.07,1.48-1.68,2c-3.97,3.35-7.96,6.68-11.91,10.06c-0.75,0.65-1.34,1.48-2.01,2.23c0.06,0.18,0.12,0.36,0.18,0.54
					c0.81,0.05,1.64,0.2,2.44,0.12c1.62-0.16,3.25-0.29,4.88-0.46c1.63-0.17,3.26-0.38,4.86-0.73c3.59-0.77,7.12-0.29,10.67-0.09
					c2.63,0.16,5.24,0.58,7.86,0.73c3.31,0.2,6.59-0.28,9.63-1.56c3.23-1.35,6.59-1.84,9.99-2.29c1.66-0.22,3.29-0.6,4.94-0.92
					c3.31-0.66,6-2.42,8.53-4.61c8.06-6.99,13.3-15.86,17.36-25.55c0.34-0.81,0.64-1.64,1.01-2.43c0.48-1.01,1.27-1.59,2.45-1.64
					c0.87,2.82,0.73,5.28-0.46,8.07c-3.68,8.69-9.08,16.08-15.56,22.86c-4.98,5.2-11.04,7.64-18.02,8.45
					c-2.44,0.29-4.92,0.74-7.22,1.55c-5.85,2.04-11.75,2.92-17.91,1.89c-2.04-0.34-4.14-0.34-6.2-0.56
					c-4.05-0.42-7.94,0.68-11.9,1.12c-2.45,0.28-4.94,0.45-7.4,0.4c-3.08-0.06-4.71-2.05-4.2-5.07c0.25-1.45,0.98-2.81,1.47-4.16
					c-2.78,0.38-6.16,2.08-8.72,4.5c0.18,0.44,0.34,0.96,0.6,1.44c2.4,4.53,2.65,9.29,1.52,14.21c-1.72,7.5-4.85,14.39-9.37,20.59
					c-9.58,13.1-19.22,26.16-28.97,39.14c-5.25,6.99-11.16,13.4-18.34,18.51c-2.61,1.86-5.29,3.59-8.41,4.51
					c-1.81,0.54-3.6,0.51-5.42-0.02c-1.51-0.44-2.49-1.34-3.04-2.79c-1.67-4.35-3.01-8.78-2.96-13.5c0.03-2.53-0.78-4.72-2.35-6.63
					c-2.59-3.13-3.55-6.55-2.2-10.48c0.07-0.23,0.09-0.47,0.17-0.92c-0.51-0.73-1.07-1.6-1.71-2.39c-2.71-3.35-3.89-7.26-4.52-11.45
					c-0.91-6.1-0.01-12.12,0.71-18.15c0.3-2.45,0.8-4.88,1.21-7.33c0.73-4.3,2.21-8.33,4.6-12c2.49-3.81,5.08-7.56,7.57-11.38
					c0.77-1.18,1.34-2.48,2-3.73c-1.44-1.5-3.08-1.82-4.72-2.12c-4.55-0.82-9.12-1.56-13.67-2.42c-3.04-0.58-6.03-1.37-8.74-3.12
					c0.48-0.93,0.93-1.79,1.36-2.63c0.15-0.28,0.3-0.56,0.44-0.84C372.01,404.48,372.19,404.37,372.3,404.42z"/>
				<path class="st0" d="M552.02,280.81c1.3,4.61,1.1,9.37,1.2,14.06c0.35,16.87,0.5,33.74,0.75,50.6c0.03,1.99-0.44,3.77-1.6,5.41
					c-0.51,0.73-0.72,1.66-1.1,2.56c0.74,0.46,1.2,0.98,1.67,0.99c5.72,0.1,11.44,0.33,17.02,0.2c0.68-1.25,0.5-2.2-0.07-3.01
					c-1.5-2.13-1.92-4.6-1.98-7.06c-0.25-9.51-0.34-19.03-0.5-28.8c3.73-2.3,7.39-4.55,11.06-6.81c1.22,1.24,1.13,2.64,1.15,3.97
					c0.1,7.44,0.26,14.87,0.25,22.31c-0.01,4.87-0.15,9.75-0.45,14.61c-0.3,4.7-0.89,9.38-1.35,14.07c-0.08,0.8-0.24,1.63,0.87,2.05
					c4.86-4.18,9.74-8.37,14.61-12.55l1.72,1.58c-0.17,0.24-0.34,0.47-0.5,0.71c-0.33,0.47-0.65,0.96-1.06,1.57
					c2.7,0.6,4.95,0.04,7-1.1c2-1.11,3.83-2.52,5.81-3.85c1.28,1.23,2.44,2.45,3.71,3.53c1.21,1.04,2.47,2.15,4.69,1.75
					c-3.15-6.51-3.02-12.91-0.42-19.68c0.63,0.93,1.09,1.56,1.5,2.22c1.8,2.93,3.57,5.88,5.38,8.8c0.34,0.55,0.83,1.01,1.5,1.82
					c2.62-4.74,4.65-9.33,8.02-13.6c0.71,2.55,1.38,4.66,1.89,6.8c0.49,2.09,1.05,4.21,1.14,6.34c0.09,2.16-0.37,4.35-0.59,6.53
					c2.55-0.01,2.66-0.07,7.41-3.93c0.7,0.32,1.47,0.72,2.27,1.04c3.11,1.24,6.22,2.49,9.35,3.66c0.77,0.28,1.66,0.25,2.49,0.36
					c0.11-0.22,0.23-0.44,0.34-0.66c-0.6-0.81-1.19-1.62-1.81-2.41c-6.98-8.77-11.35-18.63-12.61-29.82
					c-0.12-0.99-0.48-2.04-0.99-2.89c-2.3-3.82-3.75-7.95-4.61-12.28c-1.03-5.2-1.85-10.42,0.17-15.6c0.12-0.32,0.02-0.73,0.02-1.23
					c-0.68,0.1-1.15,0.13-1.59,0.25c-2.16,0.58-4.29,1.24-6.47,1.76c-0.72,0.17-1.69,0.26-2.28-0.08
					c-3.45-1.96-7.04-1.76-10.71-0.97c-3.99,0.86-7.91,1.93-11.46,4.04c-0.62,0.37-1.61,0.52-1.22,1.95
					c1.92-0.15,3.89-0.3,5.86-0.45c1.66-0.13,3.37-0.5,5.03,1.26c-0.1,1.12-0.06,2.56-0.38,3.92c-1.08,4.58-2.28,9.14-3.46,13.7
					c-0.13,0.5-0.37,0.97-0.51,1.33c-2.53-0.78-4.84-1.75-7.24-2.16c-3.11-0.53-5.43,0.45-6.61,2.41l-1.42-0.01
					c0.01-6.12,0.2-12.25,0.76-18.42c-5.01-3.05-9.06-7.34-12.99-11.98c-1.14,1.58-2.09,2.94-3.09,4.26
					c-0.97,1.28-1.95,2.53-2.99,3.75c-1.08,1.29-2.16,2.58-3.36,3.75c-1.14,1.11-2.03,2.58-3.69,3.16
					c-0.11-0.32-0.21-0.46-0.21-0.61c0.16-7.98-0.87-15.96-0.09-23.96c0.3-3.12,0.61-6.19,1.72-9.14c0.16-0.4,0.14-0.86,0.26-1.76
					c-0.97,0.34-1.63,0.5-2.21,0.8c-1.35,0.69-2.67,1.43-3.99,2.19c-3.05,1.77-6.29,2.68-9.85,2.31c-0.92-0.09-1.86-0.01-3.03-0.01
					c0.23,0.92,0.35,1.52,0.52,2.11C551.11,277.92,551.61,279.36,552.02,280.81z M510.14,351.41c3.29,0.62,6.4,0.81,9.2,1.84
					c2.85,1.05,5.41,2.92,8.17,4.48c0.09-0.05,0.31-0.14,0.5-0.29c4.53-3.56,9.72-5.38,15.43-5.87c1.71-0.14,3.41-0.5,5.29-0.79
					c-0.2-3.05-0.48-5.82-0.55-8.61c-0.21-8.15-0.33-16.3-0.49-24.45c-0.02-0.92-0.1-1.84-0.15-2.82
					c-7.27,0.34-14.09,1.4-20.87,3.89c-0.74-5.41-0.67-10.44-0.48-15.76c1.02,0.5,1.63,0.86,2.28,1.12c2.3,0.9,4.56,1.95,6.92,2.6
					c1.73,0.47,3.66,0.76,5.41,0.5c4.27-0.61,7.93-5.04,8.34-9.65c0.04-0.51-0.11-1.04-0.17-1.54c-1.59-0.23-3.02-0.4-4.43-0.64
					c-3.63-0.59-7.31-1.12-10.58-2.85c-2.41-1.27-4.41-1.13-6.72,0.23c-4.41,2.6-9.01,4.83-14.21,5.39
					c-0.38,0.04-0.74,0.22-1.38,0.41c2.83,10.51,1.94,21.15,1.88,31.9c6.89-1.35,13.31-3.85,20.36-4.76
					c0.53,6.32,0.19,12.24-0.72,18.47c-0.92-0.45-1.62-0.78-2.32-1.13c-4.27-2.15-8.55-4.3-12.82-6.46
					c-1.46-0.74-2.96-1.2-4.77-0.63C511.05,340.87,509.5,345.93,510.14,351.41z M498.12,291.77c2-5.17,5.26-8.96,9.1-12.7
					c-3.31-3.17-6.4-6.14-9.53-9.14c-4.16,3.56-6.37,8.12-8.86,12.84C491.95,285.79,494.93,288.68,498.12,291.77z M503.63,291.73
					c-4.98,1.37-9.81,2.69-14.72,4.04c-0.79,2.93,2.29,2.66,3.36,4.4c0,0.47-0.01,1.26,0,2.05c0.2,12.78,0.43,25.57,0.6,38.35
					c0.07,4.9,0.53,9.73,2.43,14.31c0.42,1,0.99,1.95,1.52,2.97c4.26-1.42,8.31-2.77,12.69-4.23c-0.34-1.17-0.48-2.2-0.94-3.06
					c-1.19-2.24-1.75-4.61-1.82-7.12c-0.11-3.91-0.26-7.83-0.33-11.74c-0.18-11.11-0.34-22.21-0.49-33.32
					C505.9,295.98,505.18,293.86,503.63,291.73z M364.51,285.5c2.21-0.47,4.27,0.29,6.07,1.66c0.7,0.53,1.37,1.1,2.18,1.75
					c0.46-0.49,0.87-0.94,1.29-1.38c3.38-3.52,8.66-4.62,12.68-0.35c2.13,2.25,4.46,4.31,6.87,6.63c1.57-1.86,3.05-3.42,4.29-5.14
					c3.59-4.96,9.51-6.05,14.2-0.66c0.99,1.14,2.13,2.14,3.36,3.36c3.78-2.15,7.1-0.64,10.4,1.21c1.24,0.69,2.59,1.2,4.23,1.94
					c-3.69,1.89-7.58,1.83-11.02,2.99c-0.69,0.99-0.41,1.85,0.26,2.49c2.58,2.49,3.41,5.73,3.87,9.08c0.33,2.37,0.54,4.78,0.52,7.17
					c-0.07,7.28-0.24,14.55-0.45,21.82c-0.07,2.39-0.4,4.77-0.62,7.29c4.77,3.24,8.63,7.39,12.5,11.53
					c0.09,0.09,0.31,0.06,0.79,0.15c3.78-5.25,8.42-9.85,14.45-13.44c1.06,5.49,3.17,10.09,7.25,13.73
					c1.69-2.77,3.26-5.35,4.84-7.93c1.57-2.58,4.5-4,5.98-6.8l2.81,0.1c-0.07,1.91-0.28,3.82-0.51,5.73
					c-0.28,2.27-1.27,4.28-2.85,5.96c-0.6,0.65-1.3,1.26-0.64,2.54c4.29,0.82,8.06-1.2,11.7-2.67c4.06,2.74,8.02,5.41,12.09,8.15
					c0.57-0.71,0.99-1.25,1.39-1.76c-0.09-0.33-0.11-0.57-0.22-0.77c-0.42-0.77-0.81-1.57-1.31-2.29
					c-3.92-5.57-5.46-11.86-5.57-18.55c-0.3-18.07-0.53-36.15-0.8-54.23c-0.06-3.87,0.5-7.64,1.75-11.31
					c0.24-0.71,0.28-1.48,0.51-2.79c-1.9,0.98-3.31,1.69-4.71,2.41c-2.63,1.35-5.28,2.74-8.32,2.79c-1.89,0.04-3.79-0.15-5.69-0.24
					c-0.46-2.38-0.86-4.47-1.34-6.94c0.93-0.02,1.72-0.22,2.4-0.03c3.25,0.9,6.15-0.11,9.02-1.46c1.08-0.51,2.16-1.02,3.22-1.58
					c3.11-1.63,6.23-1.95,9.51-0.03c0.63-0.46,1.26-0.92,1.89-1.39c4.08-3.06,9.05-1.84,11.57,1.33c1.87,2.36,4.33,4.24,6.52,6.34
					c0.75,0.72,1.57,1.38,2.23,2.17c2.69,3.24,2.48,7.43-0.49,10.39c-0.9,0.9-1.85,1.76-2.91,2.75c0.71,1.3,1.39,2.54,2.1,3.85
					c2.35,0.18,4.43-0.61,6.45-1.56c2.23-1.06,4.44-2.19,6.6-3.4c3.78-2.11,7.51-2.27,11.42-0.27c2.84,1.45,5.95,2.08,9.31,2.69
					c-0.02-2.79-0.28-5.22-1.02-7.58c-0.43-1.37-0.98-2.7-1.4-4.08c-1.2-3.86,1.16-8.23,5.09-9.2c1.45-0.36,3.02-0.5,4.5-0.37
					c2.67,0.25,5.04-0.31,7.32-1.7c1.56-0.96,3.19-1.84,4.89-2.52c3.29-1.31,6.45-1.07,9.15,1.45c2.27,2.13,2.91,4.8,1.89,7.68
					c-1.52,4.31-1.54,8.78-1.89,13.5c0.62-0.39,1.08-0.63,1.5-0.93c3.93-2.79,8.45-2.3,11.56,1.36c2.24,2.62,4.37,5.32,7.27,7.27
					c0.33,0.22,0.67,0.43,0.97,0.62c0.21-0.02,0.41,0.02,0.52-0.06c5.85-4.25,12.66-5.98,19.56-7.38c2.93-0.59,5.9-0.24,8.79,0.52
					c0.93,0.24,1.85,0.49,2.76,0.74c1.87-0.52,3.71-1.06,5.56-1.55c6.28-1.65,11.4,2.88,9.86,9.15c-2.04,8.31-0.25,15.82,3.75,23.03
					c1.36,2.45,1.73,5.1,2.16,7.79c0.39,2.43,0.82,4.92,1.68,7.2c2.5,6.61,5.65,12.89,10.18,18.38c1.78,2.17,2.53,4.64,1.94,7.39
					c-0.92,4.24-5.27,6.7-9.93,5.53c-2.86-0.72-5.64-1.76-8.45-2.64c-0.73-0.23-1.47-0.39-2.56-0.67c0.34,3.71-1.35,6.5-2.53,9.44
					c-3.14,7.84-3.72,15.96-2.98,24.28c0.19,2.12-0.01,4.29-0.21,6.43c-0.06,0.63-0.74,1.21-1.03,1.65
					c-1.74-0.1-2.04-1.16-2.26-2.17c-0.52-2.33-0.95-4.69-1.49-7.37c-1.06-0.83-1.41-2.27-1.52-3.96c-0.34-4.96-1.52-9.8-3.16-14.47
					c-0.66-1.89-2.04-3.53-3.16-5.38c-1.55,1.12-1.79,3.14-3.75,3.38c-2.03-1.4-1.89-3.93-3.05-6c-1.67,0.43-3.21,0.05-4.21-1.53
					c-1.29,0.83-2.41,1.55-3.51,2.26c-2.65-0.75-3.05-3.33-4.79-5.08c-3.72,1.19-7.66,2.14-11.74,1.48
					c-2.36,2.11-4.59,4.16-6.89,6.14c-2.45,2.11-5.3,3.04-8.45,2.09c-1.47-0.45-2.77-1.45-4.27-2.26c-0.18,2.35-0.32,4.77-0.58,7.19
					c-0.25,2.38-0.58,4.76-0.95,7.12c-0.32,2-1.08,2.65-3.22,2.88c-1.03-1.52-1.43-3.28-1.71-5.1c-1.03-6.87-2.08-13.74-3.17-20.92
					c-2.8,0-5.42-0.03-8.04,0.01c-3.25,0.05-6.18-0.72-8.6-3.22c-4.75-0.03-9.04,1.46-12.9,4.26c-1.47,1.06-1.89,2.72-2.21,4.38
					c-0.6,3.22-1.15,6.45-1.75,9.67c-0.2,1.09-0.35,2.26-2.04,2.68c-0.41-0.6-1.05-1.22-1.29-1.97c-0.66-1.97-1.13-3.99-1.69-5.99
					c-0.4-1.46-0.72-3.01-2.75-3.44c-2.62,0.67-4.21,2.59-4.91,5.19c-0.64,2.39-1.03,4.84-1.43,7.28c-0.42,2.55-1.07,5-2.37,7.25
					c-1.77,3.09-2.21,6.44-2.11,9.95c0.12,3.59,0.22,7.2,0.1,10.79c-0.05,1.64-0.58,3.28-1,4.89c-0.23,0.91-0.89,1.59-1.9,1.54
					c-1.11-0.06-1.62-0.8-1.89-1.85c-0.82-3.25-0.36-6.51-0.28-9.78c0.12-5.11,0.28-10.23,0.02-15.33
					c-0.3-5.66-1.04-11.29-1.64-16.94c-0.2-1.9-0.5-3.83-2.74-4.89c-1.03,1.26-2.06,2.51-3.21,3.9c-1.11-0.62-1.98-1.11-3.03-1.69
					c-0.74,0.19-1.64,0.53-2.57,0.63c-2.21,0.24-4.28-0.22-6.19-1.43c-2.16-1.37-4.39-2.62-6.52-4.03c-1.17-0.77-2.3-0.93-3.63-0.56
					c-1.61,0.43-3.26,0.8-4.91,1.06c-2.89,0.45-5.75,0.5-8.39-1.36c-3.62,1.84-7.21,2.06-10.47-0.41c-3,0.9-4.25,2.39-4.42,5.4
					c-0.13,2.23,0.03,4.48-0.12,6.71c-0.19,2.7-0.58,5.38-0.86,7.83c-2.3,1.57-3.77,1.23-4.64-0.85c-0.32-0.78-0.51-1.56-0.59-2.36
					c-0.09-0.85-0.04-1.71,0.14-2.58c0.38-1.88,0.74-3.77,1.02-5.66c0.45-2.99-0.01-5.86-1.24-8.86c-2.84,2.29-5.91,2.91-9.38,1.89
					c-0.34,2.87-0.69,5.62-1.01,8.37c-0.59,5.08-1.29,10.15-1.7,15.25c-0.18,2.24-0.02,4.5,0.06,6.77c0.02,0.54,0.03,1.07,0.04,1.61
					c0.02,1.36-0.02,2.71-0.06,4.07c-0.03,1-0.57,1.61-1.54,1.88c-0.89,0.25-1.56-0.05-2.12-0.71c-1.14-1.33-1.8-2.85-1.7-4.61
					c0.22-3.67,0.24-7.37,0.77-11c0.62-4.19,0.31-8.28-0.32-12.4c-0.52-3.48-1.04-6.95-1.6-10.72c-0.24-0.2-0.71-0.6-1.32-1.12
					c0.52-0.49,1.02-0.95,1.62-1.52c0.08-1.12,0.16-2.36,0.28-4.12c-4.06,3.16-8.47,5.3-8.9,10.8c-0.32,4.07-0.62,8.13-1.02,12.19
					c-0.21,2.14-0.57,4.27-0.94,6.39c-0.11,0.6-0.49,1.15-0.72,1.66c-1.66,0.61-2.26-0.45-2.45-1.57c-0.26-1.56-0.23-3.18-0.3-4.77
					c-0.1-2.38-0.15-4.77-0.3-7.15c-0.04-0.6-0.4-1.17-0.65-1.85c-0.81,0.3-1.47,0.56-2.14,0.8c-5.09,1.83-10.14-1.3-10.65-6.67
					c-0.15-1.5-0.03-3.02-0.03-4.47c-1.59-0.52-17.35-0.78-21.05-0.39c-0.28,0.84-0.61,1.73-0.86,2.64
					c-1.31,4.7-2.61,9.39-3.88,14.1c-0.77,2.87-0.97,5.79-0.78,8.79c0.11,1.74,0.21,3.48,0.28,5.22c0.14,2.89,0.23,5.79,0.29,8.68
					c0.03,1.58-0.27,3.18-0.52,4.75c-0.05,0.29-0.09,0.52-0.16,0.71c-0.19,0.56-0.53,0.8-1.45,1.43c-2.34-0.89-2.98-1.77-3.06-4.23
					c-0.14-3.92-0.22-7.83-0.41-11.74c-0.39-8.21-1.87-16.18-5.16-23.76c-0.82-1.9-1.33-3.92-2.06-6.12
					c-1.28-0.16-2.77-0.31-4.24-0.53c-4.53-0.66-7.67-4.53-7.2-9.13c0.15-1.55,0.71-3.13,1.43-4.51c0.54-1.04,0.89-2.01,0.91-3.15
					c0.04-3.43,0.2-6.87,0.14-10.3c-0.19-9.83-0.47-19.66-0.72-29.71c-2.78-1.98-3.65-4.91-3.3-8.33c0.3-2.9,1.69-5.11,4.54-5.86
					C353.6,287.91,359.05,286.66,364.51,285.5z M352.76,352.68c0.15,0.28,0.4,0.49,0.72,0.86c5.94-0.06,11.98,0.44,18.31-0.44
					c-0.29-1.14-0.28-2.12-0.75-2.73c-1.65-2.17-2.02-4.66-2.07-7.25c-0.17-9.27-0.3-18.54-0.44-27.82
					c-0.01-0.62,0.09-1.24,0.15-1.88c3.28-1.64,6.47-3.22,9.96-4.97c0.28,1.2,0.63,2.02,0.64,2.84c0.16,11.27,0.28,22.55,0.4,33.82
					c0.02,1.89-0.43,3.63-1.68,5.13c-0.88,1.04-0.98,2.13-0.05,3.17c4.88,0.48,15.98,0.26,17.7-0.34c0.29-1.75,0.35-1.79-0.47-3.12
					c-1.37-2.26-1.97-4.72-2.03-7.31c-0.17-8.87-0.3-17.75-0.43-26.62c-0.01-0.63,0.08-1.25,0.13-1.98c3.33-1.76,6.62-3.5,9.79-5.16
					c1.29,0.87,1.12,1.96,1.15,2.98c0.12,5.04,0.34,10.08,0.32,15.11c-0.05,8.23-0.2,16.47-0.44,24.69
					c-0.09,3.03-0.62,6.04-0.89,9.06c-0.13,1.54-0.6,3.14,0.53,4.91c1.79-1.8,2.84-3.98,4.44-5.68c1.59-1.69,3.15-3.42,4.86-4.97
					c1.76-1.6,3.7-3.01,5.22-4.23c-0.16-16.54-0.31-32.68-0.46-48.51c-3.77-3.38-7.45-6.69-11.15-9.97
					c-0.39-0.34-0.91-0.52-1.48-0.84c-3.38,4.27-6.58,8.54-10.49,11.75c-0.89-0.89-1.48-1.72-2.26-2.23
					c-3.57-2.33-6.83-5.01-9.66-8.21c-0.5-0.56-1.12-1.02-1.79-1.64c-3.76,4.78-7.41,9.27-12.23,13.12
					c-0.56-4.26,0.83-8.6-2.64-11.97c-4.9,1.12-9.84,2.25-14.73,3.37c-0.35,2.8,2.07,2.82,3.23,4.04c0.03,0.33,0.1,0.72,0.1,1.11
					c0.18,13.92,0.32,27.83,0.54,41.74c0.05,3.12-0.28,6.06-2.31,8.58c-0.09,0.11-0.07,0.31-0.12,0.6
					C352.47,351.95,352.58,352.34,352.76,352.68z M603.14,310.31c0.25-0.92,0.47-1.73,0.76-2.8c-1.34,0-2.3,0-3.25,0
					c0,1.04,0,1.86,0,2.8C601.55,310.31,602.3,310.31,603.14,310.31z"/>
				<path class="st0" d="M348.26,154.59c5.94-4.12,11.5-7.97,17.28-11.97c2.23,6.03,2.8,11.63-2.04,16.84
					c6.78,5.24,8.56,12.65,9.48,20.75c-0.58-0.15-0.96-0.16-1.25-0.32c-4.53-2.52-9.05-5.07-13.58-7.59
					c-0.61-0.34-6.86-4.46-8.28-5.47c-0.72-0.51-1.45-0.99-2.37-1.62C347.76,161.55,348.03,157.84,348.26,154.59z"/>
				<path class="st0" d="M340.33,355.35c0.16-0.38,0.76-0.58,1.22-0.91c2.84,5.52,6.6,9.46,12.87,10.09
					c4.48,8.26,6.08,17.2,6.34,26.49c-2.14-1.77-1.69-4.19-1.52-6.65c-0.6-0.28-1.18-0.5-1.71-0.8c-1.17-0.67-2.43-1.25-3.45-2.1
					c-1.93-1.62-2.68-3.72-1.94-6.22c0.27-0.91,0.53-1.82,0.88-2.99c-0.82-0.17-1.56-0.36-2.31-0.48c-1.48-0.24-2.85-0.79-3.65-2.05
					c-1.94-3.03-4.7-5.19-7.4-7.43c-0.49-0.4-0.93-0.85-1.41-1.3C338.95,359.06,339.58,357.18,340.33,355.35z"/>
				<path class="st0" d="M333.81,364.75c0.87-0.81,1.84-1.7,2.95-2.72c2.74,2.49,5.75,4.5,7.84,7.5c1.4,2.02,2.99,3.76,5.78,4.26
					c-0.63,2.62-0.88,5.13,0.51,7.5c1.33,2.24,3.5,3.44,5.81,4.73c-0.18,4.06-0.65,8.35,4.24,10.28c0,1.86,0,3.52,0,5.59
					c-2.62-1.66-4.94-3.3-6.82-5.43c-1.98-2.24-1.26-5.36-2.35-8.16c-4-2.64-6.26-6.48-6.29-11.57
					C341.64,372.79,337.8,368.85,333.81,364.75z"/>
				<path class="st0" d="M346.9,136.51c0.46,1.74,0.92,3.49,1.36,5.16c3.92,0.5,10.74-2.58,12.5-5.65
					c-3.64,1.89-7.22,3.51-11.32,3.84c-0.75-1.26-1.45-2.4-2.14-3.55C347.17,136.38,347.04,136.44,346.9,136.51z M181.1,58.36
					c2.22-0.09,4.47,0.15,6.7,0.3c4.15,0.29,8.3,0.59,12.35-0.74c1.74-0.57,3.45-1.23,4.66-2.87c-3.09,1.25-6.17,2.35-9.54,1.7
					c-0.01-0.24-0.09-0.46-0.02-0.53c3.16-3.17,6.23-6.47,10.17-8.69c7.6-4.26,15.27-8.38,22.88-12.61
					c5.72-3.19,11.86-5.1,18.26-6.25c5.26-0.95,10.51-2.06,15.81-2.68c6.19-0.73,12.42-0.82,18.67-0.35
					c8.17,0.6,16.15,2.02,23.96,4.44c7.74,2.41,14.99,5.88,21.95,10.04c10.66,6.38,17.85,15.58,22.45,26.96
					c3.76,9.32,5.46,19.03,5.19,29.06c-0.09,3.17-0.73,6.34-1.13,9.51c-0.29,2.28-0.8,4.56,0.14,6.84c0.12-0.68,0.24-1.37,0.36-2.09
					c1.96,1.02,13.38,13.33,18.88,20.28c-4.01,7.26-20.86,17.99-31.57,19.98c-0.32-2.11-0.63-4.22-0.97-6.32
					c-1.95-12.03-6.13-23.14-13.61-32.88c-3.68-4.79-7.89-9.02-13.18-12.07c-3.11-1.8-6.36-2.93-10.03-2.66
					c-2.78,0.21-5.59,0.41-8.38,0.31c-4.14-0.16-8.3-0.46-12.42-0.94c-6.74-0.79-13.44-1.84-20.18-2.66
					c-15.45-1.89-30.45-5.44-44.91-11.32c-7.41-3.01-14.71-6.22-21.64-10.22c-1.51-0.88-2.95-1.92-4.24-3.1
					c-2.91-2.67-6.23-3.49-9.96-2.35c-1.59,0.49-3.13,1.21-4.61,1.98c-2.14,1.12-3.05,3.17-3.68,5.46
					c-0.75,0.25-1.49,0.49-2.27,0.75c-1.11-0.85-1.05-2.01-0.85-3.07c0.92-4.9,3.35-8.98,7.2-12.09
					C178.45,58.74,179.89,58.4,181.1,58.36z M344.53,102.26c1.21-2.98,2.92-5.88,2.31-9.48c-1.4,3.14-2.8,6.27-4.14,9.28
					c1.24,2.32,2.4,4.49,3.57,6.67c0.13-0.06,0.26-0.11,0.39-0.17C345.96,106.49,345.26,104.41,344.53,102.26z"/>
				<path class="st0" d="M455.17,273.2c0.93,0.24,1.86,0.46,2.79,0.69c-29.02-11.63-57.86-23.54-86.43-36.11
					c-0.07,0.14-0.13,0.29-0.2,0.43c0.81,0.42,1.62,0.86,2.45,1.25c11.54,5.45,23.12,10.8,34.61,16.36
					C423.44,263.11,439.01,268.92,455.17,273.2z M386.19,238.82c12.43,7.32,47.22,16.16,61.06,15.48
					c-9.21-2.12-18.39-4.41-27.64-6.32c-10.8-2.24-21.5-4.74-31.77-8.82C387.48,239.02,387.07,239,386.19,238.82z M377.27,248.76
					c12.65,8.12,25.7,15.49,39.35,21.82c10.38,4.82,21.29,8.17,32.06,11.91c0.23,0.08,0.53-0.03,1.14-0.09
					c-0.59-0.31-0.86-0.48-1.14-0.6c-10.63-4.77-21.3-9.47-31.89-14.32c-7.98-3.65-16.08-7.13-23.76-11.35
					c-12.1-6.66-23.89-13.89-35.82-20.87c-0.44-0.26-0.9-0.5-1.35-0.76c-0.08,0.13-0.16,0.26-0.25,0.39
					c0.8,0.57,1.58,1.18,2.41,1.71C364.43,240.66,370.88,244.66,377.27,248.76z M343.13,228c3.56,0.1,6.83-0.96,9.77-2.79
					c1.44-0.89,2.49-2.41,3.71-3.65c0.73,0.29,1.46,0.59,2.19,0.89c0.09,0.03,0.17,0.06,0.26,0.1l-0.1-0.08
					c0.52,0.33,1,0.72,1.56,0.96c13.79,5.8,28.01,10.23,42.64,13.36c7.69,1.64,15.51,1.96,23.35,1.99c3.12,0.02,6.24-0.09,9.36,0
					c0.96,0.03,2.12,0.3,2.84,0.88c5.54,4.44,10.02,9.84,14.03,15.66c0.08,0.12,0.09,0.3,0.18,0.64c-1.21,0.26-2.41,0.52-3.93,0.84
					c0.58,0.37,0.97,0.66,1.39,0.86c1.37,0.64,2.81,1.16,4.13,1.88c5.17,2.82,8.59,7.11,10.14,12.78c1.15,4.25-0.3,7.71-3.99,10.13
					c-0.73,0.47-1.48,0.92-2.29,1.43c2.17,5.7-0.97,10.17-2.94,14.81c-0.61,0.04-0.88,0.14-1.08,0.06
					c-7.13-2.99-14.35-5.82-21.38-9.03c-22.99-10.52-45.11-22.65-66.01-36.91c-7.92-5.4-15.55-11.25-21.95-18.5
					c-1.62-1.84-3.07-3.83-4.93-6.17C341.45,228.07,342.29,227.98,343.13,228z"/>
				<path class="st0" d="M340.56,352.97c-1.13-1.25-0.53-2.65-0.84-4.22c0.8-0.15,1.37-0.26,2.16-0.41
					C341.65,350.06,341.81,351.64,340.56,352.97z"/>
				<path class="st0" d="M326.26,163.53c0.41-0.54,0.85-1.07,1.46-1.83c0.8,1.96,0.97,3.69,0.96,5.42c-0.01,1.83-0.15,3.67-0.24,5.5
					l-1.11-0.06c-0.14-0.11-0.28-0.21-0.43-0.32c-0.34,0.59-0.69,1.19-1.04,1.78c-2.32,2.42-4.83,4.61-7.94,5.96
					c-2.99,1.29-6.03,2.48-9.05,3.72c-0.87,0.36-1.74,0.72-2.62,1.08l-2.53-1.57c0.76-1.23,1.52-2.45,2.22-3.7
					c0.52-0.93,1.26-1.47,2.1-1.88c0.5-0.25,1.03-0.43,1.56-0.63c5.71-2.06,10.37-5.57,14.24-10.19
					C324.71,165.77,325.45,164.62,326.26,163.53z"/>
				<path class="st0" d="M320.12,152.52c1.8-0.91,3.01,0.63,4.63,1.01c-0.56,3.06-2.04,5.56-3.4,8.12c2.13-1.77,2.93-4.38,4.34-7.11
					c0.76,2.13,1.37,3.84,2.01,5.59c-4.98,7.53-12.71,11.56-19.9,16.8c0.48-3.27,0.91-6.12,1.34-9.03c0.13-0.13,0.26-0.35,0.46-0.47
					c5.24-3.35,7.92-8.6,10.39-14.01C320.1,153.15,320.08,152.83,320.12,152.52z"/>
				<path class="st0" d="M319.73,220.55c0.43-4.28,1.04-7.86,3.71-10.73c0.54-0.58,0.95-1.28,1.42-1.93
					c1.19-1.63,1.63-3.41,1.29-5.43c-0.23-1.41-0.3-2.85-0.44-4.27c0.5-0.44,0.91-0.81,1.34-1.15c2.81-2.25,4.19-5.17,4.17-8.76
					c-0.01-2.08-0.09-4.16-0.03-6.23c0.1-3.51,0.2-7.02,0.48-10.51c0.35-4.36,0.02-8.62-1.3-12.79c-0.31-0.99-0.56-1.99-0.89-3.2
					c2.09,0.08,3.78,0.95,5.54,1.55c1.73,0.59,3.45,1.21,5.21,1.84c2.19-1.26,4.31-2.47,6.75-3.86c-0.9,5.59-1.81,10.64-7.87,12.51
					c3.04,0.18,5.14-1.49,7.56-3.67c-0.29,1.44-0.44,2.35-0.66,3.25c-0.48,2.02-0.98,4.03-1.5,6.04c-0.82,3.22-2.72,5.55-5.71,7
					c-0.47,0.24-0.94,0.5-1.26,1.15c1.48-0.42,2.96-0.84,4.66-1.33c-0.17,0.72-0.27,1.32-0.45,1.9c-0.39,1.3-0.87,2.57-1.22,3.88
					c-0.93,3.5-2.42,6.61-6.31,8.55c0.84,0.23,1.22,0.34,1.84,0.52c-1.78,5.22-3.22,10.57-9.19,12.89c1.16,1.15,2.63-0.89,3.65,0.91
					C327.89,213.14,324.38,216.94,319.73,220.55z"/>
				<path class="st0" d="M320.12,152.48c0,0.01,0,0.03,0,0.04c-0.01,0-0.02,0.01-0.03,0.02c0.01-0.02,0.02-0.03,0.02-0.05
					C320.11,152.48,320.12,152.48,320.12,152.48z"/>
				<path class="st0" d="M320.11,152.49c0,0.02-0.01,0.03-0.02,0.05h-0.01c0-0.02,0-0.02,0.01-0.02
					C320.09,152.51,320.1,152.5,320.11,152.49z"/>
				<path class="st0" d="M320.09,152.52c-0.01,0-0.01,0-0.01,0.02h-0.01L320.09,152.52z"/>
				<path class="st0" d="M299.29,348.35l0.66-0.79c0.17,0.14,0.34,0.28,0.51,0.42c3.95-4.53,8.53-8.55,14.22-11.71
					c0.06,0.89,0.14,1.49,0.14,2.08c0.02,2.48-0.05,4.97,0.03,7.44c0.05,1.51,0.33,3,0.48,4.5c0.07,0.63,0.09,1.25,0.15,2.04
					c-2.13,0.68-4.16,1.33-6.24,2C305.96,352.23,302.7,350.13,299.29,348.35z"/>
				<path class="st0" d="M314.22,100.9c0.64,0.4,1.31,0.76,1.91,1.21c5.08,3.82,8.99,8.67,11.61,14.41
					c3.82,8.36,6.78,17.05,8.45,26.12c0.46,2.49,0.74,5.01,1.11,7.54c-2.39,0.13-10.19-2.44-12.8-4.18
					C326.26,129.9,323.99,114.61,314.22,100.9z"/>
				<path class="st0" d="M302.88,191.4c7.8,1.31,18.07-5.25,21.3-10.21C317.83,186.15,310.43,188.92,302.88,191.4z M298.44,213.32
					c1.03-3.26,2.03-6.41,3.12-9.83c0.06-0.05,0.3-0.15,0.52-0.11c2.99,0.51,5.65-0.35,8.29-1.68c2.27-1.15,4.69-2.01,7.04-3
					c0.63-0.27,1.26-0.54,1.8-1.17c-0.57,0.06-1.17,0.05-1.73,0.18c-4.26,1-8.52,2.05-12.79,3.04c-1.06,0.25-2.16,0.34-3.5,0.55
					c-0.44-3.43-1.46-6.59-1.1-9.86c0.17-1.54,0.75-3.12,1.47-4.5c0.67-1.27,1.41-2.5,2.16-3.73l2.53,1.57
					c7.19-0.94,13.5-3.66,18.52-8.95c0.47-0.5,0.78-1.16,1.16-1.74c0.47-0.51,0.93-1.02,1.4-1.53l1.11,0.06
					c-0.03,0.64-0.05,1.27-0.06,1.91c-0.08,3.84-0.27,7.69-0.05,11.51c0.27,4.56-1.25,7.94-5.35,10.08c-0.2,0.11-0.37,0.3-0.79,0.64
					c0.09,1.01,0.2,2.17,0.33,3.54c-2.38,2.19-5.35,3.72-8.56,4.69c-3.18,0.96-6.46,1.62-9.66,2.53c6.61-0.37,12.82-2.08,18.49-6.01
					c0.7,2.03,0.3,3.58-0.65,5.02c-1.68,2.56-3.6,4.7-6.83,5.55c-4.05,1.06-8.07,1.85-12.27,1.45c-1.5-0.14-3.03-0.15-4.44-0.2
					C298.54,213.32,298.49,213.32,298.44,213.32z"/>
				<path class="st0" d="M292.2,297.42c-3.71,4.49-6.62,4.19-9.57-0.87c-1.8-3.09-2.58-6.53-3.21-9.99c-1.27-6.99-2.46-14-3.66-21
					c-0.63-3.73,0.17-7.57,2.35-11.17c2.78-0.19,5.47-0.37,8.39-0.57c-1.33,6.17-2.59,12.07-3.86,17.98
					c2.93-5.81,4.95-11.96,7.38-18.09c0.65-0.13,1.32-0.27,1.9-0.39c0.18,0.2,0.28,0.27,0.27,0.32c-1.6,9.41-3.21,18.83-4.82,28.24
					c0.16,0.05,0.33,0.09,0.49,0.14c0.37-1.07,0.79-2.11,1.1-3.19c2.25-7.82,4.48-15.66,6.74-23.48c0.21-0.75,0.53-1.48,0.84-2.34
					c1.41-0.08,2.74-0.16,4.38-0.27c-0.49,7.66-1.79,15-2.74,22.41c3.05-7.26,4.73-14.92,6.7-22.61c0.64-0.07,1.23-0.12,2.12-0.21
					c-0.46,6.15-0.9,12.09-1.34,18.04c2.44-5.91,3.6-12.16,5.46-18.34c2.09-0.19,4.14-0.38,6.42-0.59c0,0.88,0.14,1.66-0.02,2.38
					c-2.37,10.5-6.31,20.23-13.66,28.38c-2.67,2.96-4.92,6.29-7.35,9.47C295.06,293.57,293.72,295.57,292.2,297.42z"/>
				<path class="st0" d="M612.88,281.53c-3.68-3.88-7.38-7.76-11.07-11.65c-4.18-4.4-7.07-9.45-7.72-15.61
					c-0.45-0.42-0.88-0.83-1.31-1.23c-2.69-1.96-6.19-3.56-8.01-6.37c-1.06,0.54-1.42,1.78-1.52,3.27c0.11-1.44,0.23-2.88,0.34-4.33
					c-1.71-0.71-3.17-2.1-4.32-3.51c-0.06-0.07-0.09-0.15-0.11-0.23c-9.99-6.8-20.78-12.02-32.37-15.66
					c-22.63-7.1-45.67-12.1-69.38-13.6c-8.7-0.55-17.41-0.84-26.12-1.01c-10.56-0.2-21.12-0.08-31.67-0.24
					c-10.48-0.16-20.94-0.6-31.42-0.72c-8.71-0.11-17.41-0.32-26.11-0.93c-7.84-0.55-15.32-2.14-22.29-5.87
					c-0.21-0.11-0.41-0.21-0.63-0.31c-0.64-0.3-1.33-0.58-2.11-0.92c-1.13,2.33-2.2,4.46-3.21,6.61c-2.02,4.31-5.03,7.77-8.97,10.41
					c-1.85,1.23-3.81,2.31-5.45,3.3c-1.23,2.25-2.15,4.4-3.48,6.27c-3.73,5.23-8.81,8.77-14.81,10.94
					c-1.86,0.66-3.88,0.96-5.85,1.17c-5.45,0.56-10.66-0.6-15.66-2.69c-4.41-1.84-8.71-1.64-12.98,0.39
					c-3.03,1.44-6.09,2.81-9.08,4.33c-5.3,2.71-10.8,4.53-16.77,5.35c-7.81,1.07-15.52,2.84-23.63,4.38c-0.38,0.84-0.89,2-1.54,3.46
					c6.26-0.73,12.04-1.38,17.81-2.09c5-0.6,9.98-1.28,14.97-1.92c8.23-1.04,16.46-2.21,24.71-3.07c6.91-0.73,13.86-1.1,20.79-1.62
					c2.95-0.22,5.89-0.42,8.84-0.62c5.74-0.4,11.48-0.96,17.22-1.15c9.43-0.3,18.87-0.37,28.31-0.55c0.59-0.01,1.17-0.11,2-0.2
					c-0.45-0.61-0.74-0.98-1.01-1.36c-1.76-2.46-3.56-4.9-5.27-7.39c-1.99-2.89-3.9-5.83-5.74-8.59c-1.32-0.34-2.37-0.6-3.42-0.86
					c0.91-0.45,1.84-0.62,2.76-0.79c3.54-0.63,7.1-1.14,10.59-1.96c2.61-0.61,5.17-1.6,5.13-5.14c2.39-0.63,4.67-1.41,7.08-1.58
					c0.06,0.2,0.13,0.4,0.2,0.6c-1.51,0.53-3.01,1.07-4.61,1.65c0.25,0.66,0.43,1.16,0.61,1.66c0.73,0.29,1.46,0.59,2.19,0.89
					c0.09,0.03,0.17,0.06,0.26,0.1l-0.1-0.08c0.46,0.11,0.94,0.17,1.38,0.32c11.14,3.69,22.35,7.15,33.85,9.56
					c10.5,2.19,21.07,3.79,31.83,3.66c3.04-0.04,6.09,0.01,9.12-0.23c3.16-0.24,5.51,0.78,7.45,3.33c2.41,3.19,5.09,6.17,7.75,9.36
					c5.68,0.46,11.41,0.91,17.13,1.4c5.73,0.48,11.5,0.74,17.18,1.56c9.72,1.4,19.41,2.95,28.97,5.28
					c10.3,2.51,20.74,4.57,30.49,8.97c0.06,0.03,0.16,0.01,0.39,0.01c0.58-0.31,1.27-0.71,1.98-1.05c1.9-0.91,3.92-1.63,6.02-1.18
					c2.69,0.57,5.04-0.14,7.36-1.35c1.84-0.96,3.69-1.9,5.54-2.86c1.64-0.85,3.31-0.92,5.1-0.38c3.47,1.04,6.1,3.25,8.02,6.15
					c1.58,2.37,2.35,5.05,0.98,7.95c-0.5,1.07-0.77,2.28-0.95,3.45c-0.16,0.96-0.04,1.97-0.04,2.98c3.83-0.49,6.88,0.56,9.37,3.16
					c1.54,1.62,2.98,3.34,4.54,4.95c0.97,1,2.08,1.88,2.85,2.57c3.38-1.53,6.3-3.03,9.35-4.2c3.03-1.17,6.2-2.01,9.46-3.04
					C613.62,282.34,613.26,281.93,612.88,281.53z"/>
				<path class="st0" d="M619.76,249.81c-0.27-0.49-0.54-0.98-0.82-1.47c-0.72-0.91-1.49-1.77-2.3-2.61
					c-0.31-0.28-0.61-0.58-0.88-0.89c-1.65-1.63-3.4-3.18-5.05-4.8c-4.67-4.58-9.2-9.26-14.46-13.13c-0.97-0.68-1.96-1.32-2.95-1.97
					c-1.89-1.16-3.8-2.3-5.8-3.27c-0.2-0.1-0.27-0.27-0.25-0.43c-12.62-7.16-26.11-12.21-40.1-15.95
					c-10.81-2.9-21.79-4.95-32.96-5.88c-4.93-0.41-9.85-1.01-14.78-1.53c-5.56-0.57-11.11-1.24-16.69-1.7
					c-5.65-0.46-11.32-0.73-16.98-1.07c-10.29-0.63-20.59-1.17-30.87-1.89c-5.34-0.37-10.67-0.94-15.97-1.61
					c-6.02-0.76-12-1.77-18.01-2.59c-8.81-1.2-17.35-3.14-25.58-6.76c-5.58-2.45-10.82-5.45-16.08-8.46
					c-1.1-0.62-7.1-4.87-8.08-5.37c-1.17-0.61-2.34-1.25-3.62-1.94c-1.16,2.13-1.41,4.17-1.42,6.24c0,1.71-0.25,3.32-1.08,4.85
					c-0.37,0.69-0.59,1.48-0.82,2.24c-1.26,4.12-2.49,8.26-3.75,12.38c-0.94,3.03-1.91,6.05-2.93,9.28
					c0.73,0.34,1.45,0.69,2.15,1.03c1.28,0.62,2.52,1.21,3.8,1.72c7.29,2.89,14.92,4.24,22.71,4.29c9.11,0.06,18.22-0.31,27.33-0.57
					c3.75-0.1,7.5-0.6,11.25-0.56c8.39,0.07,16.79,0.34,25.18,0.58c7.03,0.2,14.07,0.39,21.09,0.73c7.26,0.35,14.52,0.83,21.78,1.33
					c3.98,0.27,7.98,0.52,11.92,1.1c7.42,1.09,14.81,2.38,22.21,3.64c16.34,2.78,32.2,7.32,47.71,13.12
					c9.99,3.74,19.53,8.37,27.71,15.42c0.39,0.34,0.73,0.75,1.08,1.14c0.08,0.04,0.17,0.08,0.26,0.12c0.27-0.24,0.57-0.46,0.78-0.75
					c2.67-3.66,6.36-4.5,10.57-3.72c1.44,0.26,2.83,0.76,4.25,1.15c-0.05,0.2-0.1,0.4-0.14,0.59c-1.68-0.29-3.36-0.62-5.05-0.85
					c-2.98-0.4-5.51,0.55-7.42,2.88c-0.46,0.56-0.68,1.34-1.07,2.26c1.19,1.82,3.14,3.13,5.09,4.37c0.02-0.02,0.05-0.04,0.07-0.06
					c1.06,0.67,2.12,1.34,3.28,2.08c0.15-0.51,0.26-0.88,0.37-1.26c1.05-3.64,3.23-5.26,7-5.25c2.22,0.01,4.19,0.86,6.15,1.77
					c1.27,0.59,2.54,1.17,3.81,1.75c2.94,1.35,5.88,2.69,8.83,4.02c0.47,0.21,0.98,0.32,1.97,0.64
					C621.22,252.43,620.49,251.12,619.76,249.81z"/>
				<path class="st0" d="M270.05,307.48c0,1.2,0,2.22,0,3.4c-4.37,2.29-8.79,4.61-13.49,7.09c0-4.8,0-9.21,0-13.94
					C261.12,305.2,265.55,306.33,270.05,307.48z"/>
				<path class="st0" d="M241.82,141.04c-7.4,2.95-14.63,0.02-17.41-7.05c-0.05-0.14-0.05-0.3-0.08-0.53
					c1.79-1.62,3.6-3.26,5.66-5.12c0.09,2.68,0.31,5.06,2.58,6.54c1.32,0.87,2.76,1.26,4.32,1.01c3.2-0.5,5.1-3.02,4.78-6.26
					c-3.8,0.16-5.35-0.74-5.29-5.37c-0.79,0.08-1.57,0.15-2.97,0.28c1.85-2.02,3.35-3.67,4.75-5.2c5.29,0.42,9.61,4.49,10.41,9.61
					c0.35,2.25,0.16,4.32-0.54,6.12C247.01,137.74,244.88,139.82,241.82,141.04z"/>
				<path class="st0" d="M231.93,190.37c3.34,0.93,5.91,2.49,8.6,4.66c-1.04,0.55-1.86,1.07-2.76,1.45
					c-8.45,3.55-16.87,7.18-25.38,10.59c-8.23,3.29-16.43,6.61-24.16,10.98c-0.41,0.23-0.85,0.39-1.61,0.73
					c0.24-0.77,0.3-1.3,0.55-1.72c4.27-7.27,2.38-5.57,9.43-9.21c8.23-4.24,16.43-8.52,24.69-12.68
					C224.78,193.42,228.4,191.95,231.93,190.37z"/>
				<path class="st0" d="M208.04,228.66c-3.44,1.13-7.04,2.31-10.73,3.53c-1.29-4.03-2.5-7.8-3.81-11.87
					c10.82-4.33,21.61-8.82,32.67-12.81c6.63-2.39,13.37-4.61,20.27-6.5c0.87,0.98,1.78,2.01,2.79,3.14
					c-0.76,0.77-1.28,1.36-1.86,1.88c-4.92,4.36-10.24,8.17-15.86,11.57c-1.44,0.87-2.8,1.09-4.53,0.78
					c-1.95-0.35-3.93-0.57-5.92-0.68c-0.96-0.06-1.92-0.09-2.88-0.09c-5.6-0.01-8.5,4.19-10.1,8.19
					C207.79,226.55,208.04,227.51,208.04,228.66z"/>
				<path class="st0" d="M220.53,245.08c-1.04-0.41-1.55-0.97-1.82-1.58c-0.17-0.36-0.24-0.75-0.3-1.13
					c-0.27-1.97-0.57-3.96-0.6-5.94c-0.03-3.29-1.21-5.68-4.42-6.93c-1.01-0.39-1.86-1.15-2.68-1.67c0.37-4.68,3.47-7.8,7.87-8.09
					c0.79-0.05,1.58-0.06,2.37-0.02c2.39,0.12,4.74,0.62,7.05,1.37c1.99,0.65,3.4,2.05,4.31,3.92c2.53,5.21,4.26,10.66,4.51,16.49
					c0.06,1.19-0.08,2.39-0.27,3.57c-0.09,0.55-0.51,1.04-0.77,1.56c-1.72-0.43-2.25-1.57-2.57-2.82c-0.49-1.94-0.88-3.89-1.38-5.82
					c-0.21-0.82-0.61-1.6-0.85-2.23c-1.7-0.8-2.79,0-3.61,0.96c-1.65,1.94-3.12,4.03-4.71,6.02
					C222,243.58,221.22,244.33,220.53,245.08z"/>
				<path class="st0" d="M212.98,189.03c4.22-1.07,11.85-0.87,15.69,0.44c-11.92,5.08-22.48,11.81-34.61,16.28
					c0.38-0.99,0.56-1.73,0.93-2.36c2.03-3.44,4.07-6.87,6.21-10.24c0.38-0.6,1.18-1.08,1.89-1.3
					C206.36,190.84,209.66,189.86,212.98,189.03z"/>
				<path class="st0" d="M210.83,231.72c3.23-1.11,5.02,0.01,5.51,3.43c0.33,2.29,0.64,4.59,1.06,6.87c0.11,0.6,0.28,1.21,0.52,1.79
					c0.12,0.31,0.26,0.61,0.42,0.9c1.01,1.79,2.78,2,4.12,0.42c1.13-1.33,2.06-2.84,3.08-4.27c1.15-1.62,2.25-3.29,4.24-4.13
					c1.46,1.2,1.02,2.98,1.47,4.45c0.46,1.51,0.69,3.09,1.08,4.9c-5.87,1.32-11.78,1.77-17.92,2.27c-1.1-3.56-2.32-7-5.74-9.13
					c0.14,2.92,0.1,5.76-0.76,8.56c-0.09,0.29-0.19,0.59-0.3,0.88c-0.75,0.06-1.46,0.15-2.17,0.16c-14.23,0.16-28.46,0.27-42.69,0.5
					c-2.03,0.03-3.48-0.49-4.47-1.95c-0.23-0.33-0.42-0.7-0.6-1.13c-0.66-1.59-1.54-3.09-2.49-4.98c1.17-0.19,1.91-0.4,2.65-0.41
					c3.2-0.05,6.4-0.01,9.6-0.06c11.75-0.2,23.13-2.58,34.33-5.97C204.82,233.9,207.81,232.76,210.83,231.72z"/>
				<path class="st0" d="M210.54,257.08c-1.18,1.7-2.12,1.82-4.32,0.57c0.05-0.71,0.14-1.41,0.26-2.1c0.45-2.57,1.32-5.03,2.07-7.58
					c0.62-2.06,1.15-4.18,1.33-6.45c2.23,2.52,3.01,5.15,3.07,7.93C213.02,252.2,212.12,254.8,210.54,257.08z"/>
				<path class="st0" d="M193.29,194.61c0.11,3.71-3.88,13.3-7.25,17.57c-1.21-5.14-2.39-10.15-3.59-15.25
					c0.27-0.09,0.55-0.23,0.85-0.29C186.56,195.97,189.83,195.31,193.29,194.61z"/>
				<path class="st0" d="M192.46,223.67c0.49,3.01,0.98,6.03,1.51,9.33c-2.56,0.58-4.91,1.11-7.75,1.76c2-4.09,3.75-7.68,5.68-11.18
					C192.09,223.61,192.28,223.64,192.46,223.67z"/>
				<path class="st0" d="M318.95,151.27c-0.8-0.43-1.59-0.88-2.45-1.36c0.71-1.41,1.29-2.55,1.84-3.69
					c1.62-3.38,1.77-6.84,0.13-10.19c-3.02-6.17-6.11-12.33-10.42-17.75c-1.7-2.12-3.52-4.14-5.27-6.23
					c-0.31-0.36-0.54-0.79-1.07-1.59c0.71,0.35,0.96,0.41,1.11,0.57c5.09,5.17,10.83,9.77,14.17,16.46
					c0.57,1.15,1.37,2.24,3.01,2.97c0-1.38,0.11-2.42-0.02-3.42c-0.58-4.27-1.08-8.56-1.88-12.79c-0.68-3.57-2.22-6.83-4.58-9.66
					c-1.87-2.24-4.17-3.58-7.11-4.01c-4.79-0.71-9.57-0.38-14.36-0.22c-2.24,0.07-4.51,0.37-6.7,0.08
					c-7.07-0.92-13.83,0.34-20.52,2.47c-1.66,0.53-3.31,1.07-4.93,1.69c-2.68,1.04-5.28,2.28-7.67,4.01
					c-2.58,1.86-4.68,4.13-5.91,7.09c-0.44,1.07-0.59,2.26-0.91,3.55c0.9,0.79,1.74,1.43,2.45,2.17c3.72,3.91,4.59,9.42,2.86,14.07
					c-0.94,2.54-2.64,4.82-5.08,6.45c-5.34,3.57-11.04,3.85-16.93,1.66c-2.69-1-5.31-2.2-7.97-3.28c-2.67-1.09-5.31-1.03-7.87,0.35
					c-6.83,3.68-14.32,4.33-21.85,4.43c-4.38,0.06-8.77-0.5-13.15-0.83c-0.91-0.07-1.8-0.33-2.69-0.51
					c1.13-0.52,2.21-0.77,3.31-0.92c9.02-1.21,18.03-2.42,26.93-4.37c8.01-1.76,15.38-4.76,21.29-10.75
					c3.3-3.34,6.68-6.59,10.07-9.83c1.01-0.96,2.01-1.91,3.01-2.87c5-4.8,10.48-8.88,17.1-11.25c0.79-0.28,1.57-0.58,2.34-0.88
					c1.6-0.63,3.19-1.29,4.78-1.94c0.44-0.18,0.82-0.52,1.47-0.94c-5.76-1.46-11.17-2.78-16.56-4.2
					c-7.87-2.06-15.76-4.03-23.55-6.35c-4.89-1.46-9.59-3.5-14.61-5.36c-2.96,1.16-6.14,2.44-9.35,3.63
					c-4.14,1.53-8.04,3.49-11.74,5.91c-2.07,1.34-4.3,2.44-6.48,3.62c-0.4,0.21-0.9,0.26-1.74,0.49c2.7-1.97,5.17-3.5,7.3-5.41
					c5.02-4.5,10.97-7.05,17.37-8.76c0.74-0.19,1.46-0.47,2.51-0.81c-0.92-0.56-1.5-0.95-2.12-1.28c-3.45-1.84-6.98-3.56-10.36-5.53
					c-2.22-1.3-4.38-1.53-6.85-1c-5.3,1.14-10.63,2.16-15.97,3.14c-10.24,1.88-19.78,5.59-28.77,10.81
					c-4.69,2.72-8.67,6.25-12.15,10.39c-3.64,4.31-6.27,9.25-8.97,14.15c-0.7,1.25-1.4,2.49-2.14,3.82c-0.5-0.52-0.85-0.89-1.15-1.2
					c-5.93,2.89-11.66,5.92-17.58,8.51c-17.92,7.83-35.93,15.46-53.88,23.23c-3.44,1.49-6.69,3.34-9.53,5.87
					c-1.67,1.48-2.05,3.13-1.56,5.16c0.74,3.05,2.31,5.6,4.58,7.73c2.89,2.7,6.2,4.78,9.77,6.45c8.7,4.08,17.74,7.24,27.04,9.6
					c14.39,3.67,28.86,6.89,43.62,8.8c8.73,1.12,17.45,2.19,26.25,2.19c6.31,0.01,12.64-0.05,18.94-0.42
					c5.09-0.3,10.23-0.72,15.2-1.76c8.27-1.73,16.45-3.92,24.63-6.07c4.43-1.17,8.89-1.83,13.47-1.9
					c8.02-0.11,15.32,1.93,21.74,6.84c4.11,3.13,7.51,6.94,10.54,11.09c1.48,2.02,2.52,4.3,2.91,6.78c0.44,2.75,0.77,5.54,0.96,8.32
					c0.36,5.09,0.85,5.76,5.86,6.31c2.1,0.23,4.26,0.37,6.41-0.2c0.16-1.05,0.31-1.91,0.41-2.78c0.1-0.79,0.19-1.59,0.21-2.38
					c0.25-13.85-5.16-25.31-15.41-34.28c-11.11-9.71-24.55-12.84-39.03-12.23c-1.03,0.04-2.07,0.25-3.1,0.2
					c-1.24-0.06-2.45,0.02-3.65,0.19c-1.55,0.23-3.07,0.63-4.58,1.14c-1.81,0.62-3.6,1.3-5.41,1.92c-8.9,3.09-18.04,4.73-27.46,4.98
					c-7.29,0.19-14.54-0.44-21.78-1.05c-5.1-0.42-10.18-1.02-15.27-1.48c-7-0.63-14-1.29-21.01-1.76c-4.31-0.3-8.63-0.29-12.95-0.4
					c-8.4-0.2-16.74-1.03-25.01-2.52c-5.99-1.09-11.79-2.84-17.33-5.38c-0.69-0.32-1.67-0.44-1.91-1.86
					c0.97,0.31,1.72,0.47,2.41,0.78c7.78,3.49,16.12,4.58,24.46,5.31c7.8,0.68,15.65,0.69,23.47,1.12
					c6.54,0.35,13.08,0.71,19.59,1.39c11.6,1.2,23.16,2.7,34.74,3.96c5.32,0.57,10.63,0.87,16.02,0.53
					c8.4-0.52,16.39-2.43,24.18-5.45c1.56-0.6,3.17-1.19,4.81-1.41c0.98-0.13,1.96-0.27,2.95-0.4c4.24-0.57,8.49-1.11,12.75-1.36
					c3.32-0.19,6.74,0.08,10.02,0.67c5.57,0.99,11.08,2.35,16.59,3.65c6.1,1.44,11.85,3.8,17.25,7c5.77,3.41,9.88,8.28,12.59,14.37
					c0.35,0.78,0.58,1.6,0.87,2.41c-7.35-10.27-17.06-17.17-28.69-21.52c2.68,2.5,5.52,4.8,8.36,7.1c5.06,4.12,8.9,9.16,11.33,15.23
					c2.98,7.42,4.47,15.15,4.63,23.14c0.07,3.28-0.85,4.22-4.17,4.5c-3.47,0.28-6.84-0.21-10.21-1.02c-3.03-0.73-4.52-2.52-5-5.61
					c-0.49-3.14-1.4-6.22-2.23-9.3c-0.23-0.85-0.86-1.59-1.43-2.62c-6.14,5.8-12.77,10.33-19.36,14.4
					c3.51,7.76,6.73,15.25,5.58,23.87c0.4,0.08,0.71,0.22,1.01,0.19c5.03-0.54,9.92-1.59,14.52-3.8c3.96-1.91,7.94-3.77,11.9-5.67
					c4.91-2.37,9.94-2.69,15.14-1.06c1.67,0.52,3.37,0.96,5.07,1.41c3.14,0.82,6.2,0.53,9.42-0.63c-1.48-1.6-2.85-2.93-4.06-4.4
					c-1.22-1.49-2.33-3.07-2.44-5.14c1.96,3.65,4.44,6.82,7.8,9.42c0.91-0.32,1.82-0.59,2.7-0.96c1.54-0.65,3.06-1.36,4.58-2.07
					c7.39-3.47,10.39-10.09,12.59-17.38c-3.19,0.75-6.25,1.69-9.37,2.15c-3.13,0.45-6.23-0.09-9.07-1.69
					c3.19-0.23,6.36-0.28,9.52-0.22c3.23,0.07,6.37-0.32,9.46-1.27c0.28-0.39,0.58-0.77,0.83-1.18c0.22-0.36,0.38-0.76,0.57-1.14
					c-0.07-0.15-0.13-0.29-0.2-0.44c-6.15,3.59-12.7,2.73-19.14,2.17c-0.38-0.03-0.76-0.06-1.14-0.09c-0.78,0.95-1.52,1.7-2.04,2.58
					c-0.27,0.45-0.15,1.14-0.2,1.72c1.06,0.54,2.12,1.07,3.17,1.62c2.9,1.5,5.88,2.78,9.59,3.29c-4.29,0.89-10.16-1.43-12.86-4.8
					c-2.02-0.6-2.76,1.01-3.92,2.15c0.7,0.84,1.34,1.6,1.97,2.35c-0.07,0.09-0.14,0.18-0.22,0.26c-0.82-0.65-1.64-1.3-2.57-2.03
					c-1.22,0.65-2.43,1.3-3.64,1.94c1.45-1.81,3.08-3.34,4.76-4.8c5.07-4.43,7.24-9.99,6.62-16.68c-0.25-2.78-0.44-5.57-0.59-8.36
					c-0.17-3.16,0.87-5.97,2.67-8.53c1.34-1.89,2.8-3.71,3.97-5.71c1.15-1.98,2.25-4.07,2.92-6.25c1.06-3.43,0.83-6.95-0.22-10.39
					c-0.53-1.71-1.09-3.41-1.63-5.11c2.45,2.77,2.36,6.47,3.72,9.98c0.79-0.8,1.34-1.34,1.87-1.9c2.28-2.4,4.38-4.92,6.24-7.63
					c1.06-1.55,2.05-3.16,2.94-4.84c0-0.01,0.01-0.02,0.02-0.04c0.02-0.04,0.05-0.09,0.06-0.13c0,0.01-0.01,0.01-0.01,0.01
					C320.25,151.63,319.48,151.56,318.95,151.27z M185.19,118.98c0.96-0.33,1.94-0.63,3.05-0.66c-0.96,0.61-1.9,1.3-2.91,1.83
					c-6.49,3.43-13.01,6.81-19.5,10.24c-1.31,0.69-2.65,1.04-4.14,0.99c-1.74-0.06-3.48-0.02-5.4-0.02
					c0.24,0.89,0.43,1.56,0.62,2.23c-0.76,1.66-2.25,2.35-3.86,2.46c-2.51,0.18-5.04,0.05-7.61-0.16c2.03-0.72,4.05-1.43,6.22-2.2
					c-1.1-1.21-2.07-0.64-2.92-0.4c-7.92,2.2-15.83,4.41-23.49,7.43c-0.5,0.2-5.27,2.02-5.49,2.15c-0.06-0.14-0.12-0.28-0.18-0.42
					c0.21-0.07,0.43-0.14,0.64-0.21c-0.1-0.25,3.58-1.76,3.79-1.83c9.75-3.52,19.5-7.04,29.28-10.46
					C163.9,126.24,174.55,122.63,185.19,118.98z M90.79,145.77c0.7-0.4,1.39-0.84,2.11-1.19c14.04-6.81,27.39-14.75,39.81-24.22
					c4.82-3.67,10.46-5.33,16.19-6.82c0.62-0.16,1.23-0.3,1.85-0.44c0.07-0.02,0.15,0.04,0.73,0.21c-2.21,0.73-4.07,1.38-5.96,1.98
					c-4.84,1.51-9.25,3.81-13.39,6.76c-11.63,8.31-23.66,15.98-36.64,22.07C94,144.82,92.5,145.49,90.79,145.77z M184.14,155.93
					c-3.24,0.38-6.49,0.76-9.74,1.1c-1.19,0.12-2.39,0.18-3.59,0.21c-12.15,0.29-24.3,0.52-36.45,0.87
					c-8.63,0.26-17.26,0.69-25.89,1.03c-0.67,0.03-1.34,0.01-2.08-0.4c1.19-0.34,2.37-0.76,3.58-1c8.21-1.63,16.45-3.15,24.65-4.85
					c5.85-1.21,23.33-6.03,25.32-6.86c0.06,0.15,0.12,0.3,0.17,0.44c-1.86,1.06-15.37,5.22-20.14,6.43
					c-5.1,1.31-10.28,2.27-15.42,3.39c-0.35,0.08-0.68,0.23-0.98,0.57c20.66,0.12,41.3,0.2,61.9-1.71c0.02,0.18,0.04,0.35,0.06,0.53
					C185.07,155.76,184.61,155.88,184.14,155.93z M222.09,144.76c8.05,2.39,15.23,7.1,24.1,6.74
					C241.55,154.07,226.89,149.91,222.09,144.76z M302.17,226.81c-2.61,0.35-4.76-0.68-6.76-2.16
					C297.67,225.37,299.92,226.09,302.17,226.81z M257.32,131.15c0.92-2.25,1.67-4.75,1.67-7.14c0.01-2.45-0.98-4.89-1.56-7.48
					c1.86,1.82,2.06,4.42,3.37,6.82c2.59-5.52,6.53-9.37,11.62-12.01c1.65-0.85,3.21-2.09,5.39-1.69c-0.82,0.39-1.62,0.8-2.45,1.15
					c-6.69,2.85-10.85,8.22-14.22,14.34c-0.62,1.15-0.7,2.6-0.99,3.92c-0.87,3.93-3.06,6.86-6.9,9.2
					C254.83,135.56,256.37,133.48,257.32,131.15z M289.83,205.47c-0.36,3.32-1.5,6.35-3.3,8.21c1.33-3.56,2.85-7.05,2.54-11
					c-0.33-4.21-2.99-6.92-5.95-9.48c0.27-0.31,0.39-0.53,0.57-0.64c2.67-1.53,3.25-3.24,1.21-6.43c-1.14-1.79-2.67-3.41-4.28-4.82
					c-2.59-2.25-5.34-4.32-8.1-6.37c-4.05-3.02-8.74-4.57-13.61-5.66c-1-0.22-2-0.44-2.97-0.82c2.54-0.2,5,0.36,7.42,0.92
					c8.96,2.07,15.86,7.31,21.61,14.25c0.56,0.67,0.96,1.47,1.41,2.23c1.43,2.39,1.51,4.67-0.57,6.78c-0.16,0.16-0.24,0.4-0.5,0.87
					C288.66,196.71,290.36,200.69,289.83,205.47z M302.02,141.25c1.76-8.9,0.87-17.66-1.42-26.34
					C304.96,123.47,304.46,132.31,302.02,141.25z M308.81,149.63c-0.35,0.53,0.7-3.53,1.15-5.2c0.24-1.29,0.57-3.02,0.86-4.41
					c0.06-0.47,0.29-1.67,0.4-1.75c0.1-0.39-0.04-9.36-1.08-12.38c-0.07-0.2-0.03-0.45-0.06-1.21c0.44,0.84,0.69,1.23,0.85,1.65
					c0.2,0.52,0.34,1.06,0.47,1.6c0.12,0.54,0.19,1.1,0.28,1.64c0.47,2.89,0.52,5.76,0.04,8.62
					C311.9,138.23,310.93,146.43,308.81,149.63z M313.02,156.18c-0.02,0.03-0.04,0.06-0.06,0.08c-0.21,0.49-1.87,2.22-2.01,2.13
					c0.14-0.22,0.21-1.01,0.37-1.23c1.39-1.93,1.58-4.35,1.6-6.66c0-0.32,0.25-0.48,0.5-0.48s0.33,4.39-0.41,6.16
					C313.01,156.17,313.02,156.18,313.02,156.18z"/>
				<path class="st0" d="M191.78,218.12c2.39-1.23,4.52-2.47,6.76-3.45c13.65-6.03,27.33-12,41.01-17.97
					c0.65-0.29,1.33-0.48,2.18-0.79c1.35,1.33,2.69,2.64,4.23,4.16c-0.72,0.27-1.06,0.42-1.42,0.53c-6.25,1.94-12.44,4.05-18.6,6.25
					c-10.36,3.71-20.62,7.7-30.92,11.61C194.11,218.8,193.03,219.86,191.78,218.12z"/>
				<path class="st0" d="M189.08,220.43c-0.71,0.23-1.54,0.28-2.28,0.48c1.29-0.71,2.58-1.42,3.86-2.13
					C190.38,219.76,189.79,220.19,189.08,220.43z"/>
				<path class="st0" d="M173.88,236.54c-0.16-5.26-0.64-10.22-3.62-15.12l-0.83-2.08c2.11-0.85,4.21-1.69,6.32-2.54
					c2.21-0.88,4.43-1.71,6.98-2.69c0.39,2.3,0.72,4.31,1.08,6.4c-2.79,2.02-5.5,3.97-8.2,5.93c0.06,0.14,0.12,0.28,0.18,0.42
					c4.44-1.58,8.9-3.15,13.84-4.9c0.19-0.07,0.37-0.13,0.56-0.2c-0.56,1.3-0.78,2.13-1.23,2.81c-2.16,3.25-4.35,6.49-6.62,9.68
					c-0.43,0.61-1.17,1.23-1.87,1.37C178.39,236.04,176.25,236.23,173.88,236.54z"/>
				<path class="st0" d="M174.59,73.77c0.95-4.93,6.3-6.36,11.18-2.91C182.02,72.19,178.3,72.8,174.59,73.77z"/>
				<path class="st0" d="M182.29,210.35c-7.1,2.48-14.11,5.15-21.18,7.65l-0.39-1.08c0.73-0.98,1.22-1.57,1.66-2.21
					c3.26-4.83,6.53-9.66,9.78-14.49c0.94-1.4,1.76-2.9,3.87-2.66c2.08,0.23,2.6,1.84,3.2,3.43c0.95,2.52,1.94,5.04,2.86,7.58
					C182.27,209.06,182.22,209.64,182.29,210.35z"/>
				<path class="st0" d="M167.71,231.86c0.91-1.65,1.6-3.43,2.38-5.16c1.18,1.73,1.37,5.45,0.44,10.04c-2.01,0-3.89,0-5.96,0
					C165.64,235.1,166.78,233.54,167.71,231.86z"/>
				<path class="st0" d="M167.84,198.71c-0.8,3.68-2.47,6.87-4.38,9.94c-0.19-0.03-0.37-0.06-0.55-0.09c0-3.22,0-6.43,0-9.85
					C164.47,198.71,166.09,198.71,167.84,198.71z"/>
				<path class="st0" d="M161.11,218c-7.81,2.78-15.7,5.37-23.83,7.31c-0.35-0.68-0.65-1.27-1.12-2.19
					c-0.6,1.12-1.03,1.93-1.67,3.14c-7.16,1.55-14.6,3.16-22.27,4.82c-1.01-3.46-1.6-6.91-0.78-10.74
					c6.43-2.08,12.88-4.17,19.44-6.3c2.19-0.71,4.39-1.42,6.6-2.14c0.66,2.12,1.21,3.91,1.93,6.25c1.53-2.52,2.95-4.53,4.01-6.71
					c0.82-1.71,1.92-2.78,3.67-3.47c2.82-1.11,5.56-2.42,8.33-3.63c0.72-0.31,1.46-0.55,2.21-0.82c1.68,1.99,0.99,4.42,1.64,6.51
					c0.65,2.1,0.92,4.31,1.45,6.89L161.11,218z"/>
				<path class="st0" d="M157.29,199.08c0.24,0.98,0.49,2.01,0.8,3.31c-4.18,1.68-8.06,3.23-11.93,4.77
					c-0.11-0.12-0.21-0.25-0.32-0.37c1.4-2.55,2.8-5.1,4.24-7.71C152.44,199.08,154.74,199.08,157.29,199.08z"/>
				<path class="st0" d="M152.29,257.4c0-1.85-0.21-3.74-0.49-5.77c1.16,0.96,1.98,1.54,2.68,2.23c1.53,1.52,3.01,3.1,4.51,4.64
					c0.69,0.71,1.42,1.32,2.52,0.95c0.8-1.47,0.8-1.47,0.05-7.11c0.88,0,1.73-0.05,2.58,0.01c8.2,0.57,16.4,1.3,24.61,1.68
					c5.1,0.24,10.22-0.04,15.33-0.09c0.38,0,0.77,0,1.47,0c-0.1,0.55-0.18,0.96-0.25,1.38c-0.05,0.25-0.1,0.5-0.15,0.78
					c-17.56,4.34-35.36,6.63-53.77,7.15C152.05,261.28,152.29,259.37,152.29,257.4z"/>
				<path class="st0" d="M147.93,263.77c-2.12-0.13-3.83-1.6-3.94-3.78c-0.11-2.3-0.1-4.65,0.27-6.91c0.29-1.78,0.5-3.54,0.55-5.3
					c0.03-1.32-0.02-2.65-0.2-3.99c-0.27-2.04-0.36-4.16-0.17-6.21c0.05-0.49,0.14-0.95,0.29-1.4c1.15-3.65,5.32-5.81,9.07-4.49
					c1.86,0.66,2.65,1.48,3.52,3.74c-0.42,0.38-0.87,0.81-1.34,1.21c-2.17,1.9-2.78,3.93-1.53,6.63c0.72,1.57,1.65,3.03,2.58,4.5
					c0.31,0.49,0.62,0.99,0.92,1.48c0.75,1.22,1.67,2.36,2.3,3.64c0.84,1.7,1.38,3.51,0.83,5.85c-0.79-0.65-1.4-1.1-1.95-1.61
					c-1.63-1.54-3.18-3.15-4.86-4.63c-1.04-0.92-2.16-1.9-4.08-1.68c0.94,2.24,1.48,4.39,1.47,6.56c0,1.09-0.15,2.18-0.46,3.29
					C150.5,263.15,149.72,263.88,147.93,263.77z"/>
				<path class="st0" d="M152.25,229.17c-3.83,0.11-6.77,1.67-8.37,5.32c-0.16,0.36-0.37,0.7-0.56,1.05
					c-0.02,0.04-0.04,0.07-0.08,0.11c-0.04,0.05-0.09,0.11-0.16,0.19c-1.08,0-2.25,0-3.58,0c-0.28-1.18-0.55-2.32-0.88-3.69
					c1.02-0.55,1.94-1.16,2.94-1.57c9.29-3.76,18.58-7.5,27.87-11.24l0.83,2.08c-0.56,1.15-0.99,1.86-1.26,2.63
					c-1.46,4.18-4.15,7.53-7.15,10.67c-0.33,0.34-0.72,0.63-1.12,0.9c-0.18,0.13-0.43,0.16-0.78,0.29
					c-0.29-0.76-0.57-1.49-0.86-2.22C157.76,230.44,155.71,229.06,152.25,229.17z"/>
				<path class="st0" d="M75.62,236.51c-1.28-3.45,0.19-5.29,3.89-4.78c1.75,0.24,3.47,0.62,5.2,0.98c1.01,0.2,2.02,0.4,3.03,0.55
					c6.39,0.96,12.78,1.91,19.18,2.7c6.89,0.86,13.8,1.57,20.7,2.28c4.21,0.43,8.43,0.74,12.64,1.1c0.87,0.07,1.73,0.14,2.82,0.24
					c0.34,2.7,0.67,5.28,1.03,8.19c-1.34,0-2.44,0.09-3.51-0.02c-7.22-0.73-14.44-1.48-21.65-2.29
					c-13.56-1.52-27.07-3.36-40.11-7.63c-0.83-0.27-1.66-0.53-2.48-0.84C76.07,236.88,75.83,236.65,75.62,236.51z"/>
				<path class="st0" d="M140.51,210.27c-0.85-4.02-1.37-7.76-1.85-11.55c2.41,0,4.61,0,6.82,0
					C145.23,201.38,142.75,207.2,140.51,210.27z"/>
				<path class="st0" d="M136.63,235.98c-1.36-0.07-2.59-0.13-4.22-0.22c1.12-2.63,2.1-4.92,3.14-7.34c0.63,1.11,1.03,2.37,1.2,3.76
					C136.88,233.36,136.85,234.63,136.63,235.98z"/>
				<path class="st0" d="M127.54,267.84c0.77-2.84,2.49-5.22,4.07-7.73c1.06,3.43,1.78,6.81,1.21,10.33
					c-0.24,1.54-1.12,2.35-2.27,2.37c-1.2,0.02-2.6-0.92-2.88-2.15C127.46,269.75,127.3,268.71,127.54,267.84z"/>
				<path class="st0" d="M117.24,196.02c1.79,0.22,3.34,0.41,5.19,0.63c-1.75,3.26-3.7,6.06-5.79,8.78
					c-0.16-0.06-0.32-0.12-0.48-0.17C116.5,202.32,116.85,199.39,117.24,196.02z"/>
				<path class="st0" d="M65.94,248.79c1.32,0.24,2.47,0.38,3.59,0.68c2.53,0.68,5,1.67,7.57,2.13c4.53,0.8,5.84-0.86,4.11-5.16
					c-0.76-1.89-2.04-3.59-3.07-5.38c-0.41-0.71-1.27-1.28-0.68-2.58c10.79,3.04,21.61,5.96,32.73,7.55
					c11.04,1.57,22.09,3.1,33.48,4.7c-0.36,2.04-0.96,4.04-1,6.05c-0.04,2.03,0.47,4.06,0.78,6.4c-3.14,0.19-6.34,0.34-9.59-0.4
					c-0.5-2.03-0.98-3.95-1.57-6.35c-1.59,2.28-2.97,4.26-4.5,6.44c-21.37-1.39-42.63-3.5-63.37-10.91
					C64.98,250.79,65.4,249.91,65.94,248.79z"/>
				<path class="st0" d="M108.84,225.49c0.29,2.87,0.58,5.78,0.88,8.88c-1.91-0.17-3.78-0.34-5.66-0.51
					C104.49,231.62,107.41,226.57,108.84,225.49z"/>
				<path class="st0" d="M107.99,221.92c-2.5,3.85-5.01,7.71-7.49,11.53c-5.43-0.71-10.55-1.38-15.54-2.03
					c-0.43-1.69-0.8-3.18-1.24-4.91c0.21-0.04,0.41-0.09,0.62-0.13c7.73-1.66,15.58-3.34,23.43-5.03
					C107.84,221.54,107.92,221.73,107.99,221.92z"/>
				<path class="st0" d="M101.29,200.88c1.47-2.53,2.94-5.07,4.54-7.83c2.34,0.35,4.76,0.7,7.41,1.09c-0.24,2.8-0.46,5.4-0.71,8.29
					c-1.54,0.63-3.13,1.27-4.83,1.96c-0.76-1.78,0.54-3.68-0.92-5.38c-1.68,0.74-3.39,1.48-5.11,2.22
					C101.55,201.12,101.42,201,101.29,200.88z"/>
				<path class="st0" d="M101.22,192.93c-2.67,4.72-5.11,9-7.74,13.63c-1.52-5.18-2.49-10.15-2.39-15.66
					C94.59,191.6,97.76,192.24,101.22,192.93z"/>
				<path class="st0" d="M97.96,216.97c-2.35,0.17-4.56-0.44-6.18-2.76c3.73-3.44,6.99-7.26,11.76-9.54
					c-0.63,2.79-1.18,5.6-1.9,8.37C101.14,214.96,100.19,216.8,97.96,216.97z"/>
				<path class="st0" d="M130.37,212.47c-11.09,3.61-22.4,6.46-33.73,9.18l-0.54-2.24c0.12-0.02,0.25-0.05,0.38-0.08
					c1.15-0.29,2.27-0.74,3.37-1.19c1.49-0.62,2.45-1.71,2.92-3.28c0.47-1.61,1.04-3.18,1.62-4.94c2.97-1.14,6.02-2.32,9.41-3.63
					c0.22,1.89,0.42,3.58,0.66,5.6c0.54-0.48,0.97-0.75,1.26-1.13c1.45-1.91,2.79-3.91,4.31-5.76c0.68-0.83,1.59-1.6,2.57-2.03
					c2.4-1.06,4.88-1.98,7.38-2.81c1.4-0.46,2.91-0.62,4.48-0.93c1.49,3.57,1.88,7.13,2.79,10.8c-0.88,0.34-1.67,0.68-2.47,0.96
					C133.31,211.5,131.84,211.99,130.37,212.47z"/>
				<path class="st0" d="M44.49,218.11c0.61,0.17,1.16,0.29,1.67,0.48c5.71,2.15,11.59,1.97,17.51,1.32
					c7.81-0.85,15.39-2.72,22.93-4.83c0.6-0.17,1.23-0.24,1.97-0.38c0.37,0.64,0.71,1.26,1.08,1.85c1.37,2.19,3.91,3.35,6.45,2.86
					l0.54,2.24c-4.22,1.02-8.45,2.01-12.67,3.02c-1.51,0.36-3.21,0.38-4.74,0.12c-3.63-0.64-7.15-0.41-10.67,0.52
					c-3.14,0.82-5.89,2.13-6.98,5.88c-7.13-3.21-13.52-7.07-19.92-11.59C42.77,219.02,43.63,218.56,44.49,218.11z"/>
				<path class="st0" d="M200.42,335.86c-2.53,2.47-4.96,11.69-4.07,15.58c5.89,0.93,12.33,0.71,16.72,6.08
					c6.52-5.01,13.92-6.62,21.73-6.98c0-0.76,0.01-1.23-0.01-1.7c-0.18-5.19-0.44-10.38-0.52-15.58c-0.08-4.95,0.03-9.91,0.04-14.87
					c0-0.92-0.08-1.84-0.12-2.87c-7.25,0.47-14.1,1.35-20.98,3.83c-0.37-5.32-0.4-10.29-0.06-15.7c1.25,0.64,1.99,1.11,2.8,1.43
					c2.44,0.95,4.85,2.11,7.39,2.7c2.99,0.69,6.1,0.75,8.56-1.65c2.48-2.41,3.58-5.55,4.7-9.01c-6.63-1.3-13.24-1.81-18.68-5.38
					c-3.3,1.56-6.27,3.16-9.39,4.36c-3.17,1.22-6.48,2.05-9.89,3.1c1.37,5.11,1.72,10.38,1.79,15.64c0.07,5.32-0.23,10.65-0.37,16.2
					c6.82-1.75,13.24-3.98,20.31-4.66c0.18,5.97,0.18,11.8-1.02,17.76C212.86,341.27,207.22,337.13,200.42,335.86z M146.79,299.5
					c2.94,3.03,3.69,6.84,3.98,10.79c0.65,9.1,0.19,18.21-0.44,27.3c-0.18,2.69-0.62,5.37-0.9,7.74c4.31,3.95,8.46,7.76,12.72,11.67
					c4.53-4.69,8.65-9.94,14.73-12.99c2.9,8.62,4.02,10.64,7.27,12.92c3.07-4.73,5.61-9.89,10.47-12.96c0-0.8,0-1.35,0-1.99
					c-2.67-1.12-3.4-3.44-3.61-6.01c-0.25-3.02-0.55-6.05-0.57-9.08c-0.09-10.63-0.05-21.27-0.08-31.9c0-1-0.16-2-0.27-3.37
					c-5.64,3.26-11.51,4.65-17.54,5.59c0,0.91,0,1.59,0,2.21c2.74,1.62,3.31,2.37,3.65,5.32c0.23,1.98,0.38,3.97,0.4,5.97
					c0.05,6.23,0.04,12.47,0.05,18.71c0,1.43,0,2.86,0,4.37c-2.92,1.64-5.76,3.24-8.51,4.79c-1.38-1.22-2.63-2.33-3.91-3.46
					c0.2-14.57-0.48-28.75,0.66-43.34c-3.35,1.14-6.23,2.23-9.18,3.09c-3.05,0.89-6.16,1.56-9.53,2.4
					C146.4,298.11,146.35,299.04,146.79,299.5z M127.76,308.93c1.14,0.81,1.26,1.82,1.25,2.89c-0.17,16.93,0.8,33.92-2.3,50.72
					c-0.15,0.86-0.27,1.76,1.02,2.3c4.37-5.13,8.67-10.42,14.86-13.57c-0.85-16.54-0.95-32.9,0.51-49.37
					c-4.94-2.93-8.9-6.95-12.62-11.63c-3.72,4.91-6.99,9.51-10.98,13.09c-0.75-0.86-1.21-1.71-1.93-2.18
					c-3.84-2.54-7.15-5.63-10.04-9.2c-0.42-0.53-0.99-0.94-1.59-1.49c-3.72,5.13-7.35,10.02-12.42,14.33c0-2.5-0.04-4.48,0.01-6.45
					c0.07-2.5-0.82-4.63-2.21-6.64c-4.79,1.11-9.32,2.35-13.66,4.21c-0.53,0.22-0.96,0.66-1.77,1.25c1.49,1,2.64,1.78,3.89,2.62
					c0,0.89,0,1.76,0,2.64c0.02,11.27,0.06,22.55,0.07,33.83c0,3.12-0.09,6.24-0.14,9.36c-0.03,2.07-0.66,3.92-2.15,5.42
					c-0.11,0.11-0.15,0.27-0.21,0.38c0,0.66,0,1.29,0,1.89c2.71,0.66,18.08,0.56,18.62-0.16c0-0.57,0-1.2,0-1.91
					c-1.85-1.68-2.2-3.96-2.36-6.3c-0.07-1.04-0.08-2.08-0.08-3.12c-0.02-8.32-0.03-16.64-0.05-24.96c0-0.79,0-1.58,0-2.38
					c3.41-1.9,6.68-3.73,9.87-5.52c1.41,0.71,1.21,1.9,1.21,3c0,10.48-0.03,20.96,0.01,31.43c0,3.05-0.37,5.92-2.74,8.11
					c0.16,0.73,0.29,1.34,0.43,1.98c5.96,0,11.84,0,17.79,0c0-0.91,0-1.61,0-2.32c-0.92-1.34-1.62-2.77-1.97-4.27
					c-0.33-1.39-0.37-2.86-0.38-4.29c-0.05-8.48-0.06-16.96-0.07-25.44c0-0.86,0.09-1.73,0.14-2.71
					C121.17,312.58,124.5,310.74,127.76,308.93z M87.04,285.72c5.3-1.5,7.01-1.14,11.13,2.75c0.3-0.33,0.65-0.62,0.88-0.99
					c2.68-4.37,9.79-5.46,13.51-0.65c1.84,2.39,4.07,4.47,6.36,6.94c1.5-2.1,3.04-3.86,4.12-5.87c2.65-4.9,9.5-5.97,13.78-1.12
					c1.47,1.67,2.98,3.31,4.19,4.65c3.28-0.77,6.25-1.34,9.13-2.18c3.21-0.94,6.43-1.91,9.49-3.24c5.8-2.51,9.21-1.52,12.44,4.09
					c4.43-0.38,8.76-1.26,12.67-3.65c1.82-1.11,3.75-1.8,5.92-1.5c3.07,0.42,5.41,1.84,6.51,4.9c0.19,0.53,0.38,1.05,0.59,1.63
					c1.8,0.47,3.53,0.01,5.12-0.65c3.1-1.26,6.09-2.77,9.15-4.13c1.45-0.65,2.91-1.39,4.44-1.71c2.18-0.46,4.27,0.11,6.18,1.31
					c3.41,2.14,7.28,2.74,11.15,3.37c0.37,0.07,0.76-0.03,1.34-0.07c0.14-3.32-0.45-6.4-1.46-9.45c-0.41-1.27-0.84-2.61-0.87-3.93
					c-0.1-4.55,3.62-7.82,8.15-7.32c0.23,0.02,0.48,0.07,0.7,0.14c3.83,1.25,7.22,0.07,10.49-1.87c1.99-1.18,3.97-2.35,6.37-2.6
					c3.81-0.4,7.04,1.69,8.07,5.3c0.49,1.71,0.03,3.27-0.51,4.9c-0.71,2.19-1.23,4.44-1.81,6.67c-0.08,0.29,0.02,0.62,0.05,1.17
					c3.51,0.51,6.25,2.59,9.18,4.7c0.67,2.45,1.38,5.05,2.16,7.92c-4.32-0.87-7.66-3.26-11.21-5.7c-2.53,2.84-5,5.61-7.48,8.39
					c-0.17-0.05-0.35-0.11-0.53-0.16c-0.03-1.71-0.1-3.41-0.09-5.11c0.01-1.84,0.07-3.68,0.15-5.52c0.08-1.75,0.12-3.52,0.34-5.26
					c0.23-1.82,0.65-3.61,1-5.42c0.31-1.63,1.58-3.04,1.44-4.94c-3.3,1.45-6.3,2.92-9.41,4.06c-3.18,1.17-6.53,1.03-9.99,0.13
					c0.74,2.78,1.56,5.13,1.94,7.55c0.45,2.83,0.68,5.72,0.7,8.58c0.1,16.72,0.11,33.44,0.13,50.16c0.01,1.19-0.14,2.39-0.16,3.59
					c-0.03,2.16-0.61,4.1-2.36,5.62c0.06,0.71,0.12,1.4,0.2,2.27c6.19,0,12.24,0,18.45,0c0.12-0.7,0.23-1.37,0.32-1.87
					c-0.14-0.35-0.16-0.53-0.27-0.64c-1.42-1.43-2.12-3.18-2.15-5.18c-0.12-6.55-0.21-13.11-0.3-19.66
					c-0.01-0.13,0.13-0.26,0.34-0.65c4.01,1.98,7.56,4.6,10.91,7.65c0.3,10.04,0.11,20-2.18,29.79c0.21,0.24,0.34,0.47,0.54,0.56
					c0.27,0.13,0.59,0.17,1.02,0.27c4.33-4.88,9.47-8.78,14.79-12.13c0-7.93,0-15.66,0-23.69c-4.21-3.42-9.3-5.85-15.2-7.73
					c4.53-2.62,9.07-4.45,13.55-6.96c0-3.23,0-6.54,0-10.23c2.66,1.78,5.17,2.66,8.23,2.08c0.18,1.01,0.43,1.92,0.49,2.84
					c0.54,9.68,0.44,19.34-1.39,28.91c-0.03,0.15,0,0.32,0,0.46c4.09,3.37,8.17,6.72,12.47,10.27l-0.66,0.79
					c-2.65-1.38-5.4-2.56-8.31-3.4c-3.55,2.15-6.62,7.83-7.21,13.56c3.63,0.5,7.42,0.59,10.79,2.27c3.35,1.67,6.6,3.54,10.19,5.47
					c6.87-5.96,14.95-9.87,24.21-10.75c-0.64-21.33-0.12-42.47-0.4-63.91c-3.22,1.14-6.06,2.34-9.01,3.15
					c-2.9,0.79-5.92,1.17-8.96,1.75c0,0.72,0,1.33,0,2.08c2.87,0.92,3.78,3.12,3.84,5.92c0.15,7.35,0.36,14.69,0.56,22.2
					c-2.97,1.52-5.79,2.96-8.79,4.48c-1.28-1.09-2.53-2.17-3.92-3.36c0.18-12.02,0.35-24.05,0.53-36.27
					c-1.14,0.34-2.09,0.62-3.04,0.9c-0.11-0.13-0.22-0.26-0.33-0.38c1.79-2.38,3.57-4.76,5.33-7.11c2.89,0.51,4.22,2.47,5.4,4.66
					c4.78-0.9,9.54-1.52,13.84-3.83c1.51-0.81,3.15-1.11,4.87-0.96c4.2,0.36,6.93,3.22,6.95,7.43c0.03,6.24-0.06,12.47-0.04,18.7
					c0.04,12.8,0.11,25.6,0.2,38.39c0,1.28,0.17,2.55,0.33,3.82c0.64,5.03-1.58,8.11-6.56,9.12c-2.57,0.52-5.13,1.1-7.69,1.68
					c-0.45,0.11-0.87,0.38-1.43,0.64c-0.75,2.92-0.99,5.93-1.01,8.97c-0.03,6.24,0.02,12.48-0.04,18.72
					c-0.02,1.58-0.21,3.19-0.56,4.74c-0.53,2.35-1.25,2.72-3.86,2.36c-1.28-1.19-1.74-2.86-1.71-4.51c0.04-2.87,0.36-5.73,0.6-8.59
					c0.13-1.51,0.48-3.01,0.51-4.52c0.03-1.35,0-2.77-0.41-4.03c-0.83-2.48-1.93-4.86-3.04-7.58c-3.97,3.22-7.99,3.99-12.46,0.69
					c-0.16,2.07-0.3,3.77-0.4,5.47c-0.12,1.95-0.63,3.78-1.69,5.44c-1.4,2.18-2.82,2.14-4.09-0.14c-1-1.79-1.35-3.72-1.31-5.77
					c0.05-2.94,0.01-5.88,0.01-9.16c-1.98-0.38-3.91-1.01-5.85-1.05c-2.76-0.07-5.19-0.71-7.44-2.86c-1.61,1.62-3.22,3.15-4.72,4.78
					c-3.49,3.79-9.32,4.09-12.8,0.46c-0.95-1-1.54-2.36-2.45-3.81c-0.07,0.8-0.18,1.45-0.18,2.09c0,1.9-0.88,3.33-2.57,3.98
					c-4.08,1.56-5.33,4.56-5.2,8.7c0.11,3.5-0.26,7.02-0.45,10.53c-0.04,0.8-0.22,1.58-0.37,2.37c-0.22,1.13-0.85,1.87-2.04,2.04
					c-1.22,0.18-2.2-0.21-2.89-1.26c-1.01-1.56-1.26-3.28-1.01-5.07c0.33-2.29,0.69-4.58,1.14-6.85c0.76-3.86,0.01-7.46-1.59-10.96
					c-1.39-3.05-2.74-6.11-4.23-9.44c-1.25-0.74-2.8-1.66-4.62-2.74c-0.41,0.9-0.88,1.71-1.15,2.57c-0.9,2.86-1.24,5.82-0.82,8.77
					c0.58,4.11,0.04,8.15-0.44,12.19c-0.58,4.84-1.51,9.64-1.89,14.5c-0.29,3.88,0.01,7.82,0.06,11.73c0.02,1.2,0.17,2.4,0.12,3.59
					c-0.08,2.19-0.82,3.34-2.14,3.6c-1.29,0.25-2.59-0.51-3.31-2.55c-0.59-1.69-0.95-3.58-0.86-5.36c0.23-4.78,0.7-9.56,1.19-14.33
					c0.34-3.39-0.12-6.69-0.68-10.01c-0.57-3.47-1.33-6.93-1.58-10.42c-0.2-2.76,0.26-5.57,0.39-8.36c0.06-1.08,0.01-2.16,0.01-3.43
					c-2.74,0.58-4.25,2.54-6.42,3.6c0.03,2.68-1.05,5.03-2.19,7.43c-0.8,1.69-1.25,3.64-1.46,5.51c-0.5,4.53-0.77,9.08-1.13,13.62
					c-0.22,2.7-0.8,5.31-1.96,7.75c-2.36-0.73-2.87-1.32-2.89-3.61c-0.03-2.72,0.02-5.44,0.11-8.16c0.11-3.6-0.84-6.77-3.35-9.44
					c-1.38-1.46-1.96-3.26-1.94-5.27c0.03-2-0.02-4,0.01-6c0.04-2.4-0.64-4.56-2.07-6.71c-2.33-0.36-4.76-0.73-7.3-1.12
					c-0.99,2.23-1.9,4.38-4.21,5.4c-2.13,0.94-4.27,1.13-6.55,0.54c-2.42-0.63-3.74-2.56-5.41-4.56c-0.95,1.03-1.81,1.84-2.51,2.76
					c-2,2.65-3.25,5.68-4.16,8.85c-1.63,5.68-3.19,11.38-4.83,17.06c-1.09,3.77-0.88,7.59-0.7,11.43c0.22,4.71,0.48,9.43,0.62,14.14
					c0.04,1.42-0.19,2.87-0.46,4.28c-0.21,1.08-0.57,2.21-2.04,2.55c-1.67-0.14-2.52-1.42-3.01-2.88c-0.34-1.03-0.49-2.21-0.39-3.29
					c0.62-7.08-0.39-14.04-1.31-21.02c-0.72-5.44-2.06-10.63-4.51-15.56c-1.69-3.4-2.26-7.13-2.55-10.91
					c-0.18-2.3-0.53-4.6-0.98-6.87c-0.22-1.12-0.81-2.18-1.29-3.4c-5.4,2.91-9.61,6.74-13.07,11.41c-1.27,1.71-2.69,3.11-4.81,3.74
					c-5.86,1.74-11.53-3.03-10.78-9.11c0.04-0.39,0.09-0.78,0.18-1.51c-5.73-0.14-11.36-0.05-16.71-0.07
					c-3.38,1.94-3.06,5.97-5.41,8.29c-1.64,0.09-2.27-1.04-2.95-2.13c-0.82-1.33-1.68-2.65-2.52-3.98
					c-2.43,0.55-2.99,2.27-3.07,4.01c-0.14,2.86-0.36,5.81,0.16,8.6c1.2,6.44,0.36,12.74-0.72,19.04c-0.3,1.74-0.55,3.71-2.57,4.52
					c-2.45-0.94-3.24-2.02-3.23-4.73c0.02-3.68,0.07-7.36,0.24-11.03c0.15-3.18-0.26-6.2-1.52-9.14c-1.98-4.62-3.9-9.27-5.79-13.77
					c-0.45-0.27-0.72-0.43-1-0.59c-4.34-2.49-5.9-7.64-3.36-11.97c1.11-1.9,1.49-3.79,1.48-5.92c-0.04-12.72-0.02-25.43-0.02-38.5
					c-0.27-0.21-0.76-0.5-1.16-0.88c-2.35-2.29-2.9-5.1-2.08-8.17c0.82-3.07,2.92-4.8,6-5.54
					C79.18,287.84,83.12,286.83,87.04,285.72z"/>
				<path class="st0" d="M79.02,276.22c-1.8,1.23-5.26-0.16-5.81-2.27c-0.17-0.68-0.28-1.43-0.2-2.12c0.42-3.79,1.57-7.41,2.7-11.03
					c0.18-0.03,0.36-0.07,0.54-0.1c0.58,1.2,1.33,2.35,1.72,3.61c0.79,2.57,1.44,5.19,2.06,7.82c0.18,0.75,0.2,1.61,0.03,2.36
					C79.92,275.12,79.53,275.87,79.02,276.22z"/>
				<path class="st0" d="M52.48,273.58c-3.25,1.5-5.15,0.7-5.65-2.87c-0.41-2.89-0.31-5.9-0.08-8.82
					c0.48-6.14,3.39-11.23,7.31-15.82c1.81-2.13,3.64-4.24,5.41-6.41c1.78-2.19,3.18-4.59,3.94-7.33c0.89-3.22,3.14-4.83,6.3-5.48
					c3.05-0.62,6.05-0.51,8.98,0.5c1.15,0.4,2.19,1.14,3.29,1.72c-0.04,0.21-0.08,0.43-0.11,0.64c-0.53,0.12-1.05,0.29-1.59,0.36
					c-0.63,0.09-1.27,0.06-1.91,0.14c-4.5,0.55-5.98,3.12-3.96,7.19c0.88,1.77,2.12,3.37,3.19,5.05c0.89,1.42,1.87,2.79,2.63,4.27
					c0.49,0.95,0.65,2.06,0.93,3.01c-1.58,1.58-3.21,1.24-4.72,0.85c-2.39-0.62-4.73-1.42-7.07-2.21c-2.35-0.79-4.38-0.32-6.32,1.42
					c0.2,0.38,0.4,0.75,0.55,1.04c-1.13,4.47-2.24,8.88-3.35,13.29C59.15,268.5,56.59,271.68,52.48,273.58z"/>
				<path class="st0" d="M70.88,185.71c-1.27,2.39-2.4,4.52-3.72,7.01c-1.47-2.98-1.63-5.63-1.25-8.59
					C67.52,184.65,69.01,185.12,70.88,185.71z"/>
				<path class="st0" d="M31.83,216.18c1.06,0.81,2.14,1.49,3.05,2.36c2.5,2.4,5.34,4.29,8.41,5.86c5.24,2.69,10.51,5.35,15.76,8.03
					c0.56,0.28,1.11,0.6,1.82,0.99c-1.89,5.08-5.76,8.57-9.21,12.49c-0.71-0.24-1.34-0.36-1.86-0.66
					c-8.47-4.87-15.52-11.16-19.82-20.15c-0.2-0.43-0.41-0.86-0.6-1.3C27.99,220.53,28.57,218.54,31.83,216.18z"/>
				<path class="st0" d="M47.29,189.41c-2.41-3.36-3.98-9.85-3.5-14.83c2.31,1.22,4.53,2.4,6.84,3.63
					C49.5,182.01,48.4,185.7,47.29,189.41z"/>
				<path class="st0" d="M40.5,217.98c-1.17-0.93-2.1-1.66-3.17-2.51c1.03-2.47,2.66-4.3,4.99-5.78c-0.13,2.34-0.25,4.5-0.39,7.08
					C41.71,216.96,41.19,217.4,40.5,217.98z"/>
				<path class="st0" d="M51.72,211.86c3.51,0.04,7.04,0.29,10.52-0.02c3.48-0.3,6.94-1.04,10.36-1.8
					c3.94-0.89,7.83-2.01,11.86-3.05c-0.75-5.17-1.46-10.04-2.17-14.93c-1.83-0.4-3.44-0.75-5.13-1.12
					c-0.51,0.97-0.96,1.81-1.4,2.65c-1.24,2.33-2.36,4.73-3.72,6.97c-2.29,3.75-6.82,3.92-9.31,0.36c-2.46-3.49-4.3-7.29-4.95-11.57
					c-0.19-1.29-0.24-2.61-0.35-3.92c-0.16-0.04-0.31-0.08-0.47-0.12c-0.27,0.86-0.64,1.69-0.81,2.56
					c-0.49,2.51-1.02,5.01-1.31,7.55c-0.33,2.84-1.56,4.82-4.8,5.58c1.71,3.44,0.14,6.93,0.49,10.42
					C50.99,211.59,51.35,211.85,51.72,211.86z M33.85,212.45c-3.22-0.69-5.66,0.51-7.42,3.15c-1.88,2.82-2.45,5.78-1.11,9.09
					c2.86,7.06,7.42,12.85,13.22,17.68c2.33,1.93,4.91,3.56,7.37,5.34c0.32,0.23,0.62,0.48,1.08,0.84
					c-0.58,1.24-1.18,2.43-1.71,3.66c-2.99,6.87-3.56,14.06-2.51,21.38c0.49,3.51,4.72,6.15,8.17,5.27c1.22-0.31,2.45-0.8,3.51-1.47
					c5.28-3.32,9.15-7.66,10.09-14.13c0.28-1.96,0.86-3.88,1.37-6.1c2.03,0.56,3.89,1.08,5.97,1.65c-0.61,2.41-1.24,4.63-1.71,6.88
					c-0.46,2.26-0.84,4.55-1.12,6.84c-0.64,5.4,4.4,8.68,9.2,8.05c3.73-0.48,5.8-2.85,5.86-6.65c0.04-2.92-0.66-5.7-1.56-8.45
					c-0.42-1.28-0.83-2.56-1.36-4.23c14.07,2.14,27.74,5.03,41.97,5.52c0.21,1.44,0.44,2.82,0.62,4.22
					c0.44,3.45,2.91,5.65,6.53,5.78c3.36,0.12,5.89-2.02,6.44-5.51c0.19-1.17,0.28-2.36,0.45-3.88c11.13-0.07,22.2-0.37,33.24-1.43
					c10.99-1.06,21.85-2.8,32.52-5.24c4.41,3.04,8.05,2.26,10.9-1.33c0.67-0.05,1.33-0.11,2-0.16c19.23-1.54,38.7-3.08,58.5-4.67
					c-1.62,4.77-2.86,9.21-3.04,13.87c-0.18,4.62,0.1,9.2,1.06,13.75c-0.16,0.05-0.31,0.1-0.47,0.15c-0.55-0.42-1.09-0.84-1.54-1.2
					c-0.17-1.03-0.29-1.9-0.44-2.77c-0.29-1.67-0.41-3.31,0.29-4.94c0.61-1.4,0.57-2.92-0.23-4.17c-1.67-2.61-1.89-5.34-1.15-8.24
					c0.11-0.44,0.11-0.91,0.2-1.69c-2.14,0.09-4.12,0.13-6.09,0.28c-5.34,0.41-10.67,0.87-16,1.32c-7.09,0.58-14.17,1.17-21.26,1.75
					c-2.55,0.22-5.1,0.38-7.64,0.68c-0.91,0.11-1.95,0.33-2.65,0.87c-4.01,3.08-8.24,3.6-12.79,1.39c-0.29-0.14-0.59-0.24-0.96-0.39
					c-19.79,4.74-40.02,6.01-60.53,6.55c-1.25,6.76-5.61,9.41-12.03,9.16c-2.67-0.1-4.89-1.31-6.79-3.17
					c-1.93-1.88-2.55-4.35-3.07-6.63c-10.59-1.48-20.99-2.94-31.62-4.43c0.16,1,0.28,1.84,0.43,2.67c0.5,2.78,0.68,5.55-0.13,8.31
					c-0.79,2.71-2.46,4.61-5.13,5.61c-2.48,0.94-5,1.79-7.69,1.48c-4.73-0.54-7.84-3.29-9.75-7.53c-0.29-0.65-0.47-1.35-0.8-2.32
					c-0.74,0.58-1.41,1.08-2.05,1.6c-1.93,1.55-3.74,3.28-5.8,4.64c-5.03,3.34-10.89,2.85-14.99-1.05
					c-2.67-2.53-3.62-5.77-3.77-9.31c-0.26-6.46,0.52-12.77,2.71-18.87c0.22-0.59,0.34-1.21,0.52-1.83
					c-2.31-1.94-4.59-3.81-6.82-5.74c-5.54-4.79-9.73-10.55-12.7-17.24c-2.93-6.61-1.12-13.51,4.92-17.45
					c1.62-1.06,3.63-1.52,5.3-2.2c4.17-3.07,8.26-6.09,12.43-9.16c-0.24-0.34-0.41-0.7-0.69-0.96c-4.84-4.71-6.7-10.77-7.63-17.2
					c-0.43-2.93-0.69-5.87-1.04-8.97c-2.86-3-4.49-6.77-5.42-10.9c-1-4.48,0-8.38,3.1-11.76c2.8-3.05,6.03-5.5,9.83-7.13
					c17.09-7.34,34.24-14.56,51.27-22.03c7.38-3.24,14.54-6.99,21.81-10.46c1.25-0.6,1.93-1.6,2.6-2.71c2.3-3.83,4.1-8.01,7.2-11.3
					c3.06-3.26,6.13-6.55,9.51-9.45c4.28-3.65,9.42-5.99,14.5-8.32c3.11-1.43,6.37-2.56,9.56-3.82c0.81-0.32,1.62-0.64,2.55-1
					c0.44-1.88,0.77-3.76,1.33-5.58c0.46-1.5,1.06-2.99,1.82-4.37c1.04-1.88,2.24-3.69,3.47-5.47c3.92-5.66,9.27-8.35,16.21-7.67
					c1.51,0.14,3.02,0.25,4.8,0.41c1.64-1.39,3.4-3.02,5.32-4.45c3-2.24,6.03-4.48,9.19-6.48c3.78-2.39,7.79-4.42,11.57-6.81
					c5.15-3.25,10.53-6.08,16.11-8.47c3.49-1.5,7.26-2.4,10.96-3.35c6.03-1.54,12.14-2.83,18.37-3.22
					c5.74-0.35,11.48-0.64,17.25-0.33c7.53,0.39,14.96,1.31,22.28,3.03c12.25,2.86,23.69,7.64,34.1,14.76
					c7.02,4.8,13.14,10.45,17.09,18.15c0.36,0.69,0.84,1.33,1.26,1.98c4.71-0.51,9.3-1.09,13.9-1.5c7.79-0.7,15.54-1.96,23.41-1.8
					c9.51,0.2,19.04,0.04,28.55,0.28c6.15,0.15,12.29,0.7,18.43,1.13c4.06,0.29,8.13,0.58,12.18,1.03
					c5.55,0.62,11.09,1.34,16.63,2.1c6.17,0.86,12.34,1.72,18.48,2.75c14.24,2.4,28.57,4.47,42.56,8.12
					c18.33,4.79,36.3,10.76,53.27,19.29c17.22,8.65,34.23,17.75,49.16,30.14c11.6,9.62,22.4,20.09,31.42,32.23
					c8.76,11.81,14.98,24.86,18.62,39.15c2.38,9.34,3.81,18.81,4.07,28.41c0.14,4.7-0.32,9.44-0.89,14.11
					c-0.68,5.46-1.59,10.92-2.76,16.29c-0.67,3.09-2.09,6.02-3.14,9.03c-0.76,2.18-1.46,4.38-2.24,6.74
					c0.71,0.34,1.33,0.63,1.95,0.93c1.64,0.8,3.38,1.47,4.92,2.44c3.3,2.06,5.74,4.84,6.43,8.92c4.42,2.83,7.25,6.53,6.27,12.23
					c3.41,3.98,3.58,8.34,1.18,12.83c0.27,0.47,0.43,0.84,0.66,1.16c2.28,3.12,3.5,6.61,3.89,10.43c0.21,2.15,0.59,4.28,0.84,6.42
					c0.09,0.79,0.09,1.6,0.01,2.39c-0.35,3.58-3.04,5.72-6.52,4.8c-4.7-1.25-9.38-2.65-13.93-4.35
					c-8.59-3.21-17.09-6.68-25.89-10.15c-1.42,2.34-2.92,4.82-4.68,7.73c-0.8-1.77-1.43-3.18-2.09-4.64
					c1.62-3.02,3.2-5.96,4.84-9.02c9.07,4.27,18.23,8.17,27.66,11.58c5.15,1.87,10.39,3.58,15.74,5.13c0.23-0.92,0.6-1.58,0.53-2.19
					c-0.46-3.64-0.82-7.31-1.59-10.89c-0.78-3.67-2.97-6.5-6.62-8.45c2.44-1.38,4.46-2.77,4.46-5.77c0-3.01-2.35-4.36-4.18-6.26
					c0.95-1.33,1.98-2.61,1.43-4.35c-0.64-2.01-1.88-3.5-3.72-4.51c-0.56-0.3-1.13-0.58-1.78-0.91c-1.5-8.44-7.5-11.65-15.4-12.8
					c1.43-4.18,2.62-8.33,4.28-12.28c2.55-6.12,3.71-12.56,4.69-19.03c1.09-7.21,1.43-14.48,1.02-21.77
					c-1.58-28.31-12.42-52.57-31.89-73.12c-15.53-16.4-33.09-30.01-53.11-40.59c-13.08-6.92-26.21-13.65-40.18-18.59
					c-15.68-5.54-31.61-10.15-48.06-12.8c-10.16-1.64-20.29-3.53-30.47-5.06c-9.23-1.39-18.51-2.49-27.79-3.61
					c-9.52-1.15-19.09-1.82-28.69-1.95c-9.91-0.14-19.83-0.49-29.74-0.26c-7.41,0.16-14.82,1.02-22.22,1.69
					c-4.05,0.37-8.08,1-12.12,1.49c-0.95,0.11-1.91,0.13-2.91,0.19c-0.53-0.79-1.04-1.5-1.5-2.24
					c-4.66-7.54-10.78-13.65-18.12-18.58c-12.18-8.19-25.56-13.32-40.01-15.85c-9.51-1.66-19.08-1.95-28.67-1.28
					c-6.93,0.48-13.72,1.95-20.53,3.39c-7.58,1.59-14.26,5.12-20.9,8.76c-6.16,3.38-12.22,6.97-18.17,10.71
					c-4.54,2.84-8.73,6.19-12.56,10.35c-1.56-0.16-3.29-0.32-5.03-0.52c-3.97-0.46-7.97-0.64-11.14,2.27
					c-4.52,4.14-7.85,9.06-8.59,15.34c-0.14,1.16,0.1,2.37,0.19,3.8c-0.43,0.19-0.97,0.46-1.54,0.68
					c-5.06,1.95-10.22,3.69-15.17,5.88c-11.79,5.21-21.01,13.37-26.88,24.93c-1.76,3.47-4.11,5.74-7.56,7.46
					c-9.86,4.94-19.88,9.48-30.12,13.59c-9.63,3.87-19.02,8.33-28.54,12.47c-3,1.31-6.07,2.44-9.1,3.68
					c-3.87,1.58-7.5,3.54-10.61,6.41c-3.08,2.84-4.05,6.15-2.91,10.2c0.97,3.47,2.59,6.52,4.96,8.74c0.63,5,1.04,9.7,1.86,14.33
					c0.97,5.5,4.12,9.74,8.35,13.14c1.62-0.36,1.35-1.65,1.55-2.57c0.61-2.72,0.96-5.51,1.63-8.22c0.58-2.3,1.47-4.52,2.3-7.02
					c2.51,0.94,4.71,1.78,7.14,2.69c0.01,6.37,0.29,12.7,5.29,17.51c1.29,0,1.5-1.1,1.94-1.89c2.04-3.61,4.03-7.26,6.14-11.07
					c3.9,0.49,7.58,1.78,11.17,2.54c1.1,7.2,2.16,14.19,3.24,21.34c-0.41,0.16-0.91,0.39-1.43,0.53
					c-8.55,2.36-17.14,4.52-25.93,5.74c-4.31,0.6-8.62,0.33-12.89-0.45c-1.12-0.21-2.16-0.89-3.09-1.29c0-3.79,0.01-7.28-0.02-10.77
					c0-0.2-0.25-0.39-0.52-0.77c-4.46,2.61-8.64,5.29-11.37,9.46C34,212.42,33.92,212.46,33.85,212.45z"/>
			</g>
		</g>
	</g>
</g>
</svg>
