<?xml version="1.0" encoding="utf-8"?>
<!-- Generator: Adobe Illustrator 24.1.2, SVG Export Plug-In . SVG Version: 6.00 Build 0)  -->
<svg version="1.1" xmlns="http://www.w3.org/2000/svg" xmlns:xlink="http://www.w3.org/1999/xlink" x="0px" y="0px"
	 viewBox="0 0 720 237.6" style="enable-background:new 0 0 720 237.6;" xml:space="preserve">
<style type="text/css">
	.st0{fill:#E72C2C;}
	.st1{fill:#F9F7F6;}
	.st2{fill:#070707;}
</style>
<g id="Layer_1">
</g>
<g id="Layer_2">
	<g>
		<g id="XMLID_1_">
			<g>
				<path class="st0" d="M664.92,110.5c-0.85-1.2-1.62-2.29-2.42-3.42c0.8-3.26,1.6-6.52,2.43-9.9c0.97,3.2,1.9,6.23,2.79,9.16
					C666.77,107.75,665.89,109.06,664.92,110.5z"/>
				<path class="st1" d="M664.9,82.04c2.44,8.53,4.82,16.87,7.2,25.22c-2.31,3.49-4.6,6.93-7,10.54c-1.77-2.49-3.29-5-5.18-7.18
					c-1.71-1.96-1.76-3.79-1.08-6.18c2.05-7.25,3.83-14.58,5.72-21.88C664.59,82.46,664.68,82.37,664.9,82.04z M667.72,106.34
					c-0.89-2.93-1.82-5.96-2.79-9.16c-0.83,3.38-1.63,6.64-2.43,9.9c0.8,1.13,1.57,2.22,2.42,3.42
					C665.89,109.06,666.77,107.75,667.72,106.34z"/>
				<path class="st0" d="M641.84,107.38c-1.54,8.74-5.56,21.99-7.86,25.12c-0.17-10.34-0.34-20.68-0.51-31.15
					C637.04,102.45,639.53,104.83,641.84,107.38z"/>
				<path class="st0" d="M637.08,73.36c0.9,1.55,2.42,1.92,4,1.83c2.1-0.12,4.19-0.47,6.28-0.67c0.85-0.08,1.7-0.01,2.77-0.01
					c-1.47,5.91-2.9,11.68-4.34,17.5c-4.04-1.4-8.07-2.21-12.38-0.72c0.1-1.47,0.19-2.77,0.27-4.08c0.28-4.1,0.6-8.19,0.81-12.3
					c0.04-0.76-0.03-1.48-0.25-2.14l2.53-0.15C636.85,72.89,636.96,73.14,637.08,73.36z M638.71,85.4c1.24,0.13,2.36,0.25,3.49,0.36
					c0.5-1.97,0.97-3.79,1.43-5.61c-1.63,0-3.11,0-4.62,0C638.91,81.86,638.81,83.59,638.71,85.4z"/>
				<path class="st0" d="M580.65,95.38c0,8.79,0,17.58,0,26.37c-0.03,0-0.07,0-0.1,0c0-8.79,0-17.58,0-26.36
					C580.58,95.39,580.62,95.38,580.65,95.38z"/>
				<path class="st0" d="M560.08,89.49c-1.59,0.25-3.16,0.63-4.96,1c0-3.04,0-6.02,0-8.94c2.59,0.83,5.28,1.77,8.02,2.55
					c4.91,1.41,9.25,0.28,12.88-3.3c1.39-1.38,2.62-2.93,3.97-4.45c0.14,4.79,0.28,9.7,0.41,14.3c-0.47-0.78-0.9-1.9-1.68-2.69
					c-0.97-0.99-2.41-1-3.72-0.81C570.03,87.9,565.05,88.68,560.08,89.49z"/>
				<path class="st0" d="M538.48,113.5c6.33-1.74,12.42-3.42,18.52-5.1c0,4.72,0,9.21,0,13.91
					C550.62,119.68,545.52,114.93,538.48,113.5z"/>
				<path class="st0" d="M531.82,118.18c-0.23-15.2-0.46-30.4-0.69-45.61c0.13,0,0.25-0.01,0.37-0.01c0.38,2.49,0.96,4.97,1.1,7.47
					c0.35,6.59,0.59,13.2,0.72,19.8c0.05,3.01-0.25,6.03-0.44,9.04c-0.15,2.33,0.87,4.29,3.45,4.85
					C533.63,114.25,532.8,116.22,531.82,118.18z"/>
				<path class="st0" d="M508.17,91.31c0.04,5.7,0.14,11.4,0.23,17.1c0.07,3.83,0.16,7.65,0.24,11.48c0.07,3.22,0.04,6.46,0.28,9.67
					c0.19,2.48,0.74,4.92,1.12,7.38c0.03,0.23,0.04,0.47,0.07,0.92c-1.59-2.86-2.34-5.76-2.63-8.75c-0.29-2.89-0.39-5.79-0.51-8.69
					c-0.12-2.91-0.19-5.81-0.24-8.72c-0.1-4.74-0.18-9.49-0.25-14.23c-0.09-6.02-0.14-12.04-0.25-18.07
					c-0.05-2.44-0.21-4.89-0.34-7.65c0.91,0.61,1.46,0.98,2.27,1.53C508.16,79.19,508.13,85.25,508.17,91.31z"/>
				<path class="st0" d="M506.03,53.91c2.32,2.43,4.51,4.75,6.84,7.2c-2.32,0.66-4.53,1.29-6.84,1.96
					C506.03,59.97,506.03,57.06,506.03,53.91z"/>
				<path class="st0" d="M457.99,112.25c-2,1.16-4.01,2.32-6.24,3.62c-0.49-0.8-1.34-1.54-1.38-2.34c-0.22-3.6-0.22-7.21-0.27-10.81
					c-0.09-6.81-0.22-13.62-0.24-20.43c-0.01-4.06,0.08-8.11,0.14-12.17l2.43,0.03c0,1.8,0.65,3.31,2.59,4.49
					c1.57,0.96,2.13,2.45,2.23,4.1c0.24,3.81,0.36,7.63,0.5,11.45c0.11,3.03,0.21,6.05,0.23,9.08
					C458.02,103.59,457.99,107.9,457.99,112.25z"/>
				<path class="st0" d="M426.75,83.87c1.11,11.03,1.26,22.05,0.35,33.07c-0.11,0-0.23,0-0.35,0
					C426.75,105.92,426.75,94.89,426.75,83.87z"/>
				<path class="st0" d="M404.16,91.03c0.12,5.5,0.23,10.99,0.29,16.49c0.05,4.26,0.11,8.53,0.01,12.8
					c-0.14,5.75-0.37,11.51-0.62,17.26l-2.36-0.1c0-1.33-0.33-2.66-1.12-3.93c-0.51-0.83-1.1-1.7-1.31-2.63
					c-0.4-1.73-0.67-3.51-0.77-5.28c-0.18-3.26-0.21-6.53-0.26-9.8c-0.04-2.28-0.02-4.56-0.02-6.84c0-5.75,0-11.49,0-17.6
					c1.73-1.01,3.77-2.19,5.94-3.45C404.02,89.1,404.14,90.06,404.16,91.03z"/>
				<path class="st0" d="M375.37,87.27c0,1.67-0.01,3.04,0,4.4c0.05,5.26,0.11,10.52,0.16,15.78c0.07,6.59,0.15,13.17,0.19,19.76
					c0,1.27-0.1,2.56-0.31,3.82c-0.11,0.62-0.57,1.18-0.86,1.78c-0.62,1.29-1.24,2.59-1.61,3.36c-0.42-0.76-0.97-2.06-1.77-3.18
					c-1.05-1.46-1.16-3.13-1.21-4.75c-0.23-7.77-0.39-15.55-0.5-23.32c-0.07-4.67-0.02-9.33-0.02-14.23
					C371.12,89.72,373.06,88.6,375.37,87.27z"/>
				<path class="st1" d="M427.1,116.94c0.91-11.02,0.76-22.04-0.35-33.07c0,11.02,0,22.05,0,33.07
					C426.87,116.94,426.99,116.94,427.1,116.94z M427.62,72.9c2.17,2.91,2.76,6.37,3.15,9.81c1.14,9.86,1.06,19.77,0.59,29.68
					c-0.26,5.46-0.77,10.9-1.19,16.59c5.46,4.09,10.25,9.21,14.58,15.02c4.6-7.53,10.71-13.36,18.03-18.22
					c0.71,6.94,3.23,12.92,7.98,18.14c0.29-0.61,0.51-1.02,0.68-1.45c2.4-5.81,5.75-10.95,10.55-15.08
					c1.02-0.87,0.96-2.03-0.23-2.78c-1.81-1.13-2.72-2.83-3.07-4.79c-0.46-2.58-0.85-5.19-0.99-7.81
					c-0.31-6.13-0.5-12.27-0.64-18.42c-0.2-9-0.32-18.01-0.46-27.02c-0.03-1.36-0.01-2.72-0.01-4.38c-6.36,4.14-13.09,5.88-20,6.76
					c-0.35,1.22-0.16,1.98,0.94,2.51c1.42,0.69,2.48,1.87,2.85,3.4c0.51,2.08,1.01,4.21,1.11,6.33c0.26,5.46,0.3,10.93,0.42,16.4
					c0.11,5.18,0.21,10.35,0.33,15.53c0.01,0.74-0.05,1.37-0.82,1.83c-2.85,1.69-5.66,3.45-8.48,5.2c-0.95,0.59-1.8,0.52-2.6-0.27
					c-0.85-0.84-1.78-1.61-2.55-2.52c-0.49-0.59-0.97-1.34-1.08-2.08c-0.24-1.6-0.31-3.24-0.35-4.87c-0.1-4.77-0.17-9.55-0.25-14.32
					c-0.07-4.62-0.21-9.25-0.21-13.87c0-5.03,0.11-10.06,0.2-15.09c0.03-1.53,0.18-3.06,0.28-4.78c-6.78,3.2-13.65,5.22-20.73,6.33
					c-0.43,1.03-0.19,1.79,0.51,2.49C426.69,71.7,427.17,72.3,427.62,72.9z M369.96,128.24c0.05,1.62,0.16,3.29,1.21,4.75
					c0.8,1.12,1.35,2.42,1.77,3.18c0.37-0.77,0.99-2.07,1.61-3.36c0.29-0.6,0.75-1.16,0.86-1.78c0.21-1.26,0.31-2.55,0.31-3.82
					c-0.04-6.59-0.12-13.17-0.19-19.76c-0.05-5.26-0.11-10.52-0.16-15.78c-0.01-1.36,0-2.73,0-4.4c-2.31,1.33-4.25,2.45-5.93,3.42
					c0,4.9-0.05,9.56,0.02,14.23C369.57,112.69,369.73,120.47,369.96,128.24z M349.74,71.64c0.07,5.95,0.16,11.89,0.24,17.83
					c0.1,7.33,0.22,14.66,0.29,22c0.04,5.46,0.09,10.93-0.02,16.39c-0.05,2.83-0.26,5.67-2.33,7.99c-0.78,0.87-0.6,2.01-0.05,3.08
					c7.08,0,14.06,0,21.4,0c-0.39-1.15-0.65-2.15-1.07-3.09c-0.57-1.29-1.61-2.48-1.81-3.81c-0.51-3.37-0.84-6.8-0.93-10.21
					c-0.21-8.01-0.25-16.03-0.33-24.04c-0.04-3.12-0.01-6.23-0.01-9.43c4.12-2.28,8.23-4.55,12.35-6.83
					c1.11,0.91,1.59,2.01,1.67,3.3c0.08,1.15,0.12,2.31,0.13,3.46c0.08,6.94,0.19,13.87,0.21,20.8c0.03,7.14-0.01,14.28-0.04,21.42
					c-0.01,1.81-0.53,3.48-1.72,4.88c-0.9,1.06-1.09,2.23-0.75,3.58c6.84,0,13.66,0,20.46,0c0.3-1.36-0.15-2.39-0.76-3.52
					c-0.83-1.55-1.68-3.25-1.87-4.96c-0.48-4.15-0.69-8.33-0.81-12.51c-0.18-6.26-0.21-12.52-0.27-18.78
					c-0.04-3.35-0.01-6.71-0.01-10.16c4.23-2.41,8.44-4.82,12.63-7.22c1.29,1.17,1.71,2.54,1.72,4.08c0.03,2.91,0.06,5.81,0.12,8.72
					c0.11,6.1,0.36,12.2,0.33,18.3c-0.04,7.23-0.18,14.46-0.52,21.68c-0.22,4.98-0.86,9.95-1.29,14.92
					c-0.13,1.59-0.18,3.18-0.27,4.77c0.14,0.03,0.29,0.05,0.43,0.07c0.17-0.24,0.36-0.47,0.51-0.73c2.23-3.86,4.83-7.47,7.99-10.6
					c2.46-2.45,5.19-4.62,7.77-6.95c0.36-0.33,0.71-0.9,0.72-1.36c0-1.55-0.15-3.11-0.23-4.66c-0.26-5.02-0.6-10.04-0.75-15.06
					c-0.16-5.58-0.23-11.16-0.21-16.73c0.01-4.75,0.17-9.5,0.33-14.24c0.1-3.15,0.33-6.3,0.51-9.55
					c-5.49-3.75-10.25-8.28-14.59-13.49c-4.24,6.15-8.69,11.88-14.29,17.05c0.1-1.42,0.18-2.52,0.27-3.71
					c-5.77-3.51-10.5-8.16-14.61-13.41c-2.44,3.12-4.7,6.22-7.18,9.12c-2.48,2.89-5.18,5.57-7.78,8.34
					c-0.12-0.07-0.23-0.15-0.35-0.23c-0.04-0.34-0.1-0.68-0.11-1.02c-0.05-2.83-0.15-5.66-0.12-8.48c0.03-2.44-1.01-4.44-2.21-6.42
					c-5.72,1.4-11.32,2.77-16.87,4.13c-0.37,1.03-0.11,1.67,0.73,2.13c0.74,0.39,1.44,0.87,2.18,1.25
					C349.37,70.14,349.73,70.74,349.74,71.64z M632.15,96.69c6.26,1.1,10.37,5.21,14.27,9.55c-0.29,1.24-0.53,2.28-0.78,3.33
					c-1.87,8.01-3.74,16.03-7.1,23.6c-1.74,3.92-3.47,7.83-6.71,10.81c-0.09,0.08-0.08,0.27-0.14,0.52
					c6.1,0.15,10.33-3.14,14.09-7.22c3.13,2.69,5.15,6.55,9.5,7.63c-1.79-4.22-2.66-8.56-2.58-13.09c0.07-4.54,1.28-8.86,2.76-13.31
					c3.21,5.69,6.42,11.38,9.76,17.29c2.94-6.39,5.76-12.44,9.64-18.03c0.17,0.24,0.27,0.33,0.3,0.43c1.1,4.3,2.29,8.57,3.28,12.89
					c0.78,3.45,0.94,6.97,0.06,10.45c-0.2,0.78-0.44,1.55-0.71,2.47c2.83-0.51,4.88-1.87,6.59-3.79c1.85-2.09,1.9-2.2,4.16-0.74
					c4.09,2.65,8.7,4,13.19,5.64c0.32,0.12,0.69,0.07,1.34,0.12c-0.34-0.61-0.53-1.01-0.78-1.38c-2.08-3.02-4.43-5.88-6.17-9.08
					c-2.23-4.12-4.11-8.45-5.88-12.8c-2.1-5.12-3.58-10.45-4-15.98c-0.21-2.66-0.88-4.99-2.16-7.33
					c-2.76-5.03-4.01-10.58-5.03-16.17c-0.81-4.5-1.34-9.03-0.51-13.58c0.33-1.83,0.85-3.62,1.31-5.52
					c-3.18,0.93-6.25,1.78-9.28,2.76c-1.27,0.4-2.31,0.25-3.37-0.49c-1.8-1.26-3.87-1.76-6.01-1.72
					c-6.82,0.13-13.09,2.26-18.99,5.59c-0.66,0.37-1.21,0.94-1.81,1.42c0.05,0.1,0.1,0.21,0.14,0.31c0.5-0.03,1-0.06,1.49-0.11
					c2.81-0.23,5.62-0.6,8.44-0.66c2.14-0.05,3.35,1.26,3.42,3.39c0.03,1.19-0.06,2.41-0.33,3.57c-1.49,6.38-3.05,12.74-4.59,19.1
					c-0.14,0.56-0.36,1.09-0.57,1.71C643.15,94.96,637.95,92.92,632.15,96.69z M580.65,121.75c0-8.79,0-17.58,0-26.37
					c-0.03,0-0.07,0.01-0.1,0.01c0,8.78,0,17.57,0,26.36C580.58,121.75,580.62,121.75,580.65,121.75z M594.93,36.76
					c-2.82,1.65-5.74,3.05-9.1,3.01c-1.79-0.02-3.58-0.27-5.49-0.42c0.15,0.5,0.26,0.92,0.4,1.32c1.51,4.22,2.6,8.55,2.81,13.04
					c0.2,4.47,0.3,8.94,0.41,13.41c0.19,7.98,0.36,15.95,0.52,23.92c0.14,7.01,0.29,14.02,0.37,21.03
					c0.07,5.27,0.02,10.54,0.06,15.81c0.03,3.45-0.22,6.79-2.57,9.62c-0.68,0.82-0.57,1.86-0.04,2.89
					c6.86,0.14,13.72,0.28,20.6,0.42c0.28-1.29,0.08-2.3-0.51-3.34c-0.66-1.17-1.36-2.4-1.62-3.7c-0.45-2.18-0.72-4.42-0.79-6.65
					c-0.19-5.29-0.25-10.58-0.31-15.88c-0.06-4.47-0.05-8.94-0.07-13.41c-0.01-2.18,0-4.37,0-6.56c4.63-3.07,9.18-6.09,13.76-9.13
					c1.1,1.17,1.64,2.42,1.66,3.88c0.01,1.04-0.02,2.08,0,3.11c0.13,8.02,0.4,16.04,0.35,24.06c-0.04,8.02-0.28,16.03-0.69,24.03
					c-0.28,5.34-1.03,10.65-1.54,15.98c-0.06,0.62,0.05,1.26,0.11,2.24c5.92-5.41,10.79-11.36,17.2-15.56
					c-0.85-22.02-1.63-43.94-0.08-65.59c-2.66-2.34-5.37-4.47-7.78-6.9c-2.43-2.46-4.56-5.22-6.74-7.75
					c-2.46,3.39-4.92,6.89-7.48,10.3c-2.59,3.45-5.56,6.54-8.9,9.72c-0.05-0.68-0.09-1.06-0.09-1.44
					c-0.04-5.01-0.06-10.03-0.1-15.05c-0.04-5.06-0.26-10.12-0.09-15.17c0.15-4.86,0.53-9.74,2.45-14.32
					c0.09-0.22,0.09-0.49,0.17-0.93c-0.47,0.23-0.76,0.34-1.02,0.5C598.84,34.41,596.89,35.6,594.93,36.76z M576.02,80.8
					c-3.63,3.58-7.97,4.71-12.88,3.3c-2.74-0.78-5.43-1.72-8.02-2.55c0,2.92,0,5.9,0,8.94c1.8-0.37,3.37-0.75,4.96-1
					c4.97-0.81,9.95-1.59,14.92-2.34c1.31-0.19,2.75-0.18,3.72,0.81c0.78,0.79,1.21,1.91,1.68,2.69c-0.13-4.6-0.27-9.51-0.41-14.3
					C578.64,77.87,577.41,79.42,576.02,80.8z M538.48,113.5c7.04,1.43,12.14,6.18,18.52,8.81c0-4.7,0-9.19,0-13.91
					C550.9,110.08,544.81,111.76,538.48,113.5z M536.33,113.72c-2.58-0.56-3.6-2.52-3.45-4.85c0.19-3.01,0.49-6.03,0.44-9.04
					c-0.13-6.6-0.37-13.21-0.72-19.8c-0.14-2.5-0.72-4.98-1.1-7.47c-0.12,0-0.24,0.01-0.37,0.01c0.23,15.21,0.46,30.41,0.69,45.61
					C532.8,116.22,533.63,114.25,536.33,113.72z M533.15,136.89c7.31,0.48,14.3,2.12,19.48,8.09c3.57-3.2,7.45-5.31,11.76-6.74
					c4.28-1.42,8.7-1.83,12.99-2.12c-0.3-7.61-0.71-15.06-0.85-22.51c-0.15-7.5-0.03-14.99-0.03-22.6
					c-8.66,0.98-17.06,1.74-24.96,5.59c-0.77-7.5-0.78-14.82-0.53-22.44c0.66,0.42,1.04,0.64,1.38,0.88
					c3.91,2.8,8.26,4.48,12.97,5.29c2.19,0.37,4.27,0.16,6.22-1.05c3.61-2.25,5.38-5.69,6.37-9.64c0.21-0.82,0.25-1.68,0.36-2.49
					c-1.51-0.25-2.79-0.51-4.09-0.67c-5.62-0.72-11.06-2.06-16.02-4.92c-0.98-0.57-1.85-0.5-2.8,0.08c-1.5,0.92-3.03,1.78-4.56,2.65
					c-3.97,2.26-7.99,4.4-12.57,5.18c-1.05,0.18-2.1,0.31-3.3,0.48c1.67,6.62,2.29,13.25,2.43,19.9c0.13,6.65,0.03,13.3,0.03,19.93
					c3.81-1.14,7.72-2.41,11.68-3.48c3.97-1.08,7.97-2.13,12.1-2.47c0.58,7.26-0.18,23.13-1.2,25.09c-0.14-0.05-0.29-0.1-0.42-0.17
					c-5.89-3.29-11.77-6.59-17.67-9.85c-1.58-0.88-3.26-1.45-5.06-1.18C534.28,122.34,532.09,133.57,533.15,136.89z M518.6,61.09
					c2.07-6.56,6.25-11.53,10.73-16.17c-3.79-3.93-7.48-7.77-11.25-11.69c-0.27,0.25-0.69,0.61-1.09,0.98
					c-4.19,3.87-6.54,8.9-8.85,13.96c-0.5,1.08-0.16,1.99,0.64,2.82c2.99,3.11,5.96,6.24,8.95,9.36
					C517.96,60.59,518.23,60.78,518.6,61.09z M512.12,71.34c0.12,9.04,0.23,18.09,0.37,27.13c0.12,7.93,0.33,15.86,0.38,23.78
					c0.03,5.2,0.15,10.38,1.56,15.42c0.66,2.35,1.58,4.63,2.42,7.05c4.92-1.74,9.58-3.4,14.53-5.16c-0.27-0.96-0.31-2.02-0.82-2.77
					c-1.63-2.38-2.26-5.04-2.37-7.81c-0.24-6.17-0.34-12.34-0.47-18.51c-0.11-5.42-0.19-10.84-0.26-16.27
					c-0.11-8.05-0.27-16.1-0.27-24.15c0-3.06-0.75-5.8-2.27-8.42c-5.7,1.69-11.32,3.35-16.94,5.01c-0.47,1.08-0.03,1.76,0.89,2.28
					c1.07,0.61,2.12,1.24,3.13,1.83C512.06,71.03,512.12,71.18,512.12,71.34z M507.48,129.11c0.29,2.99,1.04,5.89,2.63,8.75
					c-0.03-0.45-0.04-0.69-0.07-0.92c-0.38-2.46-0.93-4.9-1.12-7.38c-0.24-3.21-0.21-6.45-0.28-9.67
					c-0.08-3.83-0.17-7.65-0.24-11.48c-0.09-5.7-0.19-11.4-0.23-17.1c-0.04-6.06-0.01-12.12-0.01-18.03
					c-0.81-0.55-1.36-0.92-2.27-1.53c0.13,2.76,0.29,5.21,0.34,7.65c0.11,6.03,0.16,12.05,0.25,18.07
					c0.07,4.74,0.15,9.49,0.25,14.23c0.05,2.91,0.12,5.81,0.24,8.72C507.09,123.32,507.19,126.22,507.48,129.11z M484.41,37.07
					c3.83,1.24,7.34,0.24,10.75-1.37c2.21-1.03,4.33-2.26,6.45-3.47c2.65-1.52,5.39-0.79,6.36,1.11c0.8,1.59,0.58,3.22,0.03,4.84
					c-0.15,0.44-0.25,0.89-0.39,1.4c1.44-1.95,2.73-3.88,4.21-5.66c1.14-1.38,2.41-2.67,3.78-3.81c1.82-1.52,4.79-0.95,6.2,0.96
					c0.78,1.05,1.61,2.08,2.53,3.01c2.51,2.5,5.08,4.94,7.62,7.41c1.52,1.49,1.65,4.41,0.23,6.1c-1.51,1.8-3.12,3.51-4.58,5.35
					c-1.1,1.38-2.03,2.9-3.23,4.64c3.86-0.08,4.57,2.82,5.56,5.24c0.72,1.76,0.93,3.73,1.33,5.46c1.07-1.92,3.08-2.34,5.43-2.62
					c3.79-0.44,7.26-2.06,10.56-4c2.29-1.34,4.55-2.73,6.9-3.93c2.15-1.1,4.29-0.67,6.39,0.4c1.64,0.84,3.33,1.61,5.08,2.17
					c2.47,0.79,4.99,1.44,7.53,1.99c2.13,0.45,4.3,0.67,6.71,1.03c-0.21-3.72-0.4-7.41-0.63-11.1c-0.25-4.02-1.54-7.81-2.71-11.63
					c-0.85-2.73,1.12-5.27,3.97-5.29c1.75,0,3.5,0.22,5.25,0.23c2.3,0.02,4.39-0.66,6.37-1.9c2.31-1.45,4.7-2.79,7.14-3.99
					c3.02-1.48,6.24,0.12,6.38,3.11c0.05,0.88-0.08,1.83-0.39,2.66c-1.31,3.54-1.78,7.24-1.97,10.96
					c-0.18,3.75-0.25,7.51-0.23,11.26c0.02,3.93,0.2,7.86,0.3,11.78c0.11,0.07,0.21,0.13,0.31,0.19c2.41-3.41,4.83-6.83,7.24-10.25
					c0.46-0.65,0.95-1.28,1.32-1.98c1.3-2.51,5.54-2.33,7-0.27c2.02,2.84,4.33,5.52,6.78,8.01c1.93,1.97,4.2,3.64,6.45,5.27
					c0.93,0.68,1.51,1.48,1.8,2.39c0.22,0.66,0.29,1.38,0.25,2.14c-0.21,4.11-0.53,8.2-0.81,12.3c-0.08,1.31-0.17,2.61-0.27,4.08
					c4.31-1.49,8.34-0.68,12.38,0.72c1.44-5.82,2.87-11.59,4.34-17.5c-1.07,0-1.92-0.07-2.77,0.01c-2.09,0.2-4.18,0.55-6.28,0.67
					c-1.58,0.09-3.1-0.28-4-1.83c-0.12-0.22-0.23-0.47-0.31-0.74c-0.49-1.64-0.16-4.17,1.42-5.28c3.84-2.71,8.12-4.34,12.57-5.63
					c2-0.57,4.01-1.17,6.06-1.54c3.6-0.64,7.34-0.8,10.58,0.95c1.94,1.05,3.36,0.88,5.15,0.18c2.05-0.81,4.17-1.41,6.27-2.09
					c1.82-0.58,4.19,0.57,4.67,2.7c0.38,1.7,0.07,3.22-0.38,4.77c-1.12,3.86-1.14,7.78-0.65,11.72c0.56,4.5,1.47,8.93,3.08,13.16
					c1.02,2.68,2.49,5.18,3.61,7.83c0.5,1.18,0.87,2.5,0.91,3.77c0.13,5.18,1.37,10.1,3.19,14.91c1.01,2.66,1.89,5.37,3.06,7.94
					c1.3,2.83,2.76,5.59,4.36,8.25c1.68,2.81,3.7,5.41,5.41,8.19c1.1,1.79,0.94,5.01-1.37,6.18c-1.75,0.89-3.6,0.45-5.34-0.12
					c-2.3-0.77-4.57-1.64-6.83-2.53c-1.87-0.73-3.71-1.57-5.51-2.33c-1.32,0.91-2.75,1.89-4.16,2.89c-2.07,1.46-4.34,1.66-6.72,1.06
					c-1.75-0.43-2.8-2.74-2.29-4.89c0.41-1.69,0.95-3.36,1.16-5.07c0.33-2.8-0.36-5.53-1.08-8.22c-0.1-0.38-0.18-0.77-0.32-1.38
					c-0.29,0.43-0.54,0.72-0.69,1.04c-1.23,2.65-2.43,5.32-3.66,7.97c-0.72,1.56-1.9,2.53-3.66,2.64c-1.66,0.11-3.03-0.43-3.93-1.93
					c-1.46-2.45-2.93-4.89-4.39-7.34c-0.11-0.19-0.11-0.45-0.24-1.01c-0.15,0.61-0.28,0.9-0.29,1.21
					c-0.25,3.99,0.46,7.82,1.96,11.51c0.29,0.73,0.56,1.51,0.62,2.28c0.29,3.57-2.03,5.24-5.35,4.52c-2.96-0.65-5.3-2.45-7.22-4.79
					c-0.15-0.18-0.28-0.38-0.43-0.57c-0.15-0.19-0.31-0.37-0.33-0.4c-2.14,1.34-4.09,2.8-6.25,3.84c-2.89,1.4-6.02,2.05-9.24,1.3
					c-0.85-0.2-1.58-0.91-2.36-1.39c-0.06-0.18-0.12-0.36-0.18-0.54c-3.4,3.55-6.77,7.13-10.25,10.61
					c-0.88,0.88-2.05,1.71-3.24,2.02c-2.51,0.65-5.18-0.71-5.25-3.78c-0.04-2.45,0.3-4.91,0.5-7.36c0.1-1.26,0.3-2.52,0.39-3.78
					c0.19-2.66,0.3-5.32,0.51-7.97c0.94-11.57,0.3-23.15,0.47-34.73c0.06-4.22,0.01-8.44,0.01-13c-2.69,1.87-5.02,3.48-7.44,5.15
					c0,1.08,0,2.23,0,3.38c0,4.24-0.02,8.48,0.01,12.72c0.06,5.63,0.1,11.26,0.27,16.88c0.07,2.18,0.41,4.35,0.74,6.5
					c0.11,0.71,0.55,1.38,0.91,2.03c1.27,2.28,1.8,4.64,0.94,7.19c-0.46,1.36-2.11,2.51-3.84,2.49c-3.23-0.03-6.47-0.15-9.7-0.19
					c-3.23-0.04-6.47,0.04-9.7-0.06c-1.84-0.06-3.7-0.35-4.69-2.23c-0.33-0.61-0.47-1.33-0.72-2.05c-5.59,0.17-10.97,0.94-16,3.33
					c-2.04,0.97-3.93,2.16-5.6,3.73c-2.27,2.14-4.61,2.04-7.03,0.06c-1.73-1.43-3.49-2.88-5.42-4.01c-2.2-1.28-4.72-1.74-7.27-1.92
					c-0.55-0.04-1.1-0.16-1.76-0.25c-1.36,2.51-4.01,2.86-6.43,3.7c-2.82,0.98-5.58,2.14-8.38,3.17c-1.51,0.56-3.06,0.87-4.48,0.36
					c-0.68,1.43-1.21,2.87-2,4.15c-1.15,1.83-3.92,2.04-5.54,1c-2.91-1.85-5.77-3.77-8.61-5.73c-1.3-0.89-2.49-1.92-3.87-3
					c-1.33,0.52-2.87,1.21-4.47,1.73c-2.61,0.85-5.28,1.39-8.06,1.38c-2.05-0.02-3.7-0.79-4.44-2.61c-0.75-1.88-0.81-3.99,0.78-5.59
					c2.06-2.05,3.05-4.55,3.44-7.46c-0.99,1.08-2.12,2.08-2.94,3.28c-2.04,3-3.84,6.15-5.13,9.57c-1.2,3.2-5.74,3.38-7.57,0.88
					c-2.68-3.67-5.54-7.27-6.79-11.78c-0.1-0.37-0.22-0.74-0.38-1.28c-1.14,0.93-2.31,1.69-3.22,2.68c-2.41,2.6-4.73,5.27-7.01,7.98
					c-0.69,0.81-1.1,1.83-1.7,2.72c-1.39,2.11-5.25,2.01-6.61,0.04c-2.6-3.78-5.71-7.15-9.05-10.3c-1.43-1.35-3.03-2.54-4.66-3.89
					c0,1.28,0.06,2.37-0.02,3.44c-0.13,2.13-1.47,3.47-3.09,4.68c-5.64,4.23-10.19,9.43-13.68,15.56c-1.91,3.35-5.78,3.53-7.79,0.35
					c-0.34-0.54-0.56-1.28-0.53-1.91c0.15-3.05,0.4-6.09,0.65-9.14c0.14-1.73,0.43-3.46,0.5-5.2c0.03-0.78,0.07-1.56,0.1-2.34
					c0.25-5.75,0.48-11.51,0.62-17.26c0.1-4.27,0.04-8.54-0.01-12.8c-0.06-5.5-0.17-10.99-0.29-16.49
					c-0.02-0.97-0.14-1.93-0.22-3.08c-2.17,1.26-4.21,2.44-5.94,3.45c0,6.11,0,11.85,0,17.6c0,2.28-0.02,4.56,0.02,6.84
					c0.05,3.27,0.08,6.54,0.26,9.8c0.1,1.77,0.37,3.55,0.77,5.28c0.21,0.93,0.8,1.8,1.31,2.63c0.79,1.27,1.12,2.6,1.12,3.93
					c0,1-0.18,1.99-0.49,2.97c-0.53,1.67-2.11,2.38-3.91,2.4c-6.23,0.06-12.46,0.19-18.69,0.2c-2.96,0-4.94-0.92-5.49-4.55
					c-0.2,1.49-0.37,2.79-1.65,3.62c-1.17,0.77-2.41,1.12-3.79,1.11c-6.08-0.01-12.17-0.08-18.24,0.03
					c-3.45,0.06-5.54-2.11-5.72-5.59c-0.1-1.84,0.4-3.46,1.55-4.88c0.77-0.93,1.08-1.99,1.09-3.19c0.05-6,0.21-11.98,0.19-17.97
					c-0.01-6.99-0.16-13.98-0.25-20.97c-0.09-5.79-0.18-11.59-0.27-17.38c0-0.12-0.04-0.23-0.08-0.45c-0.28-0.17-0.6-0.41-0.95-0.58
					c-3.14-1.55-3.52-3.41-3.05-6.84c0.21-1.57,1.2-2.49,2.76-2.87c5.61-1.36,11.21-2.78,16.82-4.14c2.17-0.53,3.95,0.52,5.41,2.95
					c1.36,2.26,2.15,4.66,2.23,7.49c1.86-2.32,3.73-4.62,5.57-6.96c0.74-0.93,1.47-1.89,2.06-2.92c1.27-2.19,4.98-2.52,6.71-0.55
					c1.34,1.52,2.62,3.12,4.07,4.53c1.86,1.83,3.85,3.54,5.83,5.25c1.02,0.87,2.14,1.62,3.37,2.55c2.85-3.78,5.67-7.47,8.44-11.2
					c1.53-2.06,3.18-2.78,5.43-2.13c0.54,0.15,1.09,0.5,1.48,0.91c1.71,1.79,3.32,3.67,5.05,5.43c1.45,1.48,3.02,2.82,4.68,4.36
					c0.76-3.08,3.14-3.29,5.51-3.82c3.8-0.85,7.56-1.92,11.29-3.09c2.36-0.74,4.58-1.87,6.92-2.71c1.67-0.6,4.35,0.42,4.55,2.77
					c0.17,1.96,0.14,3.95,0.12,5.92c-0.01,0.98-0.02,1.96-0.03,2.94c-0.06,4.06-0.15,8.11-0.14,12.17
					c0.02,6.81,0.15,13.62,0.24,20.43c0.05,3.6,0.05,7.21,0.27,10.81c0.04,0.8,0.89,1.54,1.38,2.34c2.23-1.3,4.24-2.46,6.24-3.62
					c0-4.35,0.03-8.66-0.01-12.98c-0.02-3.03-0.12-6.05-0.23-9.08c-0.14-3.82-0.26-7.64-0.5-11.45c-0.1-1.65-0.66-3.14-2.23-4.1
					c-1.94-1.18-2.59-2.69-2.59-4.49c0-0.78,0.12-1.62,0.32-2.51c0.33-1.48,2.26-2.56,4.33-2.84c4.82-0.66,9.57-1.62,13.82-4.23
					c1.18-0.72,2.39-1.45,3.68-1.92c2.77-0.99,5.54,0.47,5.72,3.48c0.2,3.1,0.22,6.22,0.27,9.33c0.1,6.58,0.16,13.15,0.26,19.72
					c0.06,4.11,0.09,8.22,0.29,12.32c0.18,3.85,0.51,7.7,0.9,11.54c0.18,1.88,0.64,3.74,0.97,5.61c0.15-0.02,0.3-0.05,0.45-0.07
					c0-0.33,0-0.66,0-1c0-3.64,0.02-7.28-0.01-10.92c-0.07-6.98-0.15-13.97-0.25-20.96c-0.06-4.67-0.15-9.34-0.23-14.01
					c-0.07-4.14-0.18-8.29-0.23-12.43c-0.09-6.15-1-12.15-3.15-17.94c-0.55-1.48-0.69-2.97-0.02-4.39
					C480.27,37.37,482.49,36.45,484.41,37.07z M496.54,39.65c-3.51,1.69-7.22,2.52-11.15,1.87c-0.72-0.12-1.43-0.31-2.27-0.51
					c0.11,0.4,0.16,0.66,0.25,0.91c1.35,3.81,2.55,7.66,2.86,11.7c0.27,3.54,0.32,7.1,0.42,10.64c0.18,7.05,0.34,14.11,0.48,21.16
					c0.12,6.26,0.28,12.52,0.26,18.79c-0.02,8.81,0.64,17.62-0.16,26.43c-0.39,4.28-1.47,8.24-4.58,11.43
					c-0.34,0.35-0.36,1.03-0.57,1.68c0.65,0.05,0.93,0.1,1.2,0.09c4.21-0.14,8.06-1.52,11.72-3.48c1.49-0.8,1.73-0.77,2.83,0.5
					c0.8,0.93,1.58,1.95,2.57,2.65c3.22,2.3,6.53,4.46,9.9,6.74c0.3-0.55,0.58-1.07,0.92-1.69c-1.17-2.08-2.31-4.09-3.42-6.12
					c-1.88-3.42-3.2-7.04-3.96-10.87c-1.09-5.48-0.98-11.04-1.15-16.57c-0.19-5.93-0.25-11.86-0.36-17.79
					c-0.12-6.3-0.29-12.6-0.35-18.9c-0.08-8.46-0.07-16.93-0.12-25.4c-0.03-4.64,0.32-9.24,1.7-13.71c0.4-1.27,0.73-2.57,1.18-4.19
					c-0.7,0.44-1.08,0.71-1.49,0.94C501.02,37.2,498.84,38.55,496.54,39.65z M641.84,107.38c-2.31-2.55-4.8-4.93-8.37-6.03
					c0.17,10.47,0.34,20.81,0.51,31.15C636.28,129.37,640.3,116.12,641.84,107.38z M512.87,61.11c-2.33-2.45-4.52-4.77-6.84-7.2
					c0,3.15,0,6.06,0,9.16C508.34,62.4,510.55,61.77,512.87,61.11z"/>
				<path class="st0" d="M483.43,108.66c0.03,3.64,0.01,7.28,0.01,10.92c0,0.34,0,0.67,0,1c-0.15,0.02-0.3,0.05-0.45,0.07
					c-0.33-1.87-0.79-3.73-0.97-5.61c-0.39-3.84-0.72-7.69-0.9-11.54c-0.2-4.1-0.23-8.21-0.29-12.32
					c-0.1-6.57-0.16-13.14-0.26-19.72c-0.05-3.11-0.07-6.23-0.27-9.33c-0.18-3.01-2.95-4.47-5.72-3.48c-1.29,0.47-2.5,1.2-3.68,1.92
					c-4.25,2.61-9,3.57-13.82,4.23c-2.07,0.28-4,1.36-4.33,2.84c-0.2,0.89-0.32,1.73-0.32,2.51L450,70.12
					c0.01-0.98,0.02-1.96,0.03-2.94c0.02-1.97,0.05-3.96-0.12-5.92c-0.2-2.35-2.88-3.37-4.55-2.77c-2.34,0.84-4.56,1.97-6.92,2.71
					c-3.73,1.17-7.49,2.24-11.29,3.09c-2.37,0.53-4.75,0.74-5.51,3.82c-1.66-1.54-3.23-2.88-4.68-4.36
					c-1.73-1.76-3.34-3.64-5.05-5.43c-0.39-0.41-0.94-0.76-1.48-0.91c-2.25-0.65-3.9,0.07-5.43,2.13c-2.77,3.73-5.59,7.42-8.44,11.2
					c-1.23-0.93-2.35-1.68-3.37-2.55c-1.98-1.71-3.97-3.42-5.83-5.25c-1.45-1.41-2.73-3.01-4.07-4.53
					c-1.73-1.97-5.44-1.64-6.71,0.55c-0.59,1.03-1.32,1.99-2.06,2.92c-1.84,2.34-3.71,4.64-5.57,6.96
					c-0.08-2.83-0.87-5.23-2.23-7.49c-1.46-2.43-3.24-3.48-5.41-2.95c-5.61,1.36-11.21,2.78-16.82,4.14
					c-1.56,0.38-2.55,1.3-2.76,2.87c-0.47,3.43-0.09,5.29,3.05,6.84c0.35,0.17,0.67,0.41,0.95,0.58c0.04,0.22,0.08,0.33,0.08,0.45
					c0.09,5.79,0.18,11.59,0.27,17.38c0.09,6.99,0.24,13.98,0.25,20.97c0.02,5.99-0.14,11.97-0.19,17.97
					c-0.01,1.2-0.32,2.26-1.09,3.19c-1.15,1.42-1.65,3.04-1.55,4.88c0.18,3.48,2.27,5.65,5.72,5.59c6.07-0.11,12.16-0.04,18.24-0.03
					c1.38,0.01,2.62-0.34,3.79-1.11c1.28-0.83,1.45-2.13,1.65-3.62c0.55,3.63,2.53,4.55,5.49,4.55c6.23-0.01,12.46-0.14,18.69-0.2
					c1.8-0.02,3.38-0.73,3.91-2.4c0.31-0.98,0.49-1.97,0.49-2.97l2.36,0.1c-0.03,0.78-0.07,1.56-0.1,2.34
					c-0.07,1.74-0.36,3.47-0.5,5.2c-0.25,3.05-0.5,6.09-0.65,9.14c-0.03,0.63,0.19,1.37,0.53,1.91c2.01,3.18,5.88,3,7.79-0.35
					c3.49-6.13,8.04-11.33,13.68-15.56c1.62-1.21,2.96-2.55,3.09-4.68c0.08-1.07,0.02-2.16,0.02-3.44c1.63,1.35,3.23,2.54,4.66,3.89
					c3.34,3.15,6.45,6.52,9.05,10.3c1.36,1.97,5.22,2.07,6.61-0.04c0.6-0.89,1.01-1.91,1.7-2.72c2.28-2.71,4.6-5.38,7.01-7.98
					c0.91-0.99,2.08-1.75,3.22-2.68c0.16,0.54,0.28,0.91,0.38,1.28c1.25,4.51,4.11,8.11,6.79,11.78c1.83,2.5,6.37,2.32,7.57-0.88
					c1.29-3.42,3.09-6.57,5.13-9.57c0.82-1.2,1.95-2.2,2.94-3.28c-0.39,2.91-1.38,5.41-3.44,7.46c-1.59,1.6-1.53,3.71-0.78,5.59
					c0.74,1.82,2.39,2.59,4.44,2.61c2.78,0.01,5.45-0.53,8.06-1.38c1.6-0.52,3.14-1.21,4.47-1.73c1.38,1.08,2.57,2.11,3.87,3
					c2.84,1.96,5.7,3.88,8.61,5.73c1.62,1.04,4.39,0.83,5.54-1c0.79-1.28,1.32-2.72,2-4.15c1.42,0.51,2.97,0.2,4.48-0.36
					c2.8-1.03,5.56-2.19,8.38-3.17c2.42-0.84,5.07-1.19,6.43-3.7c0.66,0.09,1.21,0.21,1.76,0.25c2.55,0.18,5.07,0.64,7.27,1.92
					c1.93,1.13,3.69,2.58,5.42,4.01c2.42,1.98,4.76,2.08,7.03-0.06c1.67-1.57,3.56-2.76,5.6-3.73c5.03-2.39,10.41-3.16,16-3.33
					c0.25,0.72,0.39,1.44,0.72,2.05c0.99,1.88,2.85,2.17,4.69,2.23c3.23,0.1,6.47,0.02,9.7,0.06c3.23,0.04,6.47,0.16,9.7,0.19
					c1.73,0.02,3.38-1.13,3.84-2.49c0.86-2.55,0.33-4.91-0.94-7.19c-0.36-0.65-0.8-1.32-0.91-2.03c-0.33-2.15-0.67-4.32-0.74-6.5
					c-0.17-5.62-0.21-11.25-0.27-16.88c-0.03-4.24-0.01-8.48-0.01-12.72c0-1.15,0-2.3,0-3.38c2.42-1.67,4.75-3.28,7.44-5.15
					c0,4.56,0.05,8.78-0.01,13c-0.17,11.58,0.47,23.16-0.47,34.73c-0.21,2.65-0.32,5.31-0.51,7.97c-0.09,1.26-0.29,2.52-0.39,3.78
					c-0.2,2.45-0.54,4.91-0.5,7.36c0.07,3.07,2.74,4.43,5.25,3.78c1.19-0.31,2.36-1.14,3.24-2.02c3.48-3.48,6.85-7.06,10.25-10.61
					c0.06,0.18,0.12,0.36,0.18,0.54c0.78,0.48,1.51,1.19,2.36,1.39c3.22,0.75,6.35,0.1,9.24-1.3c2.16-1.04,4.11-2.5,6.25-3.84
					c0.02,0.03,0.18,0.21,0.33,0.4c0.15,0.19,0.28,0.39,0.43,0.57c1.92,2.34,4.26,4.14,7.22,4.79c3.32,0.72,5.64-0.95,5.35-4.52
					c-0.06-0.77-0.33-1.55-0.62-2.28c-1.5-3.69-2.21-7.52-1.96-11.51c0.01-0.31,0.14-0.6,0.29-1.21c0.13,0.56,0.13,0.82,0.24,1.01
					c1.46,2.45,2.93,4.89,4.39,7.34c0.9,1.5,2.27,2.04,3.93,1.93c1.76-0.11,2.94-1.08,3.66-2.64c1.23-2.65,2.43-5.32,3.66-7.97
					c0.15-0.32,0.4-0.61,0.69-1.04c0.14,0.61,0.22,1,0.32,1.38c0.72,2.69,1.41,5.42,1.08,8.22c-0.21,1.71-0.75,3.38-1.16,5.07
					c-0.51,2.15,0.54,4.46,2.29,4.89c2.38,0.6,4.65,0.4,6.72-1.06c1.41-1,2.84-1.98,4.16-2.89c1.8,0.76,3.64,1.6,5.51,2.33
					c2.26,0.89,4.53,1.76,6.83,2.53c1.74,0.57,3.59,1.01,5.34,0.12c2.31-1.17,2.47-4.39,1.37-6.18c-1.71-2.78-3.73-5.38-5.41-8.19
					c-1.6-2.66-3.06-5.42-4.36-8.25c-1.17-2.57-2.05-5.28-3.06-7.94c-1.82-4.81-3.06-9.73-3.19-14.91
					c-0.04-1.27-0.41-2.59-0.91-3.77c-1.12-2.65-2.59-5.15-3.61-7.83c-1.61-4.23-2.52-8.66-3.08-13.16
					c-0.49-3.94-0.47-7.86,0.65-11.72c0.45-1.55,0.76-3.07,0.38-4.77c-0.48-2.13-2.85-3.28-4.67-2.7c-2.1,0.68-4.22,1.28-6.27,2.09
					c-1.79,0.7-3.21,0.87-5.15-0.18c-3.24-1.75-6.98-1.59-10.58-0.95c-2.05,0.37-4.06,0.97-6.06,1.54
					c-4.45,1.29-8.73,2.92-12.57,5.63c-1.58,1.11-1.91,3.64-1.42,5.28l-2.53,0.15c-0.29-0.91-0.87-1.71-1.8-2.39
					c-2.25-1.63-4.52-3.3-6.45-5.27c-2.45-2.49-4.76-5.17-6.78-8.01c-1.46-2.06-5.7-2.24-7,0.27c-0.37,0.7-0.86,1.33-1.32,1.98
					c-2.41,3.42-4.83,6.84-7.24,10.25c-0.1-0.06-0.2-0.12-0.31-0.19c-0.1-3.92-0.28-7.85-0.3-11.78c-0.02-3.75,0.05-7.51,0.23-11.26
					c0.19-3.72,0.66-7.42,1.97-10.96c0.31-0.83,0.44-1.78,0.39-2.66c-0.14-2.99-3.36-4.59-6.38-3.11c-2.44,1.2-4.83,2.54-7.14,3.99
					c-1.98,1.24-4.07,1.92-6.37,1.9c-1.75-0.01-3.5-0.23-5.25-0.23c-2.85,0.02-4.82,2.56-3.97,5.29c1.17,3.82,2.46,7.61,2.71,11.63
					c0.23,3.69,0.42,7.38,0.63,11.1c-2.41-0.36-4.58-0.58-6.71-1.03c-2.54-0.55-5.06-1.2-7.53-1.99c-1.75-0.56-3.44-1.33-5.08-2.17
					c-2.1-1.07-4.24-1.5-6.39-0.4c-2.35,1.2-4.61,2.59-6.9,3.93c-3.3,1.94-6.77,3.56-10.56,4c-2.35,0.28-4.36,0.7-5.43,2.62
					c-0.4-1.73-0.61-3.7-1.33-5.46c-0.99-2.42-1.7-5.32-5.56-5.24c1.2-1.74,2.13-3.26,3.23-4.64c1.46-1.84,3.07-3.55,4.58-5.35
					c1.42-1.69,1.29-4.61-0.23-6.1c-2.54-2.47-5.11-4.91-7.62-7.41c-0.92-0.93-1.75-1.96-2.53-3.01c-1.41-1.91-4.38-2.48-6.2-0.96
					c-1.37,1.14-2.64,2.43-3.78,3.81c-1.48,1.78-2.77,3.71-4.21,5.66c0.14-0.51,0.24-0.96,0.39-1.4c0.55-1.62,0.77-3.25-0.03-4.84
					c-0.97-1.9-3.71-2.63-6.36-1.11c-2.12,1.21-4.24,2.44-6.45,3.47c-3.41,1.61-6.92,2.61-10.75,1.37c-1.92-0.62-4.14,0.3-4.86,1.86
					c-0.67,1.42-0.53,2.91,0.02,4.39c2.15,5.79,3.06,11.79,3.15,17.94c0.05,4.14,0.16,8.29,0.23,12.43
					c0.08,4.67,0.17,9.34,0.23,14.01C483.28,94.69,483.36,101.68,483.43,108.66z M479.53,32.64c2.49-0.9,4.97-0.73,7.51-0.17
					c1.03,0.22,2.3,0.15,3.24-0.27c3.01-1.33,5.94-2.84,8.87-4.35c3.57-1.83,7.08-2.04,10.58,0.15c0.1,0.06,0.22,0.09,0.43,0.17
					c0.52-0.49,1.05-1.01,1.61-1.51c3.45-3.08,9.29-3.21,12.81-0.06c0.82,0.73,1.41,1.73,2.19,2.52c2.84,2.9,5.76,5.72,8.59,8.64
					c2.22,2.3,3.05,5.1,2.7,8.29c-0.31,2.84-1.99,4.87-3.77,6.88c-0.8,0.89-1.58,1.79-2.37,2.69c0.92,1.69,1.83,3.36,2.77,5.09
					c2.65,0.27,5.01-0.89,7.31-2.02c2.96-1.47,5.82-3.14,8.68-4.8c4.21-2.46,8.35-2.25,12.58,0.02c3.3,1.78,6.88,2.83,10.58,3.45
					c0.22,0.04,0.46-0.01,0.83-0.03c-0.13-1.6-0.3-3.13-0.37-4.67c-0.2-4.14-2.09-7.89-2.8-11.9c-0.57-3.21,0.51-6.09,2.95-8.26
					c2.57-2.28,5.73-2.47,9-2.09c2.15,0.25,4.22,0.16,6.18-1.13c2.32-1.54,4.75-2.97,7.29-4.11c3.77-1.69,7.57-1.58,10.82,1.26
					c1.05,0.92,1.75,2.33,2.36,3.63c1.16,2.47,0.56,5.03-0.27,7.42c-1.07,3.06-1.3,6.22-1.56,9.38c-0.2,2.46-0.24,4.93-0.37,7.68
					c0.7-0.76,1.15-1.35,1.7-1.81c3.09-2.58,6.59-2.8,10.2-1.47c1.57,0.57,2.68,1.9,3.76,3.23c2.05,2.55,4.18,5.03,6.39,7.44
					c1.01,1.1,2.28,1.97,3.4,2.93c3.62-3.13,7.62-5.37,12.09-6.71c3.75-1.12,7.53-2.22,11.35-3.05c4.19-0.89,8.31-0.13,12.32,1.21
					c0.86,0.29,1.56,0.32,2.48-0.02c2.3-0.84,4.67-1.63,7.07-2.06c2.98-0.53,5.75,0.36,7.73,2.71c2.27,2.72,2.93,5.97,1.9,9.38
					c-1.56,5.2-1.18,10.38-0.22,15.6c0.84,4.56,2.13,9.01,4.41,13.03c1.78,3.16,2.57,6.42,2.71,9.99c0.15,3.75,1.25,7.33,2.56,10.84
					c0.92,2.45,1.75,4.93,2.74,7.35c2.05,5,4.91,9.54,8.09,13.89c1.45,1.98,2.72,4.03,3,6.53c0.45,4.09-1.01,7.96-4.81,9.67
					c-2.54,1.14-5.33,1.22-8.05,0.26c-3.37-1.18-6.75-2.36-10.12-3.54c-0.33-0.12-0.67-0.24-1.01-0.36
					c-0.27,0.2-0.53,0.39-0.77,0.57c-0.03,0.1-0.08,0.18-0.08,0.25c0.46,3.64-1.07,6.81-2.4,10.01c-2.88,6.96-4.03,14.24-4.35,21.72
					c-0.23,5.25,0.36,10.45,0.64,15.67c0.06,1.2-0.22,2.47-0.58,3.63c-0.18,0.57-0.89,1.3-1.4,1.34c-0.61,0.05-1.6-0.41-1.85-0.93
					c-0.6-1.22-1.01-2.59-1.23-3.95c-0.37-2.24-0.54-4.51-0.79-6.78c-0.03-0.23-0.08-0.46-0.13-0.75c-1.4-0.48-1.69-1.69-1.83-2.95
					c-0.26-2.45-0.28-4.95-0.74-7.37c-0.8-4.19-1.83-8.34-2.84-12.48c-0.21-0.87-0.69-1.7-1.17-2.48c-0.95-1.54-2-3.03-3.09-4.66
					c-1.5,1.17-1.59,3.92-4.14,4.56c-2.41-2.07-2.28-5.35-3.6-8.15c-2.29,1.24-3.86,0.22-5.04-1.85c-0.92,0.82-1.68,1.65-2.58,2.26
					c-1.59,1.08-2.81,0.89-3.9-0.7c-1.12-1.62-2.05-3.38-3.09-5.14c-4.26,1.52-8.73,3.05-13.63,1.71c-2.6,2.53-5.24,5.04-7.8,7.61
					c-1.9,1.9-4.11,3.24-6.79,3.4c-3.16,0.17-6.08-0.6-8.17-3.28c-0.22-0.28-0.44-0.54-0.96-0.78c0,2.36,0.17,4.73-0.03,7.07
					c-0.36,4.18-0.93,8.34-1.45,12.5c-0.17,1.34-0.97,2.36-2.06,3.11c-0.81,0.57-1.75,0.57-2.13-0.4c-0.62-1.57-1.21-3.21-1.45-4.87
					c-0.44-3.16-0.55-6.36-0.95-9.53c-0.26-2.01-0.86-3.98-1.19-5.98c-0.65-3.98-1.23-7.97-1.89-12.28
					c-1.46-0.04-3.11-0.07-4.75-0.14c-3.14-0.12-6.28,0.27-9.41-0.56c-2.19-0.59-3.94-1.62-5.26-3.53c-2.81,0.09-5.53,0.7-8.22,1.63
					c-2.91,1.01-5.54,2.53-7.67,4.69c-0.93,0.93-1.45,2.47-1.7,3.82c-0.84,4.39-1.46,8.82-2.2,13.23c-0.14,0.85-0.3,1.75-0.69,2.51
					c-0.7,1.35-2.06,1.4-2.81,0.09c-1.32-2.3-1.69-4.86-2.02-7.46c-0.18-1.43-0.57-2.91-1.22-4.19c-0.98-1.89-2.69-2.17-4.44-0.96
					c-2.49,1.73-3.62,4.35-4.27,7.14c-0.55,2.36-0.86,4.79-1.14,7.2c-0.43,3.66-1.47,7.13-3.15,10.37
					c-2.28,4.36-2.61,8.96-2.14,13.75c0.48,4.98,0.44,9.98-0.24,14.95c-0.17,1.21-0.56,2.41-1,3.56c-0.39,1.03-1.14,1.79-2.39,1.57
					c-1.17-0.2-1.75-1.02-1.98-2.12c-0.93-4.48-0.77-8.93-0.16-13.46c0.58-4.3,0.69-8.66,0.31-13.03
					c-0.5-5.64-0.69-11.32-1.18-16.97c-0.35-4.08-0.87-8.16-1.49-12.22c-0.17-1.08-0.81-2.17-1.48-3.08
					c-0.85-1.14-1.84-0.99-2.58,0.23c-0.35,0.58-0.59,1.23-0.9,1.83c-0.96,1.92-2.71,2.16-4.21,0.58c-0.28-0.28-0.5-0.62-0.79-0.98
					c-0.47,0.12-0.98,0.18-1.45,0.37c-2.39,0.96-4.81,0.7-7.11-0.15c-1.23-0.46-2.29-1.42-3.42-2.17c-2.59-1.72-5.17-3.47-7.8-5.14
					c-0.35-0.22-0.97-0.21-1.41-0.09c-3.29,0.89-6.56,1.93-10.03,1.95c-2.59,0.02-5.07-0.4-7.09-2.1c-4.22,2.55-8.3,2.47-12.27-0.35
					c-3.5,1.06-5.08,3.35-5.19,7.57c-0.1,3.91-0.08,7.83-0.27,11.74c-0.1,1.89-0.5,3.78-0.9,5.65c-0.24,1.1-1.06,1.84-2.22,1.88
					c-1.22,0.04-2.26-0.41-2.85-1.61c-1.18-2.41-1.18-4.96-0.86-7.51c0.26-2.02,0.72-4.01,1.09-6.01c0.72-3.91,0.06-7.71-1.04-11.46
					c-0.04-0.15-0.12-0.29-0.2-0.43c-0.06-0.1-0.15-0.18-0.26-0.31c-3.23,3.06-6.98,3.54-11.12,2.05c-0.14,2.39-0.16,4.58-0.42,6.74
					c-0.62,5.32-1.35,10.62-2.03,15.93c-0.82,6.44-1,12.89-0.32,19.36c0.16,1.53,0.01,3.11-0.18,4.64
					c-0.15,1.16-0.97,1.94-2.15,2.14c-1.17,0.2-1.85-0.57-2.43-1.42c-1.77-2.58-2.09-5.53-1.86-8.49c0.38-5.02,0.93-10.02,1.5-15.02
					c0.38-3.34-0.22-6.61-0.6-9.89c-0.33-2.86-0.72-5.71-1.14-8.55c-0.17-1.22-0.64-2.42-0.69-3.64c-0.09-2.18-0.03-4.37,0.07-6.55
					c0.09-1.82,0.33-3.64,0.52-5.65c-2.11,1.74-4.07,3.27-5.95,4.9c-3.24,2.8-4.65,6.43-4.91,10.66
					c-0.37,6.17-0.82,12.34-1.37,18.51c-0.14,1.68-0.58,3.38-1.17,4.97c-0.57,1.58-1.54,1.6-2.69,0.33c-1-1.1-1.07-2.49-1.07-3.83
					c0-2.72,0.07-5.43,0.23-8.14c0.16-2.57-0.41-4.98-1.12-7.22c-1.6,0.51-3.09,1.15-4.65,1.44c-3.22,0.6-5.97-0.5-8.16-2.86
					c-1.83-1.96-2.41-4.43-2.44-7.05c-0.01-1.78,0-3.56,0-5.49c-1.11,0.08-2.49,0.24-3.87,0.26c-3.88,0.04-7.76-0.02-11.64,0.02
					c-2.95,0.03-5.89,0.06-8.96-1.16c-0.53,1.97-1.04,3.79-1.52,5.62c-1.46,5.55-2.97,11.09-4.32,16.67
					c-0.55,2.31-0.95,4.7-1.02,7.07c-0.1,3.27,0.21,6.54,0.31,9.82c0.07,2.35,0.04,4.71,0.12,7.07c0.06,2.04,0.37,4.07,0.28,6.1
					c-0.08,2.09-0.34,4.21-0.84,6.24c-0.43,1.75-2.13,2.04-3.47,0.76c-1.2-1.13-1.74-2.64-1.8-4.2c-0.09-2.71,0.08-5.42,0.05-8.14
					c-0.04-2.78-0.01-5.59-0.32-8.34c-0.65-5.63-1.43-11.25-2.29-16.85c-0.28-1.79-0.88-3.56-1.49-5.27
					c-1.15-3.19-2.54-6.3-3.6-9.51c-0.59-1.76-0.72-3.67-1.09-5.69c-0.69,0-1.43-0.01-2.18,0c-2.99,0.03-5.86-0.48-8.02-2.72
					c-1.01-1.05-1.92-2.35-2.44-3.7c-1.11-2.84-1.36-5.81-0.21-8.75c0.23-0.59,0.37-1.27,0.77-1.73c1.25-1.45,1.37-3.19,1.36-4.93
					c-0.09-11.47-0.23-22.94-0.35-34.41c-0.06-5.15-0.12-10.3-0.23-15.45c-0.01-0.48-0.3-1.09-0.66-1.39
					c-3.2-2.61-3.89-6.1-3.38-9.9c0.18-1.41,0.76-2.84,1.45-4.09c1.06-1.94,2.86-2.97,5.04-3.47c5.84-1.36,11.67-2.76,17.48-4.27
					c2.54-0.66,7.54,0.73,9.08,3.44c0.28,0.48,0.64,0.91,1.05,1.48c0.58-0.8,1.11-1.45,1.55-2.16c2.56-4.12,7.63-5,11.91-3.3
					c1.06,0.42,2.02,1.3,2.84,2.16c1.49,1.55,2.77,3.29,4.25,4.84c1.27,1.32,2.7,2.49,4.24,3.89c1.55-2.06,3.07-4,4.47-6.01
					c1.16-1.64,2.28-3.3,4.09-4.29c1.91-1.06,3.9-1.51,6.15-1.28c3.47,0.35,5.42,2.76,7.54,5.02c1.06,1.14,2.1,2.3,2.99,3.29
					c3.17-0.65,6.21-1.04,9.1-1.92c3.97-1.21,7.85-2.74,11.73-4.24c3.69-1.43,7.2-1.58,10.43,1.05c1.46,1.18,2.41,2.72,2.63,4.71
					c4.81-0.74,9.52-1.45,13.75-3.98c2.6-1.55,5.28-2.98,8.68-2.9c-0.44-1.78-0.81-3.43-1.26-5.06c-0.36-1.3-0.75-2.59-1.22-3.85
					c-0.91-2.45-0.69-4.91,0.19-7.24C475.68,35,477.3,33.45,479.53,32.64z"/>
				<path class="st0" d="M299.43,123.92c0,4.01,0,8.02,0,12.12c-0.84,0.3-1.83,0.66-2.8,1c-2.21-1.48-4.4-2.95-6.62-4.44
					c2.52-3.48,5.83-6.12,9.03-8.87C299.17,123.79,299.3,123.86,299.43,123.92z"/>
				<path class="st0" d="M294.07,69.11c0.09,1.77,0.82,3.08,2.6,3.72c0.55,0.2,1.25,0.61,1.44,1.1c0.41,1.05,0.71,2.2,0.74,3.32
					c0.19,8.35,0.29,16.7,0.43,25.05c0,0.44,0,0.87,0,1.35c-2.18,1.17-4.33,2.32-6.41,3.43c-0.53-0.47-0.98-0.87-1.41-1.24
					c0-10.19-0.04-20.31,0.02-30.43c0.02-2.69,0.18-5.39,0.34-8.08l2.24,0.12C294.03,68,294.04,68.56,294.07,69.11z"/>
				<path class="st0" d="M266.92,118.95c0,1.37,0.6,2.53,1.81,3.42c1.37,1.01,2.77,1.98,4.16,2.98c0.05,0.04,0.04,0.14,0.07,0.23
					c-3.03,1.17-4.09,4.05-6.04,6.41c-0.07-1.86-0.18-3.61-0.19-5.35c-0.01-2.56-0.03-5.13-0.01-7.69H266.92z"/>
				<path class="st0" d="M265.13,72.34c1.43,0.59,1.94,1.87,2.27,3.06c0.62,2.24,1.24,4.54,1.37,6.84
					c0.27,4.66,0.43,9.35,0.24,14.01c-0.25,6.22-0.85,12.42-1.34,18.63c-0.08,0.93-0.36,1.86-0.59,2.78
					c-0.11,0.45-0.16,0.88-0.16,1.29h-0.2c0.01-1.31,0.02-2.63,0.05-3.94c0.05-2.07,0.25-4.13,0.49-6.19
					c0.28-2.47-0.76-4.25-2.73-5.55c-3.53-2.32-7.1-4.59-10.74-6.92c0.18-0.12,0.5-0.37,0.86-0.56c2.71-1.45,5.42-2.92,8.16-4.32
					c1.62-0.83,2.45-2.07,2.28-4.55C264.75,82.1,264.59,77.28,265.13,72.34z"/>
				<path class="st1" d="M250.69,85.52c-5.79,3.28-11.55,6.56-17.48,9.92c0-6.75,0-13.26,0-19.93c5.76,1.6,11.43,3.18,17.17,4.78
					C250.48,82.01,250.58,83.72,250.69,85.52z M237.26,88.6c3.1-1.76,6.13-3.47,9.4-5.33c-3.36-0.92-6.35-1.75-9.4-2.59
					C237.26,83.3,237.26,85.88,237.26,88.6z"/>
				<path class="st0" d="M237.21,110.59c0-0.29,0.05-0.59,0.1-1.12c2.24,1.86,4.31,3.58,6.35,5.28c0,1.57,0,3.05,0,4.53
					c0.03,6.68,0.04,13.36-0.64,19.98l-2.84-0.3c0.23-1.93-0.21-4.12-1.12-5.01c-0.59-0.56-1.07-1.41-1.25-2.21
					c-0.33-1.5-0.56-3.06-0.57-4.59C237.17,121.63,237.21,116.11,237.21,110.59z"/>
				<path class="st0" d="M246.66,83.27c-3.27,1.86-6.3,3.57-9.4,5.33c0-2.72,0-5.3,0-7.92C240.31,81.52,243.3,82.35,246.66,83.27z"
					/>
				<path class="st2" d="M236.6,35.64c0.09-0.03,0.18-0.07,0.44-0.16c-0.16,0.21-0.22,0.27-0.28,0.34
					C236.71,35.76,236.66,35.7,236.6,35.64z"/>
				<path class="st2" d="M214.95,41.1c0.1,0.01,0.19,0.02,0.29,0.02c-0.07,0.09-0.13,0.17-0.2,0.26
					C215.01,41.29,214.98,41.19,214.95,41.1z"/>
				<path class="st0" d="M196.39,84.88c4.32,0.51,8.27-0.38,11.22-3.68c3.18-3.56,5.17-7.84,6.06-12.56
					c0.05-0.27,0.08-0.54,0.08-0.8h0.49c0,19.7,0,39.4-0.01,59.1c0,0.92,0.01,1.85-0.13,2.75c-0.25,1.65-0.33,3.41-2.04,4.42
					c-0.18-1.07-0.48-2.09-0.5-3.11c-0.23-8.7-0.48-17.41-0.58-26.13c-0.05-4.27,0.24-8.54,0.3-12.82c0.04-3.17-1.74-4.26-4.38-4.26
					c-2.23,0-4.47,0.33-6.67,0.69c-4.73,0.75-9.44,1.61-14.25,2.45c0-2.92,0-6.09,0-9.33c0.2,0.08,0.42,0.15,0.62,0.24
					C189.74,83.27,192.94,84.46,196.39,84.88z"/>
				<path class="st0" d="M169.99,113.92c5.83-2.32,11.8-4,18.21-5.32c-0.17,4.59-0.34,9.03-0.51,13.72
					C181.78,119.12,176.39,115.48,169.99,113.92z"/>
				<path class="st0" d="M128.74,78.07c0.03-3.24,0.11-6.48,0.24-9.72l2.32,0.08c-0.04,0.82,0.07,1.66,0.17,2.49
					c0.2,1.54,1.21,2.47,2.64,3.09c0.56,0.24,1.2,0.89,1.34,1.46c0.42,1.73,0.85,3.5,0.86,5.26c0.08,10.56,0.04,21.12,0.04,31.75
					c-2.04,1.24-4.12,2.5-6.27,3.79c-0.54-0.65-1.04-1.26-1.56-1.89c0-0.42,0-0.86,0-1.3C128.59,101.41,128.65,89.74,128.74,78.07z"
					/>
				<path class="st0" d="M104.26,128.17c-0.06,0.48-0.08,0.93-0.04,1.37l-1.53,0.13c-0.04-0.37-0.07-0.75-0.09-1.13
					c-0.17-3.19-0.28-6.38-0.26-9.58c0.03-8.31,0.1-16.62,0.24-24.94c0.08-4.58,0.28-9.16,0.53-13.74c0.09-1.55,0.5-3.09,0.76-4.64
					c1.79,3.67,2.02,7.53,2.23,11.36c0.21,4.09,0.14,8.21,0.04,12.31c-0.17,6.46-0.38,12.92-0.75,19.37
					C105.21,121.86,104.66,125.01,104.26,128.17z"/>
				<path class="st0" d="M76.79,138.23c0.1-1.57-0.14-3.1-1.19-4.46c-0.51-0.66-1.08-1.38-1.27-2.16c-0.34-1.34-0.54-2.74-0.54-4.12
					c-0.04-11.96-0.03-23.91-0.03-35.91c2.13-1.25,4.24-2.5,6.49-3.83c0,0.47,0,0.78,0,1.09c0.02,9.44,0.18,18.88,0.02,28.32
					c-0.13,7.08-0.58,14.16-1.07,21.23L76.79,138.23z"/>
				<path class="st0" d="M50.2,133.37c-0.66,0.97-1.33,1.94-1.95,2.83c-0.15-0.37-0.3-1.15-0.74-1.71
					c-0.81-1.03-1.64-2.02-1.78-3.37c-0.19-1.82-0.45-3.64-0.45-5.46c-0.04-11.32-0.02-22.63-0.02-34.13c2.02-1.2,4.05-2.4,6.2-3.67
					c0.03,0.44,0.07,0.81,0.07,1.18c0,12.28,0.04,24.55-0.04,36.82c-0.01,2.2-0.48,4.41-0.78,6.6
					C50.66,132.78,50.4,133.09,50.2,133.37z"/>
				<path class="st1" d="M271.99,76.9c0.44,2.47,0.83,4.98,0.88,7.47c0.1,5.4,0.08,10.8-0.09,16.19c-0.2,6.17-0.56,12.35-1.89,18.35
					c2.55,2.01,5.15,3.93,7.6,6.03c2.45,2.1,4.75,4.39,7.15,6.63c4.65-6.06,10.64-11.12,17.54-15.35c0,3.92-0.11,7.64,0.03,11.35
					c0.13,3.69,0.51,7.37,0.79,11.09c-2.75,0.93-5.54,1.87-8.22,2.78c-6.82-5.01-13.7-9.6-21.71-12.25
					c-4.38,4.71-6.54,10.21-7.67,16.24c9.08,0.41,15.18,3.15,23.93,9.78c8.18-7.43,17.41-12.63,28.7-13.69
					c-0.09-0.62-0.23-1.24-0.25-1.86c-0.22-5.59-0.57-11.17-0.59-16.76c-0.07-20.08-0.02-40.16-0.02-60.24c0-0.41,0-0.83,0-1.44
					c-6.35,3.72-13.08,5.35-20.04,6.06c0,0.72,0,1.31,0,1.96c2.98,0.79,4.1,3.07,4.5,5.78c0.3,2.09,0.5,4.21,0.52,6.32
					c0.06,7.88,0.03,15.76,0.04,23.64c0,0.35-0.03,0.7-0.05,1.05c-3.66,2-7.26,3.97-10.91,5.97c-1.64-1.56-3.22-3.07-4.84-4.61
					c0.33-15.4-0.52-30.79,0.78-46.22c-6.7,3.09-13.72,4.82-20.88,6c-0.03,0.35-0.06,0.59-0.07,0.82c-0.02,0.24-0.01,0.48-0.01,0.78
					C269.96,70.77,271.41,73.62,271.99,76.9z M265.09,86.92c0.17,2.48-0.66,3.72-2.28,4.55c-2.74,1.4-5.45,2.87-8.16,4.32
					c-0.36,0.19-0.68,0.44-0.86,0.56c3.64,2.33,7.21,4.6,10.74,6.92c1.97,1.3,3.01,3.08,2.73,5.55c-0.24,2.06-0.44,4.12-0.49,6.19
					c-0.03,1.31-0.04,2.63-0.05,3.94c-0.02,2.56,0,5.13,0.01,7.69c0.01,1.74,0.12,3.49,0.19,5.35c1.95-2.36,3.01-5.24,6.04-6.41
					c-0.03-0.09-0.02-0.19-0.07-0.23c-1.39-1-2.79-1.97-4.16-2.98c-1.21-0.89-1.81-2.05-1.81-3.42c0-0.41,0.05-0.84,0.16-1.29
					c0.23-0.92,0.51-1.85,0.59-2.78c0.49-6.21,1.09-12.41,1.34-18.63c0.19-4.66,0.03-9.35-0.24-14.01c-0.13-2.3-0.75-4.6-1.37-6.84
					c-0.33-1.19-0.84-2.47-2.27-3.06C264.59,77.28,264.75,82.1,265.09,86.92z M216.01,44.21c1.89,6.31,2.19,12.8,2.19,19.33
					c0,21.16,0,42.31-0.01,63.47c0,1.35-0.1,2.72-0.29,4.06c-0.32,2.16-0.83,4.26-2.74,5.6c0,0.8,0,1.54,0,2.28
					c7.07,0,14.08,0,21.09,0c0-0.82,0-1.54,0-2.26c-0.11,0.05-0.22,0.1-0.33,0.15c-0.63-1.25-1.51-2.44-1.84-3.77
					c-0.5-2-0.82-4.1-0.85-6.15c-0.1-7.92-0.05-15.84-0.06-23.76c0-0.21,0.04-0.42,0.07-0.71c0.26,0.1,0.41,0.15,0.54,0.23
					c4.1,2.36,7.85,5.19,11.49,8.21c1.82,1.5,2.47,3.12,2.46,5.51c-0.03,11.79-0.04,23.56-2.78,35.2c0.31,0.16,0.61,0.32,0.64,0.33
					c2.92-2.87,5.59-5.73,8.52-8.3c2.93-2.57,6.12-4.86,9.07-7.17c-0.17-4.84-0.48-9.66-0.47-14.48c0-4.82,0.32-9.65,0.5-14.62
					c-5.52-4.58-11.85-8.05-19.03-9.97c0.01-0.16,0.02-0.31,0.03-0.47c5.68-3.02,11.36-6.04,17.02-9.05
					c-0.58-6.67-0.7-13.23,0.62-19.83c-6.76-2.01-13.24-4.42-18.5-9.36c-3.13,4.31-6.21,8.45-10.05,12.04
					c0-5.59-0.12-11.02,0.03-16.44c0.17-6.32,0.73-12.6,3.43-18.46c0.06-0.07,0.12-0.13,0.28-0.34c-0.26,0.09-0.35,0.13-0.44,0.16
					c-3.26,2.14-6.62,4.1-10.37,5.27c-3.64,1.14-7.3,1.59-10.99,0.21c-0.1,0-0.19-0.01-0.29-0.02c0.03,0.09,0.06,0.19,0.09,0.28
					C215.37,42.32,215.72,43.25,216.01,44.21z M183.04,75.08c3.69,2.69,7.71,4.69,12.2,5.66c5.42,1.17,8.75-0.19,11.45-5.02
					c1.35-2.41,2.27-5.06,3.46-7.79c-7.87-0.95-15.32-2.27-21.81-6.62c-7.02,3.74-13.64,8.35-22.04,8.69
					c2.98,13.33,2.16,26.76,1.5,40.32c7.93-2.92,15.87-5.04,24.17-6.24c0.31,8.36-0.1,16.5-1.3,24.76
					c-0.52-0.31-0.88-0.54-1.26-0.76c-4.48-2.54-8.92-5.14-13.44-7.59c-2.59-1.4-5.32-2.55-8.46-2.87
					c-3.03,5.87-3.99,12.19-4.5,18.64c14.24,2.34,14.24,2.34,19.8,7.55c7.27-6.16,15.97-8.19,25.14-8.65
					c-1.21-14.51-1.08-28.95-0.63-43.53c-8.53,0.94-17.01,1.54-24.95,5.41c-0.53-7.55-0.64-14.94-0.13-22.54
					C182.62,74.78,182.83,74.93,183.04,75.08z M169.99,113.92c6.4,1.56,11.79,5.2,17.7,8.4c0.17-4.69,0.34-9.13,0.51-13.72
					C181.79,109.92,175.82,111.6,169.99,113.92z M108.93,77.86c0.4,1.83,0.8,3.69,0.86,5.55c0.2,6.83,0.41,13.66,0.33,20.49
					c-0.09,8.46-0.5,16.91-2.01,25.39c5.53,3.93,10.24,8.84,14.51,14.41c4.77-7.35,10.95-13,18.22-17.86
					c0.5,6.89,3.08,12.66,7.64,17.65c2.83-6.53,6.58-12.29,12.09-16.7c0-0.6,0-1.14,0-1.66c-2.43-1.22-3.19-2.19-3.85-4.9
					c-1.25-5.14-1.23-10.39-1.27-15.61c-0.1-13.96-0.03-27.92-0.03-41.88c0-0.42,0-0.84,0-1.46c-6.21,4.08-12.94,5.99-20.07,6.78
					c0,0.76,0,1.42,0,2.15c2.86,0.99,4.09,3.24,4.41,6.02c0.32,2.89,0.6,5.8,0.63,8.71c0.09,7.39,0.03,14.79,0.03,22.19
					c0,2.48,0,4.96,0,7.49c-3.64,2.24-7.27,4.46-10.94,6.71c-1.65-1.77-3.23-3.45-4.88-5.21c0.29-18.24-0.49-36.54,0.8-54.89
					c-6.64,3.41-13.63,5.4-20.87,6.7c0,0.64,0,1.19,0,1.86C107.01,71.84,108.23,74.73,108.93,77.86z M48.25,136.2
					c0.62-0.89,1.29-1.86,1.95-2.83c0.2-0.28,0.46-0.59,0.51-0.91c0.3-2.19,0.77-4.4,0.78-6.6c0.08-12.27,0.04-24.54,0.04-36.82
					c0-0.37-0.04-0.74-0.07-1.18c-2.15,1.27-4.18,2.47-6.2,3.67c0,11.5-0.02,22.81,0.02,34.13c0,1.82,0.26,3.64,0.45,5.46
					c0.14,1.35,0.97,2.34,1.78,3.37C47.95,135.05,48.1,135.83,48.25,136.2z M42.72,59.41c2.11,3.98,2.67,4.9,2.55,9.55
					c0.79-1,1.49-1.77,2.07-2.62c1.95-2.84,3.9-5.68,5.77-8.58c1.49-2.31,5.19-2.87,7.01-0.26c1.7,2.43,3.74,4.62,5.64,6.91
					c0.22,0.27,0.5,0.52,0.77,0.75c1.98,1.71,3.96,3.42,6.08,5.25c1.34-1.6,2.63-2.99,3.75-4.51c1.67-2.27,3.23-4.61,4.83-6.93
					c0.13-0.19,0.31-0.38,0.37-0.6c0.91-3.34,5.53-3.41,7.39-0.66c1.68,2.49,3.68,4.8,5.75,6.98c1.67,1.77,3.65,3.25,5.77,5.09
					c0.06-0.78,0.1-1.19,0.13-1.61c0.18-2.61,1.45-3.96,4.02-4.31c5.44-0.75,10.62-2.42,15.66-4.54c1.26-0.53,2.4-1.38,3.68-1.88
					c3-1.16,5.74,1.13,5.47,4.47c-0.16,2.03-0.36,4.06-0.44,6.09c0,0.12-0.01,0.23-0.01,0.35c-0.13,3.24-0.21,6.48-0.24,9.72
					c-0.09,11.67-0.15,23.34-0.22,35.01c0,0.44,0,0.88,0,1.3c0.52,0.63,1.02,1.24,1.56,1.89c2.15-1.29,4.23-2.55,6.27-3.79
					c0-10.63,0.04-21.19-0.04-31.75c-0.01-1.76-0.44-3.53-0.86-5.26c-0.14-0.57-0.78-1.22-1.34-1.46c-1.43-0.62-2.44-1.55-2.64-3.09
					c-0.1-0.83-0.21-1.67-0.17-2.49c0.04-0.85,0.23-1.69,0.72-2.49c0.79-1.28,1.99-1.72,3.4-1.86c4.85-0.47,9.5-1.67,13.89-3.81
					c1.2-0.59,2.37-1.27,3.47-2.03c1.45-1,2.97-1.17,4.49-0.42c1.55,0.78,2.19,2.2,2.18,3.94c-0.01,14.32-0.08,28.64,0.04,42.95
					c0.04,4.7,0.55,9.4,0.93,14.09c0.07,0.84,0.59,1.64,1,2.7c1.42-2.84,1.88-5.86,4.59-7.58c-1.9-1.16-2.16-2.94-2.11-4.88
					c0.19-7.26,0.54-14.53,0.5-21.8c-0.03-5.5-0.8-10.96-1.81-16.38c-0.55-2.92,1.16-4.81,3.65-4.83c4.51-0.05,8.42-1.92,12.3-3.88
					c2.68-1.35,5.2-3.01,7.86-4.38c1.37-0.7,2.93-0.62,4.22,0.28c4.58,3.17,9.78,4.52,15.19,5.33c1.61,0.24,3.24,0.41,4.84,0.73
					c1.87,0.39,3.1,1.89,3.1,3.73c0,0.26-0.03,0.53-0.08,0.8c-0.89,4.72-2.88,9-6.06,12.56c-2.95,3.3-6.9,4.19-11.22,3.68
					c-3.45-0.42-6.65-1.61-9.79-3.04c-0.2-0.09-0.42-0.16-0.62-0.24c0,3.24,0,6.41,0,9.33c4.81-0.84,9.52-1.7,14.25-2.45
					c2.2-0.36,4.44-0.69,6.67-0.69c2.64,0,4.42,1.09,4.38,4.26c-0.06,4.28-0.35,8.55-0.3,12.82c0.1,8.72,0.35,17.43,0.58,26.13
					c0.02,1.02,0.32,2.04,0.5,3.11c1.71-1.01,1.79-2.77,2.04-4.42c0.14-0.9,0.13-1.83,0.13-2.75c0.01-19.7,0.01-39.4,0.01-59.1
					c0-1.42,0-2.84,0-4.26c0-6.19-0.32-12.34-1.99-18.34c-0.29-1.02-0.67-2.02-0.99-3.03c-0.52-1.61-0.26-3.11,0.97-4.27
					c1.25-1.19,2.87-1.26,4.35-0.63c2.89,1.22,5.7,0.75,8.49-0.13c3.53-1.11,6.69-2.99,9.72-5.09c1.6-1.11,4.61-0.89,5.75,1.19
					c0.7,1.27,0.82,2.72,0.08,3.88c-1.46,2.28-2.12,4.81-2.38,7.38c-0.5,4.94-0.7,9.91-1.03,14.87c-0.01,0.23,0,0.46,0,1.06
					c1-1.41,1.89-2.5,2.6-3.7c1.19-2,4.48-2.38,6.1-1c2.67,2.28,5.53,4.27,8.8,5.58c2.51,1.01,5.1,1.84,7.65,2.75
					c0.55,0.2,1.1,0.39,1.76,0.62c1.15-1.46,3.03-1.4,4.75-1.83c4.32-1.08,8.65-2.2,12.93-3.43c1.88-0.55,3.62-1.55,5.5-2.11
					c2.65-0.79,4.75,0.81,4.85,3.61c0.05,1.35-0.15,2.7-0.22,4.06c-0.04,0.77-0.08,1.54-0.11,2.31c-0.16,2.69-0.32,5.39-0.34,8.08
					c-0.06,10.12-0.02,20.24-0.02,30.43c0.43,0.37,0.88,0.77,1.41,1.24c2.08-1.11,4.23-2.26,6.41-3.43c0-0.48,0-0.91,0-1.35
					c-0.14-8.35-0.24-16.7-0.43-25.05c-0.03-1.12-0.33-2.27-0.74-3.32c-0.19-0.49-0.89-0.9-1.44-1.1c-1.78-0.64-2.51-1.95-2.6-3.72
					c-0.03-0.55-0.04-1.11-0.01-1.66c0.08-1.39,0.49-2.67,1.98-3.45c0.95-0.5,2.1-0.72,3.19-0.83c5.99-0.6,11.58-2.35,16.85-5.28
					c2.3-1.29,5.98-0.43,6.08,3.33c0.01,0.36,0.01,0.72,0.01,1.08c0,20.76-0.01,41.52,0.01,62.28c0.01,4.07,0.13,8.15,0.26,12.22
					c0.05,1.35,0.36,2.68,0.46,4.03c0.17,2.47-0.82,4.48-3.72,4.64c-5.29,0.31-10.11,2.15-14.76,4.52
					c-4.01,2.05-7.68,4.6-10.95,7.72c-1.66,1.58-3.83,1.73-5.74,0.46c-2.74-1.82-5.41-3.77-8.27-5.35
					c-3.71-2.04-7.71-3.23-12.02-3.33c-1.62-0.03-3.35-0.18-4.41-1.83c-0.92-1.42-0.62-2.89-0.33-4.37
					c0.09-0.46,0.18-0.93,0.27-1.39c-0.09-0.08-0.19-0.16-0.28-0.24c-2.47,2.05-5.05,3.97-7.38,6.17c-2.24,2.11-4.19,4.53-6.33,6.75
					c-1.33,1.39-3.29,1.76-5.81,0.65c-1.55-0.67-2.56-2.67-2.09-4.53c0.96-3.79,1.57-7.6,1.94-11.44c0.68-6.62,0.67-13.3,0.64-19.98
					c0-1.48,0-2.96,0-4.53c-2.04-1.7-4.11-3.42-6.35-5.28c-0.05,0.53-0.1,0.83-0.1,1.12c0,5.52-0.04,11.04,0.03,16.56
					c0.01,1.53,0.24,3.09,0.57,4.59c0.18,0.8,0.66,1.65,1.25,2.21c0.91,0.89,1.35,3.08,1.12,5.01c-0.18,1.48-0.75,2.82-1.8,3.27
					c-0.96,0.42-2.05,0.74-3.08,0.75c-6.4,0.06-12.8,0.06-19.2,0.01c-1.67-0.02-3.43-0.24-4.3-1.98c-0.44-0.9-0.58-1.95-0.87-3.02
					c-1.25,1.29-2.9,1.17-4.53,1.27c-7.58,0.46-14.69,2.31-20.67,7.33c-2,1.69-4.78,1.41-6.34-0.56c-2.43-3.06-5.82-4.23-9.47-4.86
					c-2.39-0.42-4.82-0.63-7.22-1c-2.31-0.35-3.31-1.43-3.52-3.76c-0.07-0.85-0.01-1.72-0.01-2.91c-1.31,1.72-2.61,3.09-3.5,4.68
					c-1.23,2.2-2.23,4.53-3.17,6.86c-0.63,1.57-2.72,2.69-4.75,2.31c-1.33-0.24-2.27-1.02-3.09-2.04
					c-2.74-3.42-4.76-7.25-6.48-11.26c-0.13-0.32-0.18-0.67-0.31-1.18c-0.91,0.72-1.8,1.26-2.48,1.99
					c-2.51,2.72-4.98,5.48-7.42,8.26c-0.84,0.95-1.51,2.04-2.31,3.02c-1.44,1.78-4.8,1.59-6.36-0.19c-2.85-3.26-5.73-6.5-8.73-9.61
					c-1.4-1.45-3.09-2.63-4.69-3.87c-1.04-0.81-1.55-1.8-1.66-2.93c-0.04-0.44-0.02-0.89,0.04-1.37c0.4-3.16,0.95-6.31,1.13-9.49
					c0.37-6.45,0.58-12.91,0.75-19.37c0.1-4.1,0.17-8.22-0.04-12.31c-0.21-3.83-0.44-7.69-2.23-11.36
					c-0.26,1.55-0.67,3.09-0.76,4.64c-0.25,4.58-0.45,9.16-0.53,13.74c-0.14,8.32-0.21,16.63-0.24,24.94
					c-0.02,3.2,0.09,6.39,0.26,9.58c0.02,0.38,0.05,0.76,0.09,1.13c0.15,1.84,0.44,3.67,0.61,5.51c0.2,2.14-0.61,3.7-2.61,4.74
					c-3.24,1.69-5.82,4.23-8.28,6.89c-2.42,2.63-4.87,5.23-6.7,8.35c-1.06,1.83-3,2.4-5.2,1.82c-1.6-0.43-3.16-2.53-3.13-4.5
					c0.02-1.42,0.3-2.84,0.49-4.25c0.45-3.23,1.1-6.44,1.32-9.69c0-0.05,0.01-0.1,0.01-0.15c0.49-7.07,0.94-14.15,1.07-21.23
					c0.16-9.44,0-18.88-0.02-28.32c0-0.31,0-0.62,0-1.09c-2.25,1.33-4.36,2.58-6.49,3.83c0,12-0.01,23.95,0.03,35.91
					c0,1.38,0.2,2.78,0.54,4.12c0.19,0.78,0.76,1.5,1.27,2.16c1.05,1.36,1.29,2.89,1.19,4.46c-0.02,0.21-0.03,0.43-0.06,0.64
					c-0.38,3.24-1.74,4.02-4.68,4.09c-6.32,0.16-12.64,0.08-18.96,0.03c-2.78-0.02-3.88-1.02-4.66-3.95
					c-0.1,0.16-0.24,0.29-0.26,0.43c-0.41,2.69-2.36,3.52-4.87,3.53c-6.28,0.03-12.56,0.02-18.84,0.01
					c-4.44-0.01-5.5-2.56-5.06-6.49c0.14-1.2,0.68-2.2,1.53-3.13c1.22-1.33,1.27-3.13,1.4-4.83c0.05-0.68,0.05-1.36,0.05-2.04
					c0-17.76,0-35.52,0-53.28c0-0.2,0-0.4,0-0.68c-0.47-0.31-0.94-0.67-1.46-0.94c-2.29-1.21-2.92-2.75-2.66-5.59
					c0.23-2.48,1.23-3.44,3.64-4.04c3.49-0.88,6.98-1.76,10.45-2.71c2.11-0.57,4.16-1.43,6.3-1.88
					C40.36,57.04,41.86,57.79,42.72,59.41z M22.18,67.8c1.42,0.88,2.81,1.74,4.2,2.6c0,0.25,0,0.45,0,0.65
					c0,14.48,0.01,28.95-0.01,43.43c-0.01,5-0.02,10-0.19,14.99c-0.1,2.75-0.74,5.4-2.92,7.27c0,0.79,0,1.5,0,2.24
					c7.07,0,14.09,0,21.15,0c0-0.81,0-1.56,0-2.3c-0.09,0.05-0.19,0.09-0.28,0.14c-0.6-1.05-1.51-2.04-1.75-3.17
					c-0.53-2.52-0.99-5.11-1.01-7.68c-0.11-11.36-0.05-22.72-0.05-34.08c0-0.84,0-1.68,0-2.6c4.2-2.54,8.39-5.08,12.61-7.64
					c0.97,1.2,1.62,2.35,1.61,4c-0.08,12.92-0.04,25.83-0.06,38.75c0,1.92-0.05,3.84-0.23,5.75c-0.24,2.46-0.82,4.82-2.77,6.47
					c0,0.84,0,1.62,0,2.33c6.82,0,13.56,0,20.32,0c0-0.81,0-1.52,0-2.32c-1.49-0.98-2.09-2.56-2.36-4.23c-0.33-2-0.6-4.04-0.61-6.06
					c-0.06-11.28-0.03-22.56-0.03-33.84c0-1.07,0-2.14,0-3.17c4.37-2.62,8.6-5.15,13.03-7.8c0.48,1.09,1.24,2.01,1.24,2.93
					c0,14.51,0.02,29.02-0.24,43.52c-0.14,7.95-0.98,15.87-2.39,23.71c-0.09,0.49,0.14,1.04,0.22,1.56
					c0.12,0.01,0.24,0.02,0.37,0.03c4.86-6.73,10.13-13.05,17.11-17.18c-1-20.78-1.24-41.36,0.6-62.19
					c-5.64-3.61-10.26-8.59-14.29-14.32c-4.29,6.78-8.98,12.96-14.72,18.69c0.23-1.58,0.42-2.83,0.58-3.87
					c-2.72-2.32-5.48-4.39-7.9-6.81c-2.4-2.41-4.47-5.16-6.75-7.84c-4.24,6.98-9.33,13.28-15.34,19.22c0-3.39-0.18-6.51,0.06-9.59
					c0.23-3.04-0.92-5.58-2.11-8.12c-5.71,1.62-11.38,3.23-17.09,4.86C22.18,66.62,22.18,67.21,22.18,67.8z M299.43,136.04
					c0-4.1,0-8.11,0-12.12c-0.13-0.06-0.26-0.13-0.39-0.19c-3.2,2.75-6.51,5.39-9.03,8.87c2.22,1.49,4.41,2.96,6.62,4.44
					C297.6,136.7,298.59,136.34,299.43,136.04z"/>
				<path class="st0" d="M36.48,165.68c0.39,3.98,1.03,7.95,1.14,11.93c0.07,2.55-0.66,5.12-0.96,7.69
					c-0.21,1.73-0.18,3.51-0.48,5.22c-0.29,1.71-0.63,3.48-1.37,5.02c-1.14,2.35-2.98,2.36-4.51,0.23
					c-0.88-1.21-1.28-2.55-1.24-4.05c0.15-5.43,0.24-10.87,0.41-16.3c0.1-3.17-0.56-6.18-1.7-9.11c-2.3-5.94-4.63-11.87-6.94-17.82
					c-0.27-0.7-0.68-1.08-1.4-1.44c-2.15-1.09-3.76-2.72-4.49-5.15c-0.82-2.73-0.95-5.4,0.03-8.08c0.3-0.81,0.59-1.67,1.11-2.33
					c0.87-1.1,1.23-2.27,1.23-3.64c0-9.08,0.03-18.16,0.04-27.24c0.01-8,0-16,0-24c0-0.44,0-0.88,0-1.22
					c-3.79-2.91-4.69-6.68-3.83-11.09c0.76-3.86,3.03-6.07,6.86-7c4.23-1.03,8.4-2.33,12.6-3.51c1.67-0.48,3.32-1.24,5.03-1.38
					c3.39-0.28,6.45,0.63,8.5,3.66c0.29,0.43,0.61,0.84,0.98,1.34c0.31-0.53,0.61-0.98,0.86-1.46c1.73-3.38,4.66-5.07,8.27-5.21
					c2.7-0.11,5.23,0.84,7.03,3.15c1.76,2.26,3.57,4.48,5.45,6.65c0.83,0.96,1.87,1.73,2.92,2.67c1.4-1.96,2.8-3.88,4.16-5.84
					c0.63-0.91,1.11-1.93,1.75-2.83c2.3-3.25,5.59-4.35,9.51-3.51c2.42,0.53,4.12,1.87,5.58,3.77c1.7,2.2,3.52,4.31,5.36,6.57
					c3.12-2.88,7.22-2.34,10.82-3.47c4.16-1.32,8.25-2.76,12.17-4.76c3.76-1.92,8.49-1.1,11.14,2.46c0.73,1,1.2,2.19,1.96,3.6
					c1.78-0.29,3.91-0.51,5.97-1.02c3.74-0.92,7.15-2.59,10.43-4.62c1.74-1.07,3.79-1.43,5.97-1.03c2.81,0.52,5.03,1.84,6.37,4.33
					c0.7,1.29,0.97,2.82,1.43,4.2c4.22,0.3,7.9-1.52,11.54-3.37c2.63-1.33,5.09-3,7.75-4.27c1.69-0.8,3.54-1.32,5.54-0.93
					c2,0.39,3.73,1.24,5.46,2.27c3.35,1.99,7.05,3.05,10.91,3.58c1.03,0.14,2.05,0.28,3.28,0.45c-0.11-1.73-0.24-3.41-0.34-5.09
					c-0.24-4.01-1.83-7.71-2.6-11.59c-0.77-3.93,1.58-8.59,5.86-9.66c1.81-0.45,3.58-0.71,5.39-0.03c3.32,1.25,6.35,0.18,9.25-1.36
					c2-1.07,3.83-2.48,5.86-3.48c1.76-0.88,3.7-1.48,5.75-1c1.46,0.34,2.87,0.67,4.22,1.5c2.5,1.55,4.14,6.34,3.33,8.76
					c-0.42,1.24-0.97,2.42-1.32,3.67c-0.58,2.05-1.09,4.13-1.54,6.21c-0.21,1-0.22,2.04-0.33,3.08c0.72,0.1,1.3,0.18,1.89,0.25
					c2.66,0.3,4.67,1.81,6.65,3.45c2.65,2.19,5.87,3.3,8.98,4.65c2.08,0.9,4,0.75,6.07,0.2c4.18-1.1,8.42-1.98,12.58-3.15
					c2.84-0.8,5.53-2.22,8.41-2.87c2.94-0.65,5.68,0.38,7.72,2.69c0.84,0.95,1.36,2.19,2.26,3.67c3.28-0.77,6.93-1.47,10.48-2.53
					c2.07-0.61,3.94-1.88,5.96-2.71c1.94-0.8,3.91-1.36,6.13-0.92c2.62,0.52,4.87,1.58,6.04,3.98c0.77,1.59,1.32,3.47,1.33,5.22
					c0.09,20.52,0.04,41.04,0.07,61.56c0,4.44,0.13,8.87,0.25,13.31c0.03,1.06,0.28,2.12,0.39,3.19c0.4,3.95-0.87,7.99-4.69,9.73
					c-1.76,0.79-3.89,0.74-5.8,1.24c-2.55,0.68-5.07,1.51-7.58,2.35c-0.29,0.09-0.55,0.67-0.59,1.04c-0.36,3.05-0.88,6.11-0.93,9.17
					c-0.1,5.71,0.15,11.43,0.13,17.15c-0.01,4.03-0.16,8.06-0.4,12.09c-0.08,1.36-0.54,2.72-0.95,4.04
					c-0.36,1.13-1.33,1.51-2.45,1.57c-1.16,0.06-2.14-0.35-2.51-1.45c-0.5-1.5-1.07-3.05-1.15-4.6c-0.27-4.73,0.41-9.39,1.16-14.06
					c0.54-3.3,0.39-6.62-0.88-9.79c-1.02-2.55-2.04-5.1-3.13-7.83c-4.39,4.29-9.24,4.91-14.56,0.93c-0.16,2.33-0.44,4.46-0.41,6.58
					c0.05,2.99-0.76,5.66-2.34,8.15c-1.28,2.01-2.95,2.01-4.12-0.09c-1.22-2.2-1.86-4.61-1.95-7.1c-0.08-2.19,0.19-4.39,0.19-6.58
					c0-2.03-0.14-4.06-0.22-6.06c-2.2-1.24-4.45-1.55-6.77-1.71c-2.7-0.19-5.4-0.51-7.58-2.4c-0.36-0.31-0.69-0.63-1.23-1.12
					c-1.92,2.03-3.95,3.97-5.73,6.12c-2.5,3.01-5.55,4.1-9.36,3.45c-2.86-0.49-5.37-1.63-6.68-4.26c-0.87-1.77-1.16-3.82-1.6-5.4
					c-0.03,0.48-0.09,1.41-0.15,2.34c-0.11,1.5-0.05,3.05-0.39,4.5c-0.45,1.89-2.04,2.96-3.72,3.64c-3.56,1.45-4.93,4.25-5.05,7.82
					c-0.13,3.43,0.01,6.88-0.16,10.31c-0.14,2.86-0.49,5.72-0.86,8.56c-0.21,1.63-1.3,2.7-2.63,2.9c-1.44,0.21-2.81-0.59-3.52-2.12
					c-1.02-2.17-1.18-4.5-0.9-6.81c0.3-2.49,0.85-4.95,1.28-7.42c0.63-3.6,0.5-7.21-0.5-10.69c-0.72-2.5-1.79-4.93-2.94-7.28
					c-1.39-2.85-2.75-5.68-2.81-9.09c-2.3-0.39-4.19-1.46-5.6-3.48c-1.21,1.53-1.61,3.23-2.03,4.91c-1.07,4.32-1.01,8.68-0.55,13.09
					c0.49,4.68-0.17,9.33-0.78,13.97c-0.74,5.7-1.57,11.39-2.18,17.11c-0.55,5.22-0.41,10.45,0.14,15.68
					c0.18,1.66,0.14,3.35,0.03,5.02c-0.04,0.7-0.39,1.48-0.81,2.06c-1.22,1.65-2.94,1.64-4.2,0.02c-1.47-1.88-2.21-4.07-2.36-6.43
					c-0.27-4.29,0.19-8.53,0.78-12.78c0.48-3.55,0.91-7.14,0.98-10.72c0.04-2.61-0.52-5.24-0.85-7.85
					c-0.46-3.56-0.83-7.15-1.48-10.67c-0.51-2.76-1.08-5.47-0.72-8.31c0.35-2.84,0.57-5.71,0.73-8.58c0.06-1.08-0.24-2.18-0.42-3.72
					c-2.71,1.85-5.1,3.48-7.52,5.13c-0.02,0.18-0.1,0.38-0.07,0.56c0.55,3.24-0.65,6.08-2.11,8.8c-1.3,2.44-1.77,5-1.97,7.7
					c-0.32,4.14-0.82,8.26-1.14,12.4c-0.2,2.55-0.04,5.13-0.35,7.65c-0.26,2.03-0.85,4.05-1.54,5.98c-0.45,1.24-1.32,1.24-2.37,0.37
					c-1.22-1.01-1.61-2.38-1.6-3.85c0.02-3.83,0.27-7.67,0.19-11.5c-0.09-3.94-1.04-7.68-3.79-10.71c-1.8-1.98-2.45-4.35-2.48-6.93
					c-0.04-3.07,0.15-6.15-0.02-9.21c-0.15-2.7-1.25-5.17-2.57-7.41c-2.87-0.55-5.63-1.08-8.63-1.66c-0.19,0.47-0.61,1.2-0.8,1.98
					c-1.08,4.65-6.28,6.77-10.4,5.99c-2.85-0.54-4.98-1.97-6.54-4.35c-0.2-0.3-0.42-0.59-0.64-0.87c-0.04-0.06-0.13-0.08-0.27-0.16
					c-1.74,1.18-2.91,2.92-3.97,4.66c-2.31,3.78-3.65,7.94-4.69,12.25c-1.48,6.15-3.13,12.27-4.84,18.37
					c-1.13,4.02-1.35,8.1-1.2,12.22c0.19,5.47,0.42,10.94,0.64,16.4c0.08,2.24,0.32,4.48,0.22,6.7c-0.07,1.65-0.41,3.33-0.92,4.91
					c-0.66,2.07-2.65,2.34-4.09,0.67c-1.4-1.61-1.96-3.57-1.93-5.66c0.04-3.39,0.19-6.78,0.28-10.18c0.12-4.7-0.8-9.29-1.52-13.91
					c-0.4-2.52-0.79-5.06-0.95-7.6c-0.3-4.71-1.73-9.05-3.66-13.31c-2.39-5.27-3.77-10.8-4-16.64c-0.18-4.5-0.68-8.99-2.94-13.19
					c-1.61,1.04-3.38,2.03-4.96,3.25c-3.49,2.69-6.32,6.05-9.15,9.4c-0.53,0.63-0.99,1.35-1.39,2.09c-1.75,3.2-4.62,4.8-8.08,4.92
					c-4.3,0.15-7.89-2.15-9.36-6.69c-0.66-2.05-0.88-4.11-0.2-6.21c0.11-0.33,0.05-0.71,0.08-1.15c-0.41-0.02-0.76-0.06-1.11-0.06
					c-5.76,0-11.52,0.01-17.28-0.02c-0.83,0-1.44,0.21-1.97,0.86c-0.82,1.03-1.9,1.91-2.49,3.05c-0.71,1.38-1.01,2.98-1.52,4.47
					c-0.18,0.56-0.34,1.19-0.69,1.64c-0.46,0.59-1.21,1.52-1.65,1.43c-0.83-0.17-1.71-0.84-2.22-1.55c-0.7-0.99-1.01-2.24-1.59-3.33
					c-0.45-0.84-0.97-1.66-1.59-2.38c-0.75-0.88-1.6-0.94-2.36-0.07c-0.67,0.8-1.33,1.77-1.55,2.76
					C36.02,158.49,36.13,162.09,36.48,165.68z M22.38,72.56c0,0.28,0,0.48,0,0.68c0,17.76,0,35.52,0,53.28c0,0.68,0,1.36-0.05,2.04
					c-0.13,1.7-0.18,3.5-1.4,4.83c-0.85,0.93-1.39,1.93-1.53,3.13c-0.44,3.93,0.62,6.48,5.06,6.49c6.28,0.01,12.56,0.02,18.84-0.01
					c2.51-0.01,4.46-0.84,4.87-3.53c0.02-0.14,0.16-0.27,0.26-0.43c0.78,2.93,1.88,3.93,4.66,3.95c6.32,0.05,12.64,0.13,18.96-0.03
					c2.94-0.07,4.3-0.85,4.68-4.09c0.03-0.21,0.04-0.43,0.06-0.64l2.41,0.16c0,0.05-0.01,0.1-0.01,0.15
					c-0.22,3.25-0.87,6.46-1.32,9.69c-0.19,1.41-0.47,2.83-0.49,4.25c-0.03,1.97,1.53,4.07,3.13,4.5c2.2,0.58,4.14,0.01,5.2-1.82
					c1.83-3.12,4.28-5.72,6.7-8.35c2.46-2.66,5.04-5.2,8.28-6.89c2-1.04,2.81-2.6,2.61-4.74c-0.17-1.84-0.46-3.67-0.61-5.51
					l1.53-0.13c0.11,1.13,0.62,2.12,1.66,2.93c1.6,1.24,3.29,2.42,4.69,3.87c3,3.11,5.88,6.35,8.73,9.61
					c1.56,1.78,4.92,1.97,6.36,0.19c0.8-0.98,1.47-2.07,2.31-3.02c2.44-2.78,4.91-5.54,7.42-8.26c0.68-0.73,1.57-1.27,2.48-1.99
					c0.13,0.51,0.18,0.86,0.31,1.18c1.72,4.01,3.74,7.84,6.48,11.26c0.82,1.02,1.76,1.8,3.09,2.04c2.03,0.38,4.12-0.74,4.75-2.31
					c0.94-2.33,1.94-4.66,3.17-6.86c0.89-1.59,2.19-2.96,3.5-4.68c0,1.19-0.06,2.06,0.01,2.91c0.21,2.33,1.21,3.41,3.52,3.76
					c2.4,0.37,4.83,0.58,7.22,1c3.65,0.63,7.04,1.8,9.47,4.86c1.56,1.97,4.34,2.25,6.34,0.56c5.98-5.02,13.09-6.87,20.67-7.33
					c1.63-0.1,3.28,0.02,4.53-1.27c0.29,1.07,0.43,2.12,0.87,3.02c0.87,1.74,2.63,1.96,4.3,1.98c6.4,0.05,12.8,0.05,19.2-0.01
					c1.03-0.01,2.12-0.33,3.08-0.75c1.05-0.45,1.62-1.79,1.8-3.27l2.84,0.3c-0.37,3.84-0.98,7.65-1.94,11.44
					c-0.47,1.86,0.54,3.86,2.09,4.53c2.52,1.11,4.48,0.74,5.81-0.65c2.14-2.22,4.09-4.64,6.33-6.75c2.33-2.2,4.91-4.12,7.38-6.17
					c0.09,0.08,0.19,0.16,0.28,0.24c-0.09,0.46-0.18,0.93-0.27,1.39c-0.29,1.48-0.59,2.95,0.33,4.37c1.06,1.65,2.79,1.8,4.41,1.83
					c4.31,0.1,8.31,1.29,12.02,3.33c2.86,1.58,5.53,3.53,8.27,5.35c1.91,1.27,4.08,1.12,5.74-0.46c3.27-3.12,6.94-5.67,10.95-7.72
					c4.65-2.37,9.47-4.21,14.76-4.52c2.9-0.16,3.89-2.17,3.72-4.64c-0.1-1.35-0.41-2.68-0.46-4.03c-0.13-4.07-0.25-8.15-0.26-12.22
					c-0.02-20.76-0.01-41.52-0.01-62.28c0-0.36,0-0.72-0.01-1.08c-0.1-3.76-3.78-4.62-6.08-3.33c-5.27,2.93-10.86,4.68-16.85,5.28
					c-1.09,0.11-2.24,0.33-3.19,0.83c-1.49,0.78-1.9,2.06-1.98,3.45l-2.24-0.12c0.03-0.77,0.07-1.54,0.11-2.31
					c0.07-1.36,0.27-2.71,0.22-4.06c-0.1-2.8-2.2-4.4-4.85-3.61c-1.88,0.56-3.62,1.56-5.5,2.11c-4.28,1.23-8.61,2.35-12.93,3.43
					c-1.72,0.43-3.6,0.37-4.75,1.83c-0.66-0.23-1.21-0.42-1.76-0.62c-2.55-0.91-5.14-1.74-7.65-2.75c-3.27-1.31-6.13-3.3-8.8-5.58
					c-1.62-1.38-4.91-1-6.1,1c-0.71,1.2-1.6,2.29-2.6,3.7c0-0.6-0.01-0.83,0-1.06c0.33-4.96,0.53-9.93,1.03-14.87
					c0.26-2.57,0.92-5.1,2.38-7.38c0.74-1.16,0.62-2.61-0.08-3.88c-1.14-2.08-4.15-2.3-5.75-1.19c-3.03,2.1-6.19,3.98-9.72,5.09
					c-2.79,0.88-5.6,1.35-8.49,0.13c-1.48-0.63-3.1-0.56-4.35,0.63c-1.23,1.16-1.49,2.66-0.97,4.27c0.32,1.01,0.7,2.01,0.99,3.03
					c1.67,6,1.99,12.15,1.99,18.34c0,1.42,0,2.84,0,4.26h-0.49c0-1.84-1.23-3.34-3.1-3.73c-1.6-0.32-3.23-0.49-4.84-0.73
					c-5.41-0.81-10.61-2.16-15.19-5.33c-1.29-0.9-2.85-0.98-4.22-0.28c-2.66,1.37-5.18,3.03-7.86,4.38
					c-3.88,1.96-7.79,3.83-12.3,3.88c-2.49,0.02-4.2,1.91-3.65,4.83c1.01,5.42,1.78,10.88,1.81,16.38c0.04,7.27-0.31,14.54-0.5,21.8
					c-0.05,1.94,0.21,3.72,2.11,4.88c-2.71,1.72-3.17,4.74-4.59,7.58c-0.41-1.06-0.93-1.86-1-2.7c-0.38-4.69-0.89-9.39-0.93-14.09
					c-0.12-14.31-0.05-28.63-0.04-42.95c0.01-1.74-0.63-3.16-2.18-3.94c-1.52-0.75-3.04-0.58-4.49,0.42
					c-1.1,0.76-2.27,1.44-3.47,2.03c-4.39,2.14-9.04,3.34-13.89,3.81c-1.41,0.14-2.61,0.58-3.4,1.86c-0.49,0.8-0.68,1.64-0.72,2.49
					l-2.32-0.08c0-0.12,0.01-0.23,0.01-0.35c0.08-2.03,0.28-4.06,0.44-6.09c0.27-3.34-2.47-5.63-5.47-4.47
					c-1.28,0.5-2.42,1.35-3.68,1.88c-5.04,2.12-10.22,3.79-15.66,4.54c-2.57,0.35-3.84,1.7-4.02,4.31
					c-0.03,0.42-0.07,0.83-0.13,1.61c-2.12-1.84-4.1-3.32-5.77-5.09c-2.07-2.18-4.07-4.49-5.75-6.98c-1.86-2.75-6.48-2.68-7.39,0.66
					c-0.06,0.22-0.24,0.41-0.37,0.6c-1.6,2.32-3.16,4.66-4.83,6.93c-1.12,1.52-2.41,2.91-3.75,4.51c-2.12-1.83-4.1-3.54-6.08-5.25
					c-0.27-0.23-0.55-0.48-0.77-0.75c-1.9-2.29-3.94-4.48-5.64-6.91c-1.82-2.61-5.52-2.05-7.01,0.26c-1.87,2.9-3.82,5.74-5.77,8.58
					c-0.58,0.85-1.28,1.62-2.07,2.62c0.12-4.65-0.44-5.57-2.55-9.55c-0.86-1.62-2.36-2.37-4.07-2.01c-2.14,0.45-4.19,1.31-6.3,1.88
					c-3.47,0.95-6.96,1.83-10.45,2.71c-2.41,0.6-3.41,1.56-3.64,4.04c-0.26,2.84,0.37,4.38,2.66,5.59
					C21.44,71.89,21.91,72.25,22.38,72.56z"/>
			</g>
		</g>
	</g>
</g>
</svg>
