<?xml version="1.0" encoding="utf-8"?>
<!-- Generator: Adobe Illustrator 24.1.2, SVG Export Plug-In . SVG Version: 6.00 Build 0)  -->
<svg version="1.1" xmlns="http://www.w3.org/2000/svg" xmlns:xlink="http://www.w3.org/1999/xlink" x="0px" y="0px"
	 viewBox="0 0 720 237.6" style="enable-background:new 0 0 720 237.6;" xml:space="preserve">
<style type="text/css">
	.st0{fill:#E82D2D;}
	.st1{fill:#F9F7F6;}
	.st2{fill:#070707;}
</style>
<g id="Layer_1">
</g>
<g id="Layer_2">
	<g>
		<g id="XMLID_1_">
			<g>
				<path class="st0" d="M663.03,116.09c0.97,3.22,1.9,6.26,2.76,9.1c-0.97,1.45-1.83,2.72-2.76,4.12c-0.8-1.13-1.6-2.24-2.41-3.37
					C661.41,122.7,662.2,119.46,663.03,116.09z"/>
				<path class="st1" d="M660.62,125.93c0.81,1.13,1.61,2.24,2.41,3.37c0.93-1.4,1.79-2.67,2.76-4.12c-0.86-2.84-1.79-5.88-2.76-9.1
					C662.2,119.46,661.41,122.7,660.62,125.93z M670.15,126.1c-2.3,3.46-4.56,6.86-6.96,10.46c-1.52-2.13-2.94-4.13-4.36-6.12
					c-0.37-0.52-0.68-1.1-1.11-1.55c-1.31-1.34-1.52-2.71-1-4.59c2.12-7.61,4.03-15.29,6.02-22.95c0.1-0.02,0.21-0.04,0.31-0.06
					C665.43,109.57,667.79,117.84,670.15,126.1z"/>
				<path class="st0" d="M631.81,120.22c3.56,1.13,6.04,3.46,8.32,6.03c-1.84,8.56-3.75,17.01-7.82,24.88
					C632.15,140.89,631.98,130.66,631.81,120.22z"/>
				<path class="st0" d="M640.48,104.79c0.49-1.96,0.95-3.79,1.4-5.59c-1.63,0-3.06,0-4.57,0c-0.09,1.63-0.2,3.38-0.3,5.19
					C638.21,104.54,639.29,104.67,640.48,104.79z M632.83,93.97c0.04-0.66-0.02-1.29-0.19-1.86l2.52-0.18
					c0.41,1.18,1.19,2.05,2.48,2.08c2.59,0.04,5.18-0.2,7.76-0.33c0.9-0.05,1.79-0.14,2.97-0.23c-1.48,5.97-2.9,11.72-4.34,17.51
					c-4.03-1.42-8.03-2.16-12.29-0.73c0.11-1.47,0.2-2.76,0.28-4.06C632.3,102.11,632.61,98.04,632.83,93.97z"/>
				<path class="st0" d="M579.42,140.42c-0.05,0.01-0.09,0.02-0.14,0.03c0-8.71,0-17.42,0-26.14c0.05,0,0.09,0,0.14,0
					C579.42,123.01,579.42,131.71,579.42,140.42z"/>
				<path class="st0" d="M562.87,103.3c4.39,1.13,8.27-0.05,11.54-3.08c1.56-1.45,2.9-3.14,4.35-4.73c0.13,4.7,0.27,9.56,0.42,14.76
					c-0.32-0.99-0.43-1.72-0.77-2.31c-1.11-1.92-2.99-2.03-4.88-1.76c-5.18,0.73-10.35,1.53-15.51,2.36c-1.27,0.2-2.5,0.64-3.93,1
					c0-3.08,0-6.06,0-8.91C556.92,101.5,559.87,102.52,562.87,103.3z"/>
				<path class="st0" d="M555.89,127.24c0,4.68,0,9.17,0,13.96c-1.1-0.6-1.9-1.02-2.71-1.47c-3.9-2.13-7.77-4.34-11.73-6.39
					c-1.07-0.56-2.38-0.64-3.96-1.02C543.83,130.56,549.88,128.9,555.89,127.24z"/>
				<path class="st0" d="M530.58,91.65c0.32,1.83,0.72,3.65,0.92,5.49c0.82,7.15,1.12,14.33,0.95,21.52
					c-0.07,3.04-0.26,6.06-0.47,9.09c-0.16,2.36,0.93,4.11,3.37,4.82c-2.68,0.45-3.41,2.48-4.41,4.73
					c-0.24-15.45-0.47-30.53-0.68-45.61C530.37,91.68,530.48,91.66,530.58,91.65z"/>
				<path class="st0" d="M509.37,156.44c-1.88-3.56-2.64-7.27-2.82-11.08c-0.24-4.93-0.38-9.87-0.5-14.81
					c-0.12-4.75-0.18-9.49-0.25-14.25c-0.09-5.93-0.14-11.87-0.25-17.8c-0.05-2.44-0.22-4.87-0.34-7.62
					c0.87,0.58,1.42,0.93,2.25,1.48c0,5.83-0.03,11.85,0.01,17.86c0.04,5.66,0.14,11.31,0.23,16.97c0.07,3.84,0.15,7.68,0.24,11.51
					c0.07,3.17,0.04,6.33,0.28,9.49c0.19,2.45,0.71,4.88,1.09,7.32C509.36,155.77,509.35,156.04,509.37,156.44z"/>
				<path class="st0" d="M505.36,73.15c2.31,2.43,4.49,4.73,6.78,7.15c-2.3,0.67-4.48,1.28-6.78,1.93
					C505.36,79.15,505.36,76.27,505.36,73.15z"/>
				<path class="st0" d="M457.7,131.05c-1.96,1.13-3.98,2.3-6.26,3.62c-0.48-0.86-1.27-1.66-1.32-2.5c-0.22-3.49-0.21-7-0.26-10.49
					c-0.1-6.88-0.23-13.75-0.26-20.63c-0.01-3.89,0.09-7.78,0.15-11.66l2.44,0.03c0,2.07,0.9,3.15,2.92,4.67
					c0.75,0.58,1.44,1.65,1.58,2.58c0.41,2.76,0.63,5.56,0.74,8.34c0.17,4.5,0.21,9.02,0.26,13.53
					C457.73,122.68,457.7,126.8,457.7,131.05z"/>
				<path class="st0" d="M426.69,102.91c1.1,10.95,1.26,21.88,0.35,32.81c-0.12-0.01-0.23-0.02-0.35-0.04
					C426.69,124.76,426.69,113.83,426.69,102.91z"/>
				<path class="st0" d="M401.68,156.31c0.07-1.31-0.19-2.6-0.99-3.71c-1.83-2.55-1.99-5.43-2.22-8.29
					c-0.28-3.43-0.24-6.89-0.28-10.33c-0.05-3.25-0.02-6.51-0.02-9.76c0-4.5,0-9.01,0-13.86c1.74-1.01,3.75-2.18,5.93-3.44
					c0.09,1.65,0.22,3.09,0.23,4.52c0.04,4.39,0,8.78,0.04,13.18c0.05,4.78,0.28,9.56,0.2,14.34c-0.1,5.81-0.37,11.64-0.62,17.45
					L401.68,156.31z"/>
				<path class="st0" d="M375.24,150.91c-0.74,1.48-1.5,2.95-2.05,4.04c-0.04-1.03-0.89-2.21-1.66-3.51
					c-0.74-1.29-1.12-2.95-1.17-4.46c-0.27-7.71-0.41-15.43-0.52-23.14c-0.07-4.67-0.02-9.34-0.02-14.19
					c1.7-0.97,3.62-2.07,5.88-3.38c0,1.67-0.01,2.99,0.01,4.31c0.05,5.26,0.1,10.52,0.16,15.78c0.06,6.54,0.14,13.08,0.18,19.61
					c0,1.23-0.14,2.46-0.3,3.67C375.71,150.07,375.44,150.49,375.24,150.91z"/>
				<path class="st0" d="M349.67,161.81c6.15-0.09,12.3,0.04,18.46-0.05c2.94-0.04,4.93-1.29,5.13-4.74
					c0.55,3.36,1.84,4.08,4.3,4.53c0.99,0.19,2.05,0.08,3.09,0.07c5.55-0.07,11.09-0.15,16.64-0.22c1.79-0.02,3.31-0.74,3.86-2.39
					c0.29-0.87,0.5-1.79,0.54-2.7l2.26,0.1c-0.03,0.62-0.05,1.25-0.08,1.87c-0.07,1.81-0.36,3.6-0.51,5.4
					c-0.24,3.03-0.49,6.04-0.63,9.07c-0.03,0.63,0.2,1.35,0.54,1.89c1.98,3.12,5.77,2.99,7.65-0.28c3.53-6.13,8.06-11.38,13.75-15.6
					c1.63-1.2,2.85-2.6,2.99-4.7c0.06-1.02,0.01-2.04,0.01-3.25c1.6,1.32,3.19,2.5,4.61,3.85c3.29,3.09,6.37,6.38,8.89,10.13
					c1.37,2.03,5.39,2.09,6.81-0.17c1.28-2.05,2.82-3.96,4.31-5.9c2.08-2.7,4.49-5.09,7.35-7.12c0.14,0.44,0.28,0.83,0.39,1.23
					c1.24,4.48,4.08,8.05,6.75,11.69c1.8,2.46,6.3,2.29,7.5-0.91c1.3-3.43,3.11-6.59,5.16-9.59c0.78-1.15,1.88-2.08,2.83-3.11
					c-0.37,2.94-1.44,5.42-3.49,7.49c-1.52,1.55-1.42,3.64-0.67,5.46c0.75,1.79,2.39,2.56,4.42,2.57c2.76,0,5.41-0.53,8-1.38
					c1.58-0.52,3.12-1.2,4.42-1.71c1.32,1.03,2.45,2,3.67,2.85c2.85,1.96,5.75,3.84,8.62,5.77c1.19,0.79,3.33,0.84,4.58-0.02
					c1.76-1.22,2.33-3.07,2.73-5.15c2.02,0.75,3.88,0.07,5.73-0.63c2.4-0.91,4.78-1.89,7.21-2.74c2.43-0.84,5.11-1.18,6.47-3.7
					c0.69,0.1,1.22,0.21,1.77,0.25c2.53,0.19,5.04,0.64,7.21,1.92c1.94,1.14,3.72,2.62,5.46,4.07c1.81,1.51,4.32,2,6.33,0.26
					c1.04-0.89,2.07-1.84,3.23-2.55c3.1-1.89,6.41-3.3,10.01-3.9c2.9-0.48,5.83-0.77,8.67-1.13c0.31,0.89,0.46,1.61,0.79,2.21
					c1,1.86,2.84,2.14,4.66,2.19c3.21,0.09,6.42,0.02,9.64,0.06c3.2,0.04,6.41,0.17,9.61,0.19c1.74,0.02,3.34-1.13,3.8-2.5
					c0.83-2.54,0.3-4.87-0.95-7.12c-0.37-0.65-0.8-1.32-0.9-2.03c-0.33-2.09-0.65-4.21-0.72-6.33c-0.16-5.62-0.21-11.24-0.27-16.87
					c-0.03-4.29-0.01-8.57-0.01-12.86c0-1.06,0-2.12,0-3.08c2.42-1.68,4.72-3.27,7.38-5.12c0,4.58,0.05,8.81-0.01,13.05
					c-0.16,11.44,0.46,22.9-0.47,34.33c-0.21,2.64-0.32,5.28-0.5,7.92c-0.08,1.21-0.26,2.42-0.36,3.63
					c-0.21,2.36-0.51,4.71-0.55,7.07c-0.06,3.32,2.9,4.87,5.49,3.99c1.1-0.37,2.17-1.1,3-1.93c3.43-3.45,6.77-7.01,10.13-10.52
					c0.07,0.19,0.14,0.38,0.2,0.57c0.78,0.47,1.52,1.18,2.36,1.36c3.62,0.77,7.04-0.08,10.22-1.83c1.74-0.95,3.33-2.18,5.01-3.3
					c0.18,0.17,0.43,0.37,0.62,0.63c1.56,2.19,3.65,3.7,6.09,4.72c1.83,0.76,3.72,0.97,5.36-0.38c1.55-1.26,1.51-3.01,1.04-4.77
					c-0.72-2.76-1.65-5.48-2.17-8.28c-0.32-1.7-0.06-3.5-0.06-5.27c0.3,0.25,0.32,0.54,0.45,0.75c1.44,2.43,2.91,4.85,4.36,7.27
					c0.89,1.5,2.27,2,3.91,1.89c1.75-0.11,2.91-1.1,3.62-2.64c1.22-2.63,2.41-5.28,3.62-7.91c0.15-0.32,0.4-0.59,0.67-1
					c0.15,0.62,0.23,1,0.33,1.38c0.7,2.68,1.4,5.39,1.06,8.17c-0.21,1.7-0.76,3.35-1.16,5.02c-0.49,2.06,0.54,4.39,2.2,4.82
					c2.34,0.61,4.62,0.43,6.68-0.98c1.45-0.99,2.88-2,4.23-2.95c1.6,0.7,3.22,1.5,4.9,2.15c2.42,0.95,4.86,1.88,7.34,2.7
					c1.73,0.57,3.55,0.99,5.29,0.1c2.28-1.17,2.41-4.4,1.33-6.14c-1.7-2.73-3.66-5.28-5.31-8.03c-1.61-2.68-3.08-5.46-4.38-8.29
					c-1.18-2.55-2.05-5.24-3.05-7.87c-1.8-4.77-3.04-9.66-3.16-14.8c-0.03-1.22-0.25-2.61-0.87-3.62
					c-2.17-3.51-3.59-7.31-4.69-11.24c-1.23-4.37-2.04-8.81-2.26-13.37c-0.18-3.57,0.89-6.94,1.44-10.39
					c0.49-3.1-1.33-5.86-5.01-4.86c-1.8,0.49-3.52,1.29-5.32,1.79c-1.86,0.52-3.78,2-5.63-0.08c-0.02-0.02-0.07-0.01-0.11-0.02
					c-3.43-1.34-6.99-1.47-10.56-0.82c-2,0.36-3.95,0.95-5.89,1.51c-4.23,1.21-8.34,2.65-11.99,5.24c-1.96,1.39-2.61,2.95-2.05,5.27
					c0.04,0.18,0.1,0.36,0.15,0.53l-2.52,0.18c-0.29-1.04-0.92-1.95-1.98-2.7c-2.17-1.56-4.37-3.17-6.22-5.07
					c-2.48-2.54-4.74-5.3-6.9-8.12c-1.25-1.63-4.36-2.06-5.58-0.8c-1.35,1.4-2.38,3.09-3.53,4.66c-2.1,2.87-4.19,5.75-6.27,8.63
					c-0.19-0.06-0.38-0.12-0.57-0.18c0-3.74,0.05-7.49-0.01-11.23c-0.13-7.88-0.13-15.73,2.41-23.33c0.81-2.43-0.42-5.04-3.32-5.36
					c-0.99-0.11-2.13,0.18-3.05,0.63c-2.28,1.12-4.55,2.3-6.69,3.69c-2.28,1.48-4.7,2.1-7.36,2c-1.46-0.06-2.92-0.24-4.37-0.22
					c-2.75,0.02-4.66,2.53-3.96,5.17c0.43,1.59,1.17,3.1,1.48,4.69c0.59,3.13,1.16,6.26,1.42,9.43c0.24,2.82,0.05,5.67,0.05,8.44
					c-1.96-0.29-4.09-0.49-6.16-0.93c-2.71-0.6-5.4-1.29-8.05-2.12c-1.58-0.5-3.1-1.26-4.57-2.03c-2.01-1.05-4.06-1.49-6.11-0.48
					c-2.21,1.09-4.36,2.35-6.47,3.63c-3.45,2.1-7.08,3.82-11.09,4.33c-2.31,0.29-4.32,0.68-5.35,2.63c-0.4-1.73-0.6-3.72-1.33-5.49
					c-0.97-2.35-1.66-5.23-5.52-5.15c1.18-1.72,2.12-3.26,3.23-4.64c1.45-1.83,3.04-3.52,4.54-5.31c1.41-1.69,1.24-4.58-0.27-6.05
					c-2.5-2.42-5.02-4.81-7.48-7.27c-0.94-0.94-1.79-2-2.59-3.08c-1.39-1.88-4.36-2.42-6.15-0.91c-1.36,1.14-2.62,2.43-3.74,3.79
					c-1.46,1.77-2.74,3.66-4.2,5.64c0.17-0.58,0.29-1.02,0.43-1.46c0.54-1.61,0.72-3.21-0.06-4.79c-0.87-1.78-3.59-2.56-5.99-1.22
					c-2.18,1.22-4.36,2.46-6.62,3.54c-3.41,1.65-6.91,2.55-10.79,1.42c-1.99-0.57-3.81,0.01-4.73,1.76
					c-0.73,1.39-0.62,2.89-0.06,4.35c2.15,5.73,3.05,11.69,3.15,17.79c0.07,4.15,0.17,8.3,0.24,12.45c0.09,4.63,0.17,9.27,0.24,13.9
					c0.09,6.06,0.18,12.13,0.24,18.18c0.03,3.49,0.01,6.98,0.01,10.48c0,1.32,0,2.63,0,3.94c-0.56-0.99-1.06-2-1.16-3.06
					c-0.45-4.67-0.86-9.36-1.13-14.04c-0.22-4.03-0.24-8.07-0.3-12.11c-0.1-6.56-0.16-13.12-0.26-19.69
					c-0.05-3.01-0.12-6.01-0.24-9.02c-0.13-2.9-2.97-4.51-5.26-3.6c-1.38,0.55-2.74,1.18-4.01,1.94c-4.27,2.57-9,3.53-13.83,4.24
					c-2.15,0.31-3.9,1.05-4.31,3.18c-0.17,0.87-0.26,1.62-0.26,2.26l-2.44-0.03c0.02-1.03,0.03-2.05,0.04-3.09
					c0.02-1.96,0.03-3.93-0.13-5.88c-0.18-2.24-2.8-3.33-4.54-2.71c-2.31,0.83-4.52,1.96-6.87,2.69c-3.69,1.15-7.43,2.21-11.2,3.07
					c-2.34,0.53-4.69,0.74-5.45,3.8c-1.81-1.7-3.49-3.18-5.08-4.78c-1.56-1.58-2.98-3.27-4.52-4.87c-0.42-0.43-0.98-0.82-1.55-0.98
					c-2.19-0.63-3.85,0.08-5.31,2.04c-2.78,3.72-5.59,7.42-8.42,11.19c-1.24-0.93-2.36-1.68-3.36-2.55c-1.97-1.7-3.94-3.4-5.79-5.22
					c-1.41-1.38-2.66-2.92-3.95-4.42c-1.76-2.02-5.33-1.6-6.77,0.5c-2.33,3.38-4.93,6.58-7.53,10.01c-0.26-1.58-0.34-2.84-0.67-4.02
					c-0.36-1.19-0.91-2.33-1.49-3.43c-1.39-2.66-3.15-3.67-5.45-3.13c-5.53,1.34-11.04,2.74-16.58,4.07
					c-1.7,0.42-2.74,1.46-2.89,3.14c-0.29,3.14-0.14,4.93,3.13,6.55c0.35,0.17,0.66,0.41,1.26,0.79c0,5.73-0.04,11.55,0.01,17.37
					c0.05,7.02,0.23,14.03,0.25,21.05c0.01,5.81-0.14,11.65-0.19,17.47c-0.01,1.31-0.33,2.46-1.18,3.49
					c-1.14,1.41-1.57,3.05-1.44,4.86C344.32,159.83,346.42,161.86,349.67,161.81z M341.4,148.64c0.55-0.85,0.53-2.19,0.53-3.31
					c-0.03-7.23-0.13-14.44-0.21-21.65c-0.1-8.72-0.2-17.44-0.3-26.18c0-0.86,0-1.74,0-2.55c-0.67-0.64-1.35-1.13-1.87-1.77
					c-2.93-3.55-2.92-7.6-1.48-11.63c0.74-2.09,2.44-3.71,4.75-4.3c6.23-1.57,12.44-3.26,18.73-4.54c3.13-0.65,6.09,0.43,8.26,3.04
					c0.46,0.55,0.84,1.14,1.35,1.85c0.42-0.56,0.78-1.08,1.19-1.58c0.72-0.88,1.37-1.87,2.23-2.58c3.01-2.49,6.44-2.54,9.9-1.24
					c1.12,0.43,2.12,1.39,2.99,2.29c1.46,1.5,2.7,3.21,4.15,4.71c1.25,1.31,2.67,2.45,4.19,3.82c1.8-2.44,3.59-4.7,5.19-7.09
					c1.84-2.74,4.39-4.3,7.56-4.5c2.73-0.17,5.28,0.68,7.21,2.87c1.71,1.92,3.49,3.77,5.08,5.48c2.9-0.61,5.61-1.06,8.25-1.77
					c2.61-0.7,5.16-1.63,7.73-2.49c2.83-0.95,5.58-2.4,8.47-2.82c3.65-0.54,7.65,1.39,8.92,5.63c0.1,0.34,0.18,0.67,0.27,1.03
					c4.22-0.63,8.37-1.24,12.19-3.18c1.23-0.63,2.48-1.23,3.65-1.95c1.88-1.17,3.95-1.51,6.33-1.78c-0.4-1.64-0.75-3.26-1.19-4.87
					c-0.37-1.33-0.78-2.65-1.26-3.94c-0.89-2.43-0.7-4.88,0.22-7.17c0.83-2.1,2.43-3.63,4.66-4.43c2.45-0.87,4.86-0.66,7.34-0.18
					c1.03,0.21,2.27,0.18,3.22-0.22c2.83-1.2,5.64-2.48,8.29-4.01c3.83-2.21,7.54-2.37,11.41-0.05c0.9-0.72,1.79-1.58,2.79-2.24
					c2.08-1.36,4.36-1.73,6.87-1.43c3.25,0.39,5.19,2.43,7,4.78c0.37,0.47,0.74,0.93,1.17,1.35c2.46,2.4,5.02,4.71,7.37,7.21
					c2.15,2.28,2.97,5.06,2.53,8.26c-0.38,2.79-2.02,4.73-3.74,6.7c-0.77,0.89-1.56,1.78-2.31,2.64c0.93,1.71,1.83,3.37,2.76,5.06
					c2.66,0.23,5-0.9,7.28-2.03c2.93-1.47,5.76-3.14,8.6-4.76c4.15-2.39,8.23-2.21,12.38,0.01c3.5,1.87,7.25,2.97,11.39,3.58
					c-0.14-1.73-0.31-3.27-0.38-4.83c-0.18-4.08-2.04-7.75-2.75-11.69c-0.58-3.28,0.5-6.19,3.04-8.37c2.56-2.18,5.65-2.33,8.84-1.96
					c2.13,0.25,4.18,0.14,6.13-1.16c2.26-1.51,4.64-2.88,7.12-4.01c3.78-1.73,7.57-1.6,10.83,1.24c1.04,0.9,1.72,2.32,2.32,3.61
					c1.14,2.46,0.53,4.98-0.3,7.36c-1.06,3.08-1.28,6.25-1.53,9.43c-0.2,2.39-0.24,4.79-0.37,7.53c0.66-0.77,1.03-1.34,1.52-1.76
					c3.11-2.65,6.66-2.9,10.32-1.56c1.56,0.58,2.66,1.91,3.72,3.22c1.95,2.44,3.98,4.82,6.09,7.12c1.06,1.16,2.36,2.09,3.6,3.16
					c4.46-3.99,9.74-6.24,15.41-7.72c2.43-0.64,4.85-1.31,7.3-1.86c4.33-0.96,8.55-0.33,12.69,1.03c0.89,0.3,1.62,0.37,2.57,0.02
					c2.28-0.84,4.62-1.63,7.02-2.04c2.96-0.53,5.7,0.37,7.65,2.71c2.13,2.56,2.91,5.64,1.95,8.85c-1.98,6.72-1.11,13.31,0.61,19.86
					c1.03,3.89,2.58,7.57,4.56,11.11c0.93,1.66,1.42,3.75,1.46,5.67c0.11,5.39,1.63,10.41,3.59,15.32c1.48,3.68,3.03,7.34,4.77,10.9
					c0.98,2.01,2.42,3.8,3.67,5.68c0.8,1.22,1.66,2.42,2.48,3.63c2.28,3.28,2.57,6.88,1.11,10.47c-0.85,2.1-2.58,3.59-4.91,4.33
					c-3.22,1.02-6.2,0.37-9.22-0.76c-2.91-1.1-5.87-2.09-8.87-3.15c-2.21,1.47-4.52,2.82-7.26,3.17c-3.95,0.51-8.3-0.35-10.41-4.39
					c-0.65-1.26-0.83-2.78-1.22-4.16c-1.32,0.24-2.67,0.48-4.04,0.73c-0.44,1.96-0.65,4.01-1.93,5.81c-1.79,2.54-6.23,3.65-8.7,3.22
					c-2.88-0.5-5.39-1.75-7.69-3.49c-0.28-0.22-0.57-0.4-0.83-0.58c-5.04,2.87-10.26,4.43-16.14,3.25
					c-2.43,2.36-4.96,4.77-7.42,7.23c-1.92,1.92-4.11,3.37-6.87,3.63c-4.15,0.38-8.66-1.76-9.82-6.37
					c-0.67-2.67-0.68-5.31-0.09-7.86c-2.41,0-4.81,0.03-7.21-0.01c-4.74-0.06-9.52,0.11-14.24-0.31c-3.79-0.34-5.86-0.73-8.16-3.98
					c-2.77,0.07-5.47,0.66-8.13,1.62c-2.68,0.95-5.06,2.35-7.2,4.21c-4.18,3.6-9.63,3.09-13.54-0.47c-1.13-1.03-2.29-2.13-3.62-2.83
					c-1.47-0.78-3.14-1.16-4.33-1.57c-6.2,3.09-12.38,4.91-18.1,6.99c-1.42,1.48-2.52,2.97-3.95,4.02c-1.9,1.42-4.17,1.87-6.61,1.43
					c-1.75-0.33-3.25-1.01-4.7-2.04c-2.85-2.01-5.79-3.9-8.72-5.79c-0.35-0.22-0.96-0.22-1.39-0.11c-3.36,0.91-6.67,1.99-10.19,1.95
					c-2.48-0.03-4.87-0.43-6.57-1.88c-1.88,0.58-3.53,1.39-5.24,1.55c-3.3,0.32-6.28-0.72-8.38-3.44c-1.55-2-2.91-4.16-4.36-6.24
					c-0.24-0.35-0.49-0.69-0.93-1.33c-1.62,2.14-3.33,4.02-4.6,6.16c-1.84,3.08-4.38,4.95-7.88,5.12c-3.11,0.15-5.85-0.85-7.87-3.51
					c-2.03-2.67-4.25-5.19-6.47-7.88c-3.01,2.73-5.93,5.2-8.64,7.89c-2.61,2.59-4.92,5.46-6.67,8.74c-1.7,3.18-4.39,5.05-7.94,5.24
					c-2.93,0.16-5.57-0.85-7.55-3.22c-1.67-1.99-2.18-4.33-2.22-6.83c-0.04-1.76-0.01-3.51-0.01-5.13c-2.77,0-5.76,0-8.77,0
					c-2.74,0-5.48,0.09-8.21-0.03c-2.04-0.09-4.06-0.5-6.09-0.66c-0.9-0.08-1.84,0.02-2.74,0.15c-1.44,0.2-2.86,0.69-4.29,0.71
					c-5.95,0.09-11.91,0.06-17.86,0.03c-4-0.02-7.34-1.52-9.24-5.12c-1.18-2.26-1.73-4.84-1.27-7.47
					C339.57,152.22,340.26,150.39,341.4,148.64z"/>
				<path class="st1" d="M630.5,115.61c6.21,1.09,10.29,5.17,14.16,9.48c-0.29,1.23-0.53,2.26-0.78,3.3
					c-1.86,7.99-3.73,15.98-7.08,23.53c-1.7,3.82-3.37,7.63-6.55,10.53c-0.11,0.1-0.13,0.32-0.24,0.59c2.9,0.18,5.53-0.5,7.81-1.96
					c2.26-1.47,4.28-3.32,6.41-5.02c2.9,2.5,4.9,6.34,9.51,7.63c-4.26-8.95-3.13-17.62-0.25-26.66c3.33,5.88,6.51,11.53,9.81,17.39
					c2.94-6.34,5.73-12.35,9.58-17.89c0.17,0.24,0.27,0.33,0.3,0.43c1.09,4.27,2.27,8.5,3.25,12.79c0.77,3.42,0.93,6.92,0.06,10.37
					c-0.2,0.77-0.44,1.54-0.71,2.46c2.85-0.53,4.96-1.87,6.61-3.88c1.84-2.24,2.03-2.06,3.98-0.71c4,2.77,8.66,4.06,13.17,5.7
					c0.32,0.11,0.68,0.06,1.33,0.11c-0.34-0.61-0.53-1-0.77-1.37c-2.06-3-4.4-5.83-6.12-9.01c-2.19-4.06-4.06-8.31-5.78-12.59
					c-2.4-5.98-3.99-12.19-4.27-18.68c-0.03-0.86-0.47-1.74-0.84-2.55c-0.74-1.58-1.66-3.08-2.33-4.68
					c-2.18-5.23-3.37-10.72-4.18-16.3c-0.57-4.03-0.69-8.06,0.24-12.06c0.31-1.32,0.71-2.62,1.06-3.98
					c-3.2,0.94-6.24,1.79-9.25,2.76c-1.26,0.4-2.29,0.25-3.34-0.49c-1.79-1.25-3.84-1.75-5.96-1.71
					c-6.77,0.13-12.99,2.24-18.84,5.55c-0.66,0.37-1.2,0.93-1.8,1.41c0.05,0.1,0.1,0.21,0.14,0.31c0.5-0.03,0.99-0.06,1.48-0.11
					c2.79-0.23,5.58-0.6,8.37-0.66c2.12-0.05,3.31,1.25,3.39,3.36c0.04,1.14-0.05,2.31-0.31,3.42c-1.06,4.71-2.2,9.42-3.34,14.11
					c-0.52,2.18-1.11,4.36-1.71,6.71C641.41,113.89,636.25,111.87,630.5,115.61z M579.42,140.42c0-8.7,0-17.41,0-26.11
					c-0.05,0-0.09,0-0.14,0c0,8.71,0,17.42,0,26.14C579.33,140.44,579.37,140.43,579.42,140.42z M582.21,72.08
					c0.38,8.34,0.54,16.71,0.75,25.06c0.13,4.89,0.22,9.79,0.31,14.69c0.11,6.37,0.24,12.73,0.3,19.1
					c0.06,5.15,0.01,10.3,0.05,15.46c0.03,3.45-0.15,6.82-2.51,9.67c-0.68,0.82-0.6,1.83-0.08,2.92c6.81,0.13,13.64,0.27,20.82,0.42
					c-0.29-1.19-0.26-2.3-0.77-3.03c-1.68-2.35-2.16-5.04-2.28-7.77c-0.28-6.2-0.39-12.4-0.51-18.6c-0.08-3.76-0.05-7.52-0.06-11.28
					c-0.01-2.81,0-5.62,0-8.48c4.53-3.01,9.06-6.01,13.63-9.05c1.15,1.22,1.65,2.56,1.66,4.15c0.08,8.08,0.19,16.15,0.29,24.23
					c0.12,8.75,0.24,17.49-0.59,26.23c-0.51,5.32-1.06,10.64-1.58,15.97c-0.05,0.6,0.08,1.22,0.16,2.14
					c5.84-5.4,10.71-11.28,17.21-15.55c-0.17-1.97-0.43-4.02-0.5-6.07c-0.21-6.37-0.41-12.74-0.5-19.11
					c-0.09-6.82-0.16-13.63-0.05-20.44c0.09-5.5,0.47-10.99,0.73-16.49c0.05-1.01,0.18-2.03,0.27-3.03
					c-5.92-3.87-10.45-9.02-14.67-14.63c-4.6,7.38-9.75,14.09-16.18,20.09c-0.07-0.56-0.12-0.81-0.12-1.08
					c-0.03-4.47-0.01-8.93-0.09-13.41c-0.06-3.19-0.39-6.39-0.35-9.59c0.05-3.87,0.38-7.75,0.55-11.62
					c0.15-3.39,0.94-6.65,2.11-9.83c0.09-0.23,0.12-0.49,0.24-0.95c-0.48,0.21-0.75,0.3-1.01,0.45c-1.94,1.15-3.87,2.34-5.81,3.48
					c-2.55,1.48-5.17,2.87-8.19,2.95c-2.06,0.06-4.14-0.17-6.32-0.27c0.13,0.42,0.25,0.85,0.41,1.28
					C580.91,63.96,582.03,67.95,582.21,72.08z M574.41,100.22c-3.28,3.03-7.15,4.21-11.54,3.08c-3-0.77-5.94-1.8-8.79-2.66
					c0,2.85,0,5.83,0,8.91c1.43-0.37,2.66-0.8,3.93-1c5.16-0.83,10.33-1.63,15.51-2.36c1.9-0.28,3.77-0.16,4.88,1.76
					c0.35,0.6,0.46,1.32,0.77,2.31c-0.15-5.21-0.29-10.06-0.42-14.76C577.3,97.08,575.97,98.77,574.41,100.22z M537.5,132.32
					c1.58,0.38,2.89,0.46,3.96,1.02c3.96,2.05,7.83,4.26,11.73,6.39c0.8,0.45,1.61,0.87,2.71,1.47c0-4.79,0-9.28,0-13.96
					C549.88,128.9,543.83,130.56,537.5,132.32z M532.28,155.5c7.25,0.47,14.19,2.11,19.32,8.03c7.16-6.44,15.65-8.48,24.76-8.76
					c-1.26-15-1.26-29.85-1.19-44.77c-8.5,0.94-16.86,1.73-24.64,5.52c-0.78-7.43-0.77-14.69-0.54-22.25
					c0.63,0.4,0.98,0.58,1.29,0.8c3.86,2.79,8.19,4.47,12.85,5.29c2.3,0.41,4.48,0.17,6.49-1.15c3.44-2.25,5.16-5.61,6.11-9.44
					c0.21-0.81,0.25-1.67,0.36-2.47c-1.51-0.25-2.78-0.51-4.07-0.66c-5.58-0.72-10.97-2.04-15.89-4.88
					c-0.98-0.57-1.84-0.49-2.78,0.09c-1.49,0.9-3.02,1.76-4.54,2.63c-4.73,2.74-9.59,5.11-15.18,5.5c-0.14,0.01-0.28,0.12-0.52,0.25
					c1.64,6.4,2.23,12.94,2.38,19.5c0.15,6.62,0.03,13.23,0.03,19.89c3.79-1.13,7.67-2.39,11.6-3.46c3.94-1.07,7.9-2.1,12.03-2.44
					c0.41,8.46,0.19,16.69-1.02,24.98c-0.34-0.15-0.49-0.19-0.63-0.27c-5.88-3.27-11.75-6.57-17.64-9.82
					c-1.53-0.84-3.17-1.38-4.91-1.1C533.37,141.11,531.22,152.27,532.28,155.5z M535.36,132.57c-2.44-0.71-3.53-2.46-3.37-4.82
					c0.21-3.03,0.4-6.05,0.47-9.09c0.17-7.19-0.13-14.38-0.95-21.52c-0.21-1.83-0.61-3.66-0.92-5.49c-0.1,0.01-0.21,0.03-0.31,0.04
					c0.22,15.08,0.45,30.16,0.68,45.61C531.95,135.05,532.68,133.01,535.36,132.57z M513.04,75.42c1.57,1.55,3.23,3,4.89,4.53
					c1.96-6.19,6.1-11.11,10.55-15.72c-3.76-3.9-7.42-7.71-11.16-11.6c-0.28,0.25-0.68,0.6-1.09,0.97
					c-4.15,3.84-6.49,8.84-8.77,13.85c-0.5,1.08-0.16,1.98,0.65,2.81C509.75,71.98,511.34,73.75,513.04,75.42z M524.1,80.82
					c-5.66,1.68-11.23,3.32-16.83,4.97c-0.43,1.06-0.02,1.75,0.89,2.26c1.07,0.61,2.11,1.23,3.12,1.82
					c0.06,0.28,0.12,0.43,0.12,0.58c0.12,8.97,0.23,17.95,0.37,26.92c0.12,7.87,0.33,15.73,0.38,23.59
					c0.03,5.16,0.15,10.3,1.55,15.3c0.66,2.33,1.57,4.59,2.4,7c4.88-1.73,9.51-3.37,14.42-5.11c-0.27-0.95-0.31-2.01-0.81-2.76
					c-1.62-2.36-2.24-5-2.35-7.75c-0.24-6.11-0.34-12.24-0.47-18.36c-0.11-5.39-0.19-10.77-0.26-16.15
					c-0.11-7.99-0.27-15.98-0.27-23.96C526.35,86.14,525.61,83.42,524.1,80.82z M506.55,145.36c0.18,3.81,0.94,7.52,2.82,11.08
					c-0.02-0.41-0.01-0.68-0.05-0.93c-0.38-2.44-0.9-4.87-1.09-7.32c-0.24-3.16-0.21-6.32-0.28-9.49
					c-0.09-3.83-0.17-7.67-0.24-11.51c-0.09-5.66-0.19-11.31-0.23-16.97c-0.04-6.01-0.01-12.03-0.01-17.86
					c-0.83-0.55-1.38-0.9-2.25-1.48c0.12,2.75,0.29,5.18,0.34,7.62c0.11,5.93,0.16,11.87,0.25,17.8c0.07,4.75,0.13,9.5,0.25,14.25
					C506.17,135.49,506.31,140.43,506.55,145.36z M482.02,162.34c0.22,0.02,0.46,0.05,0.7,0.05c4.18-0.12,8-1.48,11.63-3.42
					c1.57-0.83,1.78-0.82,2.9,0.51c0.69,0.81,1.34,1.73,2.19,2.33c3.31,2.36,6.71,4.61,10.17,6.97c0.33-0.64,0.61-1.19,0.87-1.71
					c-0.66-1.19-1.2-2.34-1.88-3.41c-4.13-6.58-6.13-13.77-6.3-21.5c-0.2-8.65-0.42-17.3-0.61-25.96c-0.14-6.2-0.3-12.41-0.36-18.62
					c-0.08-8.44-0.04-16.89-0.13-25.32c-0.06-5.6,0.66-11.04,2.47-16.34c0.14-0.38,0.18-0.78,0.33-1.47
					c-0.72,0.47-1.16,0.81-1.65,1.06c-2.95,1.52-5.83,3.23-8.9,4.46c-3.43,1.38-7.07,1.63-10.91,0.3c0.17,0.54,0.24,0.79,0.33,1.05
					c1.63,4.48,2.81,9.07,3.05,13.86c0.13,2.76,0.15,5.54,0.21,8.3c0.17,7.51,0.36,15.02,0.5,22.53c0.11,5.7,0.27,11.4,0.24,17.1
					c-0.05,8.7,0.63,17.4-0.17,26.11c-0.39,4.3-1.44,8.28-4.59,11.43C481.61,161.14,481.44,161.72,482.02,162.34z M427.04,135.72
					c0.91-10.93,0.75-21.87-0.35-32.81c0,10.93,0,21.85,0,32.77C426.81,135.7,426.92,135.71,427.04,135.72z M430.9,103.42
					c0.93,10.8,0.85,21.61,0.14,32.43c-0.26,3.87-0.68,7.73-1.03,11.75c5.52,4.13,10.25,9.21,14.56,14.95
					c4.56-7.47,10.63-13.25,17.88-18.07c0.72,6.91,3.21,12.83,7.91,17.98c0.27-0.54,0.46-0.87,0.6-1.23
					c2.4-5.83,5.75-11.02,10.58-15.17c1-0.85,0.92-2-0.27-2.75c-1.8-1.13-2.61-2.83-3.05-4.76c-1.22-5.41-1.18-10.92-1.43-16.41
					c-0.28-6.04-0.28-12.11-0.39-18.16c-0.09-5.58-0.17-11.15-0.24-16.73c-0.03-1.85-0.01-3.68-0.01-5.85
					c-6.26,4.06-12.91,5.83-19.84,6.69c-0.38,1.26-0.12,1.99,0.95,2.52c1.4,0.68,2.47,1.86,2.8,3.37c0.54,2.43,1.05,4.89,1.17,7.36
					c0.25,5.18,0.24,10.37,0.34,15.56c0.11,5.13,0.25,10.27,0.31,15.41c0.01,0.45-0.35,1.09-0.74,1.34c-2.8,1.79-5.66,3.5-8.48,5.26
					c-0.95,0.59-1.8,0.5-2.57-0.3c-0.61-0.62-1.17-1.31-1.85-1.85c-1.32-1.03-1.96-2.39-2-4c-0.14-5.37-0.23-10.75-0.31-16.11
					c-0.08-4.98-0.2-9.96-0.16-14.94c0.05-6.25,0.25-12.51,0.38-18.76c0-0.42-0.04-0.82-0.07-1.36c-6.64,3.15-13.46,5.14-20.48,6.25
					c-0.42,1.04-0.16,1.79,0.53,2.48c0.54,0.53,1.01,1.11,1.46,1.73C430.02,95.43,430.56,99.45,430.9,103.42z M373.19,154.94
					c0.56-1.09,1.31-2.56,2.05-4.04c0.2-0.42,0.47-0.83,0.52-1.28c0.16-1.21,0.3-2.44,0.3-3.67c-0.04-6.53-0.12-13.07-0.18-19.61
					c-0.06-5.26-0.11-10.52-0.16-15.78c-0.02-1.32-0.01-2.64-0.01-4.31c-2.26,1.31-4.19,2.41-5.88,3.38c0,4.85-0.05,9.52,0.02,14.19
					c0.11,7.71,0.25,15.43,0.52,23.14c0.05,1.51,0.43,3.16,1.17,4.46C372.3,152.73,373.15,153.91,373.19,154.94z M367.18,80.74
					c0.58,1.1,1.13,2.24,1.49,3.43c0.34,1.18,0.42,2.44,0.67,4.02c2.6-3.43,5.2-6.63,7.53-10.01c1.44-2.09,5.01-2.52,6.77-0.5
					c1.29,1.5,2.54,3.04,3.95,4.42c1.85,1.82,3.81,3.52,5.79,5.22c1,0.87,2.12,1.62,3.36,2.55c2.84-3.77,5.65-7.47,8.42-11.19
					c1.46-1.96,3.12-2.67,5.31-2.04c0.57,0.16,1.13,0.56,1.55,0.98c1.54,1.6,2.96,3.29,4.52,4.87c1.59,1.6,3.27,3.09,5.08,4.78
					c0.75-3.06,3.11-3.27,5.45-3.8c3.77-0.85,7.51-1.92,11.2-3.07c2.34-0.73,4.56-1.86,6.87-2.69c1.74-0.63,4.36,0.47,4.54,2.71
					c0.16,1.96,0.15,3.92,0.13,5.88c-0.01,1.03-0.02,2.05-0.04,3.09c-0.06,3.88-0.16,7.77-0.15,11.66
					c0.03,6.88,0.16,13.75,0.26,20.63c0.05,3.49,0.04,7,0.26,10.49c0.05,0.84,0.84,1.64,1.32,2.5c2.28-1.32,4.31-2.49,6.26-3.62
					c0-4.25,0.03-8.36-0.01-12.49c-0.05-4.51-0.09-9.03-0.26-13.53c-0.11-2.79-0.34-5.59-0.74-8.34c-0.14-0.93-0.82-2-1.58-2.58
					c-2.01-1.52-2.92-2.6-2.92-4.67c0-0.65,0.09-1.39,0.26-2.26c0.41-2.12,2.15-2.87,4.31-3.18c4.83-0.7,9.56-1.67,13.83-4.24
					c1.27-0.76,2.63-1.4,4.01-1.94c2.29-0.91,5.13,0.7,5.26,3.6c0.12,3.01,0.19,6.01,0.24,9.02c0.1,6.57,0.16,13.13,0.26,19.69
					c0.06,4.04,0.08,8.08,0.3,12.11c0.27,4.68,0.69,9.37,1.13,14.04c0.1,1.05,0.61,2.06,1.16,3.06c0-1.31,0-2.62,0-3.94
					c0-3.49,0.02-6.99-0.01-10.48c-0.06-6.05-0.15-12.12-0.24-18.18c-0.07-4.63-0.15-9.27-0.24-13.9
					c-0.07-4.15-0.17-8.31-0.24-12.45c-0.1-6.1-0.99-12.06-3.15-17.79c-0.56-1.46-0.67-2.96,0.06-4.35
					c0.92-1.75,2.75-2.33,4.73-1.76c3.88,1.13,7.37,0.23,10.79-1.42c2.25-1.08,4.44-2.32,6.62-3.54c2.4-1.34,5.12-0.56,5.99,1.22
					c0.78,1.58,0.6,3.19,0.06,4.79c-0.14,0.44-0.26,0.88-0.43,1.46c1.46-1.97,2.74-3.87,4.2-5.64c1.12-1.36,2.38-2.65,3.74-3.79
					c1.8-1.51,4.76-0.96,6.15,0.91c0.8,1.07,1.65,2.13,2.59,3.08c2.46,2.46,4.98,4.85,7.48,7.27c1.51,1.47,1.68,4.37,0.27,6.05
					c-1.5,1.79-3.1,3.48-4.54,5.31c-1.11,1.39-2.05,2.93-3.23,4.64c3.86-0.08,4.54,2.8,5.52,5.15c0.73,1.77,0.93,3.76,1.33,5.49
					c1.03-1.94,3.04-2.34,5.35-2.63c4.01-0.51,7.64-2.22,11.09-4.33c2.11-1.28,4.26-2.54,6.47-3.63c2.05-1.01,4.11-0.58,6.11,0.48
					c1.48,0.77,3,1.54,4.57,2.03c2.65,0.83,5.34,1.53,8.05,2.12c2.07,0.45,4.2,0.65,6.16,0.93c0-2.78,0.19-5.63-0.05-8.44
					c-0.26-3.17-0.82-6.3-1.42-9.43c-0.31-1.6-1.05-3.11-1.48-4.69c-0.7-2.64,1.21-5.15,3.96-5.17c1.46-0.02,2.92,0.16,4.37,0.22
					c2.66,0.11,5.08-0.52,7.36-2c2.13-1.39,4.41-2.57,6.69-3.69c0.91-0.45,2.05-0.73,3.05-0.63c2.91,0.32,4.14,2.93,3.32,5.36
					c-2.54,7.6-2.54,15.45-2.41,23.33c0.06,3.74,0.01,7.49,0.01,11.23c0.19,0.06,0.38,0.12,0.57,0.18c2.08-2.88,4.17-5.77,6.27-8.63
					c1.15-1.58,2.18-3.26,3.53-4.66c1.22-1.26,4.33-0.82,5.58,0.8c2.15,2.82,4.41,5.58,6.9,8.12c1.86,1.91,4.05,3.51,6.22,5.07
					c1.05,0.75,1.69,1.66,1.98,2.7c0.17,0.58,0.23,1.2,0.19,1.86c-0.22,4.07-0.54,8.14-0.81,12.21c-0.08,1.3-0.17,2.59-0.28,4.06
					c4.27-1.43,8.27-0.68,12.29,0.73c1.44-5.79,2.86-11.54,4.34-17.51c-1.17,0.09-2.06,0.18-2.97,0.23
					c-2.58,0.13-5.17,0.37-7.76,0.33c-1.29-0.03-2.08-0.9-2.48-2.08c-0.05-0.17-0.11-0.35-0.15-0.53c-0.55-2.32,0.09-3.88,2.05-5.27
					c3.64-2.59,7.76-4.03,11.99-5.24c1.95-0.56,3.9-1.15,5.89-1.51c3.57-0.64,7.12-0.52,10.56,0.82c0.04,0.01,0.09,0,0.11,0.02
					c1.84,2.08,3.77,0.59,5.63,0.08c1.79-0.5,3.51-1.3,5.32-1.79c3.68-1,5.5,1.77,5.01,4.86c-0.54,3.45-1.62,6.82-1.44,10.39
					c0.22,4.55,1.03,9,2.26,13.37c1.1,3.93,2.52,7.73,4.69,11.24c0.63,1.01,0.84,2.4,0.87,3.62c0.12,5.15,1.36,10.03,3.16,14.8
					c0.99,2.63,1.87,5.32,3.05,7.87c1.3,2.84,2.77,5.62,4.38,8.29c1.65,2.75,3.61,5.3,5.31,8.03c1.08,1.74,0.95,4.97-1.33,6.14
					c-1.74,0.89-3.56,0.47-5.29-0.1c-2.48-0.81-4.92-1.75-7.34-2.7c-1.68-0.66-3.3-1.45-4.9-2.15c-1.35,0.94-2.78,1.95-4.23,2.95
					c-2.06,1.41-4.34,1.59-6.68,0.98c-1.67-0.44-2.69-2.76-2.2-4.82c0.4-1.67,0.95-3.32,1.16-5.02c0.34-2.78-0.36-5.49-1.06-8.17
					c-0.1-0.38-0.18-0.76-0.33-1.38c-0.28,0.42-0.53,0.68-0.67,1c-1.21,2.63-2.4,5.28-3.62,7.91c-0.72,1.54-1.88,2.53-3.62,2.64
					c-1.64,0.11-3.02-0.4-3.91-1.89c-1.45-2.42-2.92-4.84-4.36-7.27c-0.13-0.22-0.15-0.51-0.45-0.75c0,1.77-0.26,3.57,0.06,5.27
					c0.52,2.8,1.45,5.52,2.17,8.28c0.47,1.76,0.5,3.51-1.04,4.77c-1.64,1.35-3.53,1.14-5.36,0.38c-2.44-1.02-4.53-2.53-6.09-4.72
					c-0.19-0.26-0.44-0.46-0.62-0.63c-1.68,1.12-3.27,2.35-5.01,3.3c-3.18,1.75-6.6,2.6-10.22,1.83c-0.84-0.18-1.58-0.89-2.36-1.36
					c-0.06-0.19-0.13-0.38-0.2-0.57c-3.36,3.51-6.7,7.07-10.13,10.52c-0.82,0.83-1.9,1.57-3,1.93c-2.59,0.88-5.55-0.66-5.49-3.99
					c0.04-2.35,0.35-4.7,0.55-7.07c0.1-1.21,0.28-2.42,0.36-3.63c0.19-2.64,0.3-5.28,0.5-7.92c0.92-11.43,0.31-22.89,0.47-34.33
					c0.06-4.24,0.01-8.46,0.01-13.05c-2.66,1.85-4.96,3.44-7.38,5.12c0,0.95,0,2.01,0,3.08c0,4.29-0.02,8.57,0.01,12.86
					c0.06,5.63,0.11,11.25,0.27,16.87c0.07,2.13,0.4,4.24,0.72,6.33c0.11,0.71,0.54,1.38,0.9,2.03c1.25,2.25,1.79,4.58,0.95,7.12
					c-0.46,1.37-2.06,2.52-3.8,2.5c-3.21-0.02-6.41-0.15-9.61-0.19c-3.22-0.04-6.43,0.03-9.64-0.06c-1.83-0.05-3.66-0.34-4.66-2.19
					c-0.33-0.61-0.48-1.32-0.79-2.21c-2.85,0.36-5.77,0.66-8.67,1.13c-3.6,0.59-6.92,2-10.01,3.9c-1.16,0.71-2.19,1.66-3.23,2.55
					c-2.01,1.75-4.53,1.25-6.33-0.26c-1.74-1.45-3.51-2.93-5.46-4.07c-2.17-1.28-4.68-1.73-7.21-1.92
					c-0.55-0.04-1.08-0.15-1.77-0.25c-1.36,2.52-4.04,2.86-6.47,3.7c-2.43,0.85-4.81,1.83-7.21,2.74c-1.84,0.71-3.7,1.39-5.73,0.63
					c-0.4,2.08-0.97,3.93-2.73,5.15c-1.24,0.86-3.38,0.81-4.58,0.02c-2.88-1.93-5.77-3.82-8.62-5.77c-1.22-0.84-2.35-1.82-3.67-2.85
					c-1.3,0.51-2.84,1.19-4.42,1.71c-2.59,0.85-5.24,1.38-8,1.38c-2.02-0.01-3.67-0.77-4.42-2.57c-0.74-1.82-0.84-3.91,0.67-5.46
					c2.05-2.07,3.13-4.55,3.49-7.49c-0.95,1.03-2.04,1.96-2.83,3.11c-2.05,3.01-3.86,6.16-5.16,9.59c-1.2,3.21-5.71,3.38-7.5,0.91
					c-2.67-3.64-5.51-7.21-6.75-11.69c-0.11-0.4-0.25-0.79-0.39-1.23c-2.87,2.04-5.27,4.43-7.35,7.12c-1.49,1.94-3.03,3.84-4.31,5.9
					c-1.42,2.26-5.44,2.2-6.81,0.17c-2.52-3.75-5.61-7.05-8.89-10.13c-1.43-1.35-3.02-2.53-4.61-3.85c0,1.2,0.05,2.22-0.01,3.25
					c-0.14,2.1-1.36,3.5-2.99,4.7c-5.7,4.22-10.22,9.46-13.75,15.6c-1.88,3.27-5.67,3.39-7.65,0.28c-0.35-0.54-0.58-1.26-0.54-1.89
					c0.15-3.03,0.4-6.04,0.63-9.07c0.15-1.8,0.44-3.59,0.51-5.4c0.03-0.62,0.05-1.25,0.08-1.87c0.26-5.82,0.53-11.64,0.62-17.45
					c0.08-4.78-0.15-9.56-0.2-14.34c-0.04-4.39,0-8.79-0.04-13.18c-0.01-1.44-0.14-2.88-0.23-4.52c-2.18,1.26-4.2,2.43-5.93,3.44
					c0,4.85,0,9.36,0,13.86c0,3.25-0.03,6.51,0.02,9.76c0.04,3.44,0,6.89,0.28,10.33c0.23,2.86,0.4,5.74,2.22,8.29
					c0.8,1.11,1.06,2.4,0.99,3.71c-0.04,0.91-0.25,1.83-0.54,2.7c-0.55,1.65-2.07,2.37-3.86,2.39c-5.55,0.07-11.09,0.15-16.64,0.22
					c-1.03,0.01-2.09,0.12-3.09-0.07c-2.46-0.46-3.75-1.17-4.3-4.53c-0.2,3.45-2.19,4.7-5.13,4.74c-6.15,0.09-12.3-0.04-18.46,0.05
					c-3.25,0.05-5.35-1.98-5.58-5.4c-0.13-1.81,0.3-3.45,1.44-4.86c0.85-1.03,1.17-2.18,1.18-3.49c0.05-5.82,0.2-11.66,0.19-17.47
					c-0.02-7.02-0.2-14.03-0.25-21.05c-0.05-5.82-0.01-11.65-0.01-17.37c-0.6-0.39-0.91-0.63-1.26-0.79
					c-3.26-1.62-3.41-3.41-3.13-6.55c0.15-1.68,1.19-2.72,2.89-3.14c5.54-1.33,11.05-2.73,16.58-4.07
					C364.02,77.07,365.79,78.08,367.18,80.74z M350.28,90.84c0.06,5.93,0.15,11.87,0.24,17.8c0.09,6.69,0.21,13.37,0.27,20.05
					c0.05,5.93,0.1,11.88,0,17.81c-0.04,2.8-0.25,5.62-2.29,7.93c-0.79,0.89-0.64,2.05-0.04,3.09c6.97,0,13.89,0,20.85,0
					c0.13-1.18-0.02-2.17-0.72-3.16c-0.73-1.04-1.57-2.21-1.74-3.42c-0.51-3.42-0.87-6.9-0.97-10.37
					c-0.22-7.43-0.25-14.87-0.32-22.31c-0.04-3.6-0.01-7.21-0.01-10.93c4.06-2.24,8.14-4.5,12.22-6.77
					c1.32,1.01,1.69,2.34,1.72,3.82c0.07,5.06,0.19,10.11,0.21,15.16c0.05,9.78,0.05,19.56,0.06,29.33c0,1.96-0.54,3.76-1.83,5.29
					c-0.87,1.02-0.95,2.17-0.63,3.35c6.86,0,13.61,0,20.32,0c0.23-1.34,0.02-2.42-0.79-3.41c-1.19-1.46-1.76-3.21-1.9-5.05
					c-0.32-4.1-0.63-8.2-0.75-12.29c-0.18-6.25-0.21-12.5-0.28-18.76c-0.03-3.28-0.01-6.58-0.01-9.98
					c4.15-2.37,8.31-4.75,12.53-7.17c1.25,1.1,1.7,2.41,1.72,3.9c0.02,1.34,0,2.69,0.03,4.03c0.13,7.11,0.4,14.24,0.39,21.35
					c-0.01,7.64-0.16,15.3-0.48,22.94c-0.22,5.02-0.84,10.02-1.31,15.03c-0.15,1.58-0.54,3.14,0.16,4.91
					c4.33-7.69,10.02-13.89,16.76-18.72c-0.39-10.37-0.99-20.4-1.08-30.44c-0.08-10.05,0.37-20.1,0.58-30.46
					c-5.18-3.52-9.9-8.07-14.23-13.2c-4.2,6.13-8.63,11.77-14.17,16.93c0.11-1.42,0.19-2.5,0.25-3.4c-2.66-2.14-5.34-4.06-7.75-6.28
					c-2.43-2.25-4.58-4.79-6.97-7.31c-4.18,6.32-9.09,12.06-14.9,17.37c-0.07-0.6-0.14-0.93-0.15-1.26
					c-0.05-2.81-0.16-5.62-0.12-8.42c0.04-2.43-1-4.41-2.17-6.4c-5.67,1.38-11.22,2.74-16.73,4.09c-0.42,1-0.16,1.64,0.66,2.1
					c0.73,0.4,1.42,0.87,2.16,1.24C349.94,89.27,350.27,89.9,350.28,90.84z M640.13,126.26c-2.28-2.57-4.76-4.9-8.32-6.03
					c0.17,10.44,0.34,20.67,0.5,30.91C636.38,143.26,638.3,134.82,640.13,126.26z M512.13,80.31c-2.29-2.42-4.46-4.72-6.78-7.15
					c0,3.12,0,6,0,9.09C507.65,81.59,509.83,80.97,512.13,80.31z"/>
				<path class="st1" d="M300.29,154.68c0-4.15,0-8.14,0-12.13c-0.16-0.08-0.32-0.16-0.47-0.24c-3.01,2.91-6.01,5.81-9.07,8.76
					c2.48,1.67,4.66,3.13,6.83,4.58C298.54,155.31,299.5,154.97,300.29,154.68z M286.38,150.62c4.92-6.43,10.86-11.41,17.66-15.61
					c0.29,7.49-0.59,14.88,1.16,22.14c-2.99,1.01-5.75,1.95-8.26,2.8c-3.64-2.36-7.04-4.68-10.55-6.83
					c-0.38-0.23-0.74-0.46-1.12-0.67L286.38,150.62z"/>
				<path class="st0" d="M300.29,142.55c0,4,0,7.99,0,12.13c-0.79,0.29-1.75,0.63-2.71,0.96c-2.16-1.45-4.35-2.91-6.83-4.58
					c3.06-2.95,6.06-5.85,9.07-8.76C299.97,142.39,300.13,142.47,300.29,142.55z"/>
				<path class="st0" d="M295.04,88.13c0.06,1.81,0.75,3.19,2.59,3.78c0.94,0.3,1.57,0.87,1.72,1.88c0.23,1.52,0.61,3.03,0.65,4.54
					c0.14,4.48,0.17,8.96,0.2,13.44c0.03,3.56,0.01,7.13,0.01,10.74c-2.17,1.16-4.31,2.3-6.41,3.43c-0.51-0.48-0.94-0.88-1.35-1.27
					c0-10.11-0.04-20.15,0.02-30.19c0.02-2.65,0.18-5.31,0.33-7.97l2.23,0.12C295.01,87.12,295.02,87.63,295.04,88.13z"/>
				<path class="st0" d="M267.94,138.01c0-0.1,0-0.19,0.01-0.29l0.16,0.01c0,1.3,0.45,2.46,1.73,3.33c1.46,1,2.87,2.04,4.4,3.14
					c-3.13,1.22-4.2,4.1-6.31,6.32C267.92,146.35,267.85,142.17,267.94,138.01z"/>
				<path class="st0" d="M267.95,137.72c0.08-3.57,0.34-7.14,0.52-10.72c0.11-2.17-0.99-3.71-2.68-4.82
					c-3.52-2.34-7.11-4.59-10.78-6.96c1.33-0.69,2.77-1.44,4.19-2.2c1.77-0.94,3.52-1.88,5.27-2.87c1.53-0.85,1.96-2.36,1.84-3.93
					c-0.39-4.88-0.52-9.74,0.02-14.94c0.5,0.48,0.93,0.76,1.2,1.17c1.37,2.08,2.11,4.42,2.22,6.88c0.23,5.14,0.56,10.29,0.41,15.43
					c-0.2,6.36-0.83,12.72-1.33,19.07c-0.08,0.93-0.48,1.83-0.63,2.76c-0.06,0.39-0.1,0.77-0.1,1.14L267.95,137.72z"/>
				<path class="st1" d="M251.99,104.53c-5.75,3.26-11.47,6.52-17.32,9.84c0-6.68,0-13.15,0-19.78c5.73,1.6,11.35,3.17,17.03,4.74
					C251.79,101.07,251.89,102.76,251.99,104.53z M238.64,107.6c3.15-1.79,6.13-3.47,9.37-5.31c-3.35-0.92-6.33-1.74-9.37-2.57
					C238.64,102.37,238.64,104.9,238.64,107.6z"/>
				<path class="st0" d="M238.62,129.39c0-0.29,0.05-0.58,0.1-1.1c2.22,1.84,4.28,3.56,6.3,5.24c0,1.61,0,3.12,0,4.62
					c0.03,6.58,0.03,13.17-0.63,19.7l-2.83-0.3c0.22-1.92-0.21-4.09-1.11-4.97c-0.59-0.56-1.07-1.41-1.24-2.19
					c-0.34-1.5-0.56-3.04-0.57-4.56C238.58,140.35,238.62,134.87,238.62,129.39z"/>
				<path class="st0" d="M248.01,102.29c-3.24,1.84-6.22,3.52-9.37,5.31c0-2.7,0-5.23,0-7.88
					C241.68,100.56,244.65,101.37,248.01,102.29z"/>
				<path class="st2" d="M238.02,55.03c0.09-0.03,0.18-0.07,0.44-0.16c-0.16,0.21-0.22,0.27-0.28,0.34
					C238.13,55.15,238.07,55.09,238.02,55.03z"/>
				<path class="st2" d="M237.83,166.55c0.08-0.01,0.16-0.02,0.24-0.03c-0.05,0.04-0.09,0.09-0.14,0.13
					C237.9,166.62,237.86,166.58,237.83,166.55z"/>
				<path class="st2" d="M216.53,60.45c0.1,0.01,0.19,0.02,0.29,0.02c-0.07,0.09-0.13,0.17-0.2,0.26
					C216.59,60.64,216.56,60.54,216.53,60.45z"/>
				<path class="st0" d="M198.02,103.87c4.28,0.53,8.21-0.3,11.15-3.55c3.26-3.61,5.29-7.96,6.12-12.79
					c0.04-0.22,0.06-0.43,0.06-0.64h0.48c0,19.59,0,39.16,0,58.75c-0.01,0.9,0,1.84-0.14,2.73c-0.26,1.63-0.33,3.37-2.02,4.38
					c-0.18-1.07-0.48-2.07-0.5-3.08c-0.23-8.64-0.48-17.29-0.58-25.93c-0.05-4.24,0.24-8.48,0.3-12.72
					c0.04-3.15-1.76-4.39-4.36-4.21c-4.45,0.32-8.88,1-13.3,1.68c-2.47,0.39-4.88,1.07-7.45,1.65c0-3.14,0-6.27,0-9.5
					c0.18,0.08,0.35,0.15,0.51,0.22C191.42,102.23,194.58,103.45,198.02,103.87z"/>
				<path class="st0" d="M171.77,132.79c2.42-1.41,15.94-5.23,18.22-5.17c-0.17,4.41-0.34,8.81-0.52,13.43
					C183.62,137.86,178.29,134.26,171.77,132.79z"/>
				<path class="st0" d="M136.33,93.11c0.56,0.24,1.18,0.89,1.32,1.46c0.42,1.72,0.84,3.47,0.85,5.22
					c0.08,10.48,0.04,20.96,0.04,31.5c-2.03,1.22-4.1,2.47-6.22,3.75c-0.54-0.65-1.03-1.25-1.55-1.88c0-0.43,0-0.86,0-1.3
					c0.07-11.58,0.13-23.16,0.22-34.74c0.03-3.21,0.11-6.41,0.24-9.61l2.29,0.08c-0.03,0.78,0.06,1.57,0.15,2.35
					C133.87,91.5,134.84,92.49,136.33,93.11z"/>
				<path class="st0" d="M106.44,94.46c1.64,3.91,1.89,7.74,2.08,11.53c0.21,4.07,0.14,8.15,0.04,12.21
					c-0.17,6.41-0.38,12.83-0.74,19.23c-0.18,3.14-0.71,6.28-1.12,9.42c-0.06,0.48-0.08,0.92-0.04,1.35l-1.52,0.13
					c-0.04-0.38-0.07-0.74-0.09-1.12c-0.17-3.33-0.29-6.66-0.26-9.98c0.11-10.79,0.28-21.56,0.48-32.34
					c0.04-2.41,0.27-4.81,0.49-7.21C105.86,96.68,106.17,95.71,106.44,94.46z"/>
				<path class="st0" d="M82.9,135.92c-0.13,7.02-0.58,14.05-1.06,21.06l-2.39-0.16c0.1-1.56-0.13-3.09-1.18-4.42
					c-0.52-0.65-1.07-1.37-1.27-2.14c-0.33-1.33-0.53-2.72-0.53-4.09c-0.04-11.86-0.03-23.72-0.03-35.62
					c2.11-1.25,4.21-2.49,6.44-3.8c0,0.47,0,0.78,0,1.09C82.9,117.2,83.06,126.56,82.9,135.92z"/>
				<path class="st0" d="M48.16,110.49c2-1.19,4.05-2.4,6.22-3.68c0,0.53,0,0.9,0,1.29c0,12.15,0.04,24.28-0.04,36.42
					c-0.01,2.18-0.48,4.38-0.76,6.55c-0.04,0.3-0.19,0.68-0.41,0.82c-1.2,0.75-1.64,1.92-1.8,3.4c-0.97-1.94-2.1-3.63-2.68-5.51
					c-0.51-1.66-0.52-3.5-0.52-5.27C48.14,133.2,48.16,121.9,48.16,110.49z"/>
				<path class="st0" d="M40.02,71.87c3.86-0.82,7.15,0.24,9.5,3.61c0.25,0.36,0.52,0.7,0.85,1.15c0.3-0.52,0.6-0.95,0.84-1.42
					c1.7-3.37,4.6-5.05,8.19-5.2c2.67-0.11,5.19,0.82,6.99,3.11c1.75,2.23,3.54,4.45,5.4,6.6c0.82,0.94,1.87,1.72,2.9,2.65
					c0.29-0.38,0.59-0.71,0.84-1.09c1.77-2.62,3.61-5.19,5.27-7.88c1.46-2.38,6.1-3.8,8.49-3.28c2.76,0.6,4.81,1.92,6.46,4.19
					c1.56,2.13,3.34,4.09,5.14,6.26c1.61-1.6,3.63-2.16,5.7-2.44c4.65-0.64,9.02-2.17,13.35-3.9c1.05-0.43,2.05-1,3.1-1.46
					c0.78-0.35,1.59-0.67,2.4-0.92c3.16-1,5.94-0.15,8.36,1.91c1.35,1.16,2.34,2.66,2.5,4.57c5.33-0.27,10.21-1.68,14.69-4.38
					c1.64-0.98,3.25-1.93,5.18-2.15c3.25-0.4,5.93,0.56,8.17,2.98c1.49,1.61,1.69,3.67,2.2,5.51c5.33,0.2,9.63-2.39,14.03-4.68
					c1.83-0.95,3.5-2.21,5.38-3.03c3.09-1.35,6.26-1.35,9.17,0.52c3.76,2.41,7.87,3.78,12.24,4.46c1.09,0.17,2.18,0.29,3.48,0.46
					c-0.22-2.31-0.26-4.58-0.68-6.77c-0.64-3.27-1.67-6.48-2.29-9.75c-0.76-3.93,1.63-8.52,5.88-9.67c2.32-0.63,4.41-0.08,6.63,0.29
					c1.35,0.23,2.88,0.24,4.18-0.14c3.24-0.95,6.1-2.74,8.94-4.57c1.96-1.27,4.15-1.71,6.54-1.3c2.6,0.46,4.74,1.56,6.05,3.88
					c1.03,1.85,1.7,3.85,1.13,5.99c-0.35,1.36-0.83,2.69-1.39,3.97c-1.26,2.93-1.51,6.01-1.77,9.18c0.67,0.08,1.24,0.15,1.82,0.22
					c2.63,0.31,4.65,1.76,6.62,3.41c2.61,2.19,5.81,3.28,8.9,4.62c2.04,0.88,3.95,0.78,6.02,0.23c4.14-1.13,8.36-1.98,12.47-3.14
					c2.83-0.79,5.5-2.2,8.34-2.84c2.98-0.68,5.72,0.36,7.74,2.72c0.82,0.95,1.35,2.17,2.14,3.49c2.75-0.58,5.8-1.03,8.73-1.91
					c2.47-0.73,4.88-1.81,7.18-2.99c3.72-1.9,8.16-1.74,11.25,1.07c2,1.81,2.63,4.31,2.63,6.89c0.04,21.08,0.01,42.14,0.04,63.22
					c0,3.73,0.13,7.45,0.25,11.18c0.04,1.01,0.25,2.04,0.37,3.05c0.45,3.84-0.82,7.88-4.6,9.68c-1.45,0.7-3.17,1.03-4.8,1.11
					c-2.63,0.14-5.09,0.83-7.39,1.92c-3.28,1.56-6.51,3.26-9.57,5.19c-2.12,1.34-3.84,3.32-5.92,4.73c-1.88,1.27-4.05,1.75-6.4,1.28
					c-1.93-0.37-3.55-1.19-5.09-2.37c-3.18-2.45-6.61-4.5-10.4-5.86c-1.47-0.52-3.07-0.68-4.6-0.96c-2.01-0.36-4.1-0.48-6.04-1.07
					c-1.21-0.38-2.21-1.43-3.51-2.32c-1.76,1.87-3.77,3.76-5.5,5.87c-2.5,3.04-5.55,4.17-9.38,3.47c-2.64-0.48-4.91-1.49-6.38-3.85
					c-1.39-2.23-1.85-4.65-1.25-7.24c0.1-0.43,0.16-0.85,0.23-1.28c0.05-0.04,0.09-0.09,0.14-0.13c-0.08,0.01-0.16,0.02-0.24,0.03
					c-6.83,0.02-13.65,0.19-20.48-0.03c-2.97-0.09-5.98-0.84-7.83-3.75c-6.76,0.15-13.06,1.61-18.39,5.93
					c-1.9,1.55-4.11,2.5-6.37,2.51c-2.58,0-5.23-0.82-6.97-3.01c-1.96-2.46-4.63-3.25-7.52-3.73c-2.88-0.48-5.75-0.93-8.63-1.42
					c-0.45-0.08-0.87-0.29-1.45-0.49c-0.29,0.72-0.69,1.41-0.86,2.16c-1.06,4.65-6.29,6.78-10.42,5.95
					c-2.77-0.54-4.83-1.96-6.39-4.27c-1.43-2.13-2.92-4.21-4.5-6.48c-1.23,1.51-2.49,3.02-3.71,4.57c-1.44,1.82-2.53,3.99-4.66,5.13
					c-1.83,0.97-3.79,1.45-5.92,1.16c-3.18-0.44-5.43-2.13-7.14-4.74c-0.57-0.84-1.27-1.62-1.98-2.36c-1.53-1.59-3.1-3.14-4.55-4.61
					c-1.22,1.11-2.34,2.25-3.59,3.25c-1.8,1.42-3.88,2.52-5.47,4.13c-2.77,2.8-5.56,5.66-7.75,8.91c-2.06,3.05-4.56,4.95-8.1,5.24
					c-2.86,0.23-5.52-0.75-7.43-2.98c-2.42-2.8-3.27-6.06-2.3-9.73c0.05-0.19,0.08-0.39,0.08-0.58c0.01-0.2-0.01-0.4-0.03-0.72
					c-0.45,0-0.87,0-1.29,0c-5.52,0-11.03,0.02-16.55-0.02c-1.29-0.02-2.63-0.11-3.86-0.47c-1.75-0.5-3.39-0.39-5.11,0.06
					c-1.02,0.26-2.09,0.4-3.16,0.41c-5.94,0.04-11.91,0.1-17.85-0.02c-2.52-0.05-5.12-0.42-7.04-2.31c-0.95-0.93-1.8-2.1-2.32-3.33
					c-1.33-3.09-0.99-6.25,0.08-9.36c0.2-0.59,0.56-1.15,0.96-1.61c0.85-0.95,1.1-2.06,1.1-3.28c0.01-15,0.03-30,0.05-45.01
					c0-2.41,0-4.83,0-7.17c-4.18-3.24-4.81-7.43-3.52-12.15c0.77-2.85,2.67-4.7,5.48-5.51c3.41-0.98,6.87-1.8,10.27-2.75
					C35.15,73.39,37.53,72.41,40.02,71.87z M25.46,91.67c0,18.11,0,36.13-0.01,54.15c0,0.43,0,0.87-0.03,1.3
					c-0.14,1.74-0.16,3.56-1.41,4.91c-0.88,0.96-1.43,2.01-1.54,3.22c-0.34,3.81,0.6,6.3,5.06,6.31c6.23,0.02,12.46,0.03,18.69,0
					c2.41-0.01,4.41-0.77,4.83-3.51c0.02-0.14,0.15-0.26,0.26-0.43c0.71,3.6,2.4,3.85,4.62,3.9c6.26,0.14,12.54,0.16,18.8,0
					c2.93-0.08,4.27-0.84,4.64-4.07c0.03-0.22,0.05-0.43,0.06-0.63l2.39,0.16c0,0.06-0.01,0.11-0.01,0.17
					c-0.22,3.22-0.86,6.41-1.31,9.62c-0.19,1.4-0.47,2.81-0.49,4.21c-0.03,1.89,1.5,4,3,4.46c2.15,0.63,4.21,0.05,5.28-1.8
					c1.81-3.1,4.25-5.67,6.64-8.29c2.41-2.62,4.95-5.12,8.12-6.78c2.08-1.1,2.9-2.66,2.68-4.88c-0.18-1.77-0.45-3.56-0.6-5.34
					l1.52-0.13c0.11,1.13,0.62,2.1,1.65,2.91c1.6,1.23,3.28,2.4,4.65,3.84c2.99,3.1,5.83,6.31,8.66,9.53
					c1.52,1.72,4.79,1.97,6.24,0.28c0.84-0.98,1.6-2.04,2.34-3.11c2.7-3.87,6.02-7.1,9.82-10.19c0.15,0.56,0.2,0.9,0.34,1.21
					c1.7,3.98,3.7,7.78,6.43,11.17c0.78,0.97,1.68,1.74,2.95,2c2.05,0.43,4.18-0.67,4.82-2.28c0.93-2.31,1.92-4.62,3.15-6.8
					c0.89-1.58,2.17-2.94,3.45-4.62c0,1.12-0.05,1.94,0.01,2.75c0.18,2.38,1.19,3.5,3.52,3.85c2.38,0.37,4.79,0.58,7.16,0.99
					c3.61,0.62,6.98,1.79,9.4,4.83c1.54,1.94,4.31,2.21,6.29,0.55c5.92-4.98,12.98-6.82,20.51-7.27c1.62-0.1,3.25,0.01,4.48-1.26
					c0.3,1.06,0.44,2.1,0.87,3c0.86,1.73,2.62,1.94,4.28,1.96c6.35,0.05,12.7,0.05,19.05-0.01c1.02-0.02,2.09-0.34,3.05-0.74
					c1.04-0.45,1.61-1.78,1.79-3.24l2.83,0.3c-0.38,3.8-0.98,7.59-1.93,11.35c-0.48,1.91,0.6,3.84,2.18,4.54
					c2.57,1.13,4.81,0.35,5.96-1.05c1.7-2.05,3.56-3.98,5.49-5.83c1.73-1.67,3.61-3.18,5.46-4.73c0.77-0.65,1.64-1.22,2.7-1.99
					c-0.16,0.79-0.25,1.25-0.34,1.71c-0.28,1.48-0.58,2.93,0.33,4.34c1.05,1.64,2.77,1.79,4.38,1.82c4.28,0.1,8.25,1.28,11.93,3.3
					c2.85,1.57,5.49,3.51,8.21,5.32c1.9,1.26,4.05,1.1,5.7-0.48c3.24-3.08,6.9-5.61,10.88-7.65c4.61-2.35,9.39-4.18,14.65-4.49
					c2.87-0.16,3.85-2.15,3.67-4.61c-0.09-1.33-0.4-2.66-0.45-3.99c-0.13-4.13-0.25-8.25-0.26-12.37
					c-0.03-17.34-0.01-34.68-0.01-52.02c0-3.49,0.01-6.98-0.01-10.48c-0.01-3.84-3.74-4.7-6.04-3.42
					c-5.22,2.91-10.77,4.65-16.72,5.24c-1.07,0.11-2.21,0.34-3.17,0.82c-1.49,0.77-1.88,2.05-1.96,3.46l-2.23-0.12
					c0.04-0.74,0.08-1.48,0.12-2.22c0.06-1.38,0.27-2.77,0.22-4.15c-0.1-2.78-2.18-4.36-4.82-3.56c-1.86,0.56-3.59,1.55-5.45,2.08
					c-4.26,1.23-8.54,2.33-12.84,3.4c-1.71,0.43-3.57,0.37-4.7,1.82c-0.67-0.23-1.21-0.42-1.75-0.62c-2.68-0.97-5.38-1.88-8.03-2.94
					c-3.11-1.23-5.76-3.21-8.3-5.34c-1.61-1.35-4.87-0.99-6.05,1.01c-0.69,1.18-1.58,2.26-2.57,3.66c0-0.6-0.01-0.82,0-1.05
					c0.32-4.92,0.53-9.85,1.02-14.75c0.26-2.56,0.92-5.06,2.35-7.33c0.74-1.18,0.62-2.64-0.14-3.95c-1.09-1.91-4.09-2.15-5.65-1.06
					c-3,2.09-6.13,3.95-9.64,5.04c-2.76,0.87-5.56,1.34-8.42,0.13c-1.48-0.64-3.09-0.55-4.33,0.63c-1.22,1.16-1.47,2.65-0.95,4.25
					c0.33,1,0.69,1.99,0.98,3.01c1.67,5.95,1.98,12.06,1.98,18.2c0,1.37,0,2.75,0,4.12h-0.48c0-1.77-1.27-3.22-3.1-3.6
					c-1.59-0.32-3.21-0.49-4.8-0.72c-5.37-0.8-10.53-2.14-15.07-5.3c-1.28-0.88-2.83-0.95-4.18-0.26c-2.62,1.34-5.09,2.95-7.71,4.28
					c-3.87,1.98-7.79,3.85-12.3,3.91c-2.47,0.03-4.16,1.9-3.61,4.8c1,5.34,1.77,10.72,1.8,16.13c0.04,7.29-0.3,14.59-0.5,21.87
					c-0.05,1.89,0.27,3.59,2.08,4.71c-2.67,1.73-3.15,4.71-4.55,7.51c-0.4-1.04-0.91-1.84-0.98-2.68
					c-0.38-4.65-0.88-9.31-0.92-13.97c-0.12-14.17-0.05-28.34-0.03-42.51c0-1.77-0.59-3.22-2.18-4.02c-1.5-0.74-3.02-0.58-4.46,0.43
					c-1.09,0.75-2.25,1.42-3.44,2c-4.36,2.13-8.97,3.31-13.78,3.78c-1.45,0.14-2.67,0.63-3.43,1.94c-0.45,0.77-0.62,1.58-0.66,2.39
					l-2.29-0.08c0-0.12,0.01-0.25,0.01-0.37c0.08-2.02,0.28-4.04,0.44-6.05c0.27-3.31-2.46-5.58-5.44-4.43
					c-1.27,0.5-2.39,1.34-3.65,1.87c-5,2.1-10.14,3.76-15.54,4.51c-2.55,0.35-3.8,1.69-3.98,4.29c-0.03,0.41-0.07,0.81-0.13,1.59
					c-2.1-1.83-4.08-3.29-5.74-5.05c-2.05-2.17-4.03-4.47-5.71-6.94c-1.83-2.7-6.41-2.67-7.33,0.67c-0.06,0.21-0.23,0.41-0.36,0.6
					c-1.6,2.29-3.14,4.62-4.8,6.87c-1.11,1.51-2.39,2.9-3.71,4.47c-2.11-1.82-4.08-3.51-6.04-5.21c-0.27-0.24-0.54-0.48-0.76-0.75
					c-1.86-2.23-3.89-4.36-5.52-6.76c-1.88-2.75-5.61-2.09-7.1,0.27c-1.84,2.89-3.78,5.7-5.72,8.52c-0.56,0.8-1.22,1.53-1.85,2.29
					c0.27-3.44-0.96-6.3-2.58-9.07c-0.99-1.72-2.3-2.6-4.26-2.19c-2.08,0.45-4.08,1.29-6.13,1.86c-3.44,0.94-6.91,1.83-10.37,2.69
					c-2.38,0.59-3.38,1.56-3.6,4.02c-0.26,2.83,0.37,4.34,2.65,5.55C24.53,91.01,25,91.37,25.46,91.67z"/>
				<path class="st1" d="M274,103.21c0.3,11.57,0.16,23.13-1.94,34.69c5.35,3.39,10.03,7.71,14.32,12.72l-1.1,1.83
					c-3.2-1.89-6.51-3.58-10.17-4.48c-4.27,4.59-6.38,10.04-7.55,16.13c9.32-0.07,16.81,4.19,23.75,9.6
					c8.18-7.41,17.35-12.57,28.21-13.57c-0.2-5.42-0.53-10.8-0.55-16.17c-0.06-20.72-0.02-41.44-0.03-62.16
					c0-0.4-0.03-0.8-0.05-1.34c-6.25,3.64-12.9,5.28-19.81,5.97c0,0.69,0,1.31,0,1.94c2.52,0.71,3.82,2.47,4.26,4.86
					c0.33,1.79,0.6,3.61,0.63,5.42c0.11,6.47,0.1,12.94,0.13,19.4c0.01,2.26,0,4.52,0,6.8c-3.65,1.99-7.25,3.97-10.88,5.95
					c-1.65-1.58-3.21-3.09-4.79-4.58c0.33-15.31-0.52-30.56,0.77-45.85c-6.67,3.07-13.59,4.78-20.74,5.95
					c-0.04,0.56-0.07,1.06-0.09,1.56c2.46,1.81,3.95,4.23,4.52,7.1C273.43,97.69,273.93,100.45,274,103.21z M266.31,106.22
					c0.12,1.57-0.32,3.08-1.84,3.93c-1.75,0.98-3.5,1.92-5.27,2.87c-1.42,0.76-2.86,1.51-4.19,2.2c3.67,2.36,7.25,4.61,10.78,6.96
					c1.69,1.11,2.79,2.65,2.68,4.82c-0.18,3.57-0.44,7.14-0.52,10.72c-0.01,0.1-0.01,0.19-0.01,0.29
					c-0.09,4.17-0.02,8.34-0.02,12.51c2.11-2.22,3.18-5.1,6.31-6.32c-1.53-1.09-2.94-2.14-4.4-3.14c-1.28-0.87-1.73-2.03-1.73-3.33
					c0-0.37,0.04-0.75,0.1-1.14c0.15-0.93,0.55-1.83,0.63-2.76c0.5-6.35,1.13-12.71,1.33-19.07c0.16-5.14-0.18-10.29-0.41-15.43
					c-0.11-2.46-0.85-4.79-2.22-6.88c-0.27-0.41-0.7-0.69-1.2-1.17C265.8,96.48,265.93,101.34,266.31,106.22z M234.61,122.03
					c0-0.21,0.04-0.42,0.07-0.7c0.26,0.1,0.41,0.15,0.54,0.23c4.07,2.34,7.79,5.15,11.4,8.15c1.81,1.49,2.45,3.1,2.44,5.47
					c-0.03,11.7-0.04,23.38-2.76,34.93c0.31,0.16,0.61,0.32,0.64,0.33c2.9-2.85,5.55-5.69,8.45-8.23c2.91-2.55,6.07-4.82,9.19-7.27
					c-0.98-9.44-0.97-19,0.04-28.57c-5.68-4.7-11.96-8.15-19.08-10.05c0.01-0.16,0.02-0.31,0.03-0.47c5.64-3,11.26-5.99,16.89-8.98
					c-0.58-6.62-0.69-13.13,0.62-19.68c-6.71-1.99-13.14-4.39-18.36-9.29c-3.11,4.28-6.16,8.38-9.97,11.95
					c0-5.55-0.12-10.93,0.03-16.31c0.17-6.27,0.72-12.5,3.4-18.32c0.06-0.07,0.12-0.13,0.28-0.34c-0.26,0.09-0.35,0.13-0.44,0.16
					c-3.23,2.12-6.57,4.07-10.29,5.23c-3.61,1.13-7.24,1.58-10.9,0.21c-0.1,0-0.19-0.01-0.29-0.02c0.03,0.09,0.06,0.19,0.09,0.28
					c0.33,0.93,0.67,1.86,0.96,2.81c1.88,6.26,2.17,12.7,2.17,19.18c0,21,0,41.98-0.01,62.98c0,1.34-0.1,2.7-0.29,4.03
					c-0.32,2.14-0.82,4.23-2.72,5.56c0,0.79,0,1.53,0,2.26c7.01,0,13.97,0,20.93,0c0-0.81,0-1.53,0-2.24
					c-0.11,0.05-0.22,0.1-0.33,0.15c-0.63-1.24-1.5-2.42-1.83-3.74c-0.5-1.98-0.81-4.07-0.84-6.1
					C234.57,137.75,234.62,129.89,234.61,122.03z M171.77,132.79c6.52,1.48,11.85,5.07,17.7,8.27c0.18-4.62,0.35-9.03,0.52-13.43
					C187.71,127.56,174.19,131.38,171.77,132.79z M165,154.91c7.28,0.87,14.64,1.12,19.59,7.5c7.28-6.16,15.92-8.18,25-8.63
					c-1.2-14.4-1.07-28.73-0.63-43.19c-8.47,0.93-16.88,1.53-24.77,5.37c-0.52-7.49-0.63-14.82-0.12-22.36
					c0.39,0.28,0.59,0.43,0.8,0.58c3.66,2.66,7.65,4.64,12.1,5.61c5.38,1.16,8.68-0.19,11.36-4.99c1.34-2.39,2.25-5.02,3.43-7.72
					c-7.81-0.94-15.21-2.25-21.64-6.57c-6.97,3.72-13.54,8.29-21.88,8.62c2.97,13.24,2.15,26.55,1.5,40
					c7.88-2.88,15.75-5,23.98-6.18c0.32,8.29-0.1,16.37-1.29,24.57c-0.52-0.31-0.88-0.54-1.26-0.75c-4.44-2.52-8.85-5.1-13.34-7.53
					c-2.57-1.4-5.28-2.54-8.39-2.85C166.45,142.21,165.5,148.48,165,154.91z M112.45,106.41c0.15,7.6,0.11,15.22-0.13,22.83
					c-0.2,6.2-0.55,12.42-1.84,18.67c5.49,3.92,10.19,8.77,14.44,14.35c4.7-7.29,10.86-12.9,17.71-17.5
					c0.87,3.09,1.56,6.21,2.65,9.2c1.11,3.05,3.13,5.61,5.28,8.13c2.83-6.54,6.54-12.21,12.05-16.64c0-0.53,0-1.07,0-1.6
					c-2.55-1.35-3.21-2.21-3.89-5.07c-0.12-0.5-0.28-1-0.31-1.51c-0.33-4.62-0.86-9.24-0.9-13.86c-0.12-13.85-0.04-27.7-0.04-41.56
					c0-0.41,0-0.81,0-1.4c-6.19,4.09-12.88,5.95-19.93,6.75c0,0.76,0,1.38,0,2.12c2.78,0.94,4.01,3.07,4.35,5.68
					c0.37,2.91,0.64,5.83,0.68,8.76c0.08,9.52,0.03,19.04,0.03,28.57c0,0.35,0,0.71,0,1.06c-3.63,2.23-7.2,4.42-10.85,6.66
					c-1.64-1.75-3.23-3.44-4.85-5.17c0.28-18.14-0.48-36.28,0.79-54.47c-6.61,3.38-13.51,5.36-20.7,6.65c0,0.62,0,1.2,0,1.87
					c2.28,1.9,3.61,4.47,4.16,7.36C111.76,99.63,112.38,103.03,112.45,106.41z M51.37,155.29c0.16-1.48,0.6-2.65,1.8-3.4
					c0.22-0.14,0.37-0.53,0.41-0.82c0.29-2.17,0.75-4.37,0.76-6.55c0.08-12.14,0.04-24.27,0.04-36.42c0-0.39,0-0.76,0-1.29
					c-2.17,1.28-4.22,2.49-6.22,3.68c0,11.41-0.02,22.71,0.02,34.02c0,1.77,0.01,3.61,0.52,5.27
					C49.27,151.66,50.4,153.35,51.37,155.29z M45.73,78.83c1.62,2.77,2.85,5.63,2.58,9.07c0.63-0.76,1.29-1.49,1.85-2.29
					c1.94-2.83,3.88-5.64,5.72-8.52c1.5-2.36,5.23-3.02,7.1-0.27c1.63,2.4,3.66,4.52,5.52,6.76c0.23,0.28,0.5,0.52,0.76,0.75
					c1.96,1.7,3.93,3.39,6.04,5.21c1.32-1.58,2.6-2.97,3.71-4.47c1.67-2.24,3.21-4.57,4.8-6.87c0.13-0.19,0.3-0.39,0.36-0.6
					c0.92-3.34,5.51-3.37,7.33-0.67c1.68,2.47,3.65,4.76,5.71,6.94c1.66,1.76,3.63,3.23,5.74,5.05c0.06-0.77,0.1-1.18,0.13-1.59
					c0.18-2.6,1.43-3.94,3.98-4.29c5.4-0.75,10.54-2.4,15.54-4.51c1.26-0.53,2.38-1.37,3.65-1.87c2.98-1.15,5.71,1.11,5.44,4.43
					c-0.16,2.01-0.36,4.03-0.44,6.05c0,0.12-0.01,0.25-0.01,0.37c-0.13,3.2-0.21,6.4-0.24,9.61c-0.09,11.58-0.15,23.16-0.22,34.74
					c0,0.44,0,0.88,0,1.3c0.52,0.63,1.01,1.23,1.55,1.88c2.12-1.28,4.19-2.53,6.22-3.75c0-10.55,0.04-21.03-0.04-31.5
					c-0.01-1.75-0.44-3.5-0.85-5.22c-0.14-0.57-0.76-1.22-1.32-1.46c-1.49-0.62-2.46-1.61-2.66-3.17c-0.09-0.78-0.18-1.57-0.15-2.35
					c0.04-0.81,0.21-1.62,0.66-2.39c0.76-1.31,1.98-1.81,3.43-1.94c4.81-0.47,9.43-1.65,13.78-3.78c1.19-0.59,2.35-1.25,3.44-2
					c1.44-1,2.96-1.17,4.46-0.43c1.6,0.79,2.18,2.25,2.18,4.02c-0.02,14.17-0.09,28.34,0.03,42.51c0.04,4.66,0.55,9.32,0.92,13.97
					c0.07,0.83,0.59,1.64,0.98,2.68c1.41-2.8,1.89-5.78,4.55-7.51c-1.82-1.12-2.13-2.83-2.08-4.71c0.2-7.28,0.54-14.58,0.5-21.87
					c-0.03-5.42-0.79-10.8-1.8-16.13c-0.55-2.9,1.14-4.77,3.61-4.8c4.52-0.06,8.43-1.93,12.3-3.91c2.62-1.33,5.09-2.94,7.71-4.28
					c1.35-0.69,2.9-0.63,4.18,0.26c4.54,3.16,9.7,4.49,15.07,5.3c1.6,0.24,3.22,0.41,4.8,0.72c1.83,0.38,3.1,1.84,3.1,3.6
					c0,0.22-0.02,0.43-0.06,0.64c-0.83,4.83-2.86,9.18-6.12,12.79c-2.95,3.25-6.88,4.08-11.15,3.55c-3.43-0.43-6.6-1.65-9.72-3.03
					c-0.16-0.07-0.33-0.14-0.51-0.22c0,3.22,0,6.36,0,9.5c2.57-0.58,4.98-1.26,7.45-1.65c4.42-0.68,8.85-1.36,13.3-1.68
					c2.6-0.18,4.4,1.06,4.36,4.21c-0.06,4.24-0.35,8.48-0.3,12.72c0.1,8.64,0.35,17.29,0.58,25.93c0.02,1.01,0.32,2.01,0.5,3.08
					c1.7-1,1.77-2.75,2.02-4.38c0.14-0.89,0.13-1.83,0.14-2.73c0-19.59,0-39.16,0-58.75c0-1.37,0-2.75,0-4.12
					c0-6.14-0.31-12.24-1.98-18.2c-0.29-1.01-0.65-2-0.98-3.01c-0.52-1.6-0.27-3.09,0.95-4.25c1.24-1.17,2.85-1.26,4.33-0.63
					c2.86,1.21,5.66,0.74,8.42-0.13c3.51-1.09,6.65-2.95,9.64-5.04c1.56-1.09,4.55-0.84,5.65,1.06c0.75,1.31,0.88,2.77,0.14,3.95
					c-1.43,2.27-2.09,4.77-2.35,7.33c-0.5,4.9-0.7,9.83-1.02,14.75c-0.01,0.23,0,0.46,0,1.05c0.99-1.4,1.88-2.48,2.57-3.66
					c1.18-2,4.44-2.36,6.05-1.01c2.55,2.13,5.2,4.11,8.3,5.34c2.65,1.05,5.35,1.96,8.03,2.94c0.54,0.2,1.08,0.39,1.75,0.62
					c1.13-1.45,3-1.39,4.7-1.82c4.3-1.07,8.58-2.17,12.84-3.4c1.86-0.54,3.59-1.53,5.45-2.08c2.64-0.79,4.72,0.78,4.82,3.56
					c0.05,1.38-0.16,2.77-0.22,4.15c-0.04,0.74-0.08,1.48-0.12,2.22c-0.15,2.66-0.31,5.32-0.33,7.97
					c-0.06,10.04-0.02,20.08-0.02,30.19c0.41,0.39,0.84,0.79,1.35,1.27c2.1-1.13,4.24-2.27,6.41-3.43c0-3.6,0.02-7.17-0.01-10.74
					c-0.03-4.48-0.06-8.96-0.2-13.44c-0.05-1.52-0.43-3.03-0.65-4.54c-0.15-1-0.77-1.58-1.72-1.88c-1.84-0.6-2.53-1.97-2.59-3.78
					c-0.02-0.51-0.03-1.01-0.01-1.5c0.08-1.41,0.47-2.69,1.96-3.46c0.95-0.49,2.09-0.71,3.17-0.82c5.94-0.58,11.5-2.33,16.72-5.24
					c2.3-1.28,6.03-0.42,6.04,3.42c0.02,3.49,0.01,6.99,0.01,10.48c0,17.34-0.02,34.68,0.01,52.02c0.01,4.13,0.13,8.25,0.26,12.37
					c0.05,1.33,0.36,2.66,0.45,3.99c0.18,2.46-0.8,4.46-3.67,4.61c-5.26,0.31-10.03,2.13-14.65,4.49
					c-3.98,2.04-7.63,4.57-10.88,7.65c-1.65,1.58-3.8,1.74-5.7,0.48c-2.72-1.81-5.36-3.75-8.21-5.32c-3.68-2.02-7.65-3.2-11.93-3.3
					c-1.61-0.03-3.32-0.18-4.38-1.82c-0.91-1.41-0.6-2.86-0.33-4.34c0.09-0.46,0.18-0.91,0.34-1.71c-1.06,0.77-1.93,1.34-2.7,1.99
					c-1.85,1.55-3.73,3.06-5.46,4.73c-1.92,1.85-3.79,3.78-5.49,5.83c-1.15,1.4-3.39,2.18-5.96,1.05c-1.59-0.7-2.66-2.64-2.18-4.54
					c0.95-3.76,1.56-7.55,1.93-11.35c0.66-6.53,0.66-13.12,0.63-19.7c0-1.51,0-3.02,0-4.62c-2.02-1.68-4.08-3.39-6.3-5.24
					c-0.05,0.52-0.1,0.81-0.1,1.1c0,5.48-0.04,10.96,0.03,16.43c0.01,1.53,0.23,3.07,0.57,4.56c0.17,0.79,0.66,1.63,1.24,2.19
					c0.9,0.88,1.33,3.06,1.11,4.97c-0.18,1.47-0.74,2.8-1.79,3.24c-0.95,0.41-2.02,0.72-3.05,0.74c-6.35,0.06-12.7,0.06-19.05,0.01
					c-1.66-0.02-3.41-0.24-4.28-1.96c-0.44-0.89-0.58-1.93-0.87-3c-1.23,1.27-2.86,1.16-4.48,1.26c-7.53,0.46-14.59,2.29-20.51,7.27
					c-1.98,1.67-4.75,1.4-6.29-0.55c-2.42-3.05-5.79-4.21-9.4-4.83c-2.37-0.42-4.78-0.63-7.16-0.99c-2.33-0.35-3.34-1.47-3.52-3.85
					c-0.06-0.8-0.01-1.63-0.01-2.75c-1.28,1.69-2.56,3.05-3.45,4.62c-1.22,2.17-2.21,4.49-3.15,6.8c-0.65,1.61-2.77,2.71-4.82,2.28
					c-1.27-0.27-2.16-1.03-2.95-2c-2.73-3.39-4.73-7.19-6.43-11.17c-0.14-0.31-0.19-0.66-0.34-1.21c-3.8,3.09-7.12,6.32-9.82,10.19
					c-0.74,1.06-1.5,2.12-2.34,3.11c-1.45,1.69-4.72,1.44-6.24-0.28c-2.83-3.22-5.68-6.44-8.66-9.53c-1.38-1.44-3.06-2.61-4.65-3.84
					c-1.03-0.8-1.54-1.78-1.65-2.91c-0.04-0.43-0.02-0.87,0.04-1.35c0.41-3.14,0.94-6.27,1.12-9.42c0.37-6.4,0.58-12.82,0.74-19.23
					c0.1-4.07,0.17-8.15-0.04-12.21c-0.2-3.79-0.45-7.62-2.08-11.53c-0.27,1.24-0.58,2.21-0.68,3.22c-0.22,2.4-0.45,4.8-0.49,7.21
					c-0.2,10.78-0.37,21.55-0.48,32.34c-0.03,3.32,0.09,6.66,0.26,9.98c0.02,0.38,0.05,0.74,0.09,1.12c0.15,1.78,0.42,3.56,0.6,5.34
					c0.22,2.22-0.6,3.78-2.68,4.88c-3.17,1.66-5.71,4.16-8.12,6.78c-2.39,2.62-4.83,5.19-6.64,8.29c-1.07,1.85-3.13,2.43-5.28,1.8
					c-1.5-0.46-3.03-2.57-3-4.46c0.02-1.4,0.3-2.81,0.49-4.21c0.45-3.21,1.09-6.4,1.31-9.62c0-0.06,0.01-0.11,0.01-0.17
					c0.49-7.01,0.93-14.03,1.06-21.06c0.16-9.36,0-18.72-0.02-28.09c0-0.31,0-0.63,0-1.09c-2.23,1.31-4.33,2.55-6.44,3.8
					c0,11.9-0.01,23.76,0.03,35.62c0,1.37,0.2,2.76,0.53,4.09c0.2,0.77,0.75,1.5,1.27,2.14c1.05,1.34,1.28,2.87,1.18,4.42
					c-0.01,0.21-0.03,0.42-0.06,0.63c-0.38,3.23-1.72,3.99-4.64,4.07c-6.26,0.16-12.54,0.14-18.8,0c-2.22-0.05-3.91-0.3-4.62-3.9
					c-0.11,0.17-0.24,0.29-0.26,0.43c-0.43,2.74-2.42,3.5-4.83,3.51c-6.23,0.03-12.46,0.02-18.69,0c-4.46-0.01-5.4-2.5-5.06-6.31
					c0.11-1.21,0.66-2.26,1.54-3.22c1.25-1.35,1.27-3.18,1.41-4.91c0.03-0.43,0.03-0.87,0.03-1.3c0.01-18.02,0.01-36.04,0.01-54.15
					c-0.46-0.3-0.92-0.66-1.44-0.92c-2.28-1.21-2.91-2.72-2.65-5.55c0.22-2.46,1.22-3.42,3.6-4.02c3.46-0.86,6.93-1.75,10.37-2.69
					c2.05-0.57,4.05-1.41,6.13-1.86C43.43,76.23,44.73,77.11,45.73,78.83z M25.26,86.95c1.42,0.87,2.8,1.73,4.17,2.57
					c0,6.5,0.01,12.93,0,19.36c-0.03,12.65-0.05,25.31-0.13,37.97c-0.02,3.12-0.46,6.19-2.96,8.49c0,0.74,0,1.47,0,2.21
					c7.03,0,13.98,0,20.99,0c0-0.77,0-1.49,0-2.27c-1.4-0.89-2.07-2.34-2.32-3.93c-0.35-2.22-0.7-4.47-0.71-6.72
					c-0.07-11.71-0.04-23.42-0.04-35.12c0-0.4,0-0.78,0-1.25c4.18-2.53,8.33-5.04,12.52-7.58c0.98,1.2,1.61,2.35,1.59,3.99
					c-0.1,7.62-0.04,15.24-0.05,22.86c-0.01,6.46,0.02,12.93-0.1,19.4c-0.06,3.07-0.44,6.12-2.93,8.35c0,0.77,0,1.52,0,2.26
					c6.77,0,13.49,0,20.2,0c0-0.81,0-1.53,0-2.31c-1.46-0.94-2.05-2.48-2.33-4.09c-0.34-1.99-0.61-4.01-0.62-6.01
					c-0.06-11.27-0.03-22.54-0.03-33.82c0-1.02,0-2.04,0-3.01c4.33-2.59,8.5-5.09,12.71-7.61c0.89,1.11,1.59,2.12,1.54,3.64
					c-0.11,3.56-0.04,7.13-0.03,10.71c0.01,8.37,0.21,16.74,0.02,25.1c-0.23,10.31-0.96,20.58-2.84,30.78
					c0.2,0.27,0.41,0.53,0.55,0.72c2.66-3.14,5.21-6.33,7.95-9.35c2.75-3.03,5.81-5.73,9.21-7.51c-0.96-20.75-1.25-41.21,0.62-61.79
					c-5.63-3.58-10.19-8.53-14.2-14.21c-4.24,6.75-8.93,12.86-14.6,18.55c0.23-1.55,0.42-2.82,0.62-4.15
					c-5.8-3.74-10.43-8.67-14.47-14.42c-4.33,7.13-9.37,13.37-15.33,19.25c0-3.45-0.18-6.63,0.06-9.77c0.22-2.95-0.97-5.36-2.09-7.8
					c-5.69,1.61-11.3,3.21-16.96,4.82C25.26,85.79,25.26,86.38,25.26,86.95z"/>
			</g>
		</g>
	</g>
</g>
</svg>
