<?xml version="1.0" encoding="utf-8"?>
<!-- Generator: Adobe Illustrator 24.1.2, SVG Export Plug-In . SVG Version: 6.00 Build 0)  -->
<svg version="1.1" xmlns="http://www.w3.org/2000/svg" xmlns:xlink="http://www.w3.org/1999/xlink" x="0px" y="0px"
	 viewBox="0 0 576 475.2" style="enable-background:new 0 0 576 475.2;" xml:space="preserve">
<style type="text/css">
	.st0{fill:#FFFFFF;}
</style>
<g id="Layer_1">
</g>
<g id="Layer_2">
	<g>
		<g id="XMLID_1_">
			<g>
				<path class="st0" d="M534.01,368.65c0.03,0.02,0.06,0.05,0.08,0.08c0,0.02-0.04,0.07-0.07,0.11
					C534.02,368.78,534.02,368.71,534.01,368.65z"/>
				<path class="st0" d="M534.01,368.57c0,0.03,0,0.05,0,0.08c-0.02-0.02-0.04-0.03-0.06-0.04L534.01,368.57z"/>
				<path class="st0" d="M486.64,426.34c-5.59-0.02-9.99-4.38-9.94-9.84c0.06-5.45,4.54-9.7,10.14-9.63
					c5.49,0.07,9.81,4.35,9.82,9.71C496.67,422.03,492.23,426.36,486.64,426.34z"/>
				<path class="st0" d="M475.13,364.59c-0.53,0.16-1.14,0.06-1.72,0.06c3.03-2.61,5.66-5.51,7.76-8.78
					c1.27-1.98,2.34-4.09,3.2-6.36c1.47-3.88,2.04-7.86,1.15-11.99c-0.43-1.98-1.16-3.81-2.24-5.51c-0.39-0.6-0.79-1.19-1.15-1.75
					c0.92-1.79,1.85-3.46,2.65-5.19c1.01-2.19,1.65-4.48,1.74-6.93c0.14-3.44-0.94-6.43-3.11-9.07c-1.43-1.74-3.11-3.21-4.92-4.53
					c-0.26-0.18-0.53-0.37-0.79-0.55c-0.56-0.39-1.11-0.81-2.05-1.5c2.03-0.28,3.59-0.17,5.12,0.01c3.57,0.42,7.12,1.01,10.7,1.35
					c3.17,0.29,6.37,0.34,9.56,0.5c0.35,0.01,0.71,0,1.48,0c-0.99,0.59-1.59,0.94-2.18,1.31c-1.03,0.66-1.82,1.54-2.37,2.64
					c-0.43,0.84-0.48,1.59-0.04,2.49c6.1,12.44,12.92,24.44,21.65,35.26c0.28,0.35,0.61,0.66,0.96,1.03
					c0.18-0.26,0.32-0.37,0.32-0.48c-0.27-10.71-0.54-21.41-0.81-32.12c-0.02-0.88-0.04-1.76-0.01-2.63c0.12-3-1.02-5.28-3.74-6.68
					c-0.33-0.17-0.63-0.4-1.3-0.82c1.44,0,2.46-0.01,3.47,0c5.13,0.06,10.19-0.63,15.27-1.3c2.84-0.38,5.67-0.99,8.84-0.58
					c-0.41,0.42-0.67,0.75-0.98,1c-1.92,1.57-4,2.96-5.74,4.7c-4.17,4.18-5.26,9.22-3.34,14.78c0.85,2.48,2.07,4.83,3.25,7.5
					c-0.46,1.09-1.05,2.48-1.61,3.88c-3.47,8.74-3.98,17.69-1.77,26.81c0.47,1.94,0.96,3.87,1.4,5.82c0.12,0.53,0.12,1.1,0.17,1.65
					c-0.72,0.46-1.29-0.13-1.86-0.38c-5.67-2.49-10.78-5.86-15.39-9.99c-6.9-6.17-12.56-13.36-17.34-21.26
					c-0.77-1.27-1.57-2.53-2.35-3.81c-0.7,0.4-0.45,0.93-0.45,1.34c-0.04,3.11-0.09,6.22-0.01,9.34c0.05,1.9,0.25,3.82,0.54,5.71
					c0.48,3.22,1.76,6.11,3.9,8.6c0.45,0.53,0.87,1.09,1.52,1.9c-4.73-0.59-8.43-2.72-12.06-5.19c-0.33,0.29-0.66,0.51-0.9,0.81
					c-2.59,3.27-5.91,5.56-9.71,7.18C478.3,363.52,476.72,364.08,475.13,364.59z"/>
				<path class="st0" d="M473.37,364.68c0.03,0.1,0.05,0.2,0.08,0.3c-0.05-0.11-0.09-0.22-0.13-0.33L473.37,364.68z"/>
				<path class="st0" d="M473.32,364.65c0.03,0,0.06,0,0.08,0c-0.01,0.01-0.02,0.02-0.03,0.03L473.32,364.65z"/>
				<path class="st0" d="M451.01,352.67c0.77,0.14,1.64,0.31,2.36,0.1c2.83-0.81,5.61-1.76,8.54-2.7c0.83-8.85,1.29-34.1,0.68-37.05
					c-2.77-1.4-5.66-2.52-8.7-3.27c-1.98-0.48-3.87-0.57-5.8,0.35c-1.28,0.61-2.72,0.91-4.08,1.35c-0.83,0.26-1.65,0.53-2.5,0.8
					c-0.83,12.36-0.68,24.57-0.75,36.8C444.11,350.76,447.44,352.05,451.01,352.67z M452.65,360.65
					c-6.96-1.39-13.91-2.84-20.86-4.28c-1.41-0.29-2.81-0.6-4.5-0.97c1.76-2.51,2.01-5.19,2.07-7.92c0.08-3.95-0.43-7.82-1.52-11.6
					c-0.55-1.92-1.25-3.79-2.95-5.24c2.37-2.74,3.87-5.88,4.66-9.34c0.59-2.58,0.87-5.17,0.37-7.83c-0.56-3.02-1.7-5.64-4.69-7.57
					c0.94-0.23,1.61-0.21,2.26-0.29c0.72-0.08,1.42-0.2,2.14-0.28c6.36-0.73,12.61-2.01,18.71-3.94c0.85-0.27,1.65-0.4,2.57-0.21
					c6.86,1.45,13.75,2.84,20.63,4.25c1.7,0.34,3.4,0.68,5.1,1.02c-3.6,8.58-2.6,16.68,2.39,24.47c-2.69,3.14-4.17,6.88-4.85,10.97
					c-0.36,2.22-0.42,4.47,0,6.68c0.56,2.9,1.82,5.43,4.71,7.35c-1.01,0.26-1.69,0.21-2.34,0.29c-0.64,0.07-1.27,0.19-1.9,0.26
					c-6.68,0.75-13.24,2.06-19.67,4.06C454.26,360.76,453.4,360.79,452.65,360.65z"/>
				<path class="st0" d="M423.49,367.62c1.24,0.44,2.68,0.38,4.03,0.45c9.43,0.48,18.86,0.57,28.29,0.03
					c3.43-0.2,6.86-0.45,10.29-0.63c1.01-0.05,2.04,0.04,3.3,0.08c-2,5.45-3,10.9-4.11,16.49c-0.64-0.16-1.1-0.19-1.49-0.38
					c-2.42-1.15-4.28-2.93-5.05-5.49c-0.62-2.06-1.96-2.77-3.85-2.85c-2.55-0.11-5.11-0.17-7.67-0.17c-1.58,0-3.17,0.14-4.82,0.22
					c-1.35,5.04-1.53,10.14-2,15.35c2.29,0.49,4.56,0.86,6.61-0.1c1.9-0.89,3.56-2.3,5.43-3.56c1.35,2.54,1.96,5.66,4.37,7.59
					c-1.75,2.78-3.48,5.53-5.28,8.39c-0.29-0.32-0.64-0.68-0.97-1.07c-0.67-0.79-1.28-1.64-2-2.38c-1.17-1.2-2.58-1.87-4.31-1.71
					c-1.33,0.13-2.68,0.21-4.22,0.33c-0.12,5.85-0.36,11.5,0.25,17.31c5.01,0.42,9.92,0.82,14.98,1.24
					c2.05-6.63,7.17-10.63,12.27-14.83c-0.12,2.01-0.29,4.02-0.34,6.03c-0.05,1.99-0.09,4,0.06,5.99c0.16,2.05,0.56,4.09,0.87,6.26
					c-0.85,0.14-1.7,0.25-2.55,0.4c-3.6,0.64-6.86,2.11-9.87,4.13c-1.13,0.75-2.13,1-3.54,0.66c-8.42-2.02-16.97-3.11-25.62-3.29
					c-1.98-0.05-3.96,0.32-5.79,0.48c0.49-0.61,0.94-1.23,1.36-1.86c3.78-5.69,4.75-12.19,3.87-19.15
					c-0.28-2.25-1.03-4.34-2.52-6.22c3.62-3.89,4.58-8.69,4.92-13.7c0.16-2.46,0.35-4.93-0.09-7.51c-2.88-1.1-5.1-3.09-6.95-5.64
					l-0.05-1.16C422.02,367.3,422.72,367.35,423.49,367.62z"/>
				<path class="st0" d="M397.53,304.17c1.01-0.13,1.99-0.42,2.89-1.08c0.23-0.18,0.75-0.02,1.13,0.05
					c6.1,1.24,12.22,1.16,18.37,0.32c1.65-0.22,3.33-0.31,5.24-0.48c-0.52,0.48-0.88,0.84-1.27,1.18c-1.72,1.51-2.92,3.38-3.69,5.52
					c-2.31,6.45-1.98,12.86,0.3,19.24c0.13,0.38,0.29,0.74,0.52,1.3c-1.91,2.77-2.3,6.09-2.49,9.46c-0.17,3.31,0.22,6.54,1.2,9.7
					c1.03,3.29,3.2,5.84,5.75,8.39c-4.73-0.23-9.14-0.59-13.55-0.63c-4.38-0.04-8.77,0.23-13.44,0.38c0.16-0.14,0.31-0.27,0.45-0.4
					c0.44-0.38,0.8-0.71,1.18-1.04c3.59-3.11,5.98-6.94,6.33-11.72c0.36-4.89-0.46-9.57-3.65-13.56c-0.14-0.18-0.24-0.4-0.45-0.76
					c3.72-5.3,4.84-11.26,4-17.83c-3.64-1.04-5.15-3.83-5.92-7.51c-0.24,0.28-0.43,0.52-0.61,0.74L397.53,304.17z"/>
				<path class="st0" d="M367.94,299.4c-2.21,3.12-5.06,5.49-9.29,6.24c2.76-7.65,2.77-9.61,0.08-14.76
					c2.62-1.63,3.82-4.32,4.79-7.08c3.92-0.17,7.1,1.89,8.36,5.29c0.46,1.26,0.55,2.45-0.15,3.67
					C370.45,294.97,369.4,297.32,367.94,299.4z"/>
				<path class="st0" d="M357.28,306.16c3.27,0.22,6.54,0.34,9.78-0.4c3.22-0.74,5.97-2.24,8.11-4.79c0.26-0.3,0.52-0.59,0.87-0.99
					c0.65,0.29,1.29,0.56,1.93,0.85c5.25,2.36,10.71,3.72,16.5,3.49c1.01-0.04,2.05-0.02,3.06-0.15l2.29,1.27
					c-0.18,0.21-0.34,0.4-0.5,0.58c-1.26,1.43-2.41,3-3.83,4.26c-2.4,2.12-5.27,2.85-8.48,2.39c-4.61-0.67-9.06-1.89-13.3-3.7
					c-3.32,3.35-4.14,11.99-1.69,17.84c8.05-1.71,16.25-1.76,24.65-1.99c-0.06,1.07-0.07,1.93-0.16,2.78
					c-0.59,5.25-0.91,10.51-0.78,15.8c0.1,3.76,0.41,7.5,1.39,11.15c0.08,0.3,0.07,0.62,0.1,0.99c-2.8,0.45-5.54,0.82-8.25,1.35
					c-2.77,0.55-5.29,1.75-7.74,3.43c-8.59-4.63-18.07-5.42-27.86-6.13c0.46-0.63,0.79-1.11,1.16-1.56c1.46-1.73,2.74-3.6,3.02-5.89
					c0.17-1.39,0.03-2.83,0.03-4.39c1.39-0.01,2.64,0.49,3.85,1.01c4.05,1.71,8.06,3.5,12.09,5.25c2.49,1.08,4.98,2.14,7.46,3.21
					c2.68-4.83,2.97-15.78,0.49-20.05c-7.86,0.4-15.7,1.72-23.7,3.13c-0.11-2.07,0.49-3.91,0.75-5.77
					c0.66-4.77,1.07-9.54,0.25-14.33c-0.52-3.02-1.47-5.84-3.71-8.25l0.64-0.73C356.24,305.94,356.75,306.12,357.28,306.16z"/>
				<path class="st0" d="M348.27,367.37c2.46,0.27,4.93,0.56,7.38,0.91c4.99,0.74,9.99,1.24,15.04,1.17
					c0.37-0.01,0.75,0.04,1.46,0.08c-0.51,0.55-0.83,0.86-1.13,1.2c-1.06,1.22-1.83,2.59-2.33,4.15c-0.29,0.93-0.18,1.65,0.37,2.45
					c5.39,7.84,10.74,15.69,16.11,23.54c0.08,0.12,0.23,0.19,0.36,0.28c1.25-1.31,13.74-20.99,15.49-24.43
					c-0.99-2.91-2.86-5.24-5.6-7.43c2.25-0.05,4.11-0.12,5.96-0.14c6.33-0.07,12.59-0.95,18.86-1.71c0.36-0.05,0.71-0.08,1.06-0.09
					l0.05,1.16c-3.77,2.54-5.65,6.06-6.44,10.34c-0.91,4.95,0.04,9.52,2.46,13.85c0.47,0.83,0.94,1.67,1.34,2.39
					c-1.06,2.27-2.19,4.38-3.07,6.59c-1.36,3.42-1.72,6.97-0.94,10.59c0.69,3.16,2.21,5.8,4.97,7.63c0.17,0.11,0.3,0.3,0.47,0.48
					c-2.18,1.3-4.38,2.41-6.37,3.83c-2,1.42-3.78,3.14-5.8,4.86c-2.54-4.2-6.66-6.66-11.23-8.71c3.18-2.87,3.93-6.58,4.16-10.34
					c0.37-5.9,0.42-11.82,0.59-17.73c0.01-0.12-0.11-0.24-0.28-0.6c-5.89,8.86-11.71,17.61-17.46,26.26
					c-1.53,0.6-2.14-0.32-2.79-1.3c-4.52-6.78-9.05-13.55-13.58-20.32c-0.44-0.66-0.9-1.31-1.58-2.31c-0.13,0.69-0.23,1-0.23,1.32
					c-0.05,5.44-0.13,10.87-0.08,16.31c0.01,1.58,0.29,3.18,0.64,4.74c0.58,2.61,1.82,4.93,3.56,6.98c0.46,0.54,0.92,1.08,1.64,1.93
					c-4.8-0.7-8.61-2.71-12.25-5.29c-1.61,1.56-3.07,3.26-4.81,4.59c-1.77,1.34-3.75,2.44-5.75,3.42c-1.98,0.97-4.07,1.78-6.72,2.1
					c0.83-0.78,1.38-1.31,1.93-1.82c4.5-4.12,7.95-8.96,9.99-14.73c1.6-4.5,1.89-9.07,0.18-13.6c-0.61-1.63-1.58-3.12-2.44-4.76
					c0.88-1.66,1.85-3.39,2.71-5.17c0.97-2.03,1.6-4.16,1.78-6.43c0.3-3.89-0.86-7.29-3.55-10.08c-1.54-1.6-3.32-2.97-5.03-4.41
					c-0.54-0.46-1.18-0.8-1.9-1.27C346.42,367.15,347.37,367.27,348.27,367.37z"/>
				<path class="st0" d="M326.8,287.03c3.72,0.67,7.4,1.33,10.98,1.97c2.21-2.76,5.08-4.15,7.92-5.41
					c0.6-6.52,1.36-12.84,3.94-18.68c-2.11-5.7-4-11.35-5.08-17.39c-6.08-0.07-11.98,0.58-18.01,1.98c-0.1,0.95-0.2,1.65-0.23,2.36
					c-0.49,10.37-0.71,20.75-0.1,31.13C326.3,284.32,326.35,285.68,326.8,287.03z M341.98,298.42c-11.94-4.05-24.29-4.48-36.87-4.78
					c0.39-0.48,0.66-0.8,0.93-1.14c-0.12-0.09-0.22-0.23-0.33-0.23l1.34-0.44c2.65-1.96,4.64-4.21,6.05-6.94
					c0.32-0.62,0.53-1.36,0.55-2.05c0.16-4.97,0.26-9.94-2.67-13.96c0.65-1.57,1.33-2.84,1.73-4.2c1.27-4.34,1.41-8.82,1.26-13.3
					c-0.16-4.69-3.23-7.3-7.06-9.52l1.1-2.09c0.35,0.23,0.94,0.13,1.41,0.12c5.6-0.06,11.2-0.03,16.79-0.25
					c4.55-0.17,9.08-0.64,13.63-0.95c0.53-0.04,1.14-0.03,1.61,0.18c4.67,2.12,9.53,3.65,14.5,4.89c0.15,0.04,0.28,0.14,0.61,0.3
					c0.18,1.59,0.3,3.1,0.52,4.6c0.51,3.49,1.64,6.82,2.88,10.11c0.64,1.72,1.2,3.47,1.86,5.18c0.31,0.8,0.28,1.45-0.08,2.27
					c-2.38,5.5-3.38,11.3-3.42,17.27c-0.01,1.41,0.26,2.83,0.42,4.45C351.62,288.95,346.84,293.72,341.98,298.42z"/>
				<path class="st0" d="M262.37,239.58c8.94,0.69,17.88,0.91,26.84,0.49c5.03-0.24,10.06-0.54,15.09-0.8
					c1.26-0.06,2.53-0.26,3.71,0.5l-1.1,2.09c-0.21,0.58-0.38,0.94-0.46,1.32c-0.82,3.74-1.61,7.48-2.44,11.22
					c-0.11,0.5-0.37,0.96-0.56,1.43c-0.43-0.08-0.68-0.08-0.88-0.18c-2.73-1.29-4.78-3.27-5.63-6.19c-0.42-1.42-1.33-1.94-2.53-2.17
					c-1.1-0.21-2.22-0.25-3.34-0.32c-3.42-0.22-6.83-0.02-10.35,0.25c-1.07,5.1-1.56,10.16-1.71,15.32
					c1.94,0.39,3.76,0.53,5.57,0.19c2.58-0.48,4.23-2.44,6.23-4.08c1.47,2.81,2.19,5.93,4.51,7.85c-1.78,2.85-3.48,5.58-5.24,8.42
					c-0.76-0.97-1.41-1.87-2.13-2.71c-2.41-2.78-5.75-3.43-9.26-1.81c-0.45,7.41-0.21,14.51,0.6,16.97c4.87,0.3,9.75,0.96,14.56,1.1
					c0.8-1.67,1.37-3.18,2.19-4.53c0.83-1.35,1.85-2.6,2.89-3.8c1.05-1.21,2.21-2.32,3.35-3.44c1.11-1.09,2.2-2.22,3.86-3.36
					c-0.37,6.43-0.93,12.44,0.91,18.49l-1.34,0.44h-0.01c-3.75,0.31-7.2,1.59-10.24,3.72c-1.96,1.38-3.77,1.47-5.99,0.94
					c-7.95-1.94-16.05-2.8-24.21-3.03c-1.97-0.05-3.95,0.34-5.83,0.52c4.67-5.51,5.79-12.13,5.41-19.17
					c-0.16-2.93-0.98-5.65-2.75-8.12c3.19-3.5,4.22-7.79,4.66-12.31c0.28-2.88,0.43-5.73,0.08-8.73c-2.99-1.39-5.6-3.26-7.35-6.49
					C260.56,239.39,261.48,239.51,262.37,239.58z"/>
				<path class="st0" d="M282,371.03c0.96,0.07,1.92,0.09,2.86,0.21c3.13,0.39,6.24,0.22,9.31-0.41c3.31-0.67,6.13-2.25,8.34-4.84
					c0.26-0.29,0.53-0.58,0.9-1c7.74,3.72,15.77,5.62,24.41,3.59c-2.23,6.68-8.44,10.26-15.29,8.96c-4.01-0.76-7.91-1.83-11.62-3.49
					c-3.17,2.94-4.15,11.66-1.89,17.8c8.09-1.73,16.37-1.65,24.83-2.02c-0.11,1.33-0.16,2.43-0.29,3.52
					c-0.61,4.85-0.88,9.72-0.86,14.6c0.02,4.25,0.32,8.46,1.5,12.67c-2.87,0.45-5.69,0.77-8.45,1.35c-2.75,0.58-5.31,1.72-7.68,3.39
					c-0.52-0.21-1.05-0.38-1.53-0.63c-4.55-2.3-9.43-3.48-14.42-4.23c-3-0.45-6.03-0.69-9.06-0.98c-0.42-0.04-0.87-0.16-1.27-0.02
					l-0.59-1.85c2.84-2.82,3.78-6.2,3.01-10.32c0.97,0.18,1.67,0.23,2.31,0.45c1.28,0.43,2.56,0.89,3.8,1.43
					c5.12,2.23,10.22,4.5,15.33,6.73c0.71,0.31,1.46,0.54,2.2,0.81c0.21-0.31,0.4-0.48,0.47-0.68c1.72-5.34,2.21-10.78,1.34-16.32
					c-0.16-0.99-0.35-2.06-1.44-2.91c-2.61,0.25-5.4,0.44-8.16,0.82c-4.66,0.65-9.31,1.43-13.96,2.13c-0.5,0.08-1.02,0.01-1.53,0.01
					c0.02-0.32,0.01-0.48,0.04-0.63c0.93-4.95,1.79-9.91,1.68-14.98C286.18,379.37,285.19,374.85,282,371.03z"/>
				<path class="st0" d="M269.83,176.22c-0.02,0.04-0.04,0.07-0.06,0.12l-0.02-0.03C269.78,176.28,269.81,176.25,269.83,176.22z"/>
				<path class="st0" d="M269.77,176.34c0.01,0,0.01,0.01,0.01,0.01h-0.01V176.34z"/>
				<path class="st0" d="M239.87,422.11c-2.05-0.05-4.11,0.3-6.07,0.46c0.77-0.92,1.45-1.87,2.04-2.84
					c3.19-5.22,3.94-11.18,3.4-17.48c-0.21-2.49-1.03-4.83-2.59-6.92c3.01-3.13,4.12-7,4.69-11.09c0.47-3.34,0.51-6.67,0.29-10.04
					c-2.92-1.19-5.16-3.04-6.86-5.54l0.03-1.16c0.52,0.01,1.06,0.05,1.6,0.11c4.91,0.54,9.88,0.74,14.83,0.79
					c5.83,0.07,11.66-0.12,17.49-0.3c3.59-0.12,7.18-0.43,10.77-0.65c1.02-0.06,2.04-0.1,3.06,0.26c-0.32,1.09-0.6,2.07-0.89,3.05
					c-1.11,4.38-2.23,8.77-3.35,13.18c-0.27,0-0.54,0.08-0.73-0.01c-2.26-1-4.11-2.46-5.19-4.74c-0.34-0.72-0.68-1.45-0.89-2.21
					c-0.18-0.63-0.58-0.94-1.12-1.13c-0.6-0.2-1.22-0.43-1.84-0.49c-4.3-0.4-8.6-0.25-12.86,0.03c-1.18,4.02-2.19,13.07-1.73,15.52
					c1.79,0.17,3.61,0.42,5.43,0.02c2.51-0.55,4.18-2.45,6.22-4.11c1.31,2.94,2.17,5.96,4.5,8.08c-0.79,1.02-1.51,1.87-2.14,2.79
					c-0.59,0.85-1.08,1.77-1.64,2.65c-0.56,0.89-0.83,2-1.71,2.76c-0.89-1.12-1.65-2.15-2.48-3.11c-0.86-0.97-1.88-1.86-3.18-2.01
					c-1.89-0.2-3.8-0.21-5.79,0.47c-0.01,5.67-0.25,11.31,0.19,17.08c5.12,0.42,10.03,0.82,15.03,1.22c1.05-3.24,2.67-5.97,4.91-8.3
					c2.24-2.33,4.48-4.68,7.4-6.96c-0.18,3.05-0.41,5.63-0.49,8.22c-0.12,3.78,0.27,6.58,1,7.94l0.59,1.85
					c-0.24,0.08-0.45,0.26-0.62,0.58c-0.1,0.2-0.54,0.29-0.84,0.31c-4.25,0.38-8.05,2-11.53,4.35c-1.25,0.84-2.33,0.96-3.78,0.61
					C256.75,423.39,248.36,422.31,239.87,422.11z"/>
				<path class="st0" d="M238.19,174.9c5.47,1.55,11.06,1.47,16.66,0.93c1.34-0.12,2.67-0.29,4.1-0.45
					c-0.08,0.39-0.05,0.65-0.17,0.82c-2.24,3.17-3.14,6.8-3.53,10.57c-0.53,5.17-0.73,10.36-0.68,15.57
					c3.01-0.45,13.35-6.8,17.37-10.7c0.14-2.75,0.31-5.7,0.42-8.64c0.07-1.63-0.38-3.19-1.07-4.63c-0.35-0.74-0.99-1.36-1.51-2.02
					c0.36-0.09,0.73-0.28,1.07-0.24c0.87,0.1,1.73,0.32,2.59,0.47c3.22,0.56,6.33,0.38,9.37-1.03c2.16-0.99,4.48-1.62,7.16-1.25
					c-5.53,6.33-6,13.39-3.4,21.02c-3.13,1.41-6.22,2.8-9.6,4.33c3.3,2.73,7.09,4.04,10.41,6.09c-0.88,7.12-1.74,14.18,2.49,20.78
					c-1.59,1.19-3.46,2.3-4.95,3.79c-1.5,1.49-2.63,3.35-3.96,5.08c-0.73-1.13-1.39-2.49-2.37-3.55c-1.07-1.17-2.36-2.15-3.67-3.05
					c-1.23-0.85-2.61-1.48-4.06-2.29c1.33-1.53,1.67-3.34,1.81-5.14c0.31-3.99,0.49-7.98,0.72-11.94c-2.25-1.6-4.4-3.12-6.6-4.67
					c-3.88,1.97-7.72,3.91-11.72,5.94c0.21,6.45,0.95,12.82,2.44,19.17c-0.41,0-0.65,0.07-0.84-0.01
					c-4.17-1.69-8.41-1.53-12.73-0.67c-2.59,0.51-5.21,0.83-7.86,0.7c-0.29-0.02-0.57-0.04-1.31-0.08c0.9-0.63,1.74-1.28,2.52-1.96
					c3.34-2.96,5.41-6.5,5.85-10.95c0.52-5.33-0.44-10.36-4.11-14.72c1.67-2.8,3.31-5.63,4-8.87c0.69-3.24,0.61-6.51,0.41-9.72
					c-5.71-2.87-5.71-2.87-7.34-7.91l0.19-1.19C236.93,174.58,237.56,174.72,238.19,174.9z"/>
				<path class="st0" d="M249.17,358.99c2.28-1.43,4.02-3.4,5.56-5.56c2.39-3.33,4.32-6.91,5.83-10.71c1.27-3.19,2.42-6.43,3.61-9.6
					c-2.04-2.67-7.29-5.79-10.93-6.5l-0.15-1.9c4.75-1.04,8.97,0.32,13.14,2.28c0.29-0.34,0.44-0.44,0.49-0.57
					c1.78-4.7,3.57-9.4,5.3-14.12c0.3-0.81,0.41-1.71,0.44-2.58c0.04-1.37-0.52-2.07-1.83-2.44c-0.45-0.13-0.94-0.21-1.42-0.2
					c-2.15,0.03-4.3,0.1-6.46,0.17l-0.5-1.39c6.18-2.24,12.54-3.56,19.18-3.12c1.76,0.11,3.5,0.36,4.99,1.43
					c0.65,0.47,1.34,0.42,2.07,0.27c2.96-0.61,5.93-1.22,8.9-1.83c0.3-0.06,0.6-0.14,1.08-0.26c-0.57,1.35-1.17,2.51-1.55,3.74
					c-0.69,2.25-0.73,4.59-0.43,6.9c0.55,4.31,1.74,8.44,3.68,12.35c0.46,0.92,0.87,1.96,1.59,2.66c1.25,1.22,1.57,2.68,1.65,4.3
					c0.26,5.48,4.78,14.85,8.04,18.42c1.91-1.95,2.44-4.19,1.91-8.31c1.14-0.15,2.17,0.24,3.16,0.66c3.25,1.34,6.49,2.7,9.71,4.1
					c3.51,1.53,7.01,3.1,10.49,4.64c2.82-4.28,3.15-16.23,0.53-20.05c-7.82,0.43-15.61,1.7-23.45,3.12c-0.4-0.9-0.06-1.73,0.09-2.57
					c0.72-4.26,1.41-8.53,1.19-12.87c-0.1-2.07-0.39-4.13-0.72-6.18c-0.43-2.66-1.79-4.92-3.64-7.34c0.79,0.07,1.27,0.12,1.76,0.16
					c3.35,0.27,6.69,0.4,10.03-0.24c3.52-0.68,6.44-2.29,8.76-5.02c0.2-0.25,0.43-0.47,0.77-0.85c7.6,3.67,15.56,5.51,24.35,3.57
					c-0.27,0.87-0.46,1.49-0.69,2.27l-0.64,0.73c-0.65,0.73-1.21,1.39-1.79,2.03c-2.05,2.27-4.47,3.99-7.59,4.15
					c-1.81,0.1-3.67-0.2-5.46-0.54c-3.46-0.63-6.85-1.58-10.07-3.04c-0.21-0.1-0.45-0.1-0.66-0.15c-3.18,3.11-3.88,11.99-1.64,17.8
					c8.03-1.63,16.23-1.78,24.53-1.95c0.33,1.1,0.1,2.12-0.01,3.11c-0.58,5.1-0.9,10.2-0.78,15.32c0.09,3.72,0.31,7.42,1.36,11.02
					c0,0.04,0.02,0.09,0.03,0.13c0.11,0.35,0.07,0.75,0.1,1.09c-2.89,0.48-5.64,0.87-8.37,1.4c-2.77,0.55-5.27,1.8-7.7,3.39
					c-4.34-2.35-8.98-3.77-13.8-4.59c-2.66-0.45-5.34-0.77-8.58-1.22c2.42,3.04,5.06,4.89,7.73,6.76c-3.37-0.52-6.54-1.73-9.71-2.86
					c-3.23-1.15-6.37-2.54-9.76-3.91c-2.32,1.9-4.92,3.56-8.42,3.89c0.24-0.51,0.42-0.89,0.6-1.26c0.8-1.73,0.97-3.55,0.63-5.4
					c-0.68-3.69-2.21-7.11-3.62-10.92c-3.92,3.82-6.84,8.06-9.94,12.5c-3.2-4.05-6.21-7.85-9.39-11.87
					c-3.03,6.11-4.4,11.91-0.31,18.06c-3.9-0.6-6.47-3.1-9.36-5.12c-3.15,2.17-6.36,4.07-10.14,4.75c-1.32,0.24-2.6,0.49-4,0.4
					C249.06,359.24,249.07,359.05,249.17,358.99z M289.45,333.72c-2.15-6.95-5.49-16.03-6.64-17.92
					c-2.45,6.21-4.85,12.26-7.22,18.28c2.34,2.31,4.54,4.49,6.89,6.81C284.79,338.51,287.11,336.12,289.45,333.72z"/>
				<path class="st0" d="M250.95,108.97c0.8,0.02,1.59,0.1,2.39,0.21c2.93,0.39,5.84,0.91,8.79,1.17c4.12,0.38,8.25,0.57,12.52,0.85
					c-0.2,0.3-0.44,0.66-0.69,1.01c-0.45,0.65-0.97,1.27-1.37,1.96c-1.14,2-1.3,3.77,0.28,5.88c5.08,6.78,9.91,13.75,14.84,20.64
					c0.51,0.71,1.05,1.4,1.71,2.3c4.87-8.3,9.66-16.47,14.39-24.54c-1.2-3.06-3.06-5.4-5.52-7.42c8.85,0.03,17.51-1.14,26.76-2.28
					c-0.75,0.65-1.06,0.96-1.41,1.22c-3.27,2.36-5.24,5.5-5.89,9.51c-0.71,4.38-0.34,8.6,1.73,12.59c0.81,1.55,1.7,3.07,2.53,4.56
					c-0.94,2.22-1.95,4.38-2.77,6.61c-1.16,3.14-1.4,6.43-0.72,9.69c0.77,3.73,2.59,6.86,6.12,8.96c-2.19,1.32-4.36,2.43-6.28,3.87
					c-1.97,1.47-3.71,3.26-5.62,4.98c-2.68-4.16-6.81-6.77-11.56-8.75c2.96-2.8,3.63-6.45,3.73-10.15c0.16-5.91,0-11.83-0.03-17.75
					c-0.01-0.12-0.16-0.24-0.24-0.36c-0.06-0.03-0.13-0.09-0.19-0.08c-0.08,0.01-0.16,0.06-0.21,0.12c-0.2,0.24-0.42,0.48-0.59,0.75
					c-5.18,8.35-10.36,16.7-15.52,25.03c-1.28,0.57-1.97-0.09-2.61-1.03c-2.13-3.1-4.29-6.17-6.44-9.25
					c-2.75-3.93-5.49-7.87-8.23-11.8c-0.36-0.5-0.72-1-1.37-1.89c-0.09,0.87-0.17,1.29-0.17,1.71c0.04,4.32,0.05,8.64,0.18,12.95
					c0.05,1.91,0.27,3.83,0.58,5.72c0.59,3.54,2.05,6.7,4.54,9.34c0.38,0.4,0.73,0.84,1.13,1.31c-2.99,0.07-5.87-1.11-12.18-4.97
					c-1.54,1.54-2.97,3.26-4.69,4.62c-1.67,1.32-3.58,2.38-5.49,3.37c-1.97,1.02-4.08,1.75-6.8,2.26c0.88-0.86,1.41-1.4,1.96-1.92
					c4.34-4.16,7.67-8.98,9.47-14.77c1.99-6.38,1.55-12.46-2.61-17.97c-0.09-0.12-0.13-0.28-0.23-0.52
					c0.49-0.92,1.11-1.86,1.53-2.88c0.82-1.99,1.7-3.97,2.24-6.04c1.3-4.99-0.15-9.29-3.65-12.94c-0.36,0.19-0.71,0.37-1.07,0.55
					l-1.51-2.58c-0.56-1.07-1.39-1.4-2.05-1.9c-0.67-0.51-1.38-0.97-2.56-1.8C249.44,109.05,250.2,108.96,250.95,108.97z"/>
				<path class="st0" d="M187.9,174.56c0.72,0,1.23-0.04,1.74,0c9.66,0.82,19.33,0.76,29.01,0.56c3.51-0.07,7.02-0.46,10.53-0.69
					c1.04-0.07,2.07-0.15,3.11-0.19c1.35-0.05,2.68,0.02,4,0.24l-0.19,1.19c-0.29,0.92-0.58,1.6-0.72,2.31
					c-0.83,4.15-1.62,8.31-2.42,12.46c-0.17,0.85-0.33,1.7-0.49,2.54c-3.46-0.72-5.65-3.68-7.33-9.73c-1.28-1.03-2.91-1.1-4.48-1.21
					c-1.67-0.12-3.36-0.12-5.04-0.11c-1.98,0.02-3.97,0.11-5.91,0.16c-2.25,4.94-3.03,35.45-1.62,40.32
					c4.83,0.39,9.74,0.8,14.8,1.22c1.69-5.99,6.15-9.83,10.38-13.85c0.43-0.4,0.95-0.7,1.86-1.36c-0.67,6.47-0.86,12.43,0.8,18.51
					c-0.43,0.09-0.85,0.17-1.28,0.25c-1.28,0.25-2.55,0.48-3.78,0.85c-1.59,0.49-3.15,1.15-4.64,1.9c-1.57,0.78-3.03,1.76-4.51,2.64
					c-10.98-2.28-21.93-4.37-33.2-3.26c5.7-7.44,7.04-20.06,2.56-26.31l-0.02-1.46c0.87-0.52,1.42-1.3,1.76-2.16
					c0.71-1.77,1.45-3.55,1.91-5.39c1.05-4.23,0.98-8.55,0.7-12.86C192.29,179.73,189.7,177.84,187.9,174.56z"/>
				<path class="st0" d="M222.14,331.59c2.66,0,5.37-0.12,8.07,0.03c2.78,0.16,5.54,0.6,8.61,0.94c0.82-0.75,1.75-1.61,2.52-2.31
					c0-2.7,0.05-5.17-0.01-7.65c-0.06-2.53,0.1-5.07-0.13-7.54c-3.05-0.61-5.87-1.13-8.67-1.76c-2.88-0.65-5.73-1.43-8.6-2.12
					c-0.5-0.12-1.05-0.09-1.56-0.13C221.86,314.25,221.67,329.83,222.14,331.59z M203.39,304.5c5.42,0.65,10.82,1.05,16.22-0.19
					c2.98-0.68,5.82-1.72,8.59-2.97c0.83-0.38,1.53-0.56,2.48-0.13c5.13,2.31,10.6,3.5,16.1,4.5c3.79,0.69,7.59,1.12,11.45,1.02
					c1.29-0.04,2.49-0.3,3.72-0.75c0.1-0.04,0.2-0.07,0.3-0.11l0.5,1.39c-0.94,0.03-1.61,0.44-2.15,1.27
					c-1.45,2.24-3.3,4.12-5.63,5.45c-0.89,0.51-1.2,1.22-1.3,2.13c-0.26,2.38-0.54,4.76-0.77,7.15c-0.04,0.43,0.11,0.88,0.19,1.46
					l0.15,1.9c-0.35,1.33,0.22,2.51,0.66,3.69c0.41,1.11,0.95,2.18,1.43,3.26c-2.72,1.03-5.43,1.91-8.02,3.06
					c-2.59,1.13-4.62,3.11-6.6,5.17c-6.24-1.58-12.54-1.46-18.99-1.54c-0.64,6.14,0.43,11.42,5.96,15.18
					c-4.51,2.24-7.51,5.85-10.39,9.98c-2.95-4.92-7.49-7.65-12.32-9.99c4.42-7.96,5.27-15.86,0.19-23.97
					c1.87-2.37,3.16-5.16,3.76-8.27c0.63-3.32,0.77-6.65,0.54-10.04c-4.15-1.47-7.35-3.7-7.74-8.65
					C202.35,304.5,202.88,304.44,203.39,304.5z"/>
				<path class="st0" d="M225.2,286.98c3.85,0.7,7.52,1.36,11.15,2.02c2.23-2.7,5.08-4.12,8.02-5.43
					c0.59-6.41,1.36-12.73,4.01-18.66c-2.12-5.67-3.94-11.42-5.04-17.43c-6.15,0.03-12.07,0.59-18.07,2.06
					C224.53,262.18,224.12,274.51,225.2,286.98z M240.5,298.38c-11.82-3.99-24.18-4.45-36.78-4.73c0.35-0.47,0.62-0.84,1.01-1.36
					l0.91-0.41c2.52-1.94,4.49-4.01,5.86-6.58c0.44-0.82,0.8-1.79,0.84-2.7c0.17-4.89,0.19-9.78-2.76-13.9
					c0.51-0.91,1.01-1.64,1.35-2.45c0.39-0.95,0.72-1.95,0.92-2.96c0.74-3.7,0.99-7.44,0.97-11.21c-0.03-4.99-2.97-7.91-7.1-10.2
					l1.13-2.12c0.36,0.22,0.93,0.14,1.41,0.13c5.59-0.06,11.19-0.03,16.79-0.25c4.54-0.17,9.08-0.64,13.63-0.95
					c0.53-0.04,1.14-0.03,1.61,0.18c4.81,2.19,9.84,3.74,15.08,5.04c0.13,1.35,0.22,2.69,0.39,4.02c0.5,3.65,1.57,7.16,2.86,10.61
					c0.67,1.79,1.25,3.62,1.93,5.41c0.3,0.79,0.28,1.44-0.08,2.27c-2.54,5.88-3.63,12.05-3.46,18.45c0.02,1.02,0.24,2.03,0.37,3.03
					C249.08,290.32,248.92,290.73,240.5,298.38z"/>
				<path class="st0" d="M159.09,239.42c0.71,0.05,1.42,0.11,2.12,0.16c8.78,0.68,17.57,0.89,26.36,0.52
					c5.19-0.22,10.38-0.56,15.57-0.83c1.25-0.06,2.52-0.25,3.71,0.49l-1.13,2.12c-0.23,0.71-0.44,1.23-0.56,1.77
					c-0.82,3.66-1.61,7.33-2.43,10.98c-0.09,0.43-0.35,0.81-0.56,1.28c-3.2-1.15-5.38-3.17-6.33-6.24
					c-0.53-1.68-1.62-2.26-3.11-2.47c-0.94-0.14-1.91-0.18-2.87-0.24c-3.41-0.2-6.81-0.02-10.3,0.26
					c-1.18,5.12-1.6,10.18-1.83,15.33c1.97,0.38,3.79,0.52,5.61,0.18c2.58-0.49,4.23-2.45,6.23-4.07c1.46,2.82,2.18,5.93,4.72,8.06
					c-2.4,2.38-3.75,5.28-5.4,8.34c-0.99-1.24-1.75-2.26-2.58-3.22c-0.85-0.98-1.86-1.9-3.16-2.04c-1.89-0.21-3.81-0.24-5.84,0.38
					c-0.01,5.46-0.18,10.88,0.18,16.31c0.02,0.28,0.23,0.56,0.36,0.86c2.53,0.21,4.99,0.49,7.46,0.6c2.44,0.12,4.86,0.74,7.19,0.44
					c0.78-1.61,1.37-3.11,2.2-4.46c0.83-1.35,1.85-2.61,2.89-3.81c1.05-1.2,2.21-2.32,3.37-3.42c1.12-1.08,2.18-2.26,3.95-3.35
					c-0.63,6.43-1,12.44,0.73,18.53l-0.91,0.41c-2.62,0.05-4.89,0.74-7.04,1.76c-1.8,0.85-3.53,1.87-5.24,2.89
					c-0.8,0.49-1.51,0.62-2.46,0.39c-8.49-2.07-17.12-3.18-25.85-3.42c-2.06-0.05-4.12,0.32-6.07,0.48
					c0.76-0.91,1.44-1.85,2.02-2.81c3.08-5.07,3.82-10.88,3.37-17c-0.19-2.67-1.02-5.15-2.67-7.46c2.46-2.56,3.65-5.74,4.29-9.15
					c0.75-3.94,0.93-7.91,0.57-11.97c-2.66-0.98-4.64-2.79-6.68-4.97L159.09,239.42z"/>
				<path class="st0" d="M169.44,367.85L169.44,367.85l-0.02,0.01c0,0,0-0.01-0.01-0.01c-0.07-0.09-0.15-0.2-0.23-0.29
					C169.27,367.66,169.36,367.75,169.44,367.85z"/>
				<rect x="169.42" y="367.86" class="st0" width="0.01" height="0.01"/>
				<path class="st0" d="M123.42,87.05c7.69,9.06,20.34,9.19,26.61,5.23c-1.41-2.13-25.67-30.02-27.11-31.16
					C117.36,67.38,116.57,78.96,123.42,87.05z M132.63,44.18c10.76-2.57,20.51-0.18,28.77,7.15c12.09,10.71,13.59,28.63,3.28,41.2
					c-6.49,7.91-15.09,11.77-25.23,11.49c-15.55-0.44-26.53-10.88-29.58-23.29c-0.26-1.08-0.51-2.18-0.64-3.28
					c-0.15-1.27-0.17-2.55-0.21-3.19C109.03,59.69,118.63,47.53,132.63,44.18z M158.3,85.4c3.92-5.92,4.79-12.25,2.37-18.95
					c-2.93-8.13-11.31-14.36-21.42-13.88c-3.12,0.15-6.1,0.81-9.08,2.4c9.13,10.53,18.16,20.96,27.26,31.46
					C157.8,86,158.09,85.73,158.3,85.4z"/>
				<path class="st0" d="M164.19,207.08c-5.9,0.39-11.7,0.77-17.98,1.18c2.24-1.37,4.38-1.8,6.37-2.57
					c2.08-0.79,4.19-1.52,6.36-2.29c0.65-6.36,1.28-12.66,1.92-18.95c0.11,0,0.22,0.01,0.33,0.01
					C162.18,191.95,163.18,199.44,164.19,207.08z"/>
				<path class="st0" d="M163.41,140.66c2.29,2.32,4.51,4.57,6.79,6.88c2.09-2.2,3.99-4.25,5.97-6.22c0.82-0.82,0.86-1.59,0.49-2.59
					c-1.86-5.01-3.68-10.03-5.53-15.05c-0.12-0.34-0.32-0.66-0.68-1.38C168,128.69,165.71,134.67,163.41,140.66z M138.66,131.98
					c3.75-1.37,7.51-1.44,11.26-0.07c1.35,0.49,2.69,1.02,4.18,1.59c0.23-0.44,0.52-0.89,0.7-1.38c1.47-3.96,2.95-7.93,4.37-11.91
					c0.39-1.12,0.73-2.29,0.86-3.47c0.17-1.6-0.42-2.36-2-2.78c-0.69-0.18-1.43-0.28-2.13-0.24c-2.55,0.13-5.1,0.34-7.65,0.52
					c-0.45,0.03-0.9,0.08-1.48-0.22c0.72-0.39,1.4-0.88,2.16-1.17c6.34-2.43,12.85-3.84,19.68-3.48c1.85,0.1,3.67,0.36,5.24,1.46
					c0.66,0.47,1.35,0.45,2.06,0.3c2.97-0.61,5.93-1.24,8.9-1.87c0.29-0.06,0.58-0.16,1.24-0.35c-2.56,4.01-2.61,8.12-1.86,12.23
					c0.49,2.65,1.37,5.24,2.26,7.8c0.87,2.49,2.04,4.85,3.86,6.84c0.37,0.41,0.48,1.13,0.55,1.73c0.95,8.76,5,16.06,10.62,22.63
					c0.04,0.04,0.13,0.03,0.2,0.05c5.52-5.22,5.37-16.77-0.28-23.52c3.72-5.36,4.84-11.43,4.07-18.01c-0.7-0.2-1.37-0.4-2.05-0.59
					c-3.98-1.1-5.59-3.3-5.48-7.69c1.97,0.03,3.89,0.55,5.84,0.73c4.97,0.46,9.92,0.58,14.67-1.27c2-0.77,3.91-1.79,6.06-2.78
					c8.8,3.53,18.17,5.51,28.2,5.76l1.51,2.58c-2.49,1.3-4.98,2.58-7.68,3.99c-0.42,3.69,0.22,7.48,1.65,11.3
					c-2.57,1.13-5.1,2.24-7.65,3.36c1.01,1.6,2.32,2.56,8.71,6.4c-0.69,3.47-0.87,7.03-0.55,10.62c0.33,3.62,0.92,7.12,3.44,10.15
					c-1.96,1.51-4.04,2.89-5.38,5.01c-0.98,1.55-1.91,3.14-2.88,4.8c-0.33,0.55-0.66,1.11-1,1.68c-1.92-5.04-4.92-9.01-9.9-11.43
					c1.45-1.75,1.7-3.73,1.82-5.69c0.24-3.83,0.33-7.67,0.48-11.63c-2.21-1.4-4.42-2.8-6.67-4.23c-3.85,1.9-7.63,3.77-11.49,5.68
					c0.32,6.46,1.09,12.77,2.63,19.14c-2.48-0.46-4.76-1.04-7.08-1.28c-2.31-0.24-4.6,0.31-7.14,0.84c1.39,1.54,3.03,2.37,4.28,3.78
					c-0.41-0.05-0.84-0.03-1.23-0.16c-2.59-0.83-5.16-1.71-7.73-2.54c-1.67-0.55-3.4-0.81-4.95-1.82c-1.45-0.95-3.17-1.46-4.99-2.26
					c-2.39,1.92-4.99,3.73-8.48,3.92c1.73-3.25,1.51-6.42,0.36-9.61c-0.92-2.55-1.83-5.11-2.82-7.88c-0.51,0.42-0.99,0.69-1.3,1.08
					c-2.4,3.09-4.78,6.2-7.15,9.31c-0.43,0.57-0.8,1.19-1.31,1.93c-1.89-1.72-3.2-3.8-4.74-5.69c-1.56-1.92-3.08-3.87-4.63-5.82
					c-1.34,1.51-2.78,5.68-2.97,8.64c-0.2,3.21,0.63,6.17,2.58,9.1c-0.73-0.1-1.19-0.09-1.6-0.23c-1.92-0.63-3.61-1.69-5.21-2.89
					c-0.83-0.63-1.65-1.26-2.53-1.93c-2.88,2.01-5.79,3.8-9.2,4.58c-1.78,0.41-3.56,0.62-5.46,0.83c0.15-0.36,0.17-0.59,0.27-0.64
					c2.84-1.39,4.68-3.81,6.4-6.32c2.27-3.3,4.09-6.86,5.49-10.61c1.06-2.84,2.1-5.69,3.13-8.55c0.11-0.28,0.13-0.6,0.22-1.05
					c-4.24-3.31-8.44-6.62-14.65-6.45C137.95,132.42,138.28,132.12,138.66,131.98z M234.17,127.5c-0.26-3.1-0.07-6.03-0.48-8.98
					c-5.71-0.7-11.21-1.38-16.88-2.09c0,6.53,0,12.81,0,19.31C222.64,132.97,228.38,130.25,234.17,127.5z"/>
				<path class="st0" d="M159.21,399.36c0.56-0.53,0.47-1.13,0.25-1.75c-1.92-5.56-3.85-11.11-5.93-17.08
					c-2.61,6.44-5.07,12.52-7.54,18.62c2.24,2.32,4.39,4.55,6.43,6.67C154.72,403.63,156.96,401.49,159.21,399.36z M120.96,390.56
					c5.53-2.16,10.65-1.01,15.77,1.58c0.3-0.63,0.58-1.15,0.8-1.7c1.51-3.87,3.03-7.73,4.5-11.61c0.4-1.04,0.72-2.12,0.92-3.22
					c0.35-1.97-0.24-2.88-2.18-3.26c-1.09-0.21-2.23-0.32-3.33-0.26c-2.15,0.13-4.3,0.41-6.44,0.63c-0.43,0.04-0.87,0.08-1.63,0.14
					c0.37-0.42,0.76-0.73,1.15-0.97c0.65-0.41,1.31-0.63,1.94-0.87c4.72-1.83,9.65-2.85,14.68-3.3c2.38-0.21,4.8-0.24,7.15,0.38
					c0.77,0.2,1.64,0.34,2.23,0.79c1.02,0.79,2.08,0.78,3.18,0.57c2.59-0.51,5.15-1.1,7.73-1.63c0.65-0.13,1.34-0.65,1.98,0.02
					c0.01,0,0.01,0.01,0.01,0.01v0.01c-1.55,1.35-1.88,3.25-2.18,5.12c-0.43,2.62-0.21,5.25,0.31,7.86c0.63,3.22,1.57,6.34,3,9.3
					c0.45,0.93,0.83,1.98,1.53,2.69c1.39,1.42,1.62,3.11,1.87,4.95c0.3,2.28,0.83,4.56,1.58,6.73c1.61,4.64,4.07,8.84,7.11,12.7
					c0.38,0.48,0.82,0.92,1.24,1.38c5.68-5.27,5.47-17.22,0.19-23.32c1.72-2.79,3.44-5.65,4.16-8.96c0.7-3.22,0.78-6.47,0.47-9.88
					c-4.48-1.06-6.81-3.88-6.92-8.63c2.52,0.44,4.97,1.01,7.46,1.25c2.46,0.23,4.95,0.22,7.43,0.14c2.54-0.08,5.08-0.37,7.7-0.58
					c-0.04,0.26-0.02,0.51-0.13,0.66c-2.35,3.28-3.41,7.05-3.77,10.97c-0.46,4.93-0.67,9.89-0.98,14.83
					c-0.01,0.15,0.08,0.3,0.19,0.66c0.74-0.32,1.48-0.58,2.17-0.93c4.94-2.48,9.54-5.49,13.95-8.82c0.58-0.44,1.12-0.87,1.19-1.69
					c0.2-2.06,0.51-4.12,0.64-6.19c0.21-3.18-0.3-6.22-2.45-9.03c1.55,0.28,2.87,0.53,4.2,0.74c2.64,0.41,5.25,0.45,7.74-0.75
					c0.57-0.27,1.19-0.44,1.8-0.65c1.93-0.67,3.85-0.98,5.88-0.92l-0.03,1.16c-4.39,3.52-5.65,11.3-3.17,19.8
					c-3.13,1.4-6.3,2.82-9.67,4.33c3.27,2.67,7.06,4.07,10.49,6.15c-1.14,3.97-1.09,7.96-0.84,11.94c0.18,2.78,0.57,5.46,2.9,8.76
					c-1.72,1.27-3.59,2.37-5.1,3.85c-1.51,1.49-2.66,3.35-4.06,5.16c-0.92-2.04-2.06-4.06-4.01-5.4c-1.83-1.26-3.75-2.4-5.73-3.67
					c1.51-1.98,1.72-4.46,1.95-6.9c0.27-2.87,0.4-5.75,0.58-8.62c0.03-0.55,0-1.11,0-1.62c-2.15-1.54-4.22-3.02-6.38-4.56
					c-3.92,1.98-7.83,3.94-11.85,5.97c0.18,6.48,0.81,12.88,2.18,19.3c-7.07-1.81-8.85-1.87-14.14-0.51
					c1.42,1.64,3.33,2.52,5.39,4.09c-1.25-0.29-1.99-0.4-2.7-0.63c-2.58-0.83-5.19-1.6-7.71-2.59c-1.22-0.48-2.59-0.21-3.75-1.21
					c-0.98-0.85-2.42-1.18-3.65-1.74c-0.73-0.32-1.46-0.65-2.3-1.03c-2.48,1.93-5.09,3.72-8.64,3.94c1.92-3.32,1.65-6.58,0.55-9.85
					c-0.83-2.49-1.72-4.96-2.67-7.7c-2.18,1.88-3.7,3.99-5.31,6.01c-1.59,2-3.07,4.09-4.71,6.3c-0.45-0.45-0.92-0.84-1.29-1.3
					c-2.32-2.96-4.62-5.93-6.93-8.89c-0.35-0.44-0.72-0.85-1.1-1.29c-3.23,5.8-4.5,11.48-0.5,17.91c-3.73-0.63-6.37-2.97-9.12-5.03
					c-2.42,1.25-4.75,2.62-7.22,3.66c-2.38,1-4.94,1.53-7.95,1.39c5.84-3.67,8.87-9.09,11.5-14.75c1.78-3.83,3.18-7.83,4.82-11.93
					c-3.94-3.37-7.99-6.31-13.4-6.71L120.96,390.56z"/>
				<path class="st0" d="M125.55,302.29c0,0.06-0.01,0.11-0.01,0.16l-0.03-0.05C125.52,302.37,125.54,302.33,125.55,302.29z"/>
				<path class="st0" d="M125.54,302.45c-0.02,0-0.03,0-0.05,0c0-0.02,0.01-0.03,0.02-0.05L125.54,302.45z"/>
				<path class="st0" d="M159.66,182.41c-0.88,0-1.76-0.06-2.63,0.01c-0.79,0.07-1.58,0.24-2.36,0.42
					c-12.4,2.83-19.37,15.04-16.29,26.47c3.22,11.98,15.99,18.87,27.93,15.02c11.27-3.63,17.6-15.21,14.34-26.43
					C177.55,187.29,167.75,182.14,159.66,182.41z M97.06,177.33l0.66-1.23c0.09,0.06,0.19,0.1,0.29,0.11
					c2.63,0.07,5.28,0.34,7.9,0.15c4.46-0.33,8.9-0.93,13.34-1.44c2.79-0.32,5.57-0.52,8.43-0.21c-1.4,0.88-2.86,1.58-4.06,2.58
					c-2.65,2.21-4.36,5.1-5.31,8.39c-0.39,1.36-0.59,2.82-0.62,4.25c-0.14,6.39-0.21,12.79-0.22,19.19c-0.01,1.99,0.17,4,0.43,5.98
					c0.3,2.29,0.89,4.52,2.24,6.59c-2.16,1.3-5.02,1.44-6.34,3.93c0.15,1.06,0.89,1.51,1.68,1.92c4.99,2.57,10.19,4.61,15.7,5.72
					c4.28,0.87,8.59,0.61,12.88-0.1c0.94-0.16,1.89-0.23,2.84-0.37c0.44-0.06,0.87-0.16,1.36-0.64c-0.67-0.33-1.34-0.65-2.01-0.97
					c-8.04-3.86-13.65-9.94-16.39-18.45c-4.56-14.16,2.13-29.41,15.64-36.13c3.06-1.52,6.33-2.2,9.61-2.83
					c7.33-1.4,14.2,0.17,20.51,3.85c8.94,5.21,14.02,13.07,15.17,23.41c0.02,0.13,0.13,0.24,0.27,0.51l0.02,1.46
					c-0.08,0.64-0.17,1.03-0.18,1.43c-0.33,13.85-10.22,26.26-25.48,29.18c-2.18,0.42-4.41,0.79-6.66,0.22
					c-1.03-0.27-1.92,0.06-2.92,0.59c-3.61,1.9-7.53,3.07-11.47,4.09c-1.45,0.38-2.91,0.71-4.37,1.41c0.37,0.05,0.74,0.16,1.11,0.14
					c4.79-0.25,9.58-0.57,14.37-0.74c1.2-0.04,2.41,0.02,3.61,0.1l-0.12,1.61c-1.75,4.95-2.5,9.88-3.58,14.87
					c-2.53-0.65-4.22-2.01-5.48-3.92c-0.56-0.85-1.02-1.82-1.32-2.8c-0.3-0.97-0.85-1.52-1.8-1.67c-1.49-0.24-2.99-0.55-4.49-0.57
					c-3.19-0.05-6.38,0.07-9.7,0.13c-1.31,5.16-1.69,10.29-1.92,15.44c5.16,0.62,5.9,1.29,11.92-3.8c0.61,1.41,1.11,2.85,1.82,4.17
					c0.71,1.32,1.63,2.54,2.44,3.78c-1.64,2.61-3.36,5.34-5.21,8.27c-0.33-0.45-0.62-0.87-0.95-1.26c-0.79-0.91-1.54-1.85-2.4-2.67
					c-0.95-0.91-2.11-1.41-3.48-1.31c-1.43,0.1-2.85,0.14-4.49,0.22c-0.26,5.84-0.21,11.47,0.03,17.06
					c1.65,0.6,12.3,1.55,15.19,1.36c1.27-4.29,4.09-7.63,7.31-10.67c1.48-1.39,2.77-3.02,4.8-4.12c-0.15,3.25-0.45,6.27-0.37,9.27
					c0.09,3.01,0.57,6.01,0.89,9.12c0,0.01-0.1,0.19-0.2,0.2c-4.42,0.34-8.39,1.95-12.02,4.4c-1.22,0.82-2.3,1.01-3.76,0.65
					c-8.26-1.98-16.66-3-25.15-3.29c-0.95-0.03-1.91,0.08-2.87,0.15c-0.72,0.05-1.43,0.14-2.15,0.2c-0.24,0.01-0.48-0.04-0.81-0.07
					c0.75-1.13,1.62-2.15,2.18-3.31c2.91-6,3.94-12.31,2.47-18.87c-0.38-1.68-1.23-3.26-1.94-5.09c3.02-3.22,4.02-7.52,4.55-12.02
					c0.34-2.87,0.32-5.74,0.22-8.48c-2.07-1.45-4.01-2.81-6.04-4.23l-0.33-2.93c0.22-0.03,0.43-0.05,0.65-0.07
					c1.12-0.12,2.22-0.12,3.28,0.42c0.47,0.24,1.08,0.27,1.63,0.3c3.19,0.13,6.39,0.24,9.58,0.34c0.29,0.01,0.59-0.13,1.3-0.3
					c-0.72-0.27-1.04-0.44-1.39-0.52c-3.44-0.8-6.72-2-9.88-3.57c-0.57-0.28-1.19-0.48-1.74-0.8c-5.35-3.04-11.08-3.16-16.97-2.35
					c-0.52,0.07-1.13,0.6-1.67,0.19c-0.02-0.01-0.02-0.01-0.03-0.02c-0.05-0.06-0.1-0.11-0.15-0.17c-0.01-0.03-0.01-0.05-0.02-0.08
					c1.11-0.47,1.56-1.53,2.22-2.43c4.43-6.1,5.54-12.99,4.66-20.28c-0.36-3.02-1.72-5.64-4.33-7.67c0.45-0.78,0.86-1.53,1.3-2.26
					c3.2-5.35,3.84-11.08,2.51-17.1c-0.31-1.39-1.01-2.55-2.21-3.31C99.84,178.79,98.52,178.13,97.06,177.33z"/>
				<path class="st0" d="M97.12,232.88c0.02,0.04,0.06,0.07,0.09,0.11c-0.06,0.03-0.11,0.07-0.17,0.1
					c-0.03-0.12-0.06-0.25-0.09-0.37c0.05,0.06,0.09,0.1,0.14,0.14C97.1,232.87,97.1,232.87,97.12,232.88z"/>
				<path class="st0" d="M96.94,232.69c0.05,0.06,0.1,0.11,0.15,0.17c-0.05-0.04-0.09-0.08-0.14-0.14l-0.01-0.01
					C96.94,232.7,96.94,232.7,96.94,232.69z"/>
				<path class="st0" d="M96.94,232.69c0,0.01,0,0.01,0,0.02c-0.02-0.03-0.05-0.07-0.08-0.11
					C96.89,232.63,96.91,232.66,96.94,232.69z"/>
				<path class="st0" d="M96.94,232.69c-0.03-0.03-0.05-0.06-0.08-0.09l0.06,0.01C96.93,232.64,96.93,232.66,96.94,232.69z"/>
				<path class="st0" d="M56.41,309.38c-1.55-2.07-3.49-3.73-5.6-5.21c-0.64-0.44-1.26-0.91-2.25-1.63
					c1.87-0.36,3.36-0.28,4.79-0.06c7.12,1.1,14.23,2.09,21.46,1.9c0.05,0,0.1,0.08,0.27,0.22c-0.31,0.34-0.68,0.64-0.92,1.02
					c-0.74,1.13-1.48,2.27-2.11,3.46c-0.64,1.22-0.53,2.36,0.33,3.56c2.27,3.19,4.41,6.48,6.6,9.72c2.78,4.11,5.55,8.21,8.34,12.32
					c0.35,0.51,0.74,0.98,1.3,1.71c5.34-8.31,10.43-16.48,15.51-24.51c-1.1-3.15-1.73-4.07-5.2-7.53c1.06-0.06,1.97-0.12,2.87-0.17
					c1.28,0.5,2.56,1,3.97,1.55c0.05-0.64,0.09-1.09,0.12-1.54c4.59-0.44,9.17-0.87,13.76-1.33c1.1-0.11,2.2-0.34,3.3-0.42
					c0.84-0.07,1.7,0,2.54,0.01c-0.11,0.19-0.22,0.39-0.4,0.74c3.32,0.51,6.7,0.74,9.24,3.28c3.04-2.93,6.73-3.28,10.77-3.64
					c-0.62,1.02-1.09,1.75-1.52,2.5c-1.15,2-1.32,3.98-0.21,6.14c2.48,4.83,4.83,9.73,7.24,14.6c1.23,2.49,1.75,3.04,4.43,4.83
					c2.1-1.26,3.63-2.97,4.75-5.21c2.35-4.72,4.8-9.39,7.39-13.99c1.42-2.53,1.19-4.68-0.6-6.82c-0.35-0.42-0.62-0.9-0.99-1.45
					c0.38-0.03,0.62-0.12,0.82-0.06c5.99,1.64,11.96,1.71,18,0.16c1.88-0.49,3.85-0.89,6.21-0.52c-5.44,3.46-9.55,7.87-13.21,12.73
					c-3.66,4.86-7.1,9.86-8.55,15.97c-1.34,1.13-2.8,2.24-4.11,3.5c-1.27,1.22-2.36,2.61-3.57,3.89c-0.52,0.55-0.84,1.08-0.82,1.89
					c0.08,3.49,1.2,10.27,4.26,14.41c-1.96,1.32-3.95,2.61-5.88,3.96c-1.92,1.34-3.27,3.21-4.57,5.54
					c-1.09-3.03-3.06-4.72-5.37-6.06c-1.99-1.17-4.05-2.23-6.01-3.31c1.1-2.45,2.35-4.84,3.25-7.35c0.92-2.55,1.38-5.24,1.52-8.12
					c-3.11-2.66-5.9-5.76-9.74-7.73c-0.24-6.4-2.81-11.94-6.3-17.1c-2.55-3.77-5.49-7.23-9.32-9.97c-2.74,2.5-3.83,5.68-4.39,9.14
					c-0.74,4.52,0.08,8.74,2.26,12.73c0.53,0.98,1.04,1.97,1.57,2.96c-0.91,1.8-1.86,3.55-2.67,5.36c-1.27,2.81-1.91,5.77-1.76,8.86
					c0.19,4.28,1.58,7.97,5.26,10.51c0.12,0.09,0.23,0.22,0.33,0.34c0.05,0.06,0.07,0.14,0.15,0.31c-4.49,2.11-8.68,4.67-12.03,8.76
					c-1.25-2.2-2.82-3.96-4.8-5.27c-1.99-1.32-4.08-2.49-6.24-3.8c1.74-1.67,2.97-3.91,3.38-6.46c0.45-2.84,0.78-5.7,0.93-8.57
					c0.22-4.15,0.23-8.31,0.32-12.47c0.01-0.23-0.07-0.46-0.1-0.68c-0.11-0.01-0.19-0.03-0.27-0.03c-0.07,0.01-0.15,0.02-0.2,0.06
					c-0.11,0.12-0.22,0.24-0.31,0.37c-5.7,8.5-11.4,17-17.1,25.49c-0.04,0.06-0.13,0.09-0.24,0.16c-0.85,0.23-1.49-0.13-1.98-0.87
					c-0.3-0.47-0.62-0.93-0.93-1.4c-4.33-6.53-8.66-13.05-13-19.58c-0.42-0.64-0.9-1.26-1.56-2.19c-0.14,0.9-0.27,1.42-0.28,1.95
					c-0.09,4.96-0.21,9.91-0.2,14.87c0,1.67,0.25,3.35,0.56,4.99c0.48,2.55,1.51,4.88,3.16,6.91c0.54,0.67,1.08,1.35,1.85,2.32
					c-4.77-0.52-8.41-2.71-12.12-5.24c-4.26,5.62-10.07,8.68-17.31,10.41c0.98-0.89,1.57-1.42,2.15-1.95
					c4.5-4.12,7.95-8.96,10.05-14.71c1.52-4.16,1.89-8.44,0.57-12.7c-0.6-1.96-1.69-3.76-2.68-5.89c0.35-0.61,0.87-1.5,1.38-2.39
					c1.39-2.45,2.47-5,2.98-7.79C59.64,315.9,58.73,312.47,56.41,309.38z"/>
				<path class="st0" d="M62.04,371.89c1.5-0.84,2.96-1.77,4.53-2.49c1.53-0.71,3.21-0.9,5.12-0.8c-0.29,0.54-0.5,1-0.76,1.42
					c-1.14,1.82-1.56,3.76-1.43,5.94c0.48,8.14,0.85,16.29,1.25,24.43c0.19,3.84,0.44,7.67,0.52,11.51
					c0.04,1.49,0.45,2.62,1.69,3.46c0.52,0.35,0.97,0.81,1.57,1.31c0.38-0.44,0.76-0.83,1.08-1.26c1.86-2.5,3.69-5.02,5.58-7.51
					c0.6-0.79,0.93-1.61,0.95-2.63c0.12-5.6,0.3-11.19,0.43-16.79c0.02-0.88-0.08-1.76-0.11-2.64c-0.09-2.41-0.87-4.53-2.61-6.26
					c-0.21-0.21-0.36-0.48-0.64-0.86c2.13-1.51,4.36-2.85,5.83-4.97c1.39-2.01,2.6-4.14,3.98-6.36c2.11,4.45,4.57,8.71,9.1,11.16
					c-0.15,0.34-0.17,0.52-0.27,0.61c-2.55,2.19-3.5,5.08-3.63,8.32c-0.25,6.07-0.49,12.14-0.67,18.22
					c-0.02,0.65,0.26,1.42,0.65,1.96c2.14,2.98,4.36,5.92,6.62,8.97c1.22-0.52,2.08-1.47,2.98-2.31c0.31-0.29,0.46-0.83,0.52-1.27
					c0.68-5.56,1.32-11.12,1.98-16.67c0.7-5.88,1.41-11.75,2.12-17.62c0.18-1.43,0.42-2.84,0.6-4.27c0.24-1.91-0.33-3.49-2.14-5.86
					c8.16,1.83,16.16,0.38,24.25-0.04c-1.06,0.52-2.02,1.1-2.89,1.75c-3.79,2.81-5.96,6.81-7.22,11.47
					c-0.77,2.86-1.25,5.75-0.27,8.83c0.07-0.03,0.14-0.06,0.21-0.08l0.27,0.73c-0.04,1.72-0.04,1.72,1.41,4.69
					c-0.32,0.43-0.69,0.94-1.07,1.43c-3.18,4.11-4.49,8.76-3.99,13.93c0.17,1.75,0.42,3.49,0.63,5.23c0.06,0.55,0.08,1.1,0.13,1.7
					c-6.15,3.21-12.27,6.29-17.73,10.75c-4.94-4.75-9.16-10.06-13.27-15.74c-4.31,5.3-8.55,10.53-12.88,15.86
					c-5.32-4.86-11.72-7.44-17.97-10.52c0.28-1.55,0.68-3.01,0.8-4.5c0.24-2.94,0.5-5.9,0.44-8.85c-0.16-8.89-1.03-17.71-3.28-26.34
					c-0.37-1.39-0.85-2.75-1.37-4.09c-0.91-2.36-2.01-4.61-4.15-6.25C53.58,368.65,58.26,368.36,62.04,371.89z"/>
				<path class="st0" d="M69.59,166.03c0,0.06,0,0.12,0,0.18c-0.07-0.05-0.14-0.09-0.21-0.13
					C69.45,166.06,69.52,166.04,69.59,166.03z"/>
				<path class="st0" d="M69.33,166.05c0.02,0.01,0.03,0.02,0.05,0.03c-0.03,0.01-0.07,0.01-0.1,0.02
					C69.3,166.08,69.32,166.07,69.33,166.05z"/>
				<path class="st0" d="M69.32,166.04c0,0,0.01,0,0.01,0.01c-0.01,0.02-0.03,0.03-0.05,0.05L69.32,166.04z"/>
				<path class="st0" d="M73.12,140.67c2.24,2.31,4.4,4.52,6.67,6.87c2.4-2.48,4.72-4.86,7.1-7.32c-2.09-5.99-4.13-11.84-6.33-18.16
					C77.95,128.6,75.53,134.64,73.12,140.67z M48.5,131.98c3.82-1.38,7.66-1.45,11.48-0.01c1.27,0.48,2.53,0.99,3.95,1.54
					c0.24-0.46,0.53-0.91,0.72-1.4c1.54-3.94,3.08-7.88,4.58-11.83c0.34-0.89,0.61-1.82,0.81-2.75c0.5-2.34-0.32-3.59-2.73-3.74
					c-2.14-0.13-4.31,0.05-6.46,0.16c-1.26,0.07-2.52,0.3-3.92,0.12c0.34-0.23,0.65-0.52,1.02-0.69c3.79-1.79,7.81-2.86,11.93-3.44
					c2.75-0.4,5.56-0.49,8.35-0.57c2.09-0.06,4.11,0.34,5.96,1.48c0.53,0.33,1.39,0.35,2.05,0.23c2.82-0.51,5.63-1.13,8.44-1.72
					c0.44-0.09,0.87-0.23,1.59-0.42c-2.49,3.91-2.76,7.89-2.08,12.02c0.69,4.12,1.87,8.08,3.85,11.78c0.34,0.63,0.62,1.35,1.11,1.84
					c1.15,1.14,1.49,2.47,1.64,4.04c0.65,6.71,3.56,12.53,7.31,17.99c0.99,1.43,2.11,2.77,3.33,4.35c0.38-0.65,0.65-1.03,0.81-1.44
					c1.64-4.15,2.36-8.46,2.12-12.91c-0.21-3.77-1.23-7.24-4.42-9.8c0.53-0.91,1-1.72,1.49-2.53c2.85-4.73,3.48-9.89,2.95-15.26
					c-0.25-2.47-1.49-4.35-3.72-5.51c-1.07-0.56-2.14-1.08-3.19-1.66c-0.32-0.17-0.58-0.44-1.17-0.91c7.05,0.74,13.62,0,20.19-0.9
					c2.77-0.39,5.57-0.49,8.36-0.67c0.83-0.05,1.67,0.07,2.86,0.13c-5.79,2.48-8.65,6.85-10.01,12.38c-0.19,0.77-0.28,1.58-0.3,2.37
					c-0.16,6.32-0.37,12.64-0.38,18.95c0,2.78,0.31,5.59,0.73,8.34c0.24,1.62,0.99,3.16,1.58,4.97c-0.94,0.4-2.1,0.88-3.24,1.38
					c-1.18,0.53-2.24,1.21-2.94,2.43c0.18,1.04,0.94,1.55,1.8,2.01c3.64,1.92,7.44,3.42,11.35,4.62c1.19,0.38,2.4,0.72,3.62,1.04
					c5.11,1.34,10.16,0.74,15.2-0.22c1.81-0.35,3.63-0.66,5.45-1c3.05-0.55,6.09-1.16,9.07-2.08c0.35-0.11,0.82,0.13,1.54,0.27
					c-0.52,0.56-0.77,0.95-1.11,1.19c-4.57,3.21-9.6,5.36-15.04,6.58c-2.65,0.59-5.28,1.23-7.93,1.81
					c-4.6,1.02-9.08,0.26-13.47-1.11c-2.05-0.63-4.02-1.54-6.01-2.36c-0.88-0.36-1.76-0.77-2.59-1.24
					c-5.91-3.31-12.17-3.3-18.57-1.96c-0.07,0.02-0.15-0.04-0.34-0.11c0.97-0.86,1.91-1.69,3.1-2.74c-3.15-1.37-6.01-2.61-8.84-3.84
					c-5.24,3.36-5.6,3.52-8.61,3.79c2.09-3.64,1.37-7.23,0.11-10.82c-0.77-2.16-1.55-4.32-2.42-6.74
					c-3.89,3.87-6.86,8.09-9.92,12.56c-3.31-3.8-5.97-7.98-9.43-11.86c-1.39,3.28-2.77,6.27-2.8,9.7c-0.02,2.54,0.46,4.92,1.76,7.12
					c0.19,0.32,0.73,0.65,0.26,1.12c0-0.01-0.01-0.01-0.01-0.01c-2.07-0.18-3.75-1.26-5.39-2.39c-1.17-0.82-2.3-1.71-3.53-2.64
					c-4.39,3.44-9.33,5.26-15.33,5.41c0.5-0.29,0.69-0.4,0.89-0.51c2.54-1.35,4.4-3.43,6.06-5.7c2.22-3.05,4.08-6.31,5.52-9.79
					c1.49-3.61,2.84-7.27,4.3-11.03c-4.31-3.43-8.51-6.73-14.71-6.56C47.77,132.42,48.11,132.12,48.5,131.98z"/>
				<path class="st0" d="M46.66,105.53c4.65-4.3,8.24-9.32,10.42-15.3c1.48-4.07,1.94-8.25,0.78-12.47c-0.4-1.45-1.1-2.81-1.7-4.19
					c-0.26-0.58-0.64-1.09-0.99-1.69c0.52-0.87,1.02-1.67,1.48-2.5c1.5-2.66,2.74-5.4,3.18-8.46c0.55-3.89-0.39-7.33-2.97-10.24
					c-1.37-1.54-3.01-2.84-4.57-4.22c-0.59-0.52-1.28-0.93-2.21-1.6c0.69-0.15,1.1-0.33,1.5-0.3c1.98,0.14,3.98,0.27,5.96,0.52
					c5.94,0.77,11.86,1.67,18.41,1.4c-1.03,0.61-1.68,0.88-2.18,1.33c-0.82,0.73-1.61,1.52-2.29,2.39c-0.62,0.8-0.63,1.7-0.17,2.69
					c5.37,11.8,11.45,23.19,19.18,33.65c0.5,0.67,1.05,1.31,1.93,2.39c0.09-1.03,0.18-1.54,0.17-2.04
					C92.55,76.1,92.4,65.3,92.5,54.51c0.03-3.48-0.84-6.12-4.14-7.55c0.02-0.15,0.01-0.24,0.04-0.31c0.02-0.05,0.11-0.1,0.16-0.1
					c8.1,0.25,16.05-1.4,24.66-2.15c-0.74,0.68-1.05,0.96-1.36,1.25c-0.3,0.26-0.64,0.5-0.89,0.8c-1.59,1.89-3.24,3.74-4.72,5.71
					c-2.57,3.43-3.09,7.35-2.07,11.4c0.54,2.14,1.55,4.17,2.4,6.23c0.3,0.74,0.73,1.41,1.13,2.17c-1.62,3.39-2.92,6.9-3.81,10.55
					c-1.56,6.47-1.43,12.99-0.34,19.51c0.43,2.6,0.84,5.21,1.23,7.82c0.05,0.31,0.03,0.62,0.02,1.07c-0.01,0.11-0.01,0.22-0.01,0.35
					c-1.59-0.78-3.04-1.43-4.43-2.18c-1.04-0.56-2.05-1.15-3.04-1.77c-6.57-4.13-12.02-9.53-16.88-15.61c-3.5-4.38-6.49-9.1-9.22-14
					c-0.5-0.89-1.01-1.78-1.52-2.68c-0.7,0.27-0.42,0.83-0.44,1.22c-0.16,3.03-0.35,6.06-0.38,9.1c-0.02,1.91,0.17,3.83,0.34,5.74
					c0.33,3.61,1.67,6.8,4.01,9.57c0.35,0.42,0.65,0.87,1.2,1.61c-4.72-0.69-8.41-2.77-11.95-5.43c-1.25,1.28-2.38,2.6-3.69,3.72
					c-1.33,1.14-2.77,2.17-4.27,3.06c-1.44,0.85-2.99,1.52-4.55,2.15c-1.59,0.64-3.25,1.13-5.05,1.39
					C45.51,106.61,46.08,106.07,46.66,105.53z"/>
				<path class="st0" d="M50.84,174.56c9.58,0.81,19.18,0.77,28.77,0.56c3.76-0.08,7.5-0.47,11.25-0.74
					c2.22-0.16,4.43-0.27,6.78-0.02c-0.07,0.61-0.12,1.07-0.19,1.58c0.08,0.04,0.17,0.1,0.27,0.16l-0.66,1.23
					c-0.03-0.02-0.06-0.03-0.09-0.05c-1.54,5.29-2.13,10.5-3.11,15.82c-0.61-0.18-1.08-0.22-1.44-0.44
					c-2.29-1.47-3.96-3.46-4.86-6.05c-0.39-1.13-0.74-2.27-1.12-3.45c-1.3-0.89-2.83-1.08-4.33-1.11
					c-3.68-0.07-7.35-0.02-11.08-0.02c-0.88,2.1-0.95,4.27-1.17,6.39c-0.9,8.44-1.2,16.91-0.98,25.39c0.07,2.79,0.27,5.58,0.42,8.56
					c5.07,0.42,9.98,0.83,14.87,1.25c1.02-1.96,1.83-3.97,3.03-5.72c1.21-1.77,2.73-3.33,4.22-4.88c1.48-1.54,2.91-3.14,5.07-4.5
					c-0.11,2.25-0.28,4.18-0.29,6.1c-0.02,2.08-0.01,4.17,0.18,6.23c0.18,1.98,0.62,3.93,0.97,6.04c-0.46,0.14-0.96,0.38-1.48,0.44
					c-3.82,0.42-7.3,1.83-10.41,4c-1.61,1.12-3.07,1.14-4.88,0.72c-7.88-1.82-15.88-2.88-23.97-3.07c-1.75-0.04-3.5,0.23-5.25,0.35
					c-0.45,0.03-0.9,0.06-1.64,0.11c2.78-2.59,3.86-5.77,4.63-9.03c0.87-3.66,1.28-7.39,0.62-11.18c-0.5-2.88-0.97-4.3-2.63-6.85
					c0.85-1.41,1.82-2.77,2.54-4.25c1.13-2.32,1.69-4.86,1.83-7.41c0.17-3.18,0.04-6.38,0.04-9.62c-3.04-1.36-5.66-3.2-7.46-6.46
					C49.98,174.6,50.41,174.52,50.84,174.56z"/>
				<path class="st0" d="M49.02,239.54c1.28-0.62,2.39-0.45,3.48-0.32c3.49,0.42,6.97,0.95,10.46,1.27
					c3.74,0.35,7.49,0.51,11.24,0.76c0.36,0.02,0.73,0.06,1.18,0.11c-1.17,0.85-2.28,1.49-3.18,2.36c-1.63,1.58-1.72,2.6-0.73,4.69
					c5.44,11.51,11.6,22.59,19.34,32.74c0.67,0.89,1.38,1.76,2.08,2.63c0.03,0.04,0.14,0,0.43,0c0-0.65,0-1.32,0-2
					c-0.07-11.11-0.17-22.23-0.19-33.34c-0.01-2.83-1.05-4.95-3.54-6.31c-0.32-0.18-0.62-0.37-0.86-0.88c0.53,0,1.06-0.01,1.59,0
					c5.93,0.03,11.8-0.7,17.67-1.49c1.44-0.19,2.9-0.37,4.34-0.52l0.33,2.93c-5.79,2.91-9.17,9.92-7.53,16.33
					c0.56,2.22,1.61,4.32,2.48,6.46c0.3,0.73,0.74,1.41,1.04,1.96c-1.11,2.98-2.27,5.78-3.22,8.65c-2,6.04-2.21,12.26-1.42,18.5
					c0.44,3.4,1.24,6.75,1.88,10.12c-0.03,0.45-0.07,0.9-0.12,1.54c-1.41-0.55-2.69-1.05-3.97-1.55c-0.67-0.43-1.32-0.89-2.01-1.28
					c-7.24-4-13.18-9.54-18.48-15.81c-3.63-4.28-6.75-8.92-9.6-13.74c-0.64-1.1-1.29-2.19-2.2-3.71c-0.09,0.83-0.18,1.23-0.18,1.63
					c-0.02,4-0.09,7.99-0.01,11.99c0.04,1.66,0.31,3.34,0.67,4.97c0.55,2.54,1.73,4.8,3.42,6.79c0.51,0.6,1,1.21,1.71,2.06
					c-4.75-0.64-8.55-2.68-12.19-5.26c-1.62,1.53-3.1,3.2-4.86,4.5c-1.85,1.36-3.91,2.48-5.99,3.48c-1.21,0.59-2.47,1.09-3.9,1.52
					c-0.9,0.27-1.88,0.5-2.95,0.7c0.81-0.77,1.26-1.23,1.73-1.65c4.52-4.09,8-8.9,10.13-14.64c1.51-4.07,1.97-8.24,0.76-12.46
					c-0.43-1.51-1.18-2.94-1.85-4.38c-0.3-0.64-0.75-1.21-1.1-1.78c0.9-1.68,1.81-3.28,2.63-4.92c1.13-2.23,1.83-4.61,1.99-7.1
					c0.2-3.24-0.71-6.16-2.69-8.74c-1.63-2.11-3.61-3.83-5.79-5.35C50.41,240.56,49.8,240.11,49.02,239.54z"/>
			</g>
		</g>
	</g>
</g>
</svg>
